<svg xmlns="http://www.w3.org/2000/svg" width="60" height="60" viewBox="0 0 60 60">
  <defs>
    <style>
      .cls-1 {
        fill: #ff8080;
      }
    </style>
  </defs>
  <g id="Group_4411" data-name="Group 4411" transform="translate(-996.298 -59)">
    <path id="Ellipse_114" data-name="Ellipse 114" class="cls-1" d="M30,3A27.008,27.008,0,0,0,19.491,54.879,27.008,27.008,0,0,0,40.509,5.121,26.828,26.828,0,0,0,30,3m0-3A30,30,0,1,1,0,30,30,30,0,0,1,30,0Z" transform="translate(996.298 59)"/>
    <path id="Path_711" data-name="Path 711" class="cls-1" d="M1.456,0H3.824V-5.12H8.3V0h2.352V-11.84H8.3v4.656H3.824V-11.84H1.456ZM15.792-4.88l.352-1.3c.352-1.232.7-2.576,1.008-3.872h.064c.352,1.28.672,2.64,1.04,3.872l.352,1.3ZM19.952,0h2.48L18.624-11.84H15.84L12.048,0h2.4l.832-3.04h3.84Zm6.24-9.968h1.536c1.52,0,2.352.432,2.352,1.712,0,1.264-.832,1.9-2.352,1.9H26.192ZM32.912,0,30.144-4.848A3.389,3.389,0,0,0,32.4-8.256c0-2.72-1.968-3.584-4.448-3.584H23.824V0h2.368V-4.48H27.84L30.272,0Zm1.824,0h3.376C41.6,0,43.84-1.984,43.84-5.968c0-4-2.24-5.872-5.856-5.872H34.736ZM37.1-1.9V-9.952h.736c2.208,0,3.584,1.088,3.584,3.984,0,2.88-1.376,4.064-3.584,4.064Z" transform="translate(1005.923 100.238) rotate(-11)"/>
  </g>
</svg>
