<svg xmlns="http://www.w3.org/2000/svg" width="720" height="734.565" viewBox="0 0 720 734.565">
  <path id="wood" d="M306.522,81.449C302.637,70.488,301.6,16.4,300.29,0H308.4a15.167,15.167,0,0,1,.987,6.517c-1.053,17.094-.528,55.442.413,59.751,3.429,15.7,2.176,17.236,18.006-2.342C329.98,62.55,332.945,21.951,336.045,0h6.084c-.726,24.718-11.28,83.412-15.207,99.885-1.71,4.755-4.257,12.591-10.158,11.333-6.935-7.976-6.37-20.062-10.24-29.769ZM77.215,677.845c14.734,7.268,14.857-30.476,15.161-46.9.159-8.627-4.461,38.4-12.2,34.585-13.179-6.5-23.062-66.808-23.333-52.114-.263,14.266,6.035,22.365,11.306,36.211,3.05,8.012,1.662,24.569,9.066,28.221M107.5,310.223c.024,5.808-8.632,63.792-14.673,97.593C90.279,422.1,87.078,439.079,73.2,448.11c-4.667,3.038-3.267-5.428-3.121-6.124.769-3.62,11.693-11.313,12.553-14.912.087-.363,4.814-8.016,6.509-17.268,4.615-25.163,13.1-71.8,14.173-77.906,1.594-9.113,3.382-20.311,3.735-21.79.336-1.4.445-1.327.451.113m-.948-108.255c.036,8.31-17.5,116.293-20.122,120.706-.936,1.578-2.407.687-2.139-.434.863-3.6.084-1.127.946-4.727.324-1.353,15.668-85.522,17.129-93.871,1.594-9.112,3.382-20.311,3.735-21.788.336-1.405.445-1.328.451.113M94.712,94.9c.038,8.311-4.238,38.121-6.856,42.535-.937,1.579-2.408.687-2.139-.434.863-3.6.083-1.127.946-4.726a137.3,137.3,0,0,0,3.863-15.7c1.594-9.114,2.583-20.637,2.936-22.115.337-1.4,1.244-1,1.25.438m611.423-5.651c1.857,29.444,4.037,58.915,2.893,88.087-.355,9.068,2.759,78.282,1.65,87.28-.609,4.951-1.907,10.691-1.907,0,0-19.325-1.822-83.439-1.363-86.547,1.028-6.967-.861-60.62-2.426-89.887-.453-8.454.619-7.378,1.153,1.066M565.686,456.139c-.622,8.111-2.492,12.792-4.76,12.792s-2.775-10.011-2.154-18.122,1.663-9.357,3.932-9.357,3.6,6.576,2.982,14.687M573.6,334.773c7.271,15.985,9.914,34.607,13.6,53.384,3.6,18.317.711,41.063-1.6,59.8-.609,4.947-1.907,10.692-1.907,0,0-19.324,1.878-23.284,2.426-26.377.434-2.445,1.856-23.1-.4-33.534-4.164-19.3-7.1-39.373-13.4-53.038-3.544-7.686-2.232-7.936,1.27-.238M498.151,193c2.434,38.6,5.426,77.246.755,115.2-.61,4.949-1.907,10.692-1.907,0,0-19.325,1.967-23.27,2.426-26.378,1.028-6.968-.861-60.621-2.426-89.887-.453-8.454.619-7.378,1.152,1.066m-104.7-3.316c.132,20.24,2.754,42.849,2.886,63.089.119,18.158-2.25,33.95-2.131,52.11.023,3.517-.429,6.4-.953,6.4s-.953-2.878-.953-6.4c0-21.687-.158-6.575-.158-28.262,0-17.068.158-70.935.158-88,0-8.466,1.1-7.393,1.152,1.066M342.019,55.1c.038,8.31-4.238,38.12-6.856,42.535-.937,1.578-2.408.687-2.14-.434.863-3.6.084-1.128.946-4.726a137.148,137.148,0,0,0,3.863-15.7c1.6-9.114,2.584-20.638,2.937-22.116.337-1.4,1.244-1,1.25.439m15.9,89.385q-1.666,8.6-3.331,17.2a1,1,0,0,1-1.181.753.935.935,0,0,1-.726-1.141c.769-3.209.074-1,.843-4.213.606-2.526,2.675-10.465,3.281-12.991.3-1.252,1.358-.872,1.114.391m-15.1,53.432.073,8.583a252.708,252.708,0,0,1,7.535-26.658,26.863,26.863,0,0,1,5.1-8.863c-1.486,8.862-5.353,16.929-7.531,25.568-3.516,13.486-4.515,27.512-7.207,41.172-5.586,28.678-6.648,47.6-9.594,75.116-.887,8.045.032,16.756-3.806,24.049A12.1,12.1,0,0,1,315.4,343.6a23.032,23.032,0,0,1-13.077-21.739c-1.066-9.586,4.758-18.873,1.806-28.332-3.065-10.985-10.383-19.888-13.351-30.959-4.6-13.817-3.869-28.787-7.289-42.918-4.5-18.784-7.127-38.005-9.82-57.176-1.211-14.116-4.176-28.124-3.434-42.34,3.176,9.127,3.127,18.992,4.482,28.506,1.161,10.022,4.241,19.641,5.192,29.7,1.081,10.9,2.5,21.776,5.45,32.286,3.983,14.043,3.9,29.47,10.949,42.375,3.01,6.444,1.907,6.2,2.746,8.326,1.5,3.8,3.232,4.236,3.232-13.769,0-1.88,1.634-1.642,1.717.236q.562,12.792,1.125,25.584a1.309,1.309,0,0,1-.087.527c2.651,4.89,5.78,8.628,9.48,8.757,5.839-.823,8.651-19.393,11.278-24.535,3.143-6.928,8.676-12.54,10.354-20.236s3.22-15.419,4.887-23.124c.061-2.31-.139-.587-.031-3.631.091-2.595.544-10.787.636-13.383.045-1.286,1.159-1.124,1.171.163M100.21,734.564h8.747c-.661-11.211-2.645-22.561-.693-33.755a260.711,260.711,0,0,1,6.66-29.663c1.725,21.232-5.759,42.324-1.6,63.417h5.033c.129-15.653-.839-31.446,2.047-46.908,2.887-14.639-1.29-29.365-.387-44.091,1.494-21.5,3.082-43.06,3.169-64.617.02-5.007,2.751-24.369,4.55-39.46a181.338,181.338,0,0,0-.1-27.93c-1.216-13.728-3.974-25.317-4.058-26.821-.8,1.41,1.113,12.677,2.08,25.981.837,11.509.79,25.081-.165,28.629-4.308,16-10.68,36.8-11.553,43.179-2.258,16.721-9.87,31.971-11.546,48.831-2,12.716-3.338,25.518-4.854,38.3-1.419,9.024-6.03,17.367-5.58,26.741.468,12.716.678,25.431.741,38.163h7.508ZM97.436,719.1c-1.217-10.506-3.408-17.38-1.072-27.716,2.32-10.248,1.87-21.057,5.1-31.1,4.386-13.748,2.562-28.612,5.9-42.587,2.645-10.965,6.611-21.477,10.61-31.919-1.145,27.9-2.111,56.089-8.174,83.338-2.37,11.858-5.821,23.419-7.853,35.347-1.029,6.049-1.011,12.219-1.337,18.344-.368,6.9.138,9-.744,9s-1.64-5.924-2.426-12.71M5.58,47.185C4.321,31.48,3.936,15.7,2.661,0h6.16c-.112,25.777.1,51.574-.483,77.336C5.789,67.544,6.709,57.224,5.58,47.185M541.768,123.3c-3.6-10.077-5.887-20.712-8.032-31.273-2.272-16.947-3.16-34.088-4.883-51.106C527.482,27.317,525.581,13.345,526.69,0h4.644c1.58,27.089,3.144,54.2,7.612,80.925,2.6,17.489,16.485,15.787,20.4-8.8,1.272-12.222,7.435-22.772,12.047-33.753C576.71,25.937,579.966,12.747,584.579,0h4.5c-3.677,17.7-10.448,34-15.56,51.193-7.321,20.428-10.385,42.183-15.9,63.188-1.339,4.494-1.922,20.945-5.471,23.99-3.306,2.223-9.219-10.751-10.38-15.068M308.745,150.53a162.529,162.529,0,0,1-16.561-52.1c-1.176-11.161-.128-22.614-2.885-33.578-2.273-9.22-11.07-18.161-11.908-27.673C276.037,24.655,281.05,15.293,276.883,0h10.71c-.823,11.092-1.176,19.112-1.16,28.486,0,13.609,7.446,26.048,9.735,39.266,2.82,14.17,3.046,28.912,7.417,42.691,3,10.006,11.14,33.107,16.833,41.555,2.062-4.49,7.363-10.21,9.206-18.432,1.009-4.5-2.068-13-.193-14.9,4.677-5,9.515-10.443,10.918-17.684,3-14.235,11.109-31.214,11.094-45.957-.516-19.381.872-39.953-.579-55.026h2.8c1.447,28.352,1.324,57.993-3.917,86.451-1.805,9.67-2.015,19.6-3.869,29.24-2.033,10.477-8.626,18.873-11.724,28.9-1.483,3.6-2.144,7.939-4.933,10.668-6.467,4.216-16.834,3.269-20.48-4.724M701.227,177.01c-.865-40.252-3.761-80.832-4.078-121.063-.6-18.641.692-37.286.548-55.947h2.677c-2,42.355,3.8,89.624,3.353,132.939-.193,14.709.273,29.592-2.5,44.071M543.09,201.428a106.027,106.027,0,0,1-.666-17.82c.072-1.822-2.53-23.435-5.413-42.341-2.765-18.129-5.827-33.62-5.3-33.772.639-.182,5.118,14.516,8.225,33.081,3.121,18.646,4.871,41.166,4.74,43.042-.437,6.328,1.02,12.06-1.591,17.81M57.157,206.914c-2.664-18.723-2.862-45.175-4.911-58.166-1.969-12.592-.84-25.586-3.725-38.041-1.258-5.6-2.759-11.176-3.5-16.912C41.571,62.717,38.232,31.3,40.99,0h3.45c-1.354,37.706-.047,75.869,8.45,112.6,2.176,12.244,1.693,24.818,3.355,37.133,1.481,10.824,2.4,21.739,3.789,32.581,1.29,7.593,2.419,16.127,8.3,21.305,6.387-5.644,14.576-39.814,16.207-47.939.4-13.908,7.873-10.552,9.6-24.23,3.015-22.249,4.285-60.633,7.9-82.772a137.5,137.5,0,0,0,1.951-31.4c-3.192-25.216-5.21-11.14-7.272.963-.6,12.12-.822,24.362-3.87,36.134-4.419,17.434-4.155,51.958-11.379,68.45-9.643,21.2-12.545,34.063-19.461,1.8-2.324-10.79-8.247-37.214-8.973-48.388-.628-8.8-1.386-17.613-3.449-26.182C44.957,33.647,49.371,15.572,49.2,0h8c.292,17.785-.243,35.031.129,52.554.29,10.845,3,38.123,7.454,48.006,1.194,2.028,2,5.806,4.934,4.5,3.982-4.024,6.886-9.114,9.981-13.94,7.934-12.172,6.269-43.79,10.155-57.642C92.912,22.632,92.387,11.437,92.7,0h16.255c1.1,11.256-.129,22.457.017,33.754-2.324,15.18-5.983,30.118-7.951,45.387-4.16,20.164-2.171,57.306-8.154,77.055-5.692,19.8-5.342,25.871-15.421,44.146-7.312,14.588-14.253,49.04-20.292,6.573M305.311,222.2c-4.933-11.912-10.335-23.786-12.819-36.656-2.05-10.459-5.192-20.64-6.951-31.167-2.9-18.157-9.367-35.4-11.577-53.713-3.242-24.011-9.336-47.5-11.32-71.708-1.1-9.722-4.174-17.832-5.034-28.961h6.4c2,9.667,3.676,19.379,4.773,29.241,1.58,14.412,5.8,28.247,9.658,42.081,5.628,19.956,5.079,41.05,7.708,61.529,1.757,14.937,10.029,27.7,12.319,42.5,1.483,9.6,5.515,19.851,13.917,24.447,16.673,1.283,13.443-12.449,20.06-20.147,9.11-10.354,11.109-25.062,17.156-37.356,6.271-14.971,6.772-31.672,7.466-47.817.32-12.854,1.9-25.656,1.53-38.531-2.038-18.837-1.843-44.427-.1-55.946h5.175c-3.916,36.566,2.93,68.516-3.515,101.4-3.339,14.288-2.74,29.592-8.546,43.165a224.513,224.513,0,0,0-8.611,23.962c-2.613,8.831-9.11,15.826-10.481,25.169-1.194,5.8-.919,12.557-5.274,16.914-4.176,4.283-4.5,10.718-6.288,16.28-1.032,3.535-3.823,5.947-6.016,8.622-4.531-3.163-7.561-8.027-9.642-13.308m210.4,21.2c-5.516-40.783-11.672-116.536-10.127-155.956.532-15.812,1.308-28.219-.625-43.84C503.214,30.248,500.68,13.448,500.439,0h3.338c2.5,21.18,3.307,42.517,5.79,63.7,1.547,13.22-1.79,26.355-.824,39.561,2.068,32.122,5.449,63.485,6.9,95.912.627,14.71,4.595,29.8.064,44.234M4.419,221.957c-1.018-9.827-.565-19.708-.5-29.57.192-21.688.128-43.377.595-65.064.226-9.9-.934-19.816-.1-29.7,1.885,5.722.71,11.911,1.339,17.824,1.708,18.012,1.546,36.149,3.03,54.18-.08,21.026,1.066,42,1.145,63-.34,16.458.839,32.845,1.9,49.231-7.017-19.062-5.129-39.946-7.418-59.9m51.167,72.806C49.845,287.924,48.2,264.2,46,255.382c-2.87-13.729-4.161-27.792-5.514-41.783-4.643-40.887-8.3-96.839-7.58-138.393.29-14.607-1.725-29.176-.483-43.78.789-10.439.792-21.4.69-31.426h1.608c-.034,21.127,1.8,42.289.508,63.38-2.439,38.1,3.648,110.76,8.418,148.767C45.5,226.887,46.679,282.9,70.934,275.7c6.273-4.317,8.208-12.8,11-19.8a325.8,325.8,0,0,0,18.913-87.936c2.146-18.12,3.6-36.36,6.242-54.409,1.611-10.987,1.838-22.126,2.047-33.214.321-16.79,4.676-33,6.967-49.513C117.616,20.478,114.907,10.16,113.326,0h5.033c.092,7.352,3.337,17.469,1.742,26.163-1.63,8.883-3.854,17.68-4.193,26.777-.5,12.8-3.726,25.236-4.161,38.04-1.126,29.962-7.732,61.144-10.287,91.927-1.372,16.333-5.95,32.037-8.788,48.093-2.951,16.372-9.834,46.957-18.364,60.877-3.9,6.508-13.481,8.783-18.722,2.886m448.706,20.488c-.661-9.5.032-19,.758-28.458,2.436-36.763-3.03-73.4-2.677-110.167.081-21.214-2.659-42.289-4.385-63.4-2.708-26.584-3.256-53.345-4.9-80.015A283.658,283.658,0,0,0,492.489,0h4.371c1.143,11.034,1.516,22.089,1.984,33.176.207,35.976,2.885,71.849,4.095,107.791.79,21.79,2.677,43.549,2.418,65.375-.371,18.206,4.307,36.031,3.4,54.255-.726,18.24-1.033,36.728-4.469,54.655M278.9,318.783c-1.791-13.414-6.466-26.166-7.821-39.682-1.967-27.865-5.934-55.55-7.289-83.5,4.821,19.239,5.92,39.211,8.95,58.781,3.128,12.8,1.162,26.252,4.16,39.072,1.225,6.823,4.016,13.169,5.483,19.906,1.08,2.849-1.984,3.9-3.483,5.42m33.635,16.561c5.306,2.207,10.564-3.6,12.112-8.639.128-7.876.118-27.875-1.1-31.777-4.754-15.272-17.784,10.846-16.385,23.189.726,5.9.937,13.066,5.37,17.226M311.1,368.191c-8.37-7.975-12-20.724-21.834-27.074-3.629-2.955-9.288-5.018-9.82-10.651.307-9.182,10.788-13.605,11.337-22.6-1.951-11.088-6.241-21.547-8.676-32.548-4.177-16.057-3.87-32.9-6.144-49.3-1.306-11.929-4.74-23.434-5.885-35.38-.678-7.173-1.58-14.326-2.838-21.424-2.452-13.7-2.838-27.686-3.533-41.609-.388-9.463-2.338-18.855-1.643-28.387,3.676,11.771,2.048,24.54,5.112,36.5,2.725,22.334,4.8,44.823,9.513,66.807,4.869,21.144,4.111,43.22,8.61,64.432,2.354,9.954,8.613,18.191,10.853,28.2,2.564,9.861.709,20.129.789,30.186-.049,8.571,3.017,16.93,7.482,23.874,4.224,4.653,10.062,6.89,15.465,9.48,8.947-7.926,18.947-17.248,20.445-30.467,5.155-40.4,4.588-86.841,14.8-125.645,1.659,10.753-1.419,21.264-2.951,31.779-3.017,26.111-4,52.448-5.03,78.719-1.872,19.919-8.933,39.982-22.72,53.782-3.548,3.094-9.561,4.966-13.335,1.328m335.062,25.168c-2.165-26.2-4.178-52.417-7.016-78.527-3.224-31.256-2.437-62.758-5.352-94.023-5.7-61.161-1.306-133.042,9.837-193.524C645.371,18.31,645.008,9.214,645.984,0h1.741c-1.112,20.131-3.805,39.947-6.674,59.83-7.5,43.433-8.146,92.272-6.741,136.071.879,27.406,4.258,54.724,4.547,82.185.24,17.488,2.161,34.874,3.967,52.24,1.725,16.319,1.532,32.882,4.53,49.058,2.99,16.134,1.606,46.987-1.191,13.975m-583.3,31.575c-4.935-8.132-7.014-17.822-8.707-27.267-1.985-13.483-7.314-46.387-7.943-60.082-.694-15.5-5.562-30.258-10.821-44.53-6-16.421-7.658-34.155-8.692-51.644-.885-16.353-3.077-32.619-3.24-49.022-.307-30.888.55-61.83-1.612-92.645-.081-18.694-2.564-37.3-1.967-56.018.25-11.738.215-14.712.292-26.5.075-11.648,2.474-11.965,2.483-.105.007,10.172.207,11.6-.438,21.757-1.258,18.577,1.162,37.1,1.4,55.669,1.805,30.8,1.015,61.686,2.306,92.5.062,18.135,2.224,36.152,2.611,54.287,1.4,17.875,3.773,36.1,10.82,52.541,7.594,17.524,9.336,37.008,13,55.737,1.581,12.3,5.993,44.746,13.765,54.365,2.064,3.673,7.772,2.73,9.3-1.048,3.434-6.857,3.926-33.884,8.036-40.356,4.967-8.045,7.305-17.525,9.064-26.916C100.6,292.2,108.652,248.649,113.7,204.628c2.434-18.767,3.21-37.743,5.95-56.457,2.337-15.5,2.08-31.219,3.241-46.8,1.966-20.916,4.725-41.746,7.321-62.577,1.821-12.854-.779-26.839-.55-38.791h3.1c-.083,11.779,3.065,22.088,1.742,33.069-2.434,20.623-5.192,41.189-7.482,61.812-1.355,21.756-1.178,43.686-4.482,65.252-3.534,22.877-4.064,46.138-7.3,69.05-4.92,33.913-8.451,68.141-16.093,101.511-2.549,11.908-4.466,23.976-7.129,35.852-2.693,13.012-7.793,43.765-13.453,55.4-2.355,6.348-11.932,9.374-15.69,2.99m571.944-38.36c-1.372-31.779-2.323-63.629-6.079-95.214-1.791-36.133-6.553-72.066-8.127-108.175-2.022-46.378,3.531-89.639,10.789-135.787A252.412,252.412,0,0,0,635.969,0h5.112c-.723,19.151-5.159,37.723-7.561,56.631-5.72,44.68-11.24,90.527-8.19,135.336,1.956,28.736,5.675,57.364,5.964,86.221,2.324,32.6,4.209,65.255,4.726,97.943.291,12.051,2.983,23.768,5.9,35.329a48.694,48.694,0,0,1-5.287-11.873,45.06,45.06,0,0,1-1.823-13.014m-326.789,13.1c-3.291-.629-7.4-.244-9.627-3.515-7.451-9.795-10.078-22.439-14.029-34.1-3.369-9.707-11.658-16.423-14.5-26.357-1.678-6.49,1.774-12.3,6.435-15.987-1.324,4.428-4.289,8.957-2.661,13.747,2.514,9.6,9.852,16.16,16.124,22.914,4,4.127,5.806,9.933,9.062,14.638,3.79,3.288,8.514,4.914,12.917,7.014,4.337,1.924,9.658,4.267,13.917.733,5.271-4.336,8.143-11.106,12.318-16.543,10.012-13.363,13.385-30.782,15.738-47.379,1.643-26.234,1.419-52.575,3.838-78.759,2.194-21,1.129-42.394,5.273-63.154,1.418,11.649-.275,23.49.306,35.227.565,19.57-2.724,38.875-3.854,58.343-1.824,17.227-.306,34.648-2.322,51.875-3.08,23.679-12.511,45.859-24.815,65.516-18.641,29.654-4.351,48.551-24.123,15.793M167.778,465.24c-.483-43.723-.111-87.43-.015-131.153,2.5-40.176,3.209-80.453,3.58-120.713.821-18.645,1.66-37.288,1.177-55.967.273-37.9,1.175-77.19,2.158-115.071.34-24.737-.948-30.455.151-31.809.911-1.122,2.75-1.806,2.433,26.253-2.662,51.263-1,102.646-1.742,153.96-.631,13.414-1.193,26.828-1.565,40.243-.774,18.594.838,37.2-.112,55.793-.84,15.163-1.645,30.31-2.677,45.439-1.42,20.989.1,42.01-1.015,63-.34,30.467-.4,60.933-1.4,91.365a181.246,181.246,0,0,1-.968-21.338m382.762-6.96c-1.243-9.061-6.869-16.913-6.6-26.287-.371-9.129,4.145-17.069,7.933-24.8,3.339-6.383,3.049-13.991,5.208-20.795,1.323-1.976,4.581-4.232,6.386-1.661,14.389,15.117,9.015,19.631,10.19,36.833,2.048,22.318-5.739,44-4.787,66.32.578,4.324-3.97,30.961-11.637,6.765-3.7-11.669-5.171-24.232-6.7-36.374m14.668,9.514c4.046-11.508,5.651-23.873,3.322-35.837-1.209-11.253-2.634-28.273-5.017-28.8-4.28-.951-10.067,22.813-12.007,26.46-.107,7.034,4.634,21.647,4.527,28.366-.037,2.34.941,9.684,2.243,17.123,4.2,24,4.831,24.782,6.363.7.2-3.184-.132-5.913.57-8.007m-41,45.246c-2.271-8.815-6.157-17.525-5-26.918.111-21.529.258-43.094,1.934-64.572.209-16.352.066-32.723.55-49.076-.275-13.309,6.464-24.992,11.127-36.834,6.238-12.766,6.515-27.755,12.4-40.663,1.837-4.3,7.419-4.862,8.919-9.39,5.042-26.645,5.431-30.459,10.131-.492a84.422,84.422,0,0,0,5.8,20.937c5.272,12.366,10.223,25.044,12.529,38.514-6.259-11.35-9.8-24.523-17.8-34.7-4.244-4.391-9.484,1.836-13.433,3.9-7.209,3.991-8.774,13.136-12.191,20.288-5.466,13.015-13.577,25.449-14.19,40.193-1.065,20.865.888,41.8-.885,62.648-1.744,17.577-.97,35.278-1.05,52.924,0,7.552,2.275,14.478,5.085,21.219,11.873,28.478-2.836,7.067-3.926,2.026m31.737,30.677c-5.823-9.166-11.932-18.383-15.5-28.912-2.629-11.052-.16-22.579-1.032-33.843-1.742-25.027-2.725-50.107-4.579-75.135-.807-11.1,2.385-21.81,5.482-32.215,2.788-9.077,2.678-19.047,6.725-27.67,11.15-25.118,13.356-17.824,22.962,5.579,2.885,7.853,6.355,15.461,8.642,23.542,1.9,8.394,2.049,17.139,1.757,25.745-2.531-6.91-2.693-14.535-5.514-21.356-4.774-11.35-4.883-21.266-13.511-30.659-5.548,2.152-5.645,4.583-7.048,10.144-2.873,14.08-7.5,27.616-10.159,41.748-3.727,12.348-4.178,25.43-4.468,38.3-.1,12.155,3.275,23.856,5.129,35.731a69.74,69.74,0,0,1-.774,23.734c.6,8.763,6.352,15.635,8.627,23.857,10.035,27.007,7.625,17.139,11.788,1.486,2.868-4.372,7.143-7.73,8.87-12.942,4.142-12.034,5.194-32.222,4.566-44.778-.162-10.95-.923-14.774.98-25.513,1.918,8.168,1.532,16.633,1.741,24.992.1,14.465.372,28.963-.709,43.409-.468,11.876-5.724,23.017-12.739,31.884-2.645,3.936-7.385,3.061-11.239,2.869m-29.115-8.464c6.854-3.789,9.88,19.552-.2,9.961-3.24-3.084-1.444-9.054.2-9.961M52.842,545.2c-2.854-8.081-5.789-16.178-7.853-24.556-4.21-19.606-3.515-39.859-4.933-59.814-1.259-16.143-.129-32.409-1.678-48.534-1.306-16.439-.968-33.126-4.838-49.2-3.337-12.787-.452-26.761-5.869-38.966-5.063-11.406-4.643-24.31-6.562-36.537-5.144-36.363-5.676-73.211-6.579-109.887,1.095-27.776-.71-55.513-.936-83.289-.436-15.143-1.9-30.272-1.306-45.452C12.964,32.653,12.256,16.28,13.707,0h3.419c.193,24.5-1.45,48.972-1.822,73.436,1.5,27.966,1.984,55.949,1.984,83.951-1,48.046,2.951,96.019,9.045,143.555,1.531,11.211,6.015,21.743,6.532,33.128.467,8.831,1.128,17.664,3.273,26.218,3.869,15.686,3.79,32.021,5.95,47.989,1.612,11.769,1.033,23.716,2.677,35.486,3.627,29.471.209,60.3,10.062,88.638,1.375,3.991,11.918,31.139,20.285,15.39,4.836-8.358,6.618-13.233,10.3-22.259-.617-1.23-2.162-7.137-2.767-8.373-3.937-8.043,5.7-16.727,4.452-24.915-.679-6.646-2.113-13.328-1.079-20.042,2.53-18.015,8.222-35.26,13.172-52.609,3.629-12.488,4.322-25.622,6.21-38.477q2.948-20.62,5.579-41.294c3.708-26.043,4.918-52.38,8.207-78.474,2.225-25.624,6.709-50.949,8.258-76.658,1.53-21.985,5.32-43.706,6.965-65.674.806-22.317,1.822-44.667,4.87-66.792,2.418-17.282,2.822-34.771,2.982-52.224h4.693c.549,22.979-2.5,45.911-5.386,68.648-2.791,22.07-1.87,44.475-4.95,66.512-3.258,22.545-4.1,45.349-6.6,67.98-1.227,10.392-1.708,20.847-2.256,31.307-2.389,32.584-7.015,64.9-9.983,97.419-1.452,12.659-4.095,25.131-5.046,37.863a458.919,458.919,0,0,1-7.545,60.165c-3.6,15.776-9.466,30.764-13.723,46.313-1.6,6.891-3.037,9.8.124,16.467,4.077,1.958,4.8.252,8.879,2.246,6.126,6.33,10.766,25.64,3.525,31.551-4.338,5.247-10.772,1.732-15.948.42-2.759,9.182-3.257,18.993-6.336,28.053-4.227,13.913-23.753,4.725-28.864-9.741M89.5,510.185c.96,11.42,8.988,16.991,12.305,11.292,1.416-2.435,3.316-14-.494-19.184-8.019-10.9-11.7,7.848-11.811,7.892m471.341,61.078c-5.193-2.432-12.8-1.1-15.125-8.064-2.329-5.869-.928-11.52-2.013-17.783-.77-4.447-3.851-9.559-5.68-13.7,3.323,4.686,7.6,9.407,7.466,15.758-.049,5.177,1.113,10.285,5.3,13.309,3.016-.751,6.288-2.343,9.338-.788,3.063.648,6.707,4.128,9.513,1.172,9.222-7.536,5.436-21.512,9.337-31.848,5.884-16.841,4.82-35.118,8.029-52.556,3.6-20.726,3.935-41.957,8.225-62.56,3.545,7.625,1.03,16.352.08,24.328-4.788,27.144-6.37,54.83-11.625,81.868-1.758,10.075-.97,20.411-2.453,30.52-1.031,8.307-6.207,15.146-11.706,20.62-2.386,3.113-5.9.4-8.691-.279M344.962,573.9c-2.87-15.828,1.42-31.621,1.065-47.484.783-44.735,15.017-93.057,23.773-137.4,5.407-27.382,6.834-15.469,3.235,2.5C361.883,447.41,356.2,495.3,347.495,549.243c-1.305,8.152-1.274,16.475-2.532,24.661m194.274-10.861c3.725,6.716,6.967,13.906,12.11,19.554.968-2.746,1.951-5.492,2.886-8.255.738,1.345-2.363,12.439-1.808,16.6.837,6.291,5.486,5.983,8.347,5.487,6.45-1.172,12.521-20.029,16.632-25.206,6.465-8.254,6.628-19.623,7.4-29.871.629-13.066,4.612-25.589,5.338-38.653,1.11-20.237,5.305-40.069,7.306-60.2,3.852-20.341-.792-40.839-1.533-61.233-.034-9.234-3.517-17.717-5.918-26.392-5.891-29.244-12.773-68.912-20.721-97.014-8.15-36.5-7.549-53.606-30.639-11.928-4.58,8.028-.821,17.8-2.82,26.532a383.67,383.67,0,0,0-6.4,40.506c-1.677,15.793-9.869,29.75-11.287,45.6-1.325,12.748-1.16,25.62-1.4,38.441-.114,28-3.467,56.072-.532,84.038,1.24,18.066,2.821,36.273,1.581,54.392-2.081-9.27-.307-18.889-1.114-28.316-.115-15.916-5.3-31.2-4.982-47.133.176-12.488.483-24.993,1.111-37.481,1.129-21.3.324-42.692,2.227-63.959,1.563-18.4,11.109-34.72,12.319-53.186,1.16-16.722,3.515-33.319,3.917-50.108.145-12.35,5.081-23.857,5.693-36.152.37-5.633.855-11.244,1.727-16.843,1.838,7.259,2.418,14.763,3.692,22.124,1.006-2.037,7.423-3.461,8.651-12.544,2.767-20.461.444-56.626,1.439-61.713,1.884,3.442.311,60.337,3.68,62.345,15.966,13.455,25.113,100.265,34.524,128.987.47-44.534-16.635-119.974-23.463-166.78a76.035,76.035,0,0,1,.292-26.756c5.287-31.782,8.916-64,17.51-95.006,3.919-17.943,9.823-34.944,13.6-52.924h4.869a429.3,429.3,0,0,1-11.109,50.509c-7.112,29.944-16.722,59.817-15.884,91.157,1,32.2.144,64.73,5.82,96.509,5.429,43.3,8.775,93.014,16.11,135.123a188.093,188.093,0,0,1,2.4,25.553c.356,10.9,2,21.809.824,32.7-3.37,25.132-6.676,50.266-9.385,75.5-1.065,9.445-3.467,18.662-4.194,28.158-.675,8.412-.612,16.982-2.9,25.132-2.775,10.757-13.969,47.309-21.4,54.864-9.662,10.169-23.963-49.748-24.5-52.17m-223.4,4.076c1.547-4.2,5.225.14,5.983,2.693,4.5,8.1,3.03,18.12-2,25.465-1.581-9.339-1.725-18.905-3.983-28.158M66.193,616.4c-4.29-7.73-7.756-15.949-12.027-23.681-7.081-12.976-9.4-28.07-14.643-41.887-8.289-22.738-7.771-47.59-9.708-71.568.2-36.57-5.239-74.359-4.787-110.342.258-5.964-1.436-11.665-3.322-17.175-2.259-5.84-.259-12.1,1.114-17.893,2.577,2.8,6.111,5.494,6.19,9.866.177,5.124-1.387,10.057-2.112,15.074-1.6,9.236.114,18.559.839,27.776,2.978,30.561,4.175,65.684,4.628,96.436a339.6,339.6,0,0,0,4.9,51.175c2.272,12.943,8.159,24.626,12.576,36.78,3.563,9.271,7.79,19.484,16.48,24.276,6.981,3.743,14.062-1.958,19.9-5.737,5.142-3.026,7.143-9.252,9.206-14.8,4.87-13.013,10.095-25.885,16.174-38.3,2.483-5.368,5.307-10.86,5.66-17-.033-11.386-8.981-21.039-6.434-32.706a433.152,433.152,0,0,0,6.837-50.195c2.159-33.143,4.725-66.286,8.579-99.253,4.933-31.692,5.031-63.926,8.642-95.776,1.984-30.4,4.806-60.721,6.515-91.154.741-15.18,3.145-30.186,4.355-45.332,2.193-34.98,3.386-70.048,6.175-104.99h3.305c-2.226,33.787-4.177,67.613-4.614,101.51-.241,13.169-3,26.043-4.143,39.105-2.305,28.055-2.659,56.3-6.208,84.214-4.064,35.012-3.112,70.5-7.609,105.446-4.437,21.965-3.919,44.527-5.708,66.809-3.162,26.445-1.533,53.344-6.226,79.613-1.371,8.08-3.789,16.423-1.629,24.591,2.1,8.535,5.9,17.629,2.162,26.34-7.42,19.71-17.755,38.633-20.254,60.128-.932,9.765-3.271,28.77-19.382,25.343-2.774,3.27-5.418,6.715-8.708,9.392-3.354.193-5-3.62-6.725-6.088m286.88-10.248c-1.468-13.729-.741-27.581-.452-41.363.081-13.711,6.45-26.321,6.321-40.069-.033-17.646,1.066-35.346,4.481-52.627,3.581-18.136,4.791-36.955,11.014-54.357.321,13.851-2.1,27.493-3.789,41.135-2.6,38.511-6.886,76.849-11.368,115.134-.807,19.187.855,38.685-3.176,57.576-2.565-8.185-2.128-16.948-3.032-25.43M544.428,664.22c-6.726-8.4-9.433-19.554-10.626-30.381-1.34-12.049-5.288-23.629-5.74-35.818,6.644,12.453,5.82,27.423,10.933,40.453,2.191,5.545,3.983,11.631,8.029,15.951,15.772,5.415,19.985,12.1,25.783-12.891,2.661-17.558,11.8-32.757,17.062-49.407,1.578-6.3,2.191-12.82,3.531-19.187,3.579-16.474,2.4-33.614,5.418-50.195,2.289-12.016,1.966-24.345,3.3-36.483.97-8.289.419-16.877,3.066-24.87a127.938,127.938,0,0,1-.937,16.458c-1.081,9.689-.37,19.482-1.113,29.207-1.419,17.017-4.111,33.912-4.611,51a105.5,105.5,0,0,1-2.9,22.614c-2.9,12.209-16.523,60.472-17.3,65.622-19.955,116.891-17.112,30.457-33.9,17.927m165.619,70.343c1.743-57.086,7.531-114.173,3.726-171.312-.034-18.678-.371-37.34-1.676-55.985.159-22.806-2.709-45.473-2.032-68.279-.718-46.008,1.124-94.763,2.991-142.054,1.334-33.828.8-67.53,2.054-101.05.2-45.885-3.143-92.261-4.757-138.168-.29-19.239-1.149-38.061-.16-57.716h6.272c-.309,6.239-1.791,46.625-1.678,69.977-.662,42.39,2.032,84.106,3.415,126.639,1.112,34.218.13,64.373-1.834,98.2-2.151,37.056.2,71.725-4.4,108.844-1.628,33.278,2.166,66.754,4.674,100.066C720.886,560,719.9,620.948,719.9,677.46c-2.434,18.923-1.839,38.093-3.434,57.1Zm-12.351,0c2.1-18.941,1.13-38.041,1.9-57.051,1.837-29.978-1.581-59.938-2.6-89.88-.243-43.165.71-86.33-.048-129.493-4.844-103.448-3.612-208.773-7.5-312.976C689.15,96.75,683.252,47.926,686.232,0h6.191c-1.322,24.817.469,49.668-.756,74.489-.34,21.493,1.564,42.934,1.934,64.414,5.278,85.123,12.431,165.2,7.144,251.027q-.267,79.647,1,159.261c-1.253,39.077,3.6,94.471.324,129.44-1.663,18.591-1.324,37.288-1.695,55.932Zm-11.562,0a186.711,186.711,0,0,0,.935-31.08c-1.515-24.432-.483-48.954-1.757-73.4-2.225-27.528-4.757-55.2-3.08-82.849,1.176-23.243.162-46.522.4-69.766.292-18.1-1.5-36.133-1.16-54.218.258-26.286-.564-52.574.273-78.842C684,271.481,674.363,190.87,671.01,117.372,669.22,78.121,672.234,39.054,674.685,0h6.291c-.678,15.164-1.678,30.345-.307,45.509,1.305,35.084-1.1,70.271,1.482,105.32,3.625,80.017,2.185,161.708,6.4,241.148.677,41.328,1.467,82.657,1.032,124,.356,33.93-1.984,67.929.742,101.807,3.144,38.828,2.806,77.847,2.081,116.779Zm-11.449,0a399.143,399.143,0,0,1,1.857-43.707c1.433-14.674,1.288-29.539,3.982-44.039,1.031,29.225.178,58.5.453,87.746Zm-9.69,0c1.16-16.109,3.226-32.128,4.274-48.236.757-11.912-.711-23.8-.791-35.715-.693-38.478,1.626-76.955,1.8-115.414,1.113-33.2,1.02-66.355,1.873-99.55a264.755,264.755,0,0,0-.836-38.671c-1.277-12.907-1.305-25.99-3.918-38.7-.356,10.126.177,20.34-1.451,30.379-1.389-14.045-1.1-28.21-1.983-42.307-.856-26.9-5.628-53.535-5.161-80.524.209-12.748-.464-25.49-1.031-38.214-1.3-29.215-.978-58.468-.759-87.691.135-18.106.339-36.222,1.758-54.273C660.552,62.16,665,32.484,664.64,9.96A75.723,75.723,0,0,1,665,0h1.693c.25,7-2.564,32.566-3.305,48.9-1.613,29.732,2.252,60.747,2.031,90.561-.279,37.394-6.013,73.476-4.175,110.815.193,23.006,1.592,59.086,4.3,86.122,1.984,19.782,4.357,18.765,3.837-.494-.377-13.907-2.4-31.8-2.3-40.347q.016-29.393.1-58.788c.079-24.024,1.375-27.94,2.363-.728.706,19.254,2.191,38.494,1.789,57.786-.517,26.83,2.467,53.518,3.887,80.277,1.062,17.577,4.224,35.1,3.24,52.783-1.823,40.192-3.358,80.3-3.7,120.539-.468,28.947-1,57.926-2.576,86.854-.693,11.841-.855,23.716-.871,35.574,0,21.669-2.741,43.181-4.628,64.712Zm-9.273,0c3.224-29.61,3.5-59.448,4.629-89.2-.064-26.235-.566-52.47-.209-78.7.953-39.423.3-77.271,3.225-117.092.95-12.226.853-24.609-1.516-36.659-4.031-20.147-3.305-40.89-5.078-61.335-2.147-20.937-4.887-41.784-8.385-62.508-3.033-16.964-2.382-34.287-3.662-51.422-1.477-19.807-2.923-39.649-2.644-59.533.318-22.635.315-45.313,2.258-67.9,1.716-19.954,4.015-39.822,6.047-59.744C651.934,33.613,654.6,16.027,655.708,0h4.321c-.955,9.08-.274,19.1-2.628,28.315-4.21,16.945-3,34.666-5.644,51.858a388.993,388.993,0,0,0-4.515,73.736c1.679,45.137.742,90.471,5.707,135.422.693,8.464,1.047,16.98,2.662,25.322,6.418,30.678,2.757,62.475,7.418,93.414,3.754,22.911,2,46.225.595,69.276-.987,57.7-3.62,115.461-.693,173.183.839,16.964-1.338,33.842-1.258,50.806-.018,11.107-.743,22.178-1.644,33.232Zm-9.675,0c1.338-17.472,1.71-34.98,1.759-52.5.789-25.027,1.483-50.09.113-75.117-1-41.788,1.823-83.255,1.257-124.265-.177-22.334,5.29-44.282,3.709-66.634a63.841,63.841,0,0,1,2.356,24.747c-1.841,19.187-2.757,38.46-3.275,57.735-.584,36.954-2.694,79.594-1.613,115.343,1.145,25.64-.064,51.316-.128,76.972a350.574,350.574,0,0,1-2.5,43.724Zm-10.078,0c.1-12.487,1.5-24.959.921-37.463-1.678-27.686-.936-55.478.4-83.146.522-42.081-3.438-136.329,5.821-174.285,2.342-9.6,2.421-8.679,1.35.342-7.686,64.756-6.768,141.555-4.685,207.068.692,17.927,3.659,35.818,2.126,53.779-.937,11.213-.871,22.457-.823,33.7Zm-27.784,0c-.111-9.55.566-19.186,3.34-28.316a96.375,96.375,0,0,1-1.726,28.316Zm-23.606,0c4.128-19.24,5.741-39.037,10.788-58.049,3.014-11.314,5.257-22.911,5.516-34.734.755-20.97,3.272-41.782,5.1-62.665.855-10.6,1.08-21.267,2.611-31.814,4.623-30.179,2.629-66.417,6.483-97.82,1.288-10.58,2.838-21.441.516-32-4.232-19.516-6.477-39.4-8.7-59.275-10.4-93.227-34.53-174.906-17.583-269.772C594.831,57.518,606.071,23.787,608.185,0H609.8c-4.4,27.026-13,57.914-17.717,88.754-15.43,100.777,9.52,172.417,20.539,268.895,1.832,16.05-.349,40.069,5.24,53.986a465.96,465.96,0,0,0-.431-54.358c-5.72-89.93-31.51-177.476-16.259-268.341C606.048,59.885,616.722,25.2,618.1,0h3.242c-2.024,29.094-12.042,59.567-15.623,89.865-10.324,87.346,3.263,179.623,14.755,266.7,1.819,13.779-1.14,38.1.829,50.956.24,1.569,1.6-2.34,1.974-.971a439.552,439.552,0,0,0,2.525-50.164c-.719-88.834-24.538-170.92-11.061-264.2C619.181,61.463,624.757,31.269,626.859,0H631.1c-.22,31.179-8.214,61.136-12.158,92.2-11.554,91,8.694,174.712,9.662,264.364a308.835,308.835,0,0,1-1.568,37.131c-.484,4.345,1.315,10.379,4.913,13.067,3.653,2.729,7.063,5.747,8.02,10.682,3.063,10.844-3.257,20.988-4.53,31.516-4.4,35.211-1.888,80.779-4,117.6.273,19.293-2.514,38.6-.211,57.84,3.677,32.433-.059,76.578-.128,110.167h-4.225c3.231-30.928,1.256-60.457.226-91.226-1.017-28.439-1.468-56.964.677-85.349,1.966-35.574,1.453-71.253,3.66-106.827.512-6.7,2.3-13.134,3.787-19.635,2.253-9.846-4.822-12.5-8.432-.932-3.033,57.509-2.637,115.258-6.819,172.709-.742,10.529.9,20.987,1.385,31.463.517,33.265,3.468,66.619-.014,99.8H618.1c.467-14.1,1.065-28.316-1.015-42.309-2.5-17.313-1.741-34.856-1.034-52.259-.192-16.895-1.288-33.754-1-50.649.784-42.061,5.236-86.68,7.045-129.162.451-11.472,2.5-23.3-.855-34.489a38.781,38.781,0,0,0-3.224,13.239c-2.146,30.887-4.113,61.809-4.613,92.784-.421,17-2.742,33.824-4.419,50.718-1.275,34.63-4.8,69.261-2.854,103.942,1.095,16.143-1.726,32.129-2.676,48.184h-4.869c1.674-19.8,4.323-24.4.7-44.194-6.032,19.291-6.776,24.273-10.21,44.194ZM619.94,419.3c3.224,3.575,9.349,3.717,12.274.711,3.345-3.438,2.677-12.575-4.046-13.751-4.472-.782-9.575,7.36-8.228,13.041M478.1,734.563c-.58-13.852-1.788-27.686-1.191-41.573.627-17.035,1.419-34.07,1.371-51.139-.082-16.931,1.676-33.772,1.532-50.7-.421-28.578.5-57.139.031-85.717-.468-20.673,8.79-40.663,4.918-61.371-3.918-23.016-3.466-46.5-4.967-69.766-2.5-28.525-.612-57.192-2.014-85.753-1.436-28.544-1.307-57.1-1.129-85.663.258-21.636-1.242-43.341.983-64.889a103.542,103.542,0,0,0-.678-28.332c-3.739-21.2-7.206-42.518-8.416-64.083-.356-15.2-.789-30.4-1.532-45.576h4.838c-.08,21.528,2.515,43.008,3.4,64.5.916,9.777.452,20.326,5.482,28.946,1.306-12.5-1.1-24.959-1.081-37.479C479.671,37.285,478.317,18.678,478.1,0h3.114c-.243,34.106,2.207,68.122,4.079,102.137,1.015,14.9,2.387,29.823,2.208,44.777q-.725,46.353,1.6,92.674c-.13,22.213,1.756,44.339,1.871,66.532,1.449,33,4.32,65.935,5.481,98.956,1.033,13.748,0,27.774,3.4,41.207.142-26.007,2.837-51.84,5.029-77.706,1.113-13.8,3.872-27.337,5.967-40.979,3.418-22.579,2.176-45.927,8.128-68.07,2.547-10.074,6.9-19.9,6.625-30.553-.273-11.053-2.256-21.984-2.111-33.056.112-20.028.4-40.242-3.064-60.009-5.289-28.017-3.257-56.788-3.773-85.19-.211-16.911,1.161-33.9-.968-50.72h4.531c4.063,41.763,1.243,84.142,8.143,125.628,3.886,22,2.436,44.493,2.886,66.759-.354,14.058,1.662,28.382-1.449,42.216-2.484,11.649-6.5,22.893-8.257,34.716-2.29,16.776-3.274,33.7-5.321,50.5-1.4,12.417-5.129,24.413-5.9,36.92-2.662,38.6-7.853,77.1-7.226,115.886.549,11.525,1.711,23.017,2.243,34.56,1.434,30.379,9.8,59.657,13.867,89.633,1.724,15.968,3.611,31.9,5.982,47.765,4.208,29.8,3.6,60.042,6.143,89.984H526.69c-.046-28.386-2.773-56.667-4.191-85-.727-18.153-3.5-36.116-6.789-53.9-3.613-15.566-7.788-30.974-11.724-46.453-5.014-21.861-2.644-44.563-3.9-66.827-2.79,12.121-2.966,24.66-3.208,37.078-.163,13.519-.112,27.091,1.742,40.489,2.1,15.6,2.724,31.358,3.322,47.081.209,11.071,6.66,20.288,8.755,30.869,3.532,16.773,4,34.088,4.5,51.228.225,15.3,3.224,30.326,5.208,45.438h-4.709c-5.467-26.41-3.756-53.623-7.062-80.33-1.129-13.816-5.612-26.952-7.3-40.682a78.306,78.306,0,0,0-2.921-12.522c-3.547,35.871,3.548,71.5,3.822,107.333.242,8.764.935,17.473,1.645,26.2h-3.484c-2.032-19.01.9-38.408-2.981-57.174-3.18,18.837-2.05,38.215-.55,57.174h-4.371c-.146-14.551-1.239-29.12-.225-43.655,1.272-41.5-.258-83.042,1.289-124.525.161-17.473-3.8-34.752-2.578-52.259.175-13.852,3.257-27.319,5.675-40.821,2.064-11.088-2.917-21.565-3.676-32.462-1.017-16.334-2.128-32.688-1.854-49.076.195-23.382-3.772-46.557-3.275-69.957.21-23.929-.821-47.819-1.531-71.708.369-20.447-1.613-40.8-1.87-61.214-.3-8.47.6-27.765.37-43-.267-17.6-1.086-23.437-2.2-1.442-.759,14.982-1.525,34.45-1.638,42.676-.115,37.3-.821,74.647,1.452,111.882.628,13.291.274,26.62,1,39.91,1.435,28.071.05,56.281,2.855,84.266,1.209,15.585,4.161,31.185,2.356,46.854-1.325,11.788-3.888,23.437-4.225,35.346-.9,48.867,1.58,97.873-2.243,146.669-1.034,27.494-2.144,55.005-.951,82.517Zm-11.125,0c-.322-18.7-2.467-37.3-2.192-56.037-1.258-26.182-1.936-52.417-1.178-78.633.5-13.973-.306-27.966.355-41.922,1.258-20.988.548-42.011.773-63.016-.369-20.988,1.194-41.957.6-62.945-.454-17.507-.388-35-.453-52.5-.225-21.88-2.773-43.637-2.61-65.534.11-12.556-1.387-25.045-1.63-37.6-.242-35.591-1.87-71.164-3.435-106.7-.4-11.665.517-23.3,1.354-34.911,1.484-22.86-2.885-45.491-3.128-68.294-.161-22.16-.853-44.3-1.322-66.462h4.1c1.51,13.87,1.935,36.657,2.82,54.988.759,12.153.437,24.379,1.872,36.482,1.16,10.336,3.225,20.534,3.966,30.922,1.531,18.241-4.258,36.082-3.16,54.34,2.046,32.568,2.53,65.237,3.063,97.874,1.838,27.492,1.081,55.075,2.242,82.6-.97,28.457,1.468,56.859,2.451,85.28-.227,23.068-2.919,46.085-2.307,69.189.758,18.5,1.437,37.1.243,55.6a409.99,409.99,0,0,0-.291,51.14c1.532,24.345.242,48.778,1.646,73.124.916,14.324,1.162,28.682,1.1,43.025Zm-12.868,0c.161-12.1-.1-24.224-.918-36.309-1.645-29.259-1.836-58.624-4.289-87.85-1.612-19.205-1.363-38.5-1.758-57.752-.493-24.028-.216-48.094,1.306-72.092.846-13.343-.5-26.688-.388-40.051.243-29.137,1.535-58.286-.015-87.413-1.918-36.062-4.172-72.11-3.87-108.24.067-8-.2-15.987-.591-23.968-3.567-72.965-4.5-147.632-6.1-220.889h3.139c1.139,67.251,6,152.239,8.431,220.868.282,7.962.838,15.914,1.105,23.865.827,24.583-.48,49.249,1.437,73.788.857,10.98.489,22.021.4,33.021-.236,29.662,3.091,59.22,2.629,88.863-.539,34.5-2.586,69-2.387,103.521.138,23.944-.9,47.89.357,71.813,2.08,39.6,3.352,79.246,5.61,118.825Zm-7.62,0c-1.076-25.1-2.508-50.2-3.211-75.293.552-15.863,1.4-31.71,1.8-47.607,1.746,11.788,1.347,23.629,2.191,35.451,2.1,29.157,1.876,58.293,4.008,87.449Zm-20.033,0c.709-21.564-1.467-43.059-.613-64.624-1.6-19.9.483-39.754,2.4-59.534,1.645-15.69,1.161-31.517,2.323-47.241,1.3-17.506.418-35.1,1.531-52.626,2.458-61.486,1.924-121.423.838-182.811-.547-30.885-1.71-61.471-2.275-91.549-1.289-19.833-.917-39.7-.757-59.552C429.73,117.738,427.376,59.615,426.41,0h4.982c-.517,21.616.887,43.181,1.549,64.78.692,16.686,3.129,33.3,2.353,50.036-.742,15.936-.855,31.884-2.045,47.8-1.566,22.176,1.5,44.3,1.127,66.5-.469,24.184,1.758,48.3,1.128,72.492.053,8.63.28,17.255.563,25.877,1.767,53.727,4.257,116.3.033,169.167q-.314,27.993-1.193,55.985c.292,20.6-2.241,41.048-2.53,61.634-2.324,40.05-1.823,80.207-.92,120.294Zm-5.889,0c-2.659-36.728,1.29-73.474,2.275-110.186.079-9.986.418-19.955.935-29.924.531-10.476-.532-20.953-.178-31.429.564-19.2,2.452-38.355,2.564-57.576.128-18.662,1.677-37.287,1.66-55.949.113-33.265.049-66.514-.677-99.76-1.935-27.984-.966-56.052-2.144-84.074-1.276-26.74-.757-53.518-.984-80.276.066-18.313-1.644-36.626-.419-54.935,1.579-23.088.436-46.245-.225-69.363C423.262,40.7,422.208,21.017,420.569,0h3.484c.05,42.571,3.353,85.123,2,127.708.16,37.918.048,75.835.194,113.769,1.384,29.664,2.645,59.345,4.272,88.989-.209,39.09.759,78.179.033,117.268-.436,19.886.579,39.806-.855,59.657-3.29,75.679-6.337,151.391-5.644,227.174Zm-21.572,0c.467-15.741.453-31.482.274-47.24.756-31.534,4.612-62.875,6.159-94.374.1-26.252,1.918-52.469,1.386-78.757.581-31.166.372-62.35,1.113-93.517-.4-22.543-2.918-44.983-3.578-67.526-.615-26.812-3.919-53.466-3.806-80.311-2.517-50.669-.935-101.441-1.517-152.16-.533-16.655,2.437-33.2,1.13-49.829-1.547-23.578-1.1-47.239-1.081-70.85h5.805c.768,6.348-.659,12.313-.339,18.485,1.064,17.141.516,34.332,1.194,51.491.66,19.849-2.032,39.594-1.9,59.448-.065,18.677-.209,37.356-.58,56.034-1.436,28.543,1.064,57.069.661,85.632-.519,21.684,3.064,43.147,3.449,64.8.79,26.217,3.629,52.365,3.179,78.616-.179,50.3-2.517,100.583-.985,150.866.435,12.733-1.03,25.395-1.289,38.11-1.6,43.671-6.659,87.36-3.387,131.084Zm-20.849,0c3.644-20.637,3.854-41.748,7-62.473,1.546-10.092,3.192-20.2,3.773-30.431.936-23.856,2.273-47.7,2.321-71.585,4.222-55.9.686-111.861-1.677-167.726-.468-11.1.661-22.158,1.113-33.229.675-14.117-.195-28.423,2.708-42.308.887,19.324,2.886,38.634,2.163,57.994-1.056,42.236,1.5,87.79,2.419,130.438.255,14.236-1,28.437-.71,42.674.306,22.264-2.58,44.372-3.515,66.582-.919,36.974-7.742,73.334-11.093,110.063Zm-6.452,0c2.054-47.231-.728-88.753,12.466-136.681,2.065,20.1-2.225,39.945-4.369,59.8-1.5,14.2-5.354,28.054-5.822,42.378-.435,11.508-.757,23-.709,34.507Zm-13.157,0c4.079-30.8-.741-62.124,3.065-92.975,1.79-15.04-.292-28.651-.743-43.937-.259-9.968,4.274-21.3,5.579-31.268,3.194-24.294,6.434-48.639,8.354-73.107.515-19.782,1.87-39.508,2.337-59.29,1.179-18.732,3.483-37.41,2.566-56.212-1.131-29.26,2.917-58.291,4.8-87.4-.226-33.09.324-66.2-.741-99.287-1.951-24.328-4.289-48.848-1.613-73.23,2.6-20.025,5.435-40.032,7.4-60.145,1.043-14.87,2.513-29.694,3.67-44.548.579-7.428,2.325-13.731,2.157-.031-.108,8.725-.1,17.455-.474,26.178-.548,14.428-3.611,28.542-4.321,42.955-1.468,16.7-1.176,33.544-3.37,50.177-2.6,20.464-1.113,41.155-.678,61.7,1.581,25.22.968,50.509,2.015,75.745.177,20.219-1.369,40.421-1.111,60.636.66,24.155-6.321,47.592-6.275,71.709-.627,19.816.357,39.631.437,59.447,0,12.418-2.064,24.643-3.047,36.973-1.63,33.755-2.162,67.58-4.951,101.265-1.353,30.642-6.225,60.933-9.336,91.383-.952,14.395-.065,28.841-.581,43.253Zm-7.579,0c-.741-13.484-2.095-26.917-3.336-40.367-1.5-14.918-1-29.96-2.338-44.9-1.912-21.061-5.441-63.875-12.175-82.689-11.351-40.309-1.649-42.848,2.176-81.677,8.78-49.744,22.614-96.281,33.378-145.2,2.353-12.472,2.613-25.241,3.822-37.866,1.451-19.574,4.337-39.072,3.581-58.764.677-28.616-2.6-57.194-.79-85.806,1.435-20.92.951-41.907,1.081-62.858-.017-16.356,2.079-32.618,1.644-48.971-.388-15.163-2.038-28.92.146-45.474h4.5c-.768,15.3-.743,29.156-1.049,43.724-.131,49-5.24,97.905-3.274,146.931.128,29.173.694,58.344-.34,87.5-1.257,21.06-3.74,41.993-6.32,62.913-1.3,11.1-5.27,21.526-7.287,32.476-5.009,27.087-11.3,51.928-17.772,78.476-3.45,14.1-6.481,28.385-7.544,42.954-2.042,29.041-7.515,36.468-.984,67.7,6.346,30.119,10.025,73.56,11.9,104.1.4,22.648,2.548,45.175,3.515,67.789Zm-50.649,0a159.547,159.547,0,0,1,8.434-78.058c-2.177-3.34-5.61-6.576-5.159-11.07.837-8.219,6.32-14.533,9.029-22.02,2.677-6.12,3.645-14.113,10.047-17.14,1.306,5.352,1.709,11.142,4.257,16.038,3.644,5.913,9.272,10.915,10.03,18.435,1.58,12.576-.113,25.291.66,37.918.306,11.755,3.694,23.087,4.177,34.8.321,7.032.435,14.062.726,21.094h-6.468c.048-9.514.146-19.064-.9-28.526-1.548-16.248-5.951-32.128-5.45-48.586.419-7.311-3.419-13.537-7.111-19.219a117.5,117.5,0,0,0-11.175,42.97c-.4,7.189-3.291,13.73-5.6,20.341a42.754,42.754,0,0,0,2.708,33.021ZM272.705,601.59c-.546,13.676,1.6,27.249,4.758,40.435.935-12.242.177-24.537,1.1-36.763,2.595-31.28,4.289-80.826-3.918-109.957-2.693-9.39-4-19.238-7.434-28.368a57.126,57.126,0,0,0-1.145,23.489c5.724,36.728,5.193,74.086,6.642,111.164m4.178,132.974c-2.984-15.741-9.643-30.9-8.852-47.274.3-15.03,3.331-27.789,3.421-40.676.07-9.69-2.686-19.285-3.035-30.91.612-30.413-4.434-60.6-3.046-91.015.351-13.974-1.437-27.862-3.725-41.574-1.759-9.952-1.276-20.112-1.29-30.186.031-12.331-3.5-24.294-3.275-36.641.177-17.891-.451-35.906-3.724-53.5-2.63-14.71-5.531-29.77-3.016-44.756,2.627-15.584-.87-31.221-.87-46.857-.017-15.775-.808-31.532-.647-47.29.436-18.206-3.335-36.118-3.192-54.307.015-21.914-5.6-43.112-7.691-64.78-2.372-35-3.5-79.084-8.177-104.8h6.952c1.888,12.955,1.436,25.149,3.08,37.583,1.967,15.392-3.386,30.59-1.629,45.965,4,30.641,9.239,61.23,9.981,92.241.983,22.473,3.66,44.842,4,67.318-.63,21.02,1.645,41.973,1.774,62.978.177,11.454-2.548,22.86-.9,34.3,1.838,12.591,5.386,24.853,6.677,37.567,1.465,16.161,2.192,32.372,2.708,48.586.5,17.192,8.45,32.461,13.208,48.482,5.24,13.851,7.594,28.648,9.642,43.391,3.8,28.146-1.606,61.163,1.742,88.917,4.03,32.93-15.021,66.652-13.4,95.546,1.4,9.69,6.482,18.1,10.5,26.707,1.613-9.322,1.758-18.8,1.662-28.247-.13-17.681,3.949-34.925,5.4-52.468.646-8.167,2.984-16,4.966-23.874,3.4-13.554,2.355-27.86,5.694-41.433,2.965-12.277,3.725-25.448.129-37.672-2.856-9.252-2.177-19.4-5.823-28.4-3.886-9.32.248-5.768.312-15.738,2.193,2.309.849-9.342,3.059-7.034,1.08-10.929.064-22.438-6.289-31.428-3.855,7.136-3.322,15.6-4.677,23.471-3.467-4.04-2.951-9.811-3.758-14.866-1.322-13.064-7.674-24.889-8.19-38.128-1.712-29.611-7.1-58.8-14.756-87.239-2.838-9.407-2.4-19.362-.547-28.927,2.884-15.566-2.693-30.888-2.29-46.47.305-16.389-2.113-32.636-1.613-49.025.467-15.3-2.8-30.289-3.869-45.491-1.227-15.686-1.129-31.481-2.678-47.15-2.66-26.761-2.161-53.712-1.676-80.558-1.194-16.335-2.416-32.7-4.8-48.9h1.642c1.468,14.743,4.193,29.453,5.724,44.178,1.42,13.275-1.128,26.5-.935,39.773.273,20.986,2.194,41.868,3.71,62.766,1,13.572.516,27.232,2.29,40.719,2.336,17.872,4.708,35.8,4.9,53.883.111,12.28,1.919,24.469,1.919,36.766.032,7.573-.323,15.337,1.918,22.614.934,4.16,3.128,8.516,1.6,12.819-2.049,7.206-6.144,14.2-4.9,22.037,1.369,9.688,5.514,18.539,8.062,27.894,5.192,16.827,6.886,34.684,12.787,51.263,1.574,3.958,6.293,29.225,7.82,30.187,3.5,4.25,4.6,10.564,9.273,13.7,11.537,8.551,12.608.168,15.767-3.025,3.247-3.283,22.841-55.465,27.771-66.217,5.643-12.313,7.771-25.989,12.561-38.669,6.739-17.981,7.192-37.708,7.642-56.824-.793-37.748,2.208-86.734,3.065-125.943-.629-22.894,3.129-45.63,2.273-68.524-.049-13.3-1.353-26.587-.483-39.878.466-7.276,3.39-14.638,3.18-21.914-1.615-12.295-1.284-23.321-.231-37.6h1.565c-.733,7.341-.186,13.417-.412,20.415-.966,53.622.251,107.8-2.6,161.39-1.753,40.441,3.257,83.247-3.307,124.474-2.517,14.463-2.338,29.452-6.578,43.533-11.547,40.031-25.139,79.3-37.152,119.138-2.13,8.133-13.046,4.671-16.174,12.1-4.807,8.307-3.274,18.591-3.4,27.878,0,10.424-4.071,18.943.3,28.562,5.449,12.313,6.377,28.594,2.78,41.011-3.839,12.751-2.353,26.445-5.451,39.352-1.563,7.312-4.158,14.324-5.82,21.6-2.161,9.392-1.209,19.134-1.45,28.7-.308,22.336-6.1,44.073-6.321,66.409Zm-19.272,0c-.8-12.418-3.335-24.592-4.835-36.9-2.1-18.171,4.257-35.941,2.565-54.1-1.6-20.34-3.258-40.717-2.676-61.161.4-15.916-1.727-31.779-1.1-47.694,1.758-25.64-3.548-50.964-4.321-76.482a308.751,308.751,0,0,0-1.739-36.6c-1.583-25.186-3.694-50.406-2.372-75.679,3.273,21.548,6.272,43.235,6.288,65.116,1.612,22.7.693,45.524,2.822,68.19,1.064,13.152,3.934,26.1,4.16,39.335,1.193,20.078-.741,40.156.357,60.234-.083,23.419,1.483,46.766,3.063,70.116,1.336,16.755-4.209,33.265-2.016,50.02,1.677,11.946,4.032,23.768,6.209,35.609Zm-13.269,0c-.968-11.071-2.645-22.071-3.419-33.161-.759-10.564.483-21.093,1.306-31.586,1.468-20.97-.369-41.957-.952-62.909.178-19.816.453-39.649.114-59.465-.307-18.819,1.064-37.743-1.258-56.475-2.549-19.483-3.031-39.176-4.516-58.782-1-11.718-2.9-23.366-2.87-35.172-.017-60.634-.339-121.275-.033-181.89,0-22.546-4.127-44.9-3.241-67.459a104.3,104.3,0,0,1,2.451,18.311c.66,14.08,2.63,28.055,2.855,42.17.4,27.388-.789,54.777-.355,82.184.322,16.891.6,33.807.5,50.719-.306,19.867,1.29,39.683,1.355,59.533,1.709,33.773,4.16,67.51,5.838,101.282.724,19.012-.468,38.075,1.047,57.069.919,11.648-1.177,23.313-.017,34.962.807,8.973,1.13,17.962,1.1,26.969-.1,16.37,2.611,32.688,1.306,49.076-1.937,21.513-.046,43.093.435,64.624Zm-14.579,0a329.955,329.955,0,0,1-5.754-57.611c.886-26.917,5.724-53.571,5.563-80.557.176-15.146.854-30.293.4-45.455-.243-21.093-3.289-42.4.484-63.349a457.837,457.837,0,0,1,2.934,46.314c-.727,15.145,1.13,30.275.129,45.4-.952,16.9-.225,33.824-.113,50.72-.452,26.043-2.047,52.258,1.225,78.179q1.646,13.118,2.081,26.357Zm-18.687,0c-.033-22.108-2.193-44.179-1.741-66.251,2.854-26.934,3.113-54.077,5.289-81.082,2.192-24.886,4.483-49.792,5.369-74.768.259-33.248,2.677-66.443,1.725-99.709.065-39.894,1.5-79.856-.837-119.716-.532-11.858,1.21-23.68.273-35.541a372.663,372.663,0,0,1,.42-56.28c1.273-16.37-.789-32.688-1.274-49.022-.616-16.373,2.032-32.636,1.354-49-.87-25.187-2.064-50.407-.6-75.61.764-11.2,3.639-32.743,4.9-4.072.908,20.676-.11,41.5.311,62.171-.13,23.07,1.645,46.207-.677,69.207-.953,8.974-.05,17.982.759,26.918,1.11,12.331-1.9,24.486-1.774,36.8.014,15.779,2.064,31.465,1.9,47.243-.32,42.57-.046,85.139,1.21,127.691.017,12.855-2.224,25.551-2.354,38.407-.308,16.929-.387,33.86-.725,50.772-.34,19.992,1.6,40.087-1,59.955-3.821,25.8-4,52.032-7.142,77.916-2.1,16.948-1.226,34.087-1.807,51.123a527.531,527.531,0,0,0,1.452,62.858Zm-10.273,0c.662-35.538-2.159-71.183,1.34-106.6.789-15.181,1.71-30.362,1.853-45.56.177-17,2.581-33.844,3.275-50.808,2.353-29.626.8-59.394,2.1-89.091,1.079-23.892.483-47.836.662-71.744-1.953-54.181-1.661-108.416-1.13-162.634.241-36.118-1.37-72.305,1.066-108.369,1.224-18.312-.306-36.694,1.275-54.985,1.208-14.884-.607-29.629-.163-44.774h5.032c-.4,21.6,1.837,43.216.355,64.8-.758,11.038-1.469,22.074-1.339,33.124.209,16.39-2.16,32.675-1.532,49.043.258,8.745,1.337,17.418,1.564,26.145.5,14.641-1.934,29.139-1.823,43.762.1,23.292.533,46.622-.916,69.886-1.147,18.119,1.143,36.186,1.047,54.29.981,44.3-.646,88.618.1,132.92.468,28.35-.919,56.684-2.353,84.965-2.13,21.162-4.242,42.341-5.275,63.61-.742,37.322-4.515,74.7-1.869,112.021Zm-9.738,0c1.042-34.809-3.352-70.945-.645-105.34,1.192-16.58.837-33.213,1.4-49.828,1.242-27.616,3.756-55.145,5.95-82.673,1.433-16.336-.613-32.724.111-49.077,3.2-72.688-2.587-146.166,1.985-218.076a216.841,216.841,0,0,0-.065-26.9c-1.178-23.259.663-46.5.71-69.767-.466-44.095,2.286-88.941.355-132.9h3c-.194,14.008-.032,28.018-.515,42.027-.614,16.229.9,32.462-.177,48.69-1.243,22.211-.147,44.476-.789,66.706-.776,26.829.771,53.709-.615,80.521-4.728,89.958,3.622,180.6-1.435,271.09-1.244,21.687-2.274,43.39-3.967,65.043-1.258,14.973-.758,30.03-.709,45.053-1.033,38.46-1.322,76.973.145,115.432Zm-8.09,0c1.182-65.347-1.214-130.613,2.011-195.955,1.516-16.981,3.992-33.415,4.244-50.47,1.886-127.517-.789-255.038,1.13-382.561.529-35.2-.378-74.838.705-105.578h4.739c-.869,35.189-1.507,70.535-1.736,105.727-.3,45.751-2.515,91.975-.795,137.64,2.852,80.718,1.758,163.65-.9,244.328-.573,17.453-3.74,34.315-4.57,51.777-3.107,65.351-1.793,131.111-1.573,195.092Zm-15.987,0c-.58-16.755-.047-33.493.533-50.23-1-21.723.984-43.445-.209-65.149-.581-13.449.935-26.847,1.049-40.279-.018-30.939,3.369-61.755,3.209-92.7-.162-26.828.645-53.658,1.4-80.452-.6-34.453,1.4-68.858,2.273-103.277,2.386-28.4.4-56.947,1.871-85.4,3.575-54.945,3.459-114.557,2.3-171.755C179.108,30,179.1,14.844,178.688,0h1.782c-.54,14.872,1.2,29.779,1.12,44.7-.3,54.209,1.5,108.622-1.263,162.36-1.614,32.371.322,64.833-2.081,97.172-.225,22.77-1.8,45.508-1.676,68.3-1.049,45.508.564,91.069-2.112,136.525-1.437,20.376-1.08,40.82-1.709,61.248-1.484,29.1-1.275,58.276-1.612,87.413-.484,25.622-1.275,51.228-.806,76.85Zm-15.043,0c1.385-36.728.372-73.491-.952-110.2,1.967-47.186,1.08-94.443,1.742-141.649.354-25.008-1.144-50.02.241-74.995,1.516-24.5.79-49.077,2.131-73.6,1.175-21.442-.615-42.937,1.079-64.344,1.822-18.609.515-37.325,1.806-55.948,1.838-25.293.774-50.737,3.289-75.978a343.4,343.4,0,0,1-.435,35.994c-1.21,17.21-.693,34.491-1.129,51.735-.292,25.186-1.659,50.355-1.853,75.54.45,20.81-.421,41.607-1.113,62.385.869,76.113.435,152.264.95,228.38-.6,24.869,1.082,49.722.6,74.593-1.18,22.685-1.583,45.4-3.065,68.087Zm-9.675,0c.354-12.8,1.679-25.606.775-38.408-.952-14.34-.049-28.753-1.144-43.076-1.824-22.929-.9-45.945-1.065-68.927-.212-21.756,1.08-43.671-2.467-65.218-2.533-15.111-3.194-30.573.113-45.613,4.449-53.642,6.3-107.527,9.706-161.271.225-7.455.549-15.06,3.048-22.108.031,25.815-3.209,51.523-3.725,77.339-.163,16.79-1.662,33.51-2.386,50.283-.889,17.14.033,34.4-2.195,51.438-1.178,9.094-2.628,18.259-1.692,27.458,2.853,25.027,5.129,50.213,4.338,75.45.128,22.684-2,45.333-.741,68.017,1.161,17.191.436,34.471,1.887,51.647,1.226,14.289.145,28.647.225,42.989Zm-12.611,0c1-25.081-.031-50.2-.255-75.293a859.085,859.085,0,0,1,1.451-110.5c.982-10.565,2.209-21.18,1.45-31.815-.663-10.668-3.419-21.285-2.017-32.04,1.048-8.307,2.55-16.545,3.1-24.94,1.612-17.1.453-34.331,2.032-51.455,1.822-22.194-.694-44.633,2.951-66.67,2.74-24.711,5.434-49.46,6.321-74.33,1.612-18.713,1.355-37.586,4.112-56.176,3.449-23.246,1.113-46.839,2.612-70.222.676-13.223.837-26.5,2.516-39.631,1.982-19.816,3.112-39.721,4.739-59.571a84.7,84.7,0,0,1,2.243-12.573c.951,11.139-.468,22.3-1.1,33.421-1.549,28.668-5,57.156-5.885,85.874-.468,32.147-1.581,64.274-3.549,96.37-.646,17.822-1.677,35.625-3.58,53.345-1.791,21.823-6,43.426-5.933,65.407.031,23.4-3.646,46.6-3.275,70-.4,16.6-1.322,33.212-3.9,49.6-2.128,13.485,2.033,26.847,1.357,40.348-1.115,17.754-.662,35.574-1.71,53.344.11,26.287,2.836,52.5,2.644,78.808-.049,16.073,1.016,32.2-.58,48.238-1.017,10.143-2.063,20.287-2.645,30.467Zm-80.463,0c-.9-44.634,2.807-90.649-10.657-133.656-2.679-8.693-3.387-17.84-4.693-26.83-1.341-9.287-4.774-18-6.724-27.109C16.63,495.976,22.267,444.417,17.529,393.5c-.808-10.616-3.017-21.04-3.742-31.691,11.881,39.632,4.813,94.648,9.128,136.577,2,20.1,2.87,40.786,9.949,59.744,4.69,12.784,3.161,27.16,8.288,39.824,4.384,11.212,6.853,23.1,9.788,34.823,9.206,32.984,5.61,67.841,6.336,101.789Zm-8.207,0c.629-11.246.71-22.579,2.677-33.668,1.225,11.176.984,22.439.773,33.668Zm-7.87,0c-.823-26.288,2.775-52.486,1.76-78.791-1.752-23.243-8.178-57.7-12.465-81.151-1.807-11.124-4.87-21.968-6.338-33.144a949.347,949.347,0,0,1-4.95-139.585c3.886,51.4,1.4,103.485,10.4,154.4,4.549,28.6,14.278,65.332,16.544,92.555,1.5,16.178,1.806,32.618-.6,48.709C35.717,709.8,35.3,722.2,34.749,734.563Zm-19.463,0c.6-9.34,1.468-18.7,1.26-28.071-.162-12.662-4.049-24.783-5.322-37.305-3.677-33.055-2.661-66.5-6.837-99.5C.226,552.252.129,534.552,0,516.941c.936-33,.759-66.024,1.049-99.028,2.111-23.961.936-48.045,2.29-72.039,1.16-21.513.483-43.077,1.306-64.609C8.3,303.25,7.112,325.707,7.628,347.938c1.143,28.122-3.467,56.089-2.693,84.212.289,16.3,2.629,32.477,2.338,48.812a546.86,546.86,0,0,0,2.758,59.728c1.676,17.734,8.433,34.332,10.256,52.031,2.342,18.442,4.714,41.137,6.1,59.588,1.015,12.925.145,25.885-1.047,38.758-.905,9.479-1.032,19.1-3.306,28.384-.872-13.658,1.371-27.247.934-40.907-.078-27.521-4.259-67.909-8.224-95.722C13.205,571.944,7.8,562.2,6.774,551.2c-.953-9.06-1.4-18.259-3.935-27.022-1.033,14.728-1,29.75,2.724,44.056,8.3,34.735,4.9,70.886,8.9,106.18,3.821,19.782,2.788,40.087,2.643,60.147Zm-11.044,0c-.291-24.591-1.128-49.216.1-73.79A125.882,125.882,0,0,1,6.805,685.8c1.176,16.214,2.1,32.478,2.065,48.762Zm626.48-323.475a5.539,5.539,0,0,0-6.334,3.267,4.076,4.076,0,0,0,2.539,5.738,5.539,5.539,0,0,0,6.334-3.267,4.076,4.076,0,0,0-2.539-5.739m-450.4,323.475c.646-65.347-.665-130.613,1.1-195.955.829-16.981,2.183-33.415,2.319-50.47,1.032-127.517-.43-255.038.618-382.561.29-35.2-.292-80.392.251-105.578h3.259c-.475,35.189-1.357,70.535-1.482,105.727-.162,45.75-1.374,91.975-.434,137.64,1.559,80.718.961,163.65-.491,244.328-.313,17.453-2.045,34.315-2.5,51.777-1.7,65.351-.98,131.111-.86,195.092ZM161.814,465.24c-.483-43.723-.111-87.43-.015-131.153,2.5-40.176,3.209-80.453,3.58-120.713.821-18.645,1.66-37.288,1.177-55.967.273-37.9-.387-75.8.6-113.683.209-14.59,0-29.155-.162-43.724h3.341c-.323,12.259,1.111,24.52.967,36.78-2.662,51.263-1,102.646-1.741,153.96-.631,13.414-1.193,26.828-1.565,40.243-.774,18.594.838,37.2-.112,55.793-.84,15.163-1.645,30.31-2.677,45.439-1.42,20.989.1,42.01-1.015,63-.34,30.467-.4,60.933-1.4,91.365a180.86,180.86,0,0,1-.969-21.338M415.268,734.563c-2.658-36.728,1.291-73.474,2.275-110.186.079-9.986.419-19.955.936-29.924.53-10.476-.533-20.953-.179-31.429.564-19.2,2.453-38.355,2.564-57.576.128-18.662,1.678-37.287,1.66-55.949.114-33.265.049-66.514-.676-99.76-1.935-27.984-.967-56.052-2.145-84.074-1.275-26.74-.757-53.518-.983-80.276.066-18.313-1.645-36.626-.42-54.935C421.307,86.491,417.029,38.79,415.268,0h3.485c.05,42.571,3.353,85.123,2,127.708.159,37.918.048,75.835.193,113.769,1.385,29.664,2.644,59.345,4.272,88.989-.209,39.09.759,78.179.034,117.268-.437,19.886.579,39.806-.856,59.657-3.289,75.679-6.337,151.391-5.643,227.174Zm-6.564,0c.3-15.741.292-31.482.177-47.24.488-31.534,2.977-62.875,3.975-94.374.063-26.252,1.238-52.469.894-78.757.375-31.166.239-62.35.718-93.517-.26-22.543-1.884-44.983-2.31-67.526-.4-26.812-2.529-53.466-2.456-80.311-1.624-50.669-.6-101.441-.98-152.16-.8-38.847.015-81.461.032-120.679H412.5c.555,35-.841,90.158-.675,129.425-.043,18.677-.135,37.356-.375,56.034-.926,28.543.686,57.069.426,85.632-.335,21.684,5.07,47.817,5.319,69.467.509,26.217-.751,47.694-1.041,73.946-.116,50.3-1.624,100.583-.636,150.866.281,12.733-.665,25.395-.833,38.11-1.03,43.671-4.3,87.36-2.185,131.084Zm45.671-494c-1.769-22.608-2.682-45.208-3.871-67.816.885-13.969.9-32.082.284-49.483-.3-8.478-1.091-17.609-1.357-24.428.831-29.266-1.915-46.956-2.109-76.224-.219-7.544.206-15.076-.384-22.608h4.345c.255,5.863,1.014,12.541,1.23,18.879-1.155,26.507.768,53.213,1.535,79.747-.237,6.935,1.914,14.59,1.937,21.525-.228,9.615-1.272,18.519-1.675,28.131-.4,7.839.129,15.671-.459,23.495-.8,10.851,1.331,21.722.836,32.573.556,15.754,1.387,31.507,1.283,47.243a49.85,49.85,0,0,1-1.6-11.032m95.67-183.943a97.557,97.557,0,0,1-4.027-14.36c-1.14-7.781-1.584-15.652-2.449-23.466-1.161-10.54-.686-9.959-.246-11.489.519-1.794,1.227-3.746,2.7,10.892.638,6.35,1.463,12.68,2.61,18.964,3.252,20.035,14.938-16.64,16.269-19.539,5.285-11.314,3.726-6.966,4.479-8.015,1.345-1.876,1.1-.014-3.413,13.9-3.67,9.38-5.207,19.37-7.972,29.014-1.281,3.939-6.268,9.821-7.948,4.1M437.487,734.563c-.7-17.629-1.642-35.257-2.1-52.886.362-11.141.915-22.272,1.181-33.438,1.143,8.279.882,16.6,1.434,24.9,1.375,20.48,1.229,40.945,2.626,61.424Z" transform="translate(0 0.001)" fill="#fdfaf0" fill-rule="evenodd"/>
</svg>
