<svg xmlns="http://www.w3.org/2000/svg" width="10.9" height="14" viewBox="0 0 10.9 14"><title>1_bold</title><g id="e59198ba-32b7-4ccc-afae-182a42405f56" data-name="レイヤー 2"><g id="a201eec7-25b7-4c36-9038-28273e2e73b8" data-name="レイヤー 1"><path id="ebb1516e-5b95-4186-b951-00aaf05f4dd1" data-name="パス 1" d="M0,0H5.6c3,0,4.7,1.1,4.7,3.4A3.1,3.1,0,0,1,7.8,6.5,3.7,3.7,0,0,1,10.9,10c0,2.9-1.4,4-4.2,4H0ZM5.2,6.5c2.7,0,2.6-1.4,2.6-3.1S7.9.7,5.6.7H2.3V6.5ZM2.3,13.1H5.7c2.1,0,2.7-1.1,2.7-3.1s0-2.8-3.2-2.8H2.3Z"/></g></g></svg>