<svg xmlns="http://www.w3.org/2000/svg" width="14.4" height="16" viewBox="0 0 14.4 16"><title>9-check</title><g id="a962d6de-7125-4520-bf97-3623cf662268" data-name="レイヤー 2"><g id="b87d0145-7629-4dab-bf75-5469b0b7ee89" data-name="レイヤー 1"><g id="eb97069d-58e9-4af7-b909-1a0d5c6f1d0f" data-name="check mos"><path id="ff4efb02-37bc-49f8-bd9b-d034eb049620" data-name="パス 17" d="M13.9,5.5h0a.5.5,0,0,1,.5.5h0v9a1.1,1.1,0,0,1-1.1,1H1a1.1,1.1,0,0,1-1-1V2.6a1.1,1.1,0,0,1,1-1H8.1a.5.5,0,0,1,.5.5h0a.5.5,0,0,1-.5.5H1V15H13.3V6a.6.6,0,0,1,.6-.5ZM3.6,8.3h0a.5.5,0,0,0,0,.7h0l2.5,2.5a.8.8,0,0,0,1.1,0h.1L14.3.8c.1-.2.1-.6-.2-.7h0a.5.5,0,0,0-.7.1h0L6.6,10.6,4.3,8.3a.5.5,0,0,0-.7,0Z"/></g></g></g></svg>