<svg xmlns="http://www.w3.org/2000/svg" width="18.1" height="14" viewBox="0 0 18.1 14"><title>5-code</title><g id="a2e7cf79-5925-4693-a1c5-c96463315d1f" data-name="レイヤー 2"><g id="aed84f34-aa63-48ba-9f24-ee68136b139e" data-name="レイヤー 1"><g id="aab11ec0-58f7-45e0-a3c7-ae61dc8edcb0" data-name="code mos"><path id="e48410ea-4aaa-4662-88ca-6e187bcff901" data-name="パス 14" d="M17.8,7.9l-4,3.8a.5.5,0,0,1-.8,0h0a.5.5,0,0,1,0-.8L16.8,7,13,3.2a.6.6,0,0,1,0-.9h0a.5.5,0,0,1,.8,0l4,3.8a1.3,1.3,0,0,1,0,1.8Z"/><path id="bbc33743-32e5-404d-b2f7-25e6b4c02502" data-name="パス 15" d="M5.2,2.3h0a.7.7,0,0,1,0,.9L1.3,7l3.9,3.9a.6.6,0,0,1,0,.8h0a.6.6,0,0,1-.9,0L.4,7.9a1.3,1.3,0,0,1,0-1.8h0L4.3,2.3A.6.6,0,0,1,5.2,2.3Z"/><path id="b644e6cb-dbe3-4398-9d7c-3fef6146a5c8" data-name="パス 16" d="M11.5.8,7.8,13.6a.6.6,0,0,1-.7.4h0a.6.6,0,0,1-.5-.8h0L10.3.4a.7.7,0,0,1,.8-.4h0a.6.6,0,0,1,.4.8Z"/></g></g></g></svg>