<svg xmlns="http://www.w3.org/2000/svg" width="13.7" height="14" viewBox="0 0 13.7 14"><title>4-header</title><g id="fa36e768-b39f-49b6-8cbe-f96331bc9fca" data-name="レイヤー 2"><g id="a1da20c3-31f2-4379-b600-7277ba9c2abf" data-name="レイヤー 1"><g id="ea336b93-def1-429f-8bf7-3eeae98d4dc1" data-name="header mos"><path id="a27cecbe-8362-44c7-b105-f3f03c0fd8c8" data-name="パス 13" d="M10.2,0h2.9a.6.6,0,0,1,.6.6h0a.6.6,0,0,1-.6.6h-.8V12.8h.8a.6.6,0,0,1,.6.6h0a.6.6,0,0,1-.6.6H10.2a.6.6,0,0,1-.6-.6h0a.6.6,0,0,1,.6-.6H11V7.2H2.7v5.6h.8a.6.6,0,0,1,.6.6h0a.6.6,0,0,1-.6.6H.6a.6.6,0,0,1-.6-.6H0a.6.6,0,0,1,.6-.6h.7V1.2H.6A.6.6,0,0,1,0,.6H0A.6.6,0,0,1,.6,0H3.5a.6.6,0,0,1,.6.6h0a.6.6,0,0,1-.6.6H2.7V6.1H11V1.2h-.8A.6.6,0,0,1,9.6.6h0a.6.6,0,0,1,.6-.6Z"/></g></g></g></svg>