<svg xmlns="http://www.w3.org/2000/svg" width="8.6" height="13.9" viewBox="0 0 8.6 13.9"><title>2-italic</title><g id="ae042824-f985-491b-a4bd-9511effbd5fd" data-name="レイヤー 2"><g id="ad44d715-7b35-4d3d-9ff7-99d1fe90a315" data-name="レイヤー 1"><g id="b9133865-ee2c-43e6-b227-d88c90fa8f25" data-name="a81bb5b6-9c65-4bd8-9761-14aa9f9070a1"><g id="b44f4fba-0105-4cf6-ad36-53dea00675e0" data-name="e6e51f2a-5efd-4e65-9b13-bb5544fc8d6f"><g id="fcb21270-4a17-4b8d-9e70-5987688caed7" data-name="b18aed24-d5e9-424a-9bda-a06d06c09bed"><g id="a37a6713-3e81-44ce-85a4-2860705ea4bf" data-name="a2c7961a-0deb-44a4-bbca-794954706505"><g id="bc48baea-9f99-4fc2-99b9-aa2c3d8c6720" data-name="bc9a5ab3-6aea-44e2-a204-ea36180a182c"><path id="e158b9d8-0c08-4856-a3cd-b8b9fc99ec38" data-name="b79b9f9d-0375-4133-b105-11797038e1c0" d="M8.1,0a.6.6,0,0,1,.5.6c0,.3-.2.6-.7.6H6.2L3.8,12.8H5.6c.2,0,.4.3.4.5a.7.7,0,0,1-.7.6H.5c-.3,0-.5-.4-.5-.6s.4-.6.7-.6H2.4L4.9,1.2H3.1A.5.5,0,0,1,2.6.7c0-.3.1-.7.8-.7Z"/></g></g></g></g></g></g></g></svg>