<svg xmlns="http://www.w3.org/2000/svg" width="16" height="16" viewBox="0 0 16 16"><title>10-link</title><g id="bf8d3663-76bc-4bf4-86a7-ffc863c9908c" data-name="レイヤー 2"><g id="e860464a-b2b0-4291-affa-a6ac70f8b1d7" data-name="link mos"><path id="e6a1aacd-90e5-448f-92d9-0c89c846fe08" data-name="パス 18" d="M4.6,11.4l.4.2h.2v-.2l6.1-6.1a.4.4,0,0,0,.1-.3.5.5,0,0,0-.5-.5h-.3L4.6,10.7a.6.6,0,0,0-.1.4C4.5,11.2,4.5,11.4,4.6,11.4Zm2.8-1a2,2,0,0,1,0,1.1,4.1,4.1,0,0,1-.5.9L4.8,14.3a1.9,1.9,0,0,1-1.5.7,2,2,0,0,1-1.6-.7A1.9,1.9,0,0,1,1,12.8a2,2,0,0,1,.7-1.6L3.6,9.1a2,2,0,0,1,2.2-.5l.8-.8a3.2,3.2,0,0,0-1.4-.3,3.3,3.3,0,0,0-2.3.9L1,10.5A3.2,3.2,0,0,0,.9,15H1a2.9,2.9,0,0,0,2.3,1,3.2,3.2,0,0,0,2.3-1l2-1.9a4.6,4.6,0,0,0,.9-1.7,2.9,2.9,0,0,0-.3-1.8ZM15,1a2.5,2.5,0,0,0-1-.8,3.1,3.1,0,0,0-3.5.8L8.4,2.9a3.1,3.1,0,0,0-.9,1.8,3.2,3.2,0,0,0,.3,1.9l.8-.8a2,2,0,0,1,0-1.1,2.2,2.2,0,0,1,.5-1.1l2.1-1.9.3-.3.4-.2.4-.2h.5a1.9,1.9,0,0,1,1.5.7A2,2,0,0,1,15,3.3a1.9,1.9,0,0,1-.7,1.5l-2,2.1-.7.4a1.5,1.5,0,0,1-.9.2h-.4l-.8.8h1.2L12,8.3l1-.7,2-2.1A3,3,0,0,0,15,1Z"/></g></g></svg>