<svg xmlns="http://www.w3.org/2000/svg" height="16" viewBox="0 0 23.7 16">
    <path d="M23.7,2h0a.8.8,0,0,1-.8.8H6.6A.8.8,0,0,1,5.9,2h0a.7.7,0,0,1,.7-.7H22.9A.7.7,0,0,1,23.7,2ZM6.6,8.7H22.9a.7.7,0,0,0,.8-.7h0a.8.8,0,0,0-.8-.8H6.6a.8.8,0,0,0-.7.8h0A.7.7,0,0,0,6.6,8.7Zm0,5.9H22.9a.7.7,0,0,0,.8-.7h0a.7.7,0,0,0-.8-.7H6.6a.7.7,0,0,0-.7.7h0A.7.7,0,0,0,6.6,14.6ZM1.5.5h0V4h.6V0H1.6L.7.5V.9L1.5.5ZM.9,9.6l.3-.3c.9-.9,1.4-1.5,1.4-2.2A1.2,1.2,0,0,0,1.3,5.9H1.2A1.4,1.4,0,0,0,0,6.5l.3.4a1.2,1.2,0,0,1,.9-.5A.6.6,0,0,1,2,7v.2C2,7.8,1.6,8.3.5,9.3l-.4.4V10H2.7V9.6Zm.9,4.1h0a1,1,0,0,0,.7-.9,1,1,0,0,0-1.1-1,2,2,0,0,0-1.1.3v.4l.8-.2c.5,0,.8.2.8.6s-.5.7-.9.7H.7V14H1c.6,0,1.1.2,1.1.8a.8.8,0,0,1-.9.8l-.9-.3-.2.4a2,2,0,0,0,1.1.3c1,0,1.5-.6,1.5-1.2a1.2,1.2,0,0,0-.9-1.1Z"/>
</svg>