<svg xmlns="http://www.w3.org/2000/svg" height="13" viewBox="0 0 23.7 16"><path d="M23.7 2a.8.8 0 0 1-.8.8H6.6a.8.8 0 0 1-.7-.8.7.7 0 0 1 .7-.7h16.3a.7.7 0 0 1 .8.7zM6.6 8.7h16.3a.7.7 0 0 0 .8-.7.8.8 0 0 0-.8-.8H6.6a.8.8 0 0 0-.7.8.7.7 0 0 0 .7.7zm0 5.9h16.3a.7.7 0 0 0 .8-.7.7.7 0 0 0-.8-.7H6.6a.7.7 0 0 0-.7.7.7.7 0 0 0 .7.7zM1.5.5V4h.6V0h-.5L.7.5v.4l.8-.4zM.9 9.6l.3-.3c.9-.9 1.4-1.5 1.4-2.2a1.2 1.2 0 0 0-1.3-1.2h-.1a1.4 1.4 0 0 0-1.2.6l.3.4a1.2 1.2 0 0 1 .9-.5.6.6 0 0 1 .8.6v.2c0 .6-.4 1.1-1.5 2.1l-.4.4v.3h2.6v-.4zm.9 4.1a1 1 0 0 0 .7-.9 1 1 0 0 0-1.1-1 2 2 0 0 0-1.1.3v.4l.8-.2c.5 0 .8.2.8.6s-.5.7-.9.7H.7v.4H1c.6 0 1.1.2 1.1.8a.8.8 0 0 1-.9.8l-.9-.3-.2.4a2 2 0 0 0 1.1.3c1 0 1.5-.6 1.5-1.2a1.2 1.2 0 0 0-.9-1.1z"/></svg>