<svg xmlns="http://www.w3.org/2000/svg" width="216" height="135" viewBox="0 0 21.6 13.5"><path d="M6.4 1.5h14.5a.7.7 0 0 0 .7-.7.7.7 0 0 0-.7-.7H6.4a.8.8 0 0 0-.8.7.8.8 0 0 0 .8.7zm0 6h14.5a.7.7 0 0 0 .7-.7.7.7 0 0 0-.7-.7H6.4a.8.8 0 0 0-.8.7.8.8 0 0 0 .8.7zm0 6h14.5a.7.7 0 0 0 .7-.7.7.7 0 0 0-.7-.7H6.4a.8.8 0 0 0-.8.7.8.8 0 0 0 .8.7zM.9 1.5h1a.8.8 0 0 0 .9-.7.8.8 0 0 0-.9-.8h-1a.8.8 0 0 0-.9.7.8.8 0 0 0 .9.8zm0 6h1a.8.8 0 0 0 .9-.7.8.8 0 0 0-.9-.8h-1a.8.8 0 0 0-.9.7.8.8 0 0 0 .9.8zm0 6h1a.8.8 0 0 0 .9-.7.8.8 0 0 0-.9-.7h-1a.8.8 0 0 0-.9.7.8.8 0 0 0 .9.7z"/></svg>