<svg xmlns="http://www.w3.org/2000/svg" width="21.6" height="13.5" viewBox="0 0 21.6 13.5"><title>7-list-ul</title><g id="abba2999-3237-46ab-aa01-dfb343bcceb4" data-name="レイヤー 2"><g id="bf46f4a5-2213-4de7-b75b-9de9f54a9d18" data-name="レイヤー 1"><g id="bd162fe2-ef9c-404a-aca9-836adf4c5a18" data-name="ti-list-ul mos"><path id="fddb99ad-e902-4055-8f60-7f255af131ba" data-name="ti-list-ul" d="M6.4,1.5H20.9a.7.7,0,0,0,.7-.7h0a.7.7,0,0,0-.7-.7H6.4a.8.8,0,0,0-.8.7h0A.8.8,0,0,0,6.4,1.5Z"/><path id="b1dd0034-1ff4-47b8-b505-7802919e7ffd" data-name="ti-list-ul-2" d="M6.4,7.5H20.9a.7.7,0,0,0,.7-.7h0a.7.7,0,0,0-.7-.7H6.4a.8.8,0,0,0-.8.7h0A.8.8,0,0,0,6.4,7.5Z"/><path id="b372a1d0-779f-463b-ad10-9d5847c216e9" data-name="ti-list-ul-3" d="M6.4,13.5H20.9a.7.7,0,0,0,.7-.7h0a.7.7,0,0,0-.7-.7H6.4a.8.8,0,0,0-.8.7h0A.8.8,0,0,0,6.4,13.5Z"/><path id="a4aeda1c-4f64-40fc-80ce-8b37c5ee7c2f" data-name="ti-list-ul-4" d="M.9,1.5h1A.8.8,0,0,0,2.8.8h0A.8.8,0,0,0,1.9,0H.9A.8.8,0,0,0,0,.7H0A.8.8,0,0,0,.9,1.5Z"/><path id="f3c05748-558e-4de6-9181-c1eb706f64f4" data-name="ti-list-ul-5" d="M.9,7.5h1a.8.8,0,0,0,.9-.7h0A.8.8,0,0,0,1.9,6H.9a.8.8,0,0,0-.9.7H0A.8.8,0,0,0,.9,7.5Z"/><path id="b185af11-e19d-4078-922a-9dc1d660c3d5" data-name="ti-list-ul-6" d="M.9,13.5h1a.8.8,0,0,0,.9-.7h0a.8.8,0,0,0-.9-.7H.9a.8.8,0,0,0-.9.7H0A.8.8,0,0,0,.9,13.5Z"/></g></g></g></svg>