<svg xmlns="http://www.w3.org/2000/svg" width="17" height="12" viewBox="0 0 17 12"><title>6-quote</title><g id="bc971b7a-f68c-4cb5-8e23-44e6f8116dfb" data-name="レイヤー 2"><g id="e1ed3c59-bebd-4161-b8fd-7edac37a0f0e" data-name="レイヤー 1"><path d="M5,0H2A2,2,0,0,0,0,2V5A2,2,0,0,0,2,7H5a1.7,1.7,0,0,0,1-.3V10a.9.9,0,0,1-1,1H3v1H5a2,2,0,0,0,2-2V2A2,2,0,0,0,5,0ZM5,6H2A.9.9,0,0,1,1,5V2A.9.9,0,0,1,2,1H5A.9.9,0,0,1,6,2V5A.9.9,0,0,1,5,6Z"/><path d="M15,0H12a2,2,0,0,0-2,2V5a2,2,0,0,0,2,2h3a1.7,1.7,0,0,0,1-.3V10a.9.9,0,0,1-1,1H13v1h2a2,2,0,0,0,2-2V2A2,2,0,0,0,15,0Zm0,6H12a.9.9,0,0,1-1-1V2a.9.9,0,0,1,1-1h3a.9.9,0,0,1,1,1V5A.9.9,0,0,1,15,6Z"/></g></g></svg>