<svg xmlns="http://www.w3.org/2000/svg" width="19.5" height="14" viewBox="0 0 19.5 14"><title>3-strikethrough</title><g id="e1415e3f-3718-42dd-8930-daf297ffa256" data-name="レイヤー 2"><g id="b294607e-7214-47c5-bbc0-aa779210464a" data-name="レイヤー 1"><g id="a33e08e2-9a99-4b75-9cd2-4b4144df4eff" data-name="b888ee16-0dc2-4e82-80b5-8de6777dbf51"><g id="e6572694-778e-46c1-a60f-4f3c59c6dab1" data-name="b0539338-8f32-46e4-a334-e2175145567f"><g id="a5704e84-7fb8-43ac-9656-32a46c9d187f" data-name="aef97047-9189-43ff-948e-3888ed38f9e7"><path d="M5.8,6.2H9C7.2,5.7,6.3,5,6.3,3.8a2.2,2.2,0,0,1,.9-1.9,4.3,4.3,0,0,1,2.5-.7,4.3,4.3,0,0,1,2.5.7,3.1,3.1,0,0,1,1.1,1.6.7.7,0,0,0,.6.4h.3a.7.7,0,0,0,.4-.8A3.6,3.6,0,0,0,13.1,1h0a6.7,6.7,0,0,0-6-.5A3.1,3.1,0,0,0,5.4,1.8a3.6,3.6,0,0,0-.6,2,2.9,2.9,0,0,0,1,2.3Z"/><path d="M12.8,8.7a2,2,0,0,1,.6,1.4,2.4,2.4,0,0,1-1,1.9,3.7,3.7,0,0,1-2.5.7,4.6,4.6,0,0,1-3-.8,3.7,3.7,0,0,1-1.2-2,.6.6,0,0,0-.6-.5H4.9a.7.7,0,0,0-.5.8h0a4.1,4.1,0,0,0,1.5,2.5A6,6,0,0,0,9.8,14a7.5,7.5,0,0,0,2.6-.5,4.9,4.9,0,0,0,1.8-1.4,4.3,4.3,0,0,0,.6-2.2,5,5,0,0,0-.2-1.2Z"/><path id="bc6ad69d-5241-4a14-89b4-e410764b2da9" data-name="aed0cd9c-7ffc-464c-b99b-1e025708b13f" d="M.4,7.9A.7.7,0,0,1,0,7.4.4.4,0,0,1,.4,7H19.2a.4.4,0,0,1,.3.6c0,.1-.1.2-.2.3Z"/></g></g></g></g></g></svg>