<svg xmlns="http://www.w3.org/2000/svg" width="195" height="140" viewBox="0 0 19.5 14"><path d="M5.8 6.2H9C7.2 5.7 6.3 5 6.3 3.8a2.2 2.2 0 0 1 .9-1.9 4.3 4.3 0 0 1 2.5-.7 4.3 4.3 0 0 1 2.5.7 3.1 3.1 0 0 1 1.1 1.6.7.7 0 0 0 .6.4h.3a.7.7 0 0 0 .4-.8A3.6 3.6 0 0 0 13.1 1a6.7 6.7 0 0 0-6-.5 3.1 3.1 0 0 0-1.7 1.3 3.6 3.6 0 0 0-.6 2 2.9 2.9 0 0 0 1 2.3zm7 2.5a2 2 0 0 1 .6 1.4 2.4 2.4 0 0 1-1 1.9 3.7 3.7 0 0 1-2.5.7 4.6 4.6 0 0 1-3-.8 3.7 3.7 0 0 1-1.2-2 .6.6 0 0 0-.6-.5h-.2a.7.7 0 0 0-.5.8 4.1 4.1 0 0 0 1.5 2.5A6 6 0 0 0 9.8 14a7.5 7.5 0 0 0 2.6-.5 4.9 4.9 0 0 0 1.8-1.4 4.3 4.3 0 0 0 .6-2.2 5 5 0 0 0-.2-1.2zM.4 7.9a.7.7 0 0 1-.4-.5.4.4 0 0 1 .4-.4h18.8a.4.4 0 0 1 .3.6c0 .1-.1.2-.2.3z"/></svg>