<svg xmlns="http://www.w3.org/2000/svg" width="20.3" height="16" viewBox="0 0 20.3 16"><title>12-table</title><g id="a34fc8b3-9890-4601-87a4-d5ed6b62ba06" data-name="レイヤー 2"><g id="b1a9df23-691d-46e7-a160-d6e57a2e8dd8" data-name="レイヤー 1"><g id="beb0f6bd-4222-450f-8e18-1e60117400cb" data-name="table mos"><path id="e80e969e-922e-49ee-b1ac-3db1fdb6a35a" data-name="前面オブジェクトで型抜き 1" d="M19.1,16H1.2A1.2,1.2,0,0,1,0,14.8V1.2A1.2,1.2,0,0,1,1.2,0H19.1a1.2,1.2,0,0,1,1.2,1.2V14.8A1.2,1.2,0,0,1,19.1,16Zm-5.2-4.3v3.2h5.3V11.7Zm-6.4,0v3.2h5.3V11.7Zm-6.4,0v3.2H6.4V11.7ZM13.9,7.5v3.2h5.3V7.5Zm-6.4,0v3.2h5.3V7.5Zm-6.4,0v3.2H6.4V7.5ZM13.9,3.2V6.4h5.3V3.2Zm-6.4,0V6.4h5.3V3.2Zm-6.4,0V6.4H6.4V3.2Z"/></g></g></g></svg>