<svg xmlns="http://www.w3.org/2000/svg" xmlns:xlink="http://www.w3.org/1999/xlink" width="24" height="24" viewBox="0 0 24 24"><defs><style>.a{fill:#fff;stroke:#707070;}.b{clip-path:url(#a);}.c{fill:none;}</style><clipPath id="a"><rect class="a" width="24" height="24" transform="translate(-14953 -18037)"/></clipPath></defs><g class="b" transform="translate(14953 18037)"><path class="c" d="M72.039,10.1H68.973l-1.7-2.9a1.023,1.023,0,0,0,.394-.794V1.593A1.059,1.059,0,0,0,66.6.545H61.66a1.06,1.06,0,0,0-1.069,1.048V6.406a1.025,1.025,0,0,0,.394.794l-1.7,2.9H56.176a1.059,1.059,0,0,0-1.068,1.048v4.812a1.059,1.059,0,0,0,1.068,1.048h4.938a1.059,1.059,0,0,0,1.068-1.048V11.151A1.059,1.059,0,0,0,61.113,10.1h-.12l1.552-2.649h3.167L67.264,10.1H67.1a1.059,1.059,0,0,0-1.069,1.048v4.812A1.059,1.059,0,0,0,67.1,17.011h4.937a1.059,1.059,0,0,0,1.069-1.048V11.151A1.059,1.059,0,0,0,72.039,10.1M60.7,15.556h-4.11v-4H60.7ZM62.074,2h4.11V6h-4.11Zm9.552,13.557h-4.11v-4h4.11Z" transform="translate(-15005.108 -18033.777)"/></g></svg>