<svg xmlns="http://www.w3.org/2000/svg" width="21.996" height="20.121" viewBox="0 0 21.996 20.121"><defs><style>.a{fill:none;}</style></defs><path class="a" d="M75.8,12.224H72.051L69.973,8.677a1.25,1.25,0,0,0,.481-.97V1.826A1.3,1.3,0,0,0,69.148.545H63.115a1.3,1.3,0,0,0-1.306,1.281V7.707a1.253,1.253,0,0,0,.481.97l-2.078,3.547h-3.8a1.294,1.294,0,0,0-1.3,1.281v5.88a1.294,1.294,0,0,0,1.3,1.281h6.034a1.294,1.294,0,0,0,1.3-1.281v-5.88a1.294,1.294,0,0,0-1.3-1.281H62.3l1.9-3.237h3.871l1.9,3.237h-.2a1.3,1.3,0,0,0-1.306,1.281v5.88a1.3,1.3,0,0,0,1.306,1.281H75.8A1.3,1.3,0,0,0,77.1,19.385v-5.88A1.3,1.3,0,0,0,75.8,12.224M61.941,18.889H56.918V14h5.023ZM63.62,2.322h5.023V7.211H63.62ZM75.293,18.889H70.271V14h5.023Z" transform="translate(-55.108 -0.545)"/></svg>