<svg xmlns="http://www.w3.org/2000/svg" xmlns:xlink="http://www.w3.org/1999/xlink" width="24" height="24" viewBox="0 0 24 24"><defs><style>.a,.c{fill:none;}.a{stroke:#707070;}.b{clip-path:url(#a);}</style><clipPath id="a"><rect class="a" width="24" height="24" transform="translate(-14953 -18037)"/></clipPath></defs><g class="b" transform="translate(14953 18037)"><path class="c" d="M70.158,9.041H67.433L65.921,6.46a.909.909,0,0,0,.35-.706V1.477a.942.942,0,0,0-.95-.932H60.932a.942.942,0,0,0-.95.932V5.755a.911.911,0,0,0,.35.706l-1.511,2.58H56.057a.942.942,0,0,0-.949.932v4.277a.942.942,0,0,0,.949.932h4.389a.941.941,0,0,0,.949-.932V9.972a.941.941,0,0,0-.949-.932h-.107l1.38-2.354h2.815l1.379,2.354H65.77a.942.942,0,0,0-.95.932v4.277a.942.942,0,0,0,.95.932h4.388a.942.942,0,0,0,.95-.932V9.972a.942.942,0,0,0-.95-.932m-10.08,4.848H56.425V10.333h3.653ZM61.3,1.838h3.653V5.394H61.3Zm8.491,12.051H66.137V10.333h3.653Z" transform="translate(-15004.108 -18032.863)"/></g></svg>