<svg xmlns="http://www.w3.org/2000/svg" width="24" height="24" viewBox="0 0 24 24"><defs><style>.a{fill:none;}</style></defs><g transform="translate(-289 -250)"><path class="a" d="M73.921,11.164H70.514l-1.89-3.225a1.136,1.136,0,0,0,.437-.882V1.71A1.177,1.177,0,0,0,67.874.545H62.388A1.178,1.178,0,0,0,61.2,1.71V7.057a1.139,1.139,0,0,0,.437.882l-1.889,3.225H56.295a1.177,1.177,0,0,0-1.187,1.165v5.346a1.177,1.177,0,0,0,1.187,1.165h5.486a1.176,1.176,0,0,0,1.187-1.165V12.329a1.176,1.176,0,0,0-1.187-1.165h-.134l1.724-2.943h3.519l1.724,2.943h-.179a1.177,1.177,0,0,0-1.187,1.165v5.346a1.177,1.177,0,0,0,1.187,1.165h5.485a1.177,1.177,0,0,0,1.187-1.165V12.329a1.177,1.177,0,0,0-1.187-1.165m-12.6,6.06H56.754V12.78h4.567ZM62.847,2.161h4.567V6.606H62.847ZM73.461,17.224H68.894V12.78h4.567Z" transform="translate(235.892 252.453)"/></g></svg>