<svg xmlns="http://www.w3.org/2000/svg" width="24" height="24" viewBox="0 0 24 24"><defs><style>.a,.b{fill:none;}.a{fill-rule:evenodd;}</style></defs><g transform="translate(-207 -420)"><path class="a" d="M10.008,0A10.093,10.093,0,0,0,6.843,19.648c.5.1.679-.217.679-.484,0-.234-.016-1.035-.016-1.87-2.784.6-3.364-1.2-3.364-1.2a2.576,2.576,0,0,0-1.11-1.469c-.911-.618.066-.618.066-.618A2.1,2.1,0,0,1,4.64,15.04a2.12,2.12,0,0,0,2.916.835,2.148,2.148,0,0,1,.63-1.352c-2.22-.234-4.557-1.1-4.557-4.975a3.947,3.947,0,0,1,1.027-2.7,3.667,3.667,0,0,1,.1-2.671s.845-.267,2.75,1.035a9.541,9.541,0,0,1,5,0c1.906-1.3,2.751-1.035,2.751-1.035a3.667,3.667,0,0,1,.1,2.671,3.872,3.872,0,0,1,1.027,2.7c0,3.873-2.336,4.724-4.573,4.975a2.4,2.4,0,0,1,.679,1.87c0,1.352-.016,2.437-.016,2.771,0,.267.182.584.679.484A10.093,10.093,0,0,0,10.008,0Z" transform="translate(209 422)"/></g></svg>