<svg xmlns="http://www.w3.org/2000/svg" width="24" height="24" viewBox="0 0 24 24"><defs><style>.a,.b{fill:none;}.b{fill-rule:evenodd;}</style></defs><g transform="translate(-131 -627)"><path class="b" d="M15.2,2.081a2.084,2.084,0,0,1,4.167,0V17.919A2.089,2.089,0,0,1,17.288,20H15.2ZM3.184,3.372A4.117,4.117,0,0,1,6.56.042H6.539a3.991,3.991,0,0,1,4.522,3.267L13.957,20H11.6a1.785,1.785,0,0,1-1.75-1.436L9.31,15.838H4.705L3.872,20H2.663A2.161,2.161,0,0,1,.538,17.44ZM6.893,5.078,5.518,11.9h3L7.143,5.078A.126.126,0,0,0,6.893,5.078Z" transform="translate(132.5 629)"/></g></svg>