<svg xmlns="http://www.w3.org/2000/svg" width="24" height="24" viewBox="0 0 24 24"><defs><style>.a{fill:none;}</style></defs><g transform="translate(-451 -420)"><path class="a" d="M12.121-1.607h0V-18.75L9.08-17.268V-2.089c-3.446-.433-6.058-2.321-6.058-4.6,0-2.156,2.344-3.964,5.536-4.522v-1.92C3.683-12.536,0-9.879,0-6.687,0-3.37,3.951-.638,9.085-.179ZM20-7.9l-.411-4.353-1.562.884a13.494,13.494,0,0,0-5.371-1.754v1.92A9.539,9.539,0,0,1,15.781-10.1l-1.643.924Z" transform="translate(453 441.465)"/></g></svg>