<svg xmlns="http://www.w3.org/2000/svg" width="20.001" height="20.568" viewBox="0 0 20.001 20.568"><defs><style>.a{fill:none;}</style></defs><path class="a" d="M15437.46,17968.3a5.262,5.262,0,0,1,8.868-3.844v-.93h1.154v3.217h-3.212v-1.158h1.543a4.109,4.109,0,1,0,1.028,2.715H15448a5.271,5.271,0,0,1-10.541,0Zm4.69.217v-3.168h1.159v2.734l1.732,1.98-.87.762Zm-14.15,1.939v-3.7l10.93-10.936,3.708,3.709-10.934,10.93Zm1.646-3v1.354h1.35l9.3-9.3-.668-.668-.681-.682Zm10.43-12.787,1.159-1.164a1.633,1.633,0,0,1,2.363,0l1.354,1.357a1.578,1.578,0,0,1,.469,1.186,1.647,1.647,0,0,1-.487,1.191l-1.154,1.15Z" transform="translate(-15428 -17953)"/></svg>