<svg xmlns="http://www.w3.org/2000/svg" width="24" height="24" viewBox="0 0 24 24"><defs><style>.a{fill:none;}</style></defs><g transform="translate(-451 -246)"><path class="a" d="M15437.2,17967.877a5.116,5.116,0,0,1,8.623-3.736v-.9h1.123v3.127h-3.124v-1.125h1.5a3.994,3.994,0,0,0-7,2.639,4,4,0,1,0,8,0h1.127a5.125,5.125,0,0,1-10.25,0Zm4.561.211v-3.08h1.128v2.658l1.685,1.926-.847.742Zm-13.759,1.887v-3.6l10.628-10.633,3.605,3.607-10.632,10.627Zm1.6-2.918v1.316h1.313l9.044-9.043-.649-.65-.662-.662Zm10.142-12.434,1.127-1.131a1.588,1.588,0,0,1,2.3,0l1.315,1.32a1.533,1.533,0,0,1,.456,1.152,1.6,1.6,0,0,1-.474,1.158l-1.123,1.119Z" transform="translate(-14974.725 -17705)"/></g></svg>