<svg xmlns="http://www.w3.org/2000/svg" width="24" height="24" viewBox="0 0 24 24"><defs><style>.a{fill:none;}</style></defs><g transform="translate(-131 -420)"><g transform="translate(133 422)"><path class="a" d="M4.2,66.8a2.1,2.1,0,1,1-2.1-2.1H4.2Z" transform="translate(0 -54.162)"/><path class="a" d="M32.3,66.8a2.1,2.1,0,1,1,4.2,0v5.261a2.1,2.1,0,1,1-4.2,0V66.8" transform="translate(-27.039 -54.162)"/><path class="a" d="M34.4,4.2a2.1,2.1,0,1,1,2.1-2.1V4.2Z" transform="translate(-27.039)"/><path class="a" d="M7.362,32.3a2.1,2.1,0,1,1,0,4.2H2.1a2.1,2.1,0,1,1,0-4.2H7.362" transform="translate(0 -27.039)"/><path class="a" d="M97,34.4a2.1,2.1,0,1,1,2.1,2.1H97Z" transform="translate(-81.202 -27.039)"/><path class="a" d="M68.9,7.362a2.1,2.1,0,1,1-4.2,0V2.1a2.1,2.1,0,1,1,4.2,0Z" transform="translate(-54.162)"/><path class="a" d="M66.8,97a2.1,2.1,0,1,1-2.1,2.1V97Z" transform="translate(-54.162 -81.201)"/><path class="a" d="M66.8,68.9a2.1,2.1,0,1,1,0-4.2h5.261a2.1,2.1,0,1,1,0,4.2Z" transform="translate(-54.162 -54.162)"/></g></g></svg>