<svg xmlns="http://www.w3.org/2000/svg" width="249" height="160" viewBox="0 0 249 160">
  <g transform="translate(17766 9768)">
    <g transform="translate(-217 -259)">
      <rect width="249" height="160" rx="2" transform="translate(-17549 -9509)" fill="#2a2d33"/>
      <g transform="translate(-17436 -9480)">
        <rect width="123" height="5" transform="translate(0 10)" fill="#8e9aa7" stroke="rgba(0,0,0,0)" stroke-width="1"/>
        <rect width="30.855" height="5" fill="#8e9aa7" stroke="rgba(0,0,0,0)" stroke-width="1"/>
        <rect width="123" height="5" transform="translate(0 20)" fill="#8e9aa7" stroke="rgba(0,0,0,0)" stroke-width="1"/>
        <rect width="123" height="5" transform="translate(0 30)" fill="#8e9aa7" stroke="rgba(0,0,0,0)" stroke-width="1"/>
      </g>
      <g transform="translate(-17436 -9415)">
        <rect width="123" height="5" transform="translate(0 10)" fill="#8e9aa7" stroke="rgba(0,0,0,0)" stroke-width="1"/>
        <rect width="30.855" height="5" fill="#8e9aa7" stroke="rgba(0,0,0,0)" stroke-width="1"/>
        <rect width="123" height="5" transform="translate(0 20)" fill="#8e9aa7" stroke="rgba(0,0,0,0)" stroke-width="1"/>
        <rect width="123" height="5" transform="translate(0 30)" fill="#8e9aa7" stroke="rgba(0,0,0,0)" stroke-width="1"/>
      </g>
      <g>
        <path d="M2,160H-2V0H2Z" transform="translate(-17461 -9509)" fill="#209fd8"/>
        <rect width="86" height="160" transform="translate(-17549 -9509)" fill="#343a40"/>
      </g>
      <g transform="translate(0 11)">
        <rect width="47" height="5" transform="translate(-17530 -9431)" fill="#8e9aa7" stroke="rgba(0,0,0,0)" stroke-width="1"/>
        <rect width="47" height="5" transform="translate(-17530 -9441)" fill="#8e9aa7" stroke="rgba(0,0,0,0)" stroke-width="1"/>
        <rect width="47" height="5" transform="translate(-17530 -9451)" fill="#8e9aa7" stroke="rgba(0,0,0,0)" stroke-width="1"/>
        <rect width="47" height="5" transform="translate(-17530 -9461)" fill="#8e9aa7" stroke="rgba(0,0,0,0)" stroke-width="1"/>
        <rect width="47" height="5" transform="translate(-17530 -9471)" fill="#8e9aa7" stroke="rgba(0,0,0,0)" stroke-width="1"/>
        <rect width="47" height="5" transform="translate(-17530 -9481)" fill="#8e9aa7" stroke="rgba(0,0,0,0)" stroke-width="1"/>
        <rect width="11.787" height="5" transform="translate(-17530 -9491)" fill="#8e9aa7" stroke="rgba(0,0,0,0)" stroke-width="1"/>
      </g>
    </g>
    <g transform="translate(-34501.195 -19078.822)" fill="#122c55">
      <path d="M 16811.048828125 9427.01171875 C 16810.25 9427.01171875 16809.513671875 9426.6552734375 16808.97265625 9426.0068359375 L 16804.236328125 9420.3349609375 C 16803.76171875 9419.767578125 16803.501953125 9419.029296875 16803.501953125 9418.255859375 C 16803.501953125 9417.484375 16803.76171875 9416.74609375 16804.232421875 9416.177734375 L 16804.234375 9416.17578125 L 16804.236328125 9416.1728515625 L 16808.97265625 9410.5068359375 C 16809.513671875 9409.857421875 16810.251953125 9409.5 16811.05078125 9409.5 C 16811.814453125 9409.5 16812.556640625 9409.8408203125 16813.087890625 9410.435546875 C 16813.59765625 9411.0068359375 16813.87890625 9411.76953125 16813.87890625 9412.5849609375 L 16813.87890625 9414.12109375 L 16832.51171875 9414.12109375 L 16832.51171875 9412.5849609375 C 16832.51171875 9411.7705078125 16832.79296875 9411.0068359375 16833.302734375 9410.435546875 C 16833.833984375 9409.8408203125 16834.576171875 9409.5 16835.33984375 9409.5 C 16836.138671875 9409.5 16836.876953125 9409.857421875 16837.41796875 9410.5068359375 L 16842.150390625 9416.1728515625 C 16843.130859375 9417.341796875 16843.130859375 9419.1689453125 16842.150390625 9420.3349609375 L 16837.419921875 9426.0048828125 C 16836.888671875 9426.64453125 16836.1328125 9427.01171875 16835.34375 9427.01171875 C 16834.580078125 9427.01171875 16833.837890625 9426.6708984375 16833.3046875 9426.0771484375 C 16832.79296875 9425.505859375 16832.51171875 9424.7421875 16832.51171875 9423.927734375 L 16832.51171875 9422.390625 L 16813.87890625 9422.390625 L 16813.87890625 9423.927734375 C 16813.87890625 9424.7421875 16813.59765625 9425.5048828125 16813.0859375 9426.076171875 C 16812.5546875 9426.6708984375 16811.8125 9427.01171875 16811.048828125 9427.01171875 Z" stroke="none"/>
      <path d="M 16811.048828125 9425.51171875 C 16811.728515625 9425.51171875 16812.37890625 9424.8798828125 16812.37890625 9423.927734375 L 16812.37890625 9420.890625 L 16834.01171875 9420.890625 L 16834.01171875 9423.927734375 C 16834.01171875 9424.8798828125 16834.6640625 9425.51171875 16835.34375 9425.51171875 C 16835.666015625 9425.51171875 16836 9425.3681640625 16836.267578125 9425.044921875 L 16841 9419.373046875 C 16841.51953125 9418.7578125 16841.51953125 9417.7548828125 16841 9417.134765625 L 16836.267578125 9411.46875 C 16835.998046875 9411.1455078125 16835.666015625 9411 16835.33984375 9411 C 16834.662109375 9411 16834.01171875 9411.630859375 16834.01171875 9412.5849609375 L 16834.01171875 9415.62109375 L 16812.37890625 9415.62109375 L 16812.37890625 9412.5849609375 C 16812.37890625 9411.630859375 16811.728515625 9411 16811.05078125 9411 C 16810.724609375 9411 16810.392578125 9411.1455078125 16810.123046875 9411.46875 L 16805.38671875 9417.134765625 C 16804.873046875 9417.7548828125 16804.873046875 9418.7578125 16805.38671875 9419.373046875 L 16810.123046875 9425.044921875 C 16810.392578125 9425.3671875 16810.72265625 9425.51171875 16811.048828125 9425.51171875 M 16811.048828125 9428.51171875 C 16811.048828125 9428.51171875 16811.048828125 9428.51171875 16811.048828125 9428.51171875 C 16809.81640625 9428.51171875 16808.640625 9427.94921875 16807.8203125 9426.96875 L 16803.083984375 9421.2958984375 C 16801.642578125 9419.568359375 16801.638671875 9416.95703125 16803.076171875 9415.220703125 L 16803.0859375 9415.2109375 L 16807.822265625 9409.544921875 C 16808.640625 9408.5634765625 16809.818359375 9408 16811.05078125 9408 C 16812.2421875 9408 16813.392578125 9408.5234375 16814.20703125 9409.4365234375 C 16814.962890625 9410.283203125 16815.37890625 9411.4013671875 16815.37890625 9412.5849609375 L 16815.37890625 9412.62109375 L 16831.01171875 9412.62109375 L 16831.01171875 9412.5849609375 C 16831.01171875 9411.4013671875 16831.427734375 9410.283203125 16832.18359375 9409.4365234375 C 16832.998046875 9408.5234375 16834.1484375 9408 16835.33984375 9408 C 16836.572265625 9408 16837.75 9408.5634765625 16838.5703125 9409.544921875 L 16843.302734375 9415.2119140625 C 16844.7578125 9416.94921875 16844.7578125 9419.56640625 16843.298828125 9421.30078125 L 16838.572265625 9426.9658203125 C 16837.75390625 9427.9482421875 16836.578125 9428.51171875 16835.34375 9428.51171875 C 16834.154296875 9428.51171875 16833.00390625 9427.9892578125 16832.1875 9427.078125 C 16831.4296875 9426.2314453125 16831.01171875 9425.1123046875 16831.01171875 9423.927734375 L 16831.01171875 9423.890625 L 16815.37890625 9423.890625 L 16815.37890625 9423.927734375 C 16815.37890625 9425.111328125 16814.9609375 9426.2294921875 16814.205078125 9427.076171875 C 16813.388671875 9427.98828125 16812.23828125 9428.51171875 16811.048828125 9428.51171875 L 16811.048828125 9428.51171875 Z" stroke="none" fill="#fff"/>
    </g>
    <g transform="translate(15 -11.499)" fill="#2a2d33" stroke-linecap="round" stroke-linejoin="round">
      <path d="M -17689.794921875 -9624.6689453125 L -17689.794921875 -9628.078125 L -17689.794921875 -9645.810546875 L -17689.794921875 -9649.60546875 L -17687.201171875 -9646.8359375 L -17675.93359375 -9634.8095703125 L -17674.029296875 -9632.7783203125 L -17676.7734375 -9632.3056640625 L -17682.544921875 -9631.3115234375 L -17687.28125 -9626.9716796875 L -17689.794921875 -9624.6689453125 Z" stroke="none"/>
      <path d="M -17688.294921875 -9645.810546875 L -17688.294921875 -9628.078125 L -17683.234375 -9632.71484375 L -17677.02734375 -9633.7841796875 L -17688.294921875 -9645.810546875 M -17688.294921875 -9648.810546875 C -17687.482421875 -9648.810546875 -17686.68359375 -9648.4794921875 -17686.10546875 -9647.861328125 L -17674.837890625 -9635.8349609375 C -17674.083984375 -9635.0302734375 -17673.83203125 -9633.8759765625 -17674.18359375 -9632.830078125 C -17674.533203125 -9631.7841796875 -17675.431640625 -9631.0146484375 -17676.517578125 -9630.828125 L -17681.857421875 -9629.908203125 L -17686.267578125 -9625.8662109375 C -17687.14453125 -9625.0634765625 -17688.4140625 -9624.8525390625 -17689.50390625 -9625.33203125 C -17690.591796875 -9625.8115234375 -17691.294921875 -9626.888671875 -17691.294921875 -9628.078125 L -17691.294921875 -9645.810546875 C -17691.294921875 -9647.0419921875 -17690.54296875 -9648.1474609375 -17689.3984375 -9648.6005859375 C -17689.0390625 -9648.7421875 -17688.666015625 -9648.810546875 -17688.294921875 -9648.810546875 Z" stroke="none" fill="#fff"/>
    </g>
  </g>
</svg>
