<svg xmlns="http://www.w3.org/2000/svg" width="249" height="160" viewBox="0 0 249 160">
  <g transform="translate(17766 9529)">
    <rect width="249" height="160" rx="2" transform="translate(-17766 -9529)" fill="#2a2d33"/>
    <g transform="translate(-17700 -9500)">
      <rect width="170" height="5" transform="translate(0 10)" fill="#8e9aa7" stroke="rgba(0,0,0,0)" stroke-width="1"/>
      <rect width="42.646" height="5" fill="#8e9aa7" stroke="rgba(0,0,0,0)" stroke-width="1"/>
      <rect width="170" height="5" transform="translate(0 20)" fill="#8e9aa7" stroke="rgba(0,0,0,0)" stroke-width="1"/>
      <rect width="170" height="5" transform="translate(0 30)" fill="#8e9aa7" stroke="rgba(0,0,0,0)" stroke-width="1"/>
    </g>
    <g transform="translate(-17700 -9435)">
      <rect width="170" height="5" transform="translate(0 10)" fill="#8e9aa7" stroke="rgba(0,0,0,0)" stroke-width="1"/>
      <rect width="42.646" height="5" fill="#8e9aa7" stroke="rgba(0,0,0,0)" stroke-width="1"/>
      <rect width="170" height="5" transform="translate(0 20)" fill="#8e9aa7" stroke="rgba(0,0,0,0)" stroke-width="1"/>
      <rect width="170" height="5" transform="translate(0 30)" fill="#8e9aa7" stroke="rgba(0,0,0,0)" stroke-width="1"/>
    </g>
    <rect width="249" height="160" transform="translate(-17766 -9529)" fill="#16171d" opacity="0.586"/>
    <g transform="translate(-217 -20)">
      <path d="M2,160H-2V0H2Z" transform="translate(-17461 -9509)" fill="#209fd8"/>
      <rect width="86" height="160" transform="translate(-17549 -9509)" fill="#343a40"/>
    </g>
    <g transform="translate(-217 -9)">
      <rect width="47" height="5" transform="translate(-17530 -9431)" fill="#8e9aa7" stroke="rgba(0,0,0,0)" stroke-width="1"/>
      <rect width="47" height="5" transform="translate(-17530 -9441)" fill="#8e9aa7" stroke="rgba(0,0,0,0)" stroke-width="1"/>
      <rect width="47" height="5" transform="translate(-17530 -9451)" fill="#8e9aa7" stroke="rgba(0,0,0,0)" stroke-width="1"/>
      <rect width="47" height="5" transform="translate(-17530 -9461)" fill="#8e9aa7" stroke="rgba(0,0,0,0)" stroke-width="1"/>
      <rect width="47" height="5" transform="translate(-17530 -9471)" fill="#8e9aa7" stroke="rgba(0,0,0,0)" stroke-width="1"/>
      <rect width="47" height="5" transform="translate(-17530 -9481)" fill="#8e9aa7" stroke="rgba(0,0,0,0)" stroke-width="1"/>
      <rect width="11.787" height="5" transform="translate(-17530 -9491)" fill="#8e9aa7" stroke="rgba(0,0,0,0)" stroke-width="1"/>
    </g>
  </g>
</svg>
