<svg xmlns="http://www.w3.org/2000/svg" xmlns:xlink="http://www.w3.org/1999/xlink" width="350" height="150" viewBox="0 0 350 150"><defs><clipPath id="b"><rect width="350" height="150"/></clipPath></defs><g id="a" clip-path="url(#b)"><rect width="350" height="150" fill="#fff"/><g transform="translate(884.33 1244.943)"><rect width="350" height="150" transform="translate(-884.33 -1244.943)" fill="#fffeff"/><g transform="translate(-866.138 -1210.943)"><rect width="313.615" height="5" transform="translate(0 10)" fill="#acb4bd"/><rect width="43.9" height="5" fill="#acb4bd"/><rect width="313.615" height="5" transform="translate(0 20)" fill="#acb4bd"/><rect width="313.615" height="5" transform="translate(0 30)" fill="#acb4bd"/></g><g transform="translate(-865.586 -1166.098)"><g transform="translate(0 5.155)"><path d="M-256.423-1045.443a1.994,1.994,0,0,1-1.4-.573,2,2,0,0,1-.026-2.828l12.125-12.349-12.125-12.349a2,2,0,0,1,.026-2.828,2,2,0,0,1,2.829.026l14.876,15.151L-255-1046.042A2,2,0,0,1-256.423-1045.443Z" transform="translate(552.633 1076.943)" fill="#499519"/><path d="M-534.739-1045.447h-6.5v-4h6.5Zm-13,0h-6.5v-4h6.5Zm-13,0h-6.5v-4h6.5Zm-13,0h-6.5v-4h6.5Zm-13,0h-6.5v-4h6.5Zm-13,0h-6.5v-4h6.5Zm-13,0h-6.5v-4h6.5Zm-13,0h-6.5v-4h6.5Zm-13,0h-6.5v-4h6.5Zm-13,0h-6.5v-4h6.5Zm-13,0h-6.5v-4h6.5Zm-13,0h-6.5v-4h6.5Zm-13,0h-6.5v-4h6.5Zm-13,0h-6.5v-4h6.5Zm-13,0h-6.5v-4h6.5Zm-13,0h-6.5v-4h6.5Zm-13,0h-6.5v-4h6.5Zm-13,0h-6.5v-4h6.5Zm-13,0h-6.5v-4h6.5Zm-13,0h-6.5v-4h6.5Zm-13,0h-6.5v-4h6.5Zm-13,0h-6.5v-4h6.5Z" transform="translate(830.541 1063.195)" fill="#499519"/><path d="M-830.539-1045.443a1.994,1.994,0,0,1-1.427-.6l-14.875-15.151,14.875-15.151a2,2,0,0,1,2.828-.026,2,2,0,0,1,.026,2.828l-12.124,12.349,12.124,12.349a2,2,0,0,1-.026,2.828A1.993,1.993,0,0,1-830.539-1045.443Z" transform="translate(846.842 1076.943)" fill="#499519"/></g><path d="M-619.831-1075.1h2.715l1.215-5.49c.18-.87.33-1.725.48-2.565h.06c.135.84.3,1.7.48,2.565l1.245,5.49h2.76l2.055-11.1h-2.115l-.87,5.415c-.165,1.155-.33,2.34-.495,3.54h-.075c-.24-1.2-.465-2.4-.705-3.54l-1.29-5.415h-1.89l-1.29,5.415c-.24,1.155-.48,2.355-.7,3.54h-.06c-.165-1.185-.345-2.37-.51-3.54l-.885-5.415h-2.265Zm12.495,0h2.19v-8.4h-2.19Zm1.11-9.75a1.221,1.221,0,0,0,1.3-1.134c0-.022,0-.044,0-.066a1.2,1.2,0,0,0-1.2-1.2q-.051,0-.1,0a1.209,1.209,0,0,0-1.315,1.092c0,.035-.005.072-.005.108a1.226,1.226,0,0,0,1.247,1.2Zm6.4,9.96a3.484,3.484,0,0,0,2.325-1.08h.045l.18.87h1.785v-11.97h-2.205v2.955l.09,1.32a2.89,2.89,0,0,0-2.13-.915c-1.815,0-3.525,1.68-3.525,4.425S-601.9-1074.888-599.821-1074.888Zm.57-1.815c-1.11,0-1.74-.87-1.74-2.61,0-1.68.795-2.58,1.74-2.58a2.233,2.233,0,0,1,1.56.63v3.69A1.868,1.868,0,0,1-599.251-1076.7Zm9.21,1.815a5.438,5.438,0,0,0,1.77-.315l-.36-1.605a2.459,2.459,0,0,1-.825.18c-.75,0-1.14-.45-1.14-1.41v-3.72h2.07v-1.74h-2.07v-2.25h-1.845l-.255,2.25-1.29.1v1.635h1.185v3.72C-592.8-1076.148-592.036-1074.888-590.041-1074.888Zm3.225-.21h2.19v-5.775a2.413,2.413,0,0,1,1.755-.945c.825,0,1.185.465,1.185,1.755v4.965h2.205v-5.235c0-2.115-.78-3.375-2.6-3.375a3.821,3.821,0,0,0-2.64,1.23l.09-1.575v-3.015h-2.19Zm13.05,0h6.675v-1.785h-2.085v-9.315h-1.635a7.2,7.2,0,0,1-2.58.93v1.365h2.01v7.02h-2.385Zm12.03.21c2.25,0,3.75-1.98,3.75-5.805s-1.5-5.715-3.75-5.715-3.765,1.875-3.765,5.715S-564-1074.888-561.736-1074.888Zm0-1.725c-.96,0-1.68-.96-1.68-4.08,0-3.1.72-4,1.68-4s1.665.9,1.665,4C-560.071-1077.573-560.791-1076.613-561.736-1076.613Zm8.833,1.725c2.25,0,3.75-1.98,3.75-5.805s-1.5-5.715-3.75-5.715c-2.265,0-3.765,1.875-3.765,5.715S-555.166-1074.888-552.9-1074.888Zm0-1.725c-.96,0-1.68-.96-1.68-4.08,0-3.1.72-4,1.68-4,.945,0,1.665.9,1.665,4C-551.236-1077.573-551.953-1076.613-552.9-1076.613Zm7.59-2.76c1.59,0,2.715-1.3,2.715-3.54,0-2.22-1.125-3.495-2.715-3.495s-2.7,1.275-2.7,3.495c0,2.235,1.11,3.54,2.7,3.54Zm0-1.245c-.645,0-1.14-.66-1.14-2.3s.495-2.25,1.14-2.25,1.155.615,1.155,2.25-.508,2.3-1.153,2.3Zm.377,5.73h1.29l6.042-11.52h-1.3Zm7.7,0c1.575,0,2.715-1.32,2.715-3.54,0-2.235-1.14-3.51-2.715-3.51s-2.7,1.275-2.7,3.51C-539.941-1076.208-538.816-1074.888-537.241-1074.888Zm0-1.26c-.645,0-1.155-.645-1.155-2.28s.51-2.265,1.155-2.265,1.155.63,1.155,2.265S-536.6-1076.148-537.241-1076.148Z" transform="translate(734.409 1087.254)" fill="#499519"/></g></g></g></svg>