<?xml version="1.0" encoding="UTF-8" standalone="no"?>
<!DOCTYPE svg PUBLIC "-//W3C//DTD SVG 1.1//EN" "http://www.w3.org/Graphics/SVG/1.1/DTD/svg11.dtd">
<svg version="1.1" xmlns="http://www.w3.org/2000/svg" xmlns:xlink="http://www.w3.org/1999/xlink" preserveAspectRatio="xMidYMid meet" viewBox="0 0 980 670" width="980" height="670">

<defs>
  <filter id="transferOpacity">
    <feComponentTransfer>
      <feFuncA type="table" tableValues="0 0.35"/>
    </feComponentTransfer>
  </filter>
</defs>

<defs><path d="M979.84 668L0 668L0 2L979.84 2L979.84 668Z" id="c1udPWdgu"></path><linearGradient id="gradientghCmY6BMG" gradientUnits="userSpaceOnUse" x1="488.6" y1="464.2" x2="488.6" y2="17.98"><stop style="stop-color: #80d6f7;stop-opacity: 1" offset="0%"></stop><stop style="stop-color: #4dc6f4;stop-opacity: 1" offset="100%"></stop></linearGradient><path d="M138.31 424.98L158.22 422.69L199.52 415.14L239.92 424.57L305.63 435.12L316.98 432.64L336.71 438.67L357.58 436.01L377.78 441.22L441.72 449.88L450.38 448.55L475.35 431.46L492.56 433.79L534.29 436.45L549.17 431.46L585.35 436.9L605.64 446.05L634.86 446.22L682.81 451.55L721.1 450.88L743.86 448L770.89 446.05L794.7 446.55L800.03 449.88L874.66 475.91L874.69 475.91L879.28 473.19L885.27 472.53L896.11 465.27L801.02 434.56L745.08 436.56L730.43 438.56L716.44 432.23L681.14 430.57L653.17 426.91L634.52 425.57L615.88 421.91L590.9 421.24L575.58 415.58L545.28 415.92L541.28 413.59L491.67 408.26L469.36 403.26L455.04 400.6L408.08 401.93L404.09 404.59L349.81 404.59L332.83 399.93L285.21 398.27L267.23 397.27L243.25 401.6L216.61 387.94L159.67 404.59L132.55 408.93L133.36 412.92L138.31 424.98" id="bold5wiD"></path><path d="M799.03 501.22L793.87 481.35L794.7 446.55L770.89 446.06L782.88 479.35L796.86 502.76L799.03 501.22" id="c1h4mkrk"></path><path d="M193.61 523.87L236.37 514.59L274.55 518.15L325.17 518.15L343.82 514.59L374.01 513.71L421.96 497.72L444.16 498.61L515.2 488.84L566.7 503.05L590.68 506.6L642.19 523.47L714.11 507.49L748.41 524.39L778.05 516.15L808.02 494.84L830 495.84L864.63 479.19L871.95 477.52L874.67 475.91L800.03 449.88L794.7 446.55L770.89 446.05L743.86 448L721.1 450.88L682.81 451.55L634.86 446.22L605.64 446.05L585.35 436.9L549.17 431.46L534.29 436.45L492.56 433.79L475.35 431.46L450.38 448.55L441.72 449.88L377.78 441.22L357.58 436.01L336.71 438.67L316.98 432.64L305.63 435.12L239.92 424.57L199.52 415.14L158.22 422.69L138.31 424.98L154.67 464.87L190.97 494.5L193.61 523.87" id="b60U37W2GE"></path><path d="M140.02 534.55L93.4 531.47L-11.83 515.48L-5.17 413.59L33.58 395.51L33.58 395.51L39.9 424.46L57.77 480.85L55.77 399.93L111.98 383.19L127.36 383.29L128.7 427.13L134.91 466.2L140.02 534.55" id="dq2Jy8uEA"></path><path d="M770.89 446.06L782.88 479.35L796.86 502.75L796.88 502.76L799.03 501.22L793.87 481.35L794.7 446.55L770.89 446.06" id="aHEO6dQ8s"></path><path d="M995.16 430.68L920.57 448.88L885.27 472.53L879.28 473.19L871.95 477.52L864.63 479.19L830 495.84L801.69 488.32L746 504.94L706.59 512.82L706.59 684.65L999.16 684.65L995.16 430.68" id="c39SURrNcm"></path><path d="M987.17 666L987.17 539.73L986.77 539.73L986.77 539.86L986.37 539.86L986.37 539.99L985.97 539.99L985.97 540.13L985.57 540.13L985.57 540.26L985.17 540.26L985.17 540.39L984.77 540.39L984.77 540.53L984.37 540.53L984.37 540.66L983.84 540.66L983.84 540.79L983.44 540.79L983.44 540.93L983.04 540.93L983.04 541.06L982.64 541.06L982.64 541.19L982.24 541.19L982.24 541.32L981.84 541.32L981.84 541.46L981.44 541.46L981.44 541.59L981.04 541.59L981.04 541.72L980.51 541.72L980.51 541.86L980.11 541.86L980.11 541.99L979.71 541.99L979.71 542.12L979.31 542.12L979.31 542.26L978.91 542.26L978.91 542.39L978.51 542.39L978.51 542.52L978.11 542.52L978.11 542.66L977.58 542.66L977.58 542.79L977.18 542.79L977.18 542.92L976.78 542.92L976.78 543.06L976.38 543.06L976.38 543.19L975.98 543.19L975.98 543.32L975.58 543.32L975.58 543.46L975.18 543.46L975.18 543.59L974.78 543.59L974.78 543.72L974.25 543.72L974.25 543.86L973.85 543.86L973.85 543.99L973.45 543.99L973.45 544.12L973.05 544.12L973.05 544.26L972.65 544.26L972.65 544.39L972.25 544.39L972.25 544.52L971.85 544.52L971.85 544.65L971.32 544.65L971.32 544.79L970.92 544.79L970.92 544.92L970.52 544.92L970.52 545.05L970.12 545.05L970.12 545.19L969.72 545.19L969.72 545.32L969.32 545.32L969.32 545.45L968.92 545.45L968.92 545.59L968.52 545.59L968.52 545.72L967.99 545.72L967.99 545.85L967.59 545.85L967.59 545.99L967.19 545.99L967.19 546.12L966.79 546.12L966.79 546.25L966.39 546.25L966.39 546.39L965.99 546.39L965.99 546.52L965.59 546.52L965.59 546.65L965.06 546.65L965.06 546.79L964.66 546.79L964.66 546.92L964.26 546.92L964.26 547.05L963.86 547.05L963.86 547.19L963.46 547.19L963.46 547.32L963.06 547.32L963.06 547.45L962.66 547.45L962.66 547.59L962.26 547.59L962.26 547.72L961.73 547.72L961.73 547.85L961.33 547.85L961.33 547.98L960.93 547.98L960.93 548.12L960.53 548.12L960.53 548.25L960.13 548.25L960.13 548.38L959.73 548.38L959.73 548.52L959.33 548.52L959.33 548.65L958.8 548.65L958.8 548.78L958.4 548.78L958.4 548.92L958 548.92L958 549.05L957.6 549.05L957.6 549.18L957.2 549.18L957.2 549.32L956.8 549.32L956.8 549.45L956.4 549.45L956.4 549.58L956 549.58L956 549.72L955.47 549.72L955.47 549.85L955.07 549.85L955.07 549.98L952.81 549.98L952.81 549.85L950.68 549.85L950.68 549.72L948.68 549.72L948.68 549.58L946.55 549.58L946.55 549.45L944.55 549.45L944.55 549.32L942.42 549.32L942.42 549.18L940.42 549.18L940.42 549.05L938.29 549.05L938.29 548.92L936.29 548.92L936.29 548.78L934.16 548.78L934.16 548.65L932.16 548.65L932.16 548.52L930.03 548.52L930.03 548.38L928.03 548.38L928.03 548.25L925.9 548.25L925.9 548.12L923.9 548.12L923.9 547.98L921.77 547.98L921.77 547.85L919.77 547.85L919.77 547.72L917.64 547.72L917.64 547.59L915.64 547.59L915.64 547.45L913.51 547.45L913.51 547.32L911.51 547.32L911.51 547.19L909.38 547.19L909.38 547.05L907.39 547.05L907.39 546.92L905.25 546.92L905.25 546.79L903.26 546.79L903.26 546.65L901.12 546.65L901.12 546.52L899.13 546.52L899.13 546.39L897 546.39L897 546.25L895 546.25L895 546.12L892.87 546.12L892.87 545.99L890.87 545.99L890.87 545.85L888.74 545.85L888.74 545.72L886.74 545.72L886.74 545.59L884.61 545.59L884.61 545.45L882.61 545.45L882.61 545.32L880.48 545.32L880.48 545.19L878.48 545.19L878.48 545.05L876.35 545.05L876.35 544.92L874.35 544.92L874.35 544.79L872.22 544.79L872.22 544.65L872.09 544.65L872.09 544.79L871.02 544.79L871.02 544.92L869.96 544.92L869.96 545.05L868.89 545.05L868.89 545.19L867.82 545.19L867.82 545.32L866.76 545.32L866.76 545.45L865.69 545.45L865.69 545.59L864.63 545.59L864.63 545.72L863.56 545.72L863.56 545.85L862.5 545.85L862.5 545.99L861.43 545.99L861.43 546.12L860.37 546.12L860.37 546.25L859.3 546.25L859.3 546.39L858.23 546.39L858.23 546.52L857.17 546.52L857.17 546.65L856.1 546.65L856.1 546.79L855.04 546.79L855.04 546.92L853.97 546.92L853.97 547.05L852.91 547.05L852.91 547.19L851.84 547.19L851.84 547.32L849.84 547.32L849.84 547.19L848.78 547.19L848.78 547.05L847.58 547.05L847.58 546.92L846.51 546.92L846.51 546.79L845.45 546.79L845.45 546.65L844.25 546.65L844.25 546.52L843.18 546.52L843.18 546.39L842.12 546.39L842.12 546.25L841.05 546.25L841.05 546.12L839.85 546.12L839.85 545.99L838.79 545.99L838.79 545.85L837.72 545.85L837.72 545.72L836.52 545.72L836.52 545.59L835.46 545.59L835.46 545.45L834.39 545.45L834.39 545.32L833.19 545.32L833.19 545.19L832.13 545.19L832.13 545.05L831.06 545.05L831.06 544.92L830 544.92L830 544.79L828.8 544.79L828.8 544.65L827.73 544.65L827.73 544.52L826.67 544.52L826.67 544.39L825.47 544.39L825.47 544.26L824.4 544.26L824.4 544.12L823.34 544.12L823.34 543.99L822.14 543.99L822.14 543.86L821.07 543.86L821.07 543.72L820.01 543.72L820.01 543.59L818.94 543.59L818.94 543.46L817.74 543.46L817.74 543.32L816.68 543.32L816.68 543.19L815.61 543.19L815.61 543.06L814.41 543.06L814.41 542.92L813.35 542.92L813.35 542.79L812.28 542.79L812.28 542.66L811.08 542.66L811.08 542.52L810.02 542.52L810.02 542.39L808.95 542.39L808.95 542.26L807.88 542.26L807.88 542.12L806.69 542.12L806.69 541.99L805.62 541.99L805.62 541.86L804.55 541.86L804.55 541.72L803.36 541.72L803.36 541.59L802.29 541.59L802.29 541.46L801.22 541.46L801.22 541.32L800.03 541.32L800.03 541.19L798.96 541.19L798.96 541.06L797.89 541.06L797.89 540.93L796.83 540.93L796.83 540.79L795.63 540.79L795.63 540.66L794.56 540.66L794.56 540.53L793.5 540.53L793.5 540.39L792.3 540.39L792.3 540.26L791.23 540.26L791.23 540.13L790.17 540.13L790.17 539.99L788.97 539.99L788.97 539.86L787.9 539.86L787.9 539.73L786.84 539.73L786.84 539.59L785.77 539.59L785.77 539.46L784.57 539.46L784.57 539.33L783.51 539.33L783.51 539.19L782.44 539.19L782.44 539.06L781.24 539.06L781.24 538.93L780.18 538.93L780.18 538.79L779.11 538.79L779.11 538.66L777.91 538.66L777.91 538.53L777.12 538.53L777.12 538.39L776.85 538.39L776.85 538.26L776.58 538.26L776.58 538.13L776.32 538.13L776.32 537.99L776.05 537.99L776.05 537.86L775.78 537.86L775.78 537.73L775.52 537.73L775.52 537.6L775.25 537.6L775.25 537.46L774.98 537.46L774.98 537.33L774.72 537.33L774.72 537.2L774.32 537.2L774.32 537.06L774.05 537.06L774.05 536.93L773.79 536.93L773.79 536.8L773.52 536.8L773.52 536.66L773.25 536.66L773.25 536.53L772.99 536.53L772.99 536.4L772.72 536.4L772.72 536.26L772.45 536.26L772.45 536.13L772.19 536.13L772.19 536L771.92 536L771.92 535.86L771.65 535.86L771.65 535.73L771.39 535.73L771.39 535.6L771.12 535.6L771.12 535.46L770.86 535.46L770.86 535.33L770.46 535.33L770.46 535.2L770.19 535.2L770.19 535.06L769.92 535.06L769.92 534.93L769.66 534.93L769.66 534.8L769.39 534.8L769.39 534.66L769.12 534.66L769.12 534.53L768.86 534.53L768.86 534.4L768.59 534.4L768.59 534.27L768.32 534.27L768.32 534.13L768.06 534.13L768.06 534L767.79 534L767.79 533.87L767.53 533.87L767.53 533.73L767.26 533.73L767.26 533.6L766.99 533.6L766.99 533.47L766.73 533.47L766.73 533.33L766.33 533.33L766.33 533.2L766.06 533.2L766.06 533.07L765.79 533.07L765.79 532.93L765.53 532.93L765.53 532.8L765.26 532.8L765.26 532.67L764.99 532.67L764.99 532.53L764.73 532.53L764.73 532.4L764.46 532.4L764.46 532.27L764.2 532.27L764.2 532.13L763.93 532.13L763.93 532L763.66 532L763.66 531.87L763.4 531.87L763.4 531.73L763.13 531.73L763.13 531.6L762.86 531.6L762.86 531.47L762.46 531.47L762.46 531.33L762.2 531.33L762.2 531.2L761.93 531.2L761.93 531.07L761.66 531.07L761.66 530.94L761.4 530.94L761.4 530.8L761.13 530.8L761.13 530.67L760.87 530.67L760.87 530.54L760.6 530.54L760.6 530.4L760.33 530.4L760.33 530.27L760.07 530.27L760.07 530.14L759.8 530.14L759.8 530L759.53 530L759.53 529.87L759.27 529.87L759.27 529.74L759 529.74L759 529.6L758.6 529.6L758.6 529.47L758.33 529.47L758.33 529.34L758.07 529.34L758.07 529.2L757.8 529.2L757.8 529.07L757.54 529.07L757.54 528.94L757.27 528.94L757.27 528.8L757 528.8L757 528.67L756.74 528.67L756.74 528.54L756.47 528.54L756.47 528.4L756.2 528.4L756.2 528.27L755.94 528.27L755.94 528.14L755.67 528.14L755.67 528L755.4 528L755.4 527.87L755.14 527.87L755.14 527.74L754.87 527.74L754.87 527.61L754.47 527.61L754.47 527.47L754.21 527.47L754.21 527.34L753.94 527.34L753.94 527.21L753.67 527.21L753.67 527.07L753.41 527.07L753.41 526.94L753.14 526.94L753.14 526.81L752.87 526.81L752.87 526.67L752.61 526.67L752.61 526.54L752.34 526.54L752.34 526.41L752.07 526.41L752.07 526.27L751.81 526.27L751.81 526.14L751.54 526.14L751.54 526.01L751.27 526.01L751.27 525.87L751.01 525.87L751.01 525.74L750.61 525.74L750.61 525.61L750.34 525.61L750.34 525.47L750.08 525.47L750.08 525.34L749.81 525.34L749.81 525.21L749.54 525.21L749.54 525.07L749.28 525.07L749.28 524.94L749.01 524.94L749.01 524.81L748.74 524.81L748.74 524.67L748.48 524.67L748.48 524.54L748.21 524.54L748.21 524.41L747.94 524.41L747.94 524.28L747.68 524.28L747.68 524.14L747.41 524.14L747.41 524.01L747.15 524.01L747.15 523.88L746.75 523.88L746.75 523.74L746.48 523.74L746.48 523.61L746.21 523.61L746.21 523.48L745.95 523.48L745.95 523.34L745.68 523.34L745.68 523.21L745.41 523.21L745.41 523.08L745.15 523.08L745.15 522.94L744.88 522.94L744.88 522.81L744.61 522.81L744.61 522.68L744.35 522.68L744.35 522.54L744.08 522.54L744.08 522.41L743.82 522.41L743.82 522.28L743.55 522.28L743.55 522.14L743.28 522.14L743.28 522.01L743.02 522.01L743.02 521.88L742.62 521.88L742.62 521.74L742.35 521.74L742.35 521.61L742.08 521.61L742.08 521.48L741.82 521.48L741.82 521.34L741.55 521.34L741.55 521.21L741.28 521.21L741.28 521.08L741.02 521.08L741.02 520.95L740.75 520.95L740.75 520.81L740.49 520.81L740.49 520.68L740.22 520.68L740.22 520.55L739.95 520.55L739.95 520.41L739.69 520.41L739.69 520.28L739.42 520.28L739.42 520.15L739.15 520.15L739.15 520.01L738.75 520.01L738.75 519.88L738.49 519.88L738.49 519.75L738.22 519.75L738.22 519.61L737.95 519.61L737.95 519.48L737.69 519.48L737.69 519.35L737.42 519.35L737.42 519.21L737.16 519.21L737.16 519.08L736.89 519.08L736.89 518.95L736.62 518.95L736.62 518.81L736.36 518.81L736.36 518.68L736.09 518.68L736.09 518.55L735.82 518.55L735.82 518.41L735.56 518.41L735.56 518.28L735.29 518.28L735.29 518.15L734.89 518.15L734.89 518.01L734.62 518.01L734.62 517.88L734.36 517.88L734.36 517.75L734.09 517.75L734.09 517.62L733.83 517.62L733.83 517.48L733.56 517.48L733.56 517.35L733.29 517.35L733.29 517.22L733.03 517.22L733.03 517.08L732.76 517.08L732.76 516.95L732.49 516.95L732.49 516.82L732.23 516.82L732.23 516.68L731.96 516.68L731.96 516.55L731.69 516.55L731.69 516.42L731.43 516.42L731.43 516.28L731.16 516.28L731.16 516.15L730.76 516.15L730.76 516.02L730.5 516.02L730.5 515.88L730.23 515.88L730.23 515.75L729.96 515.75L729.96 515.62L729.7 515.62L729.7 515.48L729.43 515.48L729.43 515.35L729.16 515.35L729.16 515.22L728.9 515.22L728.9 515.08L728.63 515.08L728.63 514.95L728.36 514.95L728.36 514.82L728.1 514.82L728.1 514.68L727.83 514.68L727.83 514.55L727.57 514.55L727.57 514.42L727.3 514.42L727.3 514.29L726.9 514.29L726.9 514.15L726.63 514.15L726.63 514.02L726.37 514.02L726.37 513.89L726.1 513.89L726.1 513.75L725.83 513.75L725.83 513.62L725.57 513.62L725.57 513.49L725.3 513.49L725.3 513.35L725.03 513.35L725.03 513.22L724.77 513.22L724.77 513.09L724.5 513.09L724.5 512.95L724.24 512.95L724.24 512.82L723.97 512.82L723.97 512.69L723.7 512.69L723.7 512.55L723.44 512.55L723.44 512.42L723.04 512.42L723.04 512.29L722.77 512.29L722.77 512.15L722.5 512.15L722.5 512.02L722.24 512.02L722.24 511.89L721.97 511.89L721.97 511.75L721.7 511.75L721.7 511.62L721.44 511.62L721.44 511.49L721.17 511.49L721.17 511.35L720.91 511.35L720.91 511.22L720.64 511.22L720.64 511.09L720.37 511.09L720.37 510.96L720.11 510.96L720.11 510.82L719.84 510.82L719.84 510.69L719.57 510.69L719.57 510.56L719.17 510.56L719.17 510.42L718.91 510.42L718.91 510.29L718.64 510.29L718.64 510.16L718.37 510.16L718.37 510.02L718.11 510.02L718.11 509.89L717.84 509.89L717.84 509.76L717.58 509.76L717.58 509.62L717.31 509.62L717.31 509.49L717.04 509.49L717.04 509.36L716.78 509.36L716.78 509.22L716.51 509.22L716.51 509.09L716.24 509.09L716.24 508.96L715.98 508.96L715.98 508.82L715.71 508.82L715.71 508.69L715.44 508.69L715.44 508.56L715.04 508.56L715.04 508.42L714.78 508.42L714.78 508.29L714.51 508.29L714.51 508.16L714.25 508.16L714.25 508.02L713.98 508.02L713.98 507.89L713.71 507.89L713.71 507.76L713.45 507.76L713.45 507.63L713.18 507.63L713.18 507.49L712.91 507.49L712.91 507.36L712.65 507.36L712.65 507.23L712.38 507.23L712.38 507.09L712.11 507.09L712.11 506.96L711.85 506.96L711.85 506.83L711.58 506.83L711.58 506.69L711.18 506.69L711.18 506.56L710.92 506.56L710.92 506.43L710.65 506.43L710.65 506.29L710.38 506.29L710.38 506.16L710.12 506.16L710.12 506.03L709.85 506.03L709.85 505.89L709.58 505.89L709.58 505.76L709.32 505.76L709.32 505.63L709.05 505.63L709.05 505.49L708.78 505.49L708.78 505.36L708.52 505.36L708.52 505.23L708.25 505.23L708.25 505.09L707.98 505.09L707.98 504.96L707.72 504.96L707.72 504.83L707.32 504.83L707.32 504.69L707.05 504.69L707.05 504.56L706.79 504.56L706.79 504.43L706.52 504.43L706.52 504.3L706.25 504.3L706.25 504.16L705.99 504.16L705.99 504.03L705.72 504.03L705.72 503.9L705.45 503.9L705.45 503.76L705.19 503.76L705.19 503.63L704.92 503.63L704.92 503.5L704.65 503.5L704.65 503.36L704.39 503.36L704.39 503.23L704.12 503.23L704.12 503.1L703.86 503.1L703.86 502.96L703.59 502.96L703.59 502.83L703.19 502.83L703.19 502.7L702.92 502.7L702.92 502.56L702.66 502.56L702.66 502.43L702.39 502.43L702.39 502.3L702.12 502.3L702.12 502.16L701.86 502.16L701.86 502.03L701.59 502.03L701.59 501.9L701.32 501.9L701.32 501.76L701.06 501.76L701.06 501.63L700.79 501.63L700.79 501.5L700.53 501.5L700.53 501.36L700.26 501.36L700.26 501.23L699.99 501.23L699.99 501.1L699.73 501.1L699.73 500.97L699.33 500.97L699.33 500.83L699.06 500.83L699.06 500.7L698.79 500.7L698.79 500.57L698.53 500.57L698.53 500.43L698.26 500.43L698.26 500.3L697.86 500.3L697.86 500.43L697.33 500.43L697.33 500.57L696.8 500.57L696.8 500.7L696.26 500.7L696.26 500.83L695.73 500.83L695.73 500.97L695.2 500.97L695.2 501.1L694.66 501.1L694.66 501.23L694.13 501.23L694.13 501.36L693.6 501.36L693.6 501.5L693.07 501.5L693.07 501.63L692.53 501.63L692.53 501.76L692 501.76L692 501.9L691.47 501.9L691.47 502.03L691.07 502.03L691.07 502.16L690.54 502.16L690.54 502.3L690 502.3L690 502.43L689.47 502.43L689.47 502.56L688.94 502.56L688.94 502.7L688.4 502.7L688.4 502.83L687.87 502.83L687.87 502.96L687.34 502.96L687.34 503.1L686.81 503.1L686.81 503.23L686.27 503.23L686.27 503.36L685.74 503.36L685.74 503.5L685.21 503.5L685.21 503.63L684.67 503.63L684.67 503.76L684.14 503.76L684.14 503.9L683.61 503.9L683.61 504.03L683.08 504.03L683.08 504.16L682.54 504.16L682.54 504.3L682.01 504.3L682.01 504.43L681.48 504.43L681.48 504.56L680.95 504.56L680.95 504.69L680.41 504.69L680.41 504.83L679.88 504.83L679.88 504.96L679.35 504.96L679.35 505.09L678.81 505.09L678.81 505.23L678.28 505.23L678.28 505.36L677.75 505.36L677.75 505.49L677.22 505.49L677.22 505.63L676.68 505.63L676.68 505.76L676.15 505.76L676.15 505.89L675.62 505.89L675.62 506.03L675.08 506.03L675.08 506.16L674.55 506.16L674.55 506.29L674.02 506.29L674.02 506.43L673.49 506.43L673.49 506.56L672.95 506.56L672.95 506.69L672.42 506.69L672.42 506.83L671.89 506.83L671.89 506.96L671.35 506.96L671.35 507.09L670.82 507.09L670.82 507.23L670.29 507.23L670.29 507.36L669.89 507.36L669.89 507.49L669.36 507.49L669.36 507.63L668.82 507.63L668.82 507.76L668.29 507.76L668.29 507.89L667.76 507.89L667.76 508.02L667.23 508.02L667.23 508.16L666.69 508.16L666.69 508.29L666.16 508.29L666.16 508.42L665.63 508.42L665.63 508.56L665.09 508.56L665.09 508.69L664.56 508.69L664.56 508.82L664.03 508.82L664.03 508.96L663.5 508.96L663.5 509.09L662.96 509.09L662.96 509.22L662.43 509.22L662.43 509.36L661.9 509.36L661.9 509.49L661.36 509.49L661.36 509.62L660.83 509.62L660.83 509.76L660.3 509.76L660.3 509.89L659.77 509.89L659.77 510.02L659.23 510.02L659.23 510.16L658.7 510.16L658.7 510.29L658.17 510.29L658.17 510.42L657.64 510.42L657.64 510.56L657.1 510.56L657.1 510.69L656.57 510.69L656.57 510.82L656.04 510.82L656.04 510.96L655.5 510.96L655.5 511.09L654.97 511.09L654.97 511.22L654.44 511.22L654.44 511.35L653.91 511.35L653.91 511.49L653.37 511.49L653.37 511.62L652.84 511.62L652.84 511.75L652.31 511.75L652.31 511.89L651.77 511.89L651.77 512.02L651.24 512.02L651.24 512.15L650.71 512.15L650.71 512.29L650.18 512.29L650.18 512.42L649.64 512.42L649.64 512.55L649.11 512.55L649.11 512.69L648.71 512.69L648.71 512.82L648.18 512.82L648.18 512.95L647.65 512.95L647.65 513.09L647.11 513.09L647.11 513.22L646.58 513.22L646.58 513.35L646.05 513.35L646.05 513.49L645.51 513.49L645.51 513.62L644.98 513.62L644.98 513.75L644.45 513.75L644.45 513.89L643.92 513.89L643.92 514.02L643.38 514.02L643.38 514.15L642.85 514.15L642.85 514.29L642.32 514.29L642.32 514.42L641.78 514.42L641.78 514.55L641.25 514.55L641.25 514.68L640.72 514.68L640.72 514.82L640.19 514.82L640.19 514.95L639.65 514.95L639.65 515.08L639.12 515.08L639.12 515.22L638.59 515.22L638.59 515.35L638.05 515.35L638.05 515.48L637.52 515.48L637.52 515.62L636.99 515.62L636.99 515.75L636.46 515.75L636.46 515.88L635.92 515.88L635.92 516.02L635.39 516.02L635.39 516.15L634.86 516.15L634.86 516.28L634.33 516.28L634.33 516.42L633.79 516.42L633.79 516.55L633.26 516.55L633.26 516.68L632.73 516.68L632.73 516.82L632.19 516.82L632.19 516.95L631.66 516.95L631.66 517.08L631.13 517.08L631.13 517.22L630.6 517.22L630.6 517.35L630.06 517.35L630.06 517.48L629.53 517.48L629.53 517.62L629 517.62L629 517.75L628.46 517.75L628.46 517.88L627.93 517.88L627.93 518.01L627.13 518.01L627.13 517.88L626.73 517.88L626.73 517.75L626.33 517.75L626.33 517.62L625.93 517.62L625.93 517.48L625.53 517.48L625.53 517.35L625 517.35L625 517.22L624.6 517.22L624.6 517.08L624.2 517.08L624.2 516.95L623.8 516.95L623.8 516.82L623.4 516.82L623.4 516.68L622.87 516.68L622.87 516.55L622.47 516.55L622.47 516.42L622.07 516.42L622.07 516.28L621.67 516.28L621.67 516.15L621.27 516.15L621.27 516.02L620.74 516.02L620.74 515.88L620.34 515.88L620.34 515.75L619.94 515.75L619.94 515.62L619.54 515.62L619.54 515.48L619.14 515.48L619.14 515.35L618.61 515.35L618.61 515.22L618.21 515.22L618.21 515.08L617.81 515.08L617.81 514.95L617.41 514.95L617.41 514.82L617.01 514.82L617.01 514.68L616.61 514.68L616.61 514.55L616.08 514.55L616.08 514.42L615.68 514.42L615.68 514.29L615.28 514.29L615.28 514.15L614.88 514.15L614.88 514.02L614.48 514.02L614.48 513.89L613.95 513.89L613.95 513.75L613.55 513.75L613.55 513.62L613.15 513.62L613.15 513.49L612.75 513.49L612.75 513.35L612.35 513.35L612.35 513.22L611.81 513.22L611.81 513.09L611.41 513.09L611.41 512.95L611.02 512.95L611.02 512.82L610.62 512.82L610.62 512.69L610.22 512.69L610.22 512.55L609.68 512.55L609.68 512.42L609.28 512.42L609.28 512.29L608.88 512.29L608.88 512.15L608.48 512.15L608.48 512.02L608.08 512.02L608.08 511.89L607.55 511.89L607.55 511.75L607.15 511.75L607.15 511.62L606.75 511.62L606.75 511.49L606.35 511.49L606.35 511.35L605.95 511.35L605.95 511.22L605.55 511.22L605.55 511.09L605.02 511.09L605.02 510.96L604.62 510.96L604.62 510.82L604.22 510.82L604.22 510.69L603.82 510.69L603.82 510.56L603.42 510.56L603.42 510.42L602.89 510.42L602.89 510.29L602.49 510.29L602.49 510.16L602.09 510.16L602.09 510.02L601.69 510.02L601.69 509.89L601.29 509.89L601.29 509.76L600.76 509.76L600.76 509.62L600.36 509.62L600.36 509.49L599.96 509.49L599.96 509.36L599.56 509.36L599.56 509.22L599.16 509.22L599.16 509.09L598.63 509.09L598.63 508.96L598.23 508.96L598.23 508.82L597.83 508.82L597.83 508.69L597.43 508.69L597.43 508.56L597.03 508.56L597.03 508.42L596.5 508.42L596.5 508.29L596.1 508.29L596.1 508.16L595.7 508.16L595.7 508.02L595.3 508.02L595.3 507.89L594.9 507.89L594.9 507.76L594.5 507.76L594.5 507.63L593.97 507.63L593.97 507.49L593.57 507.49L593.57 507.36L593.17 507.36L593.17 507.23L592.77 507.23L592.77 507.09L592.37 507.09L592.37 506.96L591.83 506.96L591.83 506.83L591.43 506.83L591.43 506.69L591.04 506.69L591.04 506.56L590.5 506.56L590.5 506.43L589.57 506.43L589.57 506.29L588.64 506.29L588.64 506.16L587.71 506.16L587.71 506.03L586.91 506.03L586.91 505.89L585.97 505.89L585.97 505.76L585.04 505.76L585.04 505.63L584.11 505.63L584.11 505.49L583.31 505.49L583.31 505.36L582.38 505.36L582.38 505.23L581.44 505.23L581.44 505.09L580.51 505.09L580.51 504.96L579.71 504.96L579.71 504.83L578.78 504.83L578.78 504.69L577.85 504.69L577.85 504.56L576.92 504.56L576.92 504.43L576.12 504.43L576.12 504.3L575.18 504.3L575.18 504.16L574.25 504.16L574.25 504.03L573.32 504.03L573.32 503.9L572.52 503.9L572.52 503.76L571.59 503.76L571.59 503.63L570.66 503.63L570.66 503.5L569.72 503.5L569.72 503.36L568.92 503.36L568.92 503.23L567.99 503.23L567.99 503.1L567.06 503.1L567.06 502.96L566.39 502.96L566.39 502.83L565.99 502.83L565.99 502.7L565.46 502.7L565.46 502.56L565.06 502.56L565.06 502.43L564.53 502.43L564.53 502.3L564 502.3L564 502.16L563.6 502.16L563.6 502.03L563.06 502.03L563.06 501.9L562.53 501.9L562.53 501.76L562.13 501.76L562.13 501.63L561.6 501.63L561.6 501.5L561.2 501.5L561.2 501.36L560.67 501.36L560.67 501.23L560.13 501.23L560.13 501.1L559.73 501.1L559.73 500.97L559.2 500.97L559.2 500.83L558.67 500.83L558.67 500.7L558.27 500.7L558.27 500.57L557.74 500.57L557.74 500.43L557.34 500.43L557.34 500.3L556.8 500.3L556.8 500.17L556.27 500.17L556.27 500.03L555.87 500.03L555.87 499.9L555.34 499.9L555.34 499.77L554.8 499.77L554.8 499.63L554.41 499.63L554.41 499.5L553.87 499.5L553.87 499.37L553.47 499.37L553.47 499.23L552.94 499.23L552.94 499.1L552.41 499.1L552.41 498.97L552.01 498.97L552.01 498.83L551.47 498.83L551.47 498.7L550.94 498.7L550.94 498.57L550.54 498.57L550.54 498.43L550.01 498.43L550.01 498.3L549.61 498.3L549.61 498.17L549.08 498.17L549.08 498.03L548.54 498.03L548.54 497.9L548.14 497.9L548.14 497.77L547.61 497.77L547.61 497.64L547.08 497.64L547.08 497.5L546.68 497.5L546.68 497.37L546.15 497.37L546.15 497.24L545.75 497.24L545.75 497.1L545.21 497.1L545.21 496.97L544.68 496.97L544.68 496.84L544.28 496.84L544.28 496.7L543.75 496.7L543.75 496.57L543.22 496.57L543.22 496.44L542.82 496.44L542.82 496.3L542.28 496.3L542.28 496.17L541.88 496.17L541.88 496.04L541.35 496.04L541.35 495.9L540.82 495.9L540.82 495.77L540.42 495.77L540.42 495.64L539.89 495.64L539.89 495.5L539.35 495.5L539.35 495.37L538.95 495.37L538.95 495.24L538.42 495.24L538.42 495.1L538.02 495.1L538.02 494.97L537.49 494.97L537.49 494.84L536.96 494.84L536.96 494.7L536.56 494.7L536.56 494.57L536.02 494.57L536.02 494.44L535.49 494.44L535.49 494.31L535.09 494.31L535.09 494.17L534.56 494.17L534.56 494.04L534.16 494.04L534.16 493.91L533.63 493.91L533.63 493.77L533.09 493.77L533.09 493.64L532.69 493.64L532.69 493.51L532.16 493.51L532.16 493.37L531.63 493.37L531.63 493.24L531.23 493.24L531.23 493.11L530.7 493.11L530.7 492.97L530.3 492.97L530.3 492.84L529.76 492.84L529.76 492.71L529.23 492.71L529.23 492.57L528.83 492.57L528.83 492.44L528.3 492.44L528.3 492.31L527.77 492.31L527.77 492.17L527.37 492.17L527.37 492.04L526.83 492.04L526.83 491.91L526.43 491.91L526.43 491.77L525.9 491.77L525.9 491.64L525.37 491.64L525.37 491.51L524.97 491.51L524.97 491.37L524.44 491.37L524.44 491.24L523.9 491.24L523.9 491.11L523.5 491.11L523.5 490.98L522.97 490.98L522.97 490.84L522.57 490.84L522.57 490.71L522.04 490.71L522.04 490.58L521.5 490.58L521.5 490.44L521.11 490.44L521.11 490.31L520.57 490.31L520.57 490.18L520.04 490.18L520.04 490.04L519.64 490.04L519.64 489.91L519.11 489.91L519.11 489.78L518.71 489.78L518.71 489.64L518.17 489.64L518.17 489.51L517.64 489.51L517.64 489.38L517.24 489.38L517.24 489.24L516.71 489.24L516.71 489.11L516.18 489.11L516.18 488.98L515.78 488.98L515.78 488.84L515.24 488.84L515.24 488.71L515.11 488.71L515.11 488.84L514.18 488.84L514.18 488.98L513.25 488.98L513.25 489.11L512.18 489.11L512.18 489.24L511.25 489.24L511.25 489.38L510.32 489.38L510.32 489.51L509.25 489.51L509.25 489.64L508.32 489.64L508.32 489.78L507.39 489.78L507.39 489.91L506.45 489.91L506.45 490.04L505.39 490.04L505.39 490.18L504.46 490.18L504.46 490.31L503.52 490.31L503.52 490.44L502.59 490.44L502.59 490.58L501.52 490.58L501.52 490.71L500.59 490.71L500.59 490.84L499.66 490.84L499.66 490.98L498.59 490.98L498.59 491.11L497.66 491.11L497.66 491.24L496.73 491.24L496.73 491.37L495.8 491.37L495.8 491.51L494.73 491.51L494.73 491.64L493.8 491.64L493.8 491.77L492.87 491.77L492.87 491.91L491.93 491.91L491.93 492.04L490.87 492.04L490.87 492.17L489.94 492.17L489.94 492.31L489 492.31L489 492.44L487.94 492.44L487.94 492.57L487.01 492.57L487.01 492.71L486.07 492.71L486.07 492.84L485.14 492.84L485.14 492.97L484.08 492.97L484.08 493.11L483.14 493.11L483.14 493.24L482.21 493.24L482.21 493.37L481.28 493.37L481.28 493.51L480.21 493.51L480.21 493.64L479.28 493.64L479.28 493.77L478.35 493.77L478.35 493.91L477.28 493.91L477.28 494.04L476.35 494.04L476.35 494.17L475.42 494.17L475.42 494.31L474.49 494.31L474.49 494.44L473.42 494.44L473.42 494.57L472.49 494.57L472.49 494.7L471.55 494.7L471.55 494.84L470.62 494.84L470.62 494.97L469.56 494.97L469.56 495.1L468.62 495.1L468.62 495.24L467.69 495.24L467.69 495.37L466.63 495.37L466.63 495.5L465.69 495.5L465.69 495.64L464.76 495.64L464.76 495.77L463.83 495.77L463.83 495.9L462.76 495.9L462.76 496.04L461.83 496.04L461.83 496.17L460.9 496.17L460.9 496.3L459.97 496.3L459.97 496.44L458.9 496.44L458.9 496.57L457.97 496.57L457.97 496.7L457.04 496.7L457.04 496.84L455.97 496.84L455.97 496.97L455.04 496.97L455.04 497.1L454.11 497.1L454.11 497.24L453.17 497.24L453.17 497.37L452.11 497.37L452.11 497.5L451.18 497.5L451.18 497.64L450.24 497.64L450.24 497.77L449.31 497.77L449.31 497.9L448.24 497.9L448.24 498.03L447.31 498.03L447.31 498.17L446.38 498.17L446.38 498.3L445.31 498.3L445.31 498.43L444.38 498.43L444.38 498.57L443.18 498.57L443.18 498.43L439.85 498.43L439.85 498.3L436.52 498.3L436.52 498.17L433.19 498.17L433.19 498.03L429.86 498.03L429.86 497.9L426.53 497.9L426.53 497.77L423.2 497.77L423.2 497.64L421.74 497.64L421.74 497.77L421.34 497.77L421.34 497.9L420.94 497.9L420.94 498.03L420.54 498.03L420.54 498.17L420.14 498.17L420.14 498.3L419.74 498.3L419.74 498.43L419.34 498.43L419.34 498.57L418.94 498.57L418.94 498.7L418.54 498.7L418.54 498.83L418.14 498.83L418.14 498.97L417.74 498.97L417.74 499.1L417.34 499.1L417.34 499.23L416.94 499.23L416.94 499.37L416.54 499.37L416.54 499.5L416.14 499.5L416.14 499.63L415.74 499.63L415.74 499.77L415.34 499.77L415.34 499.9L414.94 499.9L414.94 500.03L414.55 500.03L414.55 500.17L414.15 500.17L414.15 500.3L413.75 500.3L413.75 500.43L413.35 500.43L413.35 500.57L412.95 500.57L412.95 500.7L412.55 500.7L412.55 500.83L412.15 500.83L412.15 500.97L411.75 500.97L411.75 501.1L411.35 501.1L411.35 501.23L410.95 501.23L410.95 501.36L410.55 501.36L410.55 501.5L410.15 501.5L410.15 501.63L409.75 501.63L409.75 501.76L409.35 501.76L409.35 501.9L408.95 501.9L408.95 502.03L408.55 502.03L408.55 502.16L408.15 502.16L408.15 502.3L407.75 502.3L407.75 502.43L407.35 502.43L407.35 502.56L406.95 502.56L406.95 502.7L406.55 502.7L406.55 502.83L406.15 502.83L406.15 502.96L405.75 502.96L405.75 503.1L405.35 503.1L405.35 503.23L404.95 503.23L404.95 503.36L404.56 503.36L404.56 503.5L404.16 503.5L404.16 503.63L403.76 503.63L403.76 503.76L403.36 503.76L403.36 503.9L402.96 503.9L402.96 504.03L402.56 504.03L402.56 504.16L402.16 504.16L402.16 504.3L401.76 504.3L401.76 504.43L401.36 504.43L401.36 504.56L400.96 504.56L400.96 504.69L400.56 504.69L400.56 504.83L400.16 504.83L400.16 504.96L399.76 504.96L399.76 505.09L399.36 505.09L399.36 505.23L398.96 505.23L398.96 505.36L398.56 505.36L398.56 505.49L398.16 505.49L398.16 505.63L397.76 505.63L397.76 505.76L397.36 505.76L397.36 505.89L396.96 505.89L396.96 506.03L396.56 506.03L396.56 506.16L396.16 506.16L396.16 506.29L395.76 506.29L395.76 506.43L395.36 506.43L395.36 506.56L394.96 506.56L394.96 506.69L394.57 506.69L394.57 506.83L394.17 506.83L394.17 506.96L393.77 506.96L393.77 507.09L393.37 507.09L393.37 507.23L392.97 507.23L392.97 507.36L392.57 507.36L392.57 507.49L392.17 507.49L392.17 507.63L391.77 507.63L391.77 507.76L391.37 507.76L391.37 507.89L390.97 507.89L390.97 508.02L390.57 508.02L390.57 508.16L390.17 508.16L390.17 508.29L389.77 508.29L389.77 508.42L389.37 508.42L389.37 508.56L388.97 508.56L388.97 508.69L388.57 508.69L388.57 508.82L388.17 508.82L388.17 508.96L387.77 508.96L387.77 509.09L387.37 509.09L387.37 509.22L386.97 509.22L386.97 509.36L386.57 509.36L386.57 509.49L386.17 509.49L386.17 509.62L385.77 509.62L385.77 509.76L385.37 509.76L385.37 509.89L384.97 509.89L384.97 510.02L384.58 510.02L384.58 510.16L384.18 510.16L384.18 510.29L383.78 510.29L383.78 510.42L383.38 510.42L383.38 510.56L382.98 510.56L382.98 510.69L382.58 510.69L382.58 510.82L382.18 510.82L382.18 510.96L381.78 510.96L381.78 511.09L381.38 511.09L381.38 511.22L380.98 511.22L380.98 511.35L380.58 511.35L380.58 511.49L380.18 511.49L380.18 511.62L379.78 511.62L379.78 511.75L379.38 511.75L379.38 511.89L378.98 511.89L378.98 512.02L378.58 512.02L378.58 512.15L378.18 512.15L378.18 512.29L377.78 512.29L377.78 512.42L377.38 512.42L377.38 512.55L376.98 512.55L376.98 512.69L376.58 512.69L376.58 512.82L376.18 512.82L376.18 512.95L375.78 512.95L375.78 513.09L375.38 513.09L375.38 513.22L374.98 513.22L374.98 513.35L374.59 513.35L374.59 513.49L374.19 513.49L374.19 513.62L372.32 513.62L372.32 513.75L367.79 513.75L367.79 513.89L363.26 513.89L363.26 514.02L358.73 514.02L358.73 514.15L354.21 514.15L354.21 514.29L349.68 514.29L349.68 514.42L345.15 514.42L345.15 514.55L343.28 514.55L343.28 514.68L342.62 514.68L342.62 514.82L341.82 514.82L341.82 514.95L341.15 514.95L341.15 515.08L340.49 515.08L340.49 515.22L339.82 515.22L339.82 515.35L339.02 515.35L339.02 515.48L338.35 515.48L338.35 515.62L337.69 515.62L337.69 515.75L337.02 515.75L337.02 515.88L336.22 515.88L336.22 516.02L335.56 516.02L335.56 516.15L334.89 516.15L334.89 516.28L334.23 516.28L334.23 516.42L333.43 516.42L333.43 516.55L332.76 516.55L332.76 516.68L332.09 516.68L332.09 516.82L331.43 516.82L331.43 516.95L330.63 516.95L330.63 517.08L329.96 517.08L329.96 517.22L329.3 517.22L329.3 517.35L328.63 517.35L328.63 517.48L327.83 517.48L327.83 517.62L327.17 517.62L327.17 517.75L326.5 517.75L326.5 517.88L325.83 517.88L325.83 518.01L273.22 518.01L273.22 517.88L271.75 517.88L271.75 517.75L270.29 517.75L270.29 517.62L268.96 517.62L268.96 517.48L267.49 517.48L267.49 517.35L266.03 517.35L266.03 517.22L264.56 517.22L264.56 517.08L263.23 517.08L263.23 516.95L261.76 516.95L261.76 516.82L260.3 516.82L260.3 516.68L258.83 516.68L258.83 516.55L257.5 516.55L257.5 516.42L256.04 516.42L256.04 516.28L254.57 516.28L254.57 516.15L253.11 516.15L253.11 516.02L251.77 516.02L251.77 515.88L250.31 515.88L250.31 515.75L248.84 515.75L248.84 515.62L247.38 515.62L247.38 515.48L246.05 515.48L246.05 515.35L244.58 515.35L244.58 515.22L243.12 515.22L243.12 515.08L241.65 515.08L241.65 514.95L240.32 514.95L240.32 514.82L238.85 514.82L238.85 514.68L237.39 514.68L237.39 514.55L235.92 514.55L235.92 514.68L235.26 514.68L235.26 514.82L234.59 514.82L234.59 514.95L234.06 514.95L234.06 515.08L233.39 515.08L233.39 515.22L232.86 515.22L232.86 515.35L232.19 515.35L232.19 515.48L231.53 515.48L231.53 515.62L231 515.62L231 515.75L230.33 515.75L230.33 515.88L229.8 515.88L229.8 516.02L229.13 516.02L229.13 516.15L228.46 516.15L228.46 516.28L227.93 516.28L227.93 516.42L227.27 516.42L227.27 516.55L226.73 516.55L226.73 516.68L226.07 516.68L226.07 516.82L225.4 516.82L225.4 516.95L224.87 516.95L224.87 517.08L224.2 517.08L224.2 517.22L223.54 517.22L223.54 517.35L223 517.35L223 517.48L222.34 517.48L222.34 517.62L221.8 517.62L221.8 517.75L221.14 517.75L221.14 517.88L220.47 517.88L220.47 518.01L219.94 518.01L219.94 518.15L219.27 518.15L219.27 518.28L218.74 518.28L218.74 518.41L218.08 518.41L218.08 518.55L217.41 518.55L217.41 518.68L216.88 518.68L216.88 518.81L216.21 518.81L216.21 518.95L215.54 518.95L215.54 519.08L215.01 519.08L215.01 519.21L214.35 519.21L214.35 519.35L213.81 519.35L213.81 519.48L213.15 519.48L213.15 519.61L212.48 519.61L212.48 519.75L211.95 519.75L211.95 519.88L211.28 519.88L211.28 520.01L210.75 520.01L210.75 520.15L210.08 520.15L210.08 520.28L209.42 520.28L209.42 520.41L208.88 520.41L208.88 520.55L208.22 520.55L208.22 520.68L207.69 520.68L207.69 520.81L207.02 520.81L207.02 520.95L206.35 520.95L206.35 521.08L205.82 521.08L205.82 521.21L205.15 521.21L205.15 521.34L204.49 521.34L204.49 521.48L203.96 521.48L203.96 521.61L203.29 521.61L203.29 521.74L202.76 521.74L202.76 521.88L202.09 521.88L202.09 522.01L201.43 522.01L201.43 522.14L200.89 522.14L200.89 522.28L200.23 522.28L200.23 522.41L199.69 522.41L199.69 522.54L199.03 522.54L199.03 522.68L198.36 522.68L198.36 522.81L197.83 522.81L197.83 522.94L197.16 522.94L197.16 523.08L196.63 523.08L196.63 523.21L195.96 523.21L195.96 523.34L195.3 523.34L195.3 523.48L194.77 523.48L194.77 523.61L194.1 523.61L194.1 523.74L193.43 523.74L193.43 523.88L192.9 523.88L192.9 524.01L192.23 524.01L192.23 524.14L191.7 524.14L191.7 524.28L191.04 524.28L191.04 524.41L190.37 524.41L190.37 524.54L189.84 524.54L189.84 524.67L189.17 524.67L189.17 524.81L188.64 524.81L188.64 524.94L187.97 524.94L187.97 525.07L187.31 525.07L187.31 525.21L186.77 525.21L186.77 525.34L186.11 525.34L186.11 525.47L185.44 525.47L185.44 525.61L184.91 525.61L184.91 525.74L184.24 525.74L184.24 525.87L183.71 525.87L183.71 526.01L183.04 526.01L183.04 526.14L182.38 526.14L182.38 526.27L181.84 526.27L181.84 526.41L181.18 526.41L181.18 526.54L180.65 526.54L180.65 526.67L179.98 526.67L179.98 526.81L179.31 526.81L179.31 526.94L178.78 526.94L178.78 527.07L178.12 527.07L178.12 527.21L177.58 527.21L177.58 527.34L176.92 527.34L176.92 527.47L176.25 527.47L176.25 527.61L175.72 527.61L175.72 527.74L175.05 527.74L175.05 527.87L174.39 527.87L174.39 528L173.85 528L173.85 528.14L173.19 528.14L173.19 528.27L172.65 528.27L172.65 528.4L171.99 528.4L171.99 528.54L171.32 528.54L171.32 528.67L170.79 528.67L170.79 528.8L170.12 528.8L170.12 528.94L169.59 528.94L169.59 529.07L168.92 529.07L168.92 529.2L168.26 529.2L168.26 529.34L167.73 529.34L167.73 529.47L167.06 529.47L167.06 529.6L166.53 529.6L166.53 529.74L165.86 529.74L165.86 529.87L165.19 529.87L165.19 530L164.66 530L164.66 530.14L164 530.14L164 530.27L163.33 530.27L163.33 530.4L162.8 530.4L162.8 530.54L162.13 530.54L162.13 530.67L161.6 530.67L161.6 530.8L160.93 530.8L160.93 530.94L160.27 530.94L160.27 531.07L159.73 531.07L159.73 531.2L159.07 531.2L159.07 531.33L158.53 531.33L158.53 531.47L157.87 531.47L157.87 531.6L157.2 531.6L157.2 531.73L156.67 531.73L156.67 531.87L156 531.87L156 532L155.34 532L155.34 532.13L154.81 532.13L154.81 532.27L154.14 532.27L154.14 532.4L153.61 532.4L153.61 532.53L152.94 532.53L152.94 532.67L152.27 532.67L152.27 532.8L151.74 532.8L151.74 532.93L151.08 532.93L151.08 533.07L150.54 533.07L150.54 533.2L149.88 533.2L149.88 533.33L149.21 533.33L149.21 533.47L148.68 533.47L148.68 533.6L148.01 533.6L148.01 533.73L147.48 533.73L147.48 533.87L146.81 533.87L146.81 534L146.15 534L146.15 534.13L145.61 534.13L145.61 534.27L144.95 534.27L144.95 534.4L144.28 534.4L144.28 534.53L143.75 534.53L143.75 534.66L143.35 534.66L143.35 534.93L143.22 534.93L143.22 538.13L143.08 538.13L143.08 541.46L142.95 541.46L142.95 544.65L142.82 544.65L142.82 547.85L142.68 547.85L142.68 551.18L142.55 551.18L142.55 554.38L142.42 554.38L142.42 557.58L142.28 557.58L142.28 560.77L142.15 560.77L142.15 564.1L142.02 564.1L142.02 567.3L141.88 567.3L141.88 570.5L141.75 570.5L141.75 573.83L141.62 573.83L141.62 577.02L141.49 577.02L141.49 580.22L141.35 580.22L141.35 583.55L141.22 583.55L141.22 586.75L141.09 586.75L141.09 589.94L140.95 589.94L140.95 593.14L140.82 593.14L140.82 596.47L140.69 596.47L140.69 599.67L140.55 599.67L140.55 602.86L140.42 602.86L140.42 606.19L140.29 606.19L140.29 609.39L140.15 609.39L140.15 612.59L140.02 612.59L140.02 615.92L139.89 615.92L139.89 619.11L139.75 619.11L139.75 622.31L139.62 622.31L139.62 625.51L139.49 625.51L139.49 628.84L139.35 628.84L139.35 632.03L139.22 632.03L139.22 635.23L139.09 635.23L139.09 638.56L138.95 638.56L138.95 641.76L138.82 641.76L138.82 644.95L138.69 644.95L138.69 648.28L138.55 648.28L138.55 651.48L138.42 651.48L138.42 654.68L138.29 654.68L138.29 657.87L138.16 657.87L138.16 661.2L138.02 661.2L138.02 664.4L137.89 664.4L137.89 666" id="bFc8Pa5Zx"></path><linearGradient id="gradientaWvEEEcDa" gradientUnits="userSpaceOnUse" x1="566.93" y1="500.94" x2="566.93" y2="650.91"><stop style="stop-color: #dbecf2;stop-opacity: 1" offset="0%"></stop><stop style="stop-color: #dbecf2;stop-opacity: 1" offset="0.43290000000000006%"></stop><stop style="stop-color: #aed5e5;stop-opacity: 1" offset="100%"></stop></linearGradient><path d="M-11.83 515.48L93.4 531.47L214.61 539.46L644.85 590.96L707.01 601.62L849.98 606.06L998.27 632.7L998.27 680.65L-10.5 680.65L-11.83 515.48" id="bq7ZG6imF"></path><path d="M721.12 450.89L740.58 464L752.83 478.48L743.87 448L721.12 450.89" id="a5y5aPXAHl"></path><path d="M634.85 446.23L673.04 492.73L682.81 451.55L634.85 446.23" id="a1evea2UL"></path><path d="M585.35 436.9L597.31 465.45L608.88 495.42L605.8 471.53L605.64 446.05L585.35 436.9" id="f4UxVVqUGl"></path><path d="M552.56 499.15L556.48 500.23L555.27 473.19L549.17 431.46L534.29 436.45L552.56 499.15" id="d1hbmnd1ao"></path><path d="M475.36 431.46L500.99 459.98L517.97 489.07L502.43 457.21L492.54 433.79L475.36 431.46" id="e4PMtyANh"></path><path d="M441.71 449.88L455.54 482.85L450.38 448.55L441.71 449.88" id="b3hx5Z3GKe"></path><path d="M357.58 436L359.69 479.3L362.84 514.03L362.86 514.03L369.64 513.84L370.79 483.18L377.78 441.22L357.58 436" id="a6rMRM1p3"></path><path d="M316.98 432.65L316.35 443.12L307.14 473.46L305.64 435.12L316.98 432.65" id="awY6pXr7N"></path><path d="M199.52 415.14L201.76 470.71L212.97 510.99L216.4 518.92L216.42 518.92L217.76 518.62L222.41 497.73L228.27 458.47L239.92 424.57L199.52 415.14" id="djaNfJe3l"></path><path d="M193.61 523.86L190.97 494.5L154.67 464.87L133.36 412.92L127.36 383.29L128.7 427.13L134.91 466.2L140.02 534.55L143.38 534.76L193.61 523.86" id="c1bzgVGY"></path><path d="M33.58 395.51L39.9 424.46L57.77 480.85L55.77 399.93L33.58 395.51" id="a8fWwApVy"></path><path d="M791.77 332.11C775.92 337.29 770.39 349.17 766.79 359.55C765.51 363.23 764.3 370.76 764.05 377.99C763.6 391.15 765.05 407.32 764.77 415.31C764.34 427.71 756.61 467.16 758.51 505.02C758.72 509.3 759.01 513.55 759.36 517.74C759.36 517.74 756.27 524.26 754.4 526.27C752.52 528.29 748.78 529.15 750.08 522.53C750.9 518.34 752.89 509.77 752.67 502.64C752.45 495.51 750.72 464.38 750.94 451.34C751.15 428.29 756.77 407.53 758.07 393.48C759.37 379.43 763.15 361.82 767.8 351.34C770.33 345.63 775.65 339.59 781.42 336.1C785.18 333.82 789.28 332.87 791.8 332.09C791.8 332.1 791.79 332.1 791.77 332.11" id="a2Uyzt3nDE"></path><path d="M910.09 502.23C911.82 510.44 923.57 528.94 925.01 530.16C926.45 531.39 930.35 533.48 930.63 528.73C930.92 523.97 927.61 466.62 924.73 446.44C921.84 426.27 908.08 390.46 908.08 390.46C908.08 390.46 899.08 361.13 894.47 351.55C889.85 341.97 880.2 334.76 877.61 330.59C875.01 326.41 865.72 304 865.72 304C865.72 304 857.72 283.47 846.7 274.82C831.92 263.58 813.19 268.33 803.97 267.76C797.64 267.36 786.53 263.58 778.9 261.71C771.26 259.83 762.61 261.27 760.16 268.05C765.5 265.6 775.87 266.32 780.55 267.47C785.24 268.62 794.6 272.95 800.66 276.76C811.46 284.18 811.53 290.89 810.74 293.19C808.44 291.82 805.94 289.9 803.11 287.57C799.5 284.61 795.94 280.71 791.1 277.66C787.52 275.4 782.87 272.91 778.02 270.9C783.79 274.44 792.55 284.22 795.9 291.35C799.25 298.49 801.47 309.51 801.63 314.48C801.83 320.91 800.25 325.04 798.04 327.78C800.6 324.6 807.24 317.59 817.08 316.1C829.91 314.16 837.72 320.32 840.86 322.37C843.99 324.42 845.98 325.33 844.64 319.89C843.31 314.45 836.97 301.48 843.6 297.58C848.21 294.88 856.87 300.31 863.74 308.37C867.39 312.66 870.54 318.05 871.77 321.29C872.99 324.53 872.6 329.14 867.23 328.71C861.86 328.28 857.27 328.59 855.72 329.96C867.91 331.36 872.85 335.7 879.98 341.29C887.12 346.87 891.58 351.34 894.68 359.12C897.78 366.9 899.22 378.79 899.22 378.79C899.22 378.79 901.13 394.01 906.57 419.21C911.68 442.89 911.87 473.57 910.09 502.23" id="g45xD2dTEm"></path><path d="M894.27 599.79C887.52 615.72 878.19 630 878.19 630C879.96 631.01 881.18 632.58 881.5 633.86C881.81 635.44 881.86 636.74 881.77 637.78C892.4 638.5 902.87 638.67 905.42 638.67C909.38 638.67 910.53 637.16 908.01 635.21C905.49 633.27 892.9 613.27 894.27 599.79" id="b9A0ZL6rl"></path><path d="M862.09 631.7C862.09 631.7 858.22 628.84 856.31 629.23C853.43 629.83 850.57 632.13 850.14 633.86C849.22 638.45 850.56 640.57 850.89 641.38C851.7 643.32 853.55 642.4 854.19 641.43C856.3 638.24 861.9 638.1 861.9 638.1C862.88 640.74 864.85 642.67 866.04 642.67C867.18 642.67 868.7 640.69 869.5 638C869.5 638 875.33 638.24 877.44 641.43C878.08 642.4 879.93 643.32 880.74 641.38C881.07 640.57 882.41 638.45 881.5 633.86C881.06 632.13 879.01 629.86 876.15 629.17C873.28 628.46 869.44 631.75 869.44 631.75C869.44 631.75 869.43 631.75 869.43 631.75C868.85 630.54 867.8 629.48 865.93 629.48C864.09 629.48 862.85 630.42 862.13 631.7C862.12 631.7 862.11 631.7 862.09 631.7" id="b8D7u6eec7"></path><path d="M772.84 634.21C771.54 634.71 770.21 635.57 769.27 636.99C768.5 637.91 767.15 637.38 766.82 636.62C766.5 635.86 764.45 631.39 767.98 628.22C772.77 623.94 778.97 626.6 784.34 626.79C784.34 626.79 784.37 626.78 784.38 626.78C785.78 626.85 786.75 627 786.75 627C786.75 627 786.78 627.01 786.78 627.01C788.43 626.6 790.58 626.53 793.45 626.95C801.31 628.06 808.3 633.18 809.8 638.04C808.67 638.92 808.43 639.92 801.06 638.29C798.45 637.79 796.6 636.04 792.08 636.04C788.34 636.04 788.09 639.29 784.97 639.04C784.36 638.99 782.44 636.93 781.71 634.63C779.62 634.79 777.42 635.71 775.94 637.95C775.08 638.78 773.71 638.31 773.38 637.56C773.22 637.17 772.78 635.85 772.84 634.21" id="b6GM1VuSQL"></path><path d="M763.29 267.05C768.87 265.85 776.67 266.51 780.55 267.47C785.24 268.62 794.6 272.95 800.66 276.76C811.46 284.18 811.53 290.89 810.74 293.19C808.44 291.82 805.94 289.9 803.11 287.57C799.5 284.61 795.94 280.71 791.1 277.66C783.78 273.04 771.93 267.43 763.29 267.05" id="e1nmOaWXa5"></path><path d="M850.71 632.73C850.95 632.38 851.26 632.02 851.62 631.69C849.17 629.81 847.17 625.51 848.18 611.31C843.51 611.85 838.39 612.1 832.79 612.16C826.39 612.22 820.77 611.45 815.83 610.06C815.83 610.06 815.82 610.07 815.82 610.07C822.98 622.19 837.23 628.88 850.71 632.73" id="c3hdISaMM4"></path><path d="M843.31 323.77C843.31 323.77 851.58 330.87 855.74 329.96C857.28 328.59 861.86 328.28 867.23 328.71C872.6 329.14 872.99 324.53 871.77 321.29C870.54 318.05 867.39 312.66 863.74 308.37C856.87 300.31 848.21 294.88 843.6 297.58C836.97 301.48 843.31 314.45 844.64 319.89C845.58 323.7 844.89 324.4 843.31 323.77" id="b5U9sawI4"></path><linearGradient id="gradienta3LJDMp51P" gradientUnits="userSpaceOnUse" x1="841.68" y1="301.83" x2="866.32" y2="331.45"><stop style="stop-color: #f68712;stop-opacity: 1" offset="0%"></stop><stop style="stop-color: #ffffff;stop-opacity: 1" offset="70.1299%"></stop><stop style="stop-color: #ffffff;stop-opacity: 1" offset="100%"></stop></linearGradient><path d="M787.5 626.87C788.43 621.32 785.52 613.53 780.62 607.26C772.55 596.23 760.88 552.57 758.51 505.02C756.61 467.16 764.34 427.71 764.77 415.31C765.05 407.32 763.6 391.15 764.05 377.99C764.3 370.76 765.51 363.23 766.79 359.55C770.39 349.17 775.92 337.29 791.77 332.11C792.5 331.88 793.1 331.67 793.52 331.45C795.08 330.63 796.67 329.48 798.02 327.81C798.02 327.81 798.05 327.78 798.05 327.77C800.61 324.6 807.24 317.59 817.08 316.1C829.91 314.16 837.72 320.32 840.86 322.37C841.81 322.99 842.64 323.51 843.32 323.78C843.32 323.78 851.58 330.87 855.74 329.96C867.93 331.36 872.85 335.7 879.98 341.29C887.12 346.87 891.58 351.34 894.68 359.12C897.78 366.9 899.22 378.79 899.22 378.79C899.22 378.79 901.13 394.01 906.57 419.21C918.1 472.67 904.55 561.72 899.94 582.76C895.33 603.8 878.19 629.99 878.19 629.99C877.57 629.64 876.89 629.34 876.15 629.17C873.28 628.46 869.44 631.75 869.44 631.75C869.44 631.75 869.43 631.76 869.43 631.76C868.86 630.54 867.8 629.48 865.93 629.48C864.08 629.48 862.84 630.43 862.12 631.71C862.12 631.71 862.1 631.7 862.09 631.7C862.09 631.7 858.22 628.84 856.31 629.23C854.56 629.59 852.82 630.58 851.62 631.69C849.17 629.81 847.17 625.51 848.18 611.31C843.51 611.85 838.39 612.1 832.79 612.16C826.39 612.22 820.77 611.45 815.82 610.06C815.82 610.06 815.82 610.07 815.82 610.07C818.19 614.07 821.32 617.48 824.95 620.4C824.95 620.4 824.93 620.44 824.93 620.44C821.69 628.43 819.15 633.3 815.66 637.3C813.54 639.72 809.8 638.04 809.8 638.04C808.3 633.18 801.31 628.06 793.45 626.95C790.98 626.59 789.04 626.6 787.5 626.87" id="a1znKjOev1"></path><linearGradient id="gradientd3WIx13M9X" gradientUnits="userSpaceOnUse" x1="834.66" y1="320.21" x2="834.66" y2="605.53"><stop style="stop-color: #fef0bb;stop-opacity: 1" offset="0%"></stop><stop style="stop-color: #fef0bb;stop-opacity: 1" offset="0.43290000000000006%"></stop><stop style="stop-color: #ffffff;stop-opacity: 1" offset="16.699339%"></stop><stop style="stop-color: #ffffff;stop-opacity: 1" offset="17.316000000000003%"></stop><stop style="stop-color: #f2fbfe;stop-opacity: 1" offset="70.78788700000001%"></stop><stop style="stop-color: #f2fbfe;stop-opacity: 1" offset="83.1169%"></stop><stop style="stop-color: #e8f0f3;stop-opacity: 1" offset="100%"></stop></linearGradient><path d="M667.69 383.02C667.69 383.02 667.93 369.68 664.61 361.1C662.89 356.85 658.92 348.57 647.11 344.68C625.06 340.64 612.2 350.25 603.08 375.23C599.77 384.3 600.57 401.36 600.57 401.36C600.71 399.98 600.88 398.73 601.07 397.63C602.37 390.18 605.5 381.1 607.99 376.67C610.47 372.23 628.01 356.35 642.71 358.51C657.41 360.67 665.48 371.05 667.21 378.82C667.43 379.83 667.59 381.27 667.69 383.02" id="b6ZLTDQ5P9"></path><path d="M671 441.12C673.61 451.03 669.46 485.41 665.55 492.09C667.7 488.69 669.64 484.35 670.88 480.42C673.12 473.36 675.49 463.85 676.14 458.66C676.79 453.47 676 449.58 673.48 445.62C672.53 444.13 671.71 442.64 671 441.12" id="baFTbDFZF"></path><path d="M666.75 419.21C666.68 426.73 667.7 436.59 673.48 445.62C676 449.58 676.79 453.47 676.14 458.66C675.49 463.85 673.12 473.36 670.88 480.42C668.65 487.48 664.18 495.83 660.29 497.71C666.35 500.02 670.67 495.83 673.26 490.58C675.86 485.32 684.36 471.63 688.39 463.34C692.43 455.05 694.73 450.01 699.2 447.14C703.67 444.24 712.17 436.1 716.06 427.68C719.95 419.25 725.14 399.37 722.11 382.07C719.95 367.37 698.12 344.68 698.12 344.68C698.12 344.68 678.5 318.27 657.99 317.44C648.46 317.06 636.97 317.81 629.17 322.84C610.64 334.8 600.36 359.65 596.09 369.53C590.04 383.58 574.01 416.65 571.89 429.19C569.29 444.53 570.16 478.91 569.51 489.5C568.86 500.08 563.46 519.65 562.59 522.35C561.72 525.05 562.59 525.53 564.97 524.94C578.3 520.05 587.67 509.17 593.5 491.44C599.34 473.72 599.56 420.98 599.56 420.98C599.56 420.98 599.71 409.43 600.56 401.41C600.56 401.4 600.57 401.35 600.57 401.35C600.57 401.35 599.77 384.3 603.08 375.23C609.79 356.86 618.51 346.8 631.43 344.37C660.4 334.43 690.99 353.75 690.26 380.56C689.95 392.09 667.9 405.92 666.75 419.17C666.75 419.18 666.75 419.19 666.75 419.21" id="d3WvzwFhPy"></path><path d="M727.39 526.68C727.39 526.68 732.78 496.27 729.68 466.59C726.59 436.99 723.51 419.95 722.28 404.17C721.87 407.41 721.3 410.52 720.64 413.42C720.64 413.42 719.23 453.04 720.38 470.04C721.19 481.96 726.02 500.67 727.21 521.7C727.31 523.34 727.36 525.02 727.39 526.68" id="e1kYUNkqNh"></path><path d="M666.75 419.21C666.77 417.05 666.88 415.11 666.99 413.41C667.41 407.08 668.19 391.54 667.69 383.04C667.69 383.04 667.93 369.68 664.61 361.1C662.89 356.85 658.92 348.57 647.11 344.68C641.28 343.61 636.08 343.49 631.43 344.37C660.4 334.43 690.99 353.75 690.26 380.56C689.95 392.09 667.9 405.95 666.75 419.21" id="h2V0vcQvch"></path><linearGradient id="gradientaCH3fpBWk" gradientUnits="userSpaceOnUse" x1="679.36" y1="406.32" x2="653.42" y2="339.75"><stop style="stop-color: #f68712;stop-opacity: 1" offset="0%"></stop><stop style="stop-color: #f68712;stop-opacity: 1" offset="0.43290000000000006%"></stop><stop style="stop-color: #f2fbfe;stop-opacity: 1" offset="33.799955%"></stop><stop style="stop-color: #f2fbfe;stop-opacity: 1" offset="35.0649%"></stop><stop style="stop-color: #ffffff;stop-opacity: 1" offset="47.762112%"></stop><stop style="stop-color: #ffffff;stop-opacity: 1" offset="53.24680000000001%"></stop><stop style="stop-color: #ffffff;stop-opacity: 1" offset="70.284109%"></stop><stop style="stop-color: #37434d;stop-opacity: 1" offset="100%"></stop></linearGradient><path d="M618.61 631.3C620.63 630.65 622.68 633.42 623.62 634.84C624.39 635.76 625.6 635.75 626.33 634.4C626.72 633.67 628.08 628.34 625.42 624.95C623.36 622.33 619.34 622.29 616.1 624.01C612.61 621.5 606.69 624.23 606.69 624.23C605.16 623.78 603.05 623.81 600.07 624.61C592.77 626.53 591.74 630.01 591.77 630.28C591.79 630.56 593.32 632.53 596.16 633.24C598.22 633.75 601.33 632.8 603.23 632.8C606.97 632.8 605.62 636.3 608.74 636.05C609.35 636 610.34 634.08 610.67 631.91C612.27 631.98 613.59 632.65 614.14 634.75C614.57 636.43 616.95 635.87 617.27 635.11C617.43 634.75 618.26 633.23 618.61 631.3" id="a1HnK7YCZi"></path><path d="M696.85 631.91C696.52 634.08 695.53 636 694.91 636.05C691.8 636.3 693.14 632.8 689.4 632.8C687.51 632.8 684.4 633.75 682.34 633.24C679.5 632.53 677.94 630.28 677.94 630.28C677.94 630.28 678.95 626.53 686.25 624.61C689.23 623.81 691.34 623.78 692.87 624.23C692.87 624.23 698.79 621.5 702.27 624.01C705.52 622.28 709.53 622.33 711.59 624.95C714.26 628.34 712.89 633.67 712.5 634.4C711.77 635.75 710.56 635.76 709.79 634.84C708.86 633.42 706.81 630.65 704.79 631.3C704.44 633.23 703.61 634.75 703.45 635.11C703.13 635.87 700.75 636.43 700.32 634.75C699.77 632.65 698.45 631.97 696.85 631.91" id="i2n55cHoka"></path><path d="M626.81 628.05C626.58 626.96 626.15 625.88 625.42 624.95C623.95 623.08 621.46 622.52 618.98 622.98C618.98 622.98 618.98 622.98 618.98 622.98C617.46 615.28 628.56 608.17 628.56 608.17C634.64 609.27 641.58 609.74 649.49 609.82C656.39 609.89 662.39 608.98 667.61 607.38C657.03 621.75 642.58 627.11 627.01 628.05C626.94 628.05 626.88 628.06 626.81 628.06C626.81 628.06 626.81 628.06 626.81 628.05" id="fQawNslRE"></path><path d="M586.92 628.64C581.32 628.61 576.94 628.55 575.13 628.48C571.17 628.34 570.27 627.94 572.53 625.02C574.49 622.52 582.98 603.07 581.61 589.6C584.63 595.8 586.74 604.93 587.2 612.12C587.59 618.34 586.66 624.37 586.8 627.9C586.81 628.17 586.86 628.41 586.92 628.64" id="aKrKerg50"></path><path d="M591.77 630.28C591.77 630.28 586.94 631.44 586.8 627.9C586.66 624.37 587.59 618.34 587.2 612.12C586.71 604.35 584.29 594.35 580.88 588.18C577.63 582.32 572.44 571.84 570.94 559.02C568.65 539.54 574.13 520.2 574.13 520.2C582.69 514.24 589.07 504.78 593.46 491.46C599.3 473.73 599.51 420.99 599.51 420.99C599.51 420.99 599.73 405.1 601.02 397.64C602.33 390.19 605.46 381.11 607.94 376.68C610.43 372.25 627.97 356.36 642.67 358.52C657.37 360.68 665.44 371.06 667.17 378.84C668.48 384.75 667.46 405.79 666.95 413.42C666.51 420.13 666.12 430.96 671.06 441.36C673.49 451.32 669.62 483.87 665.83 491.59C664.04 494.53 662.08 496.84 660.25 497.72C666.3 500.03 670.63 495.85 673.22 490.59C675.81 485.33 684.32 471.64 688.35 463.35C692.39 455.07 694.69 450.02 699.16 447.14C703.63 444.26 712.13 436.12 716.02 427.69C717.53 424.41 719.24 419.39 720.59 413.48C720.59 413.47 720.63 413.43 720.64 413.42C720.64 413.42 719.23 453.04 720.38 470.04C721.19 481.96 726.02 500.67 727.21 521.7C727.73 530.69 727.15 540.1 726 549.59C722.82 575.99 708.95 607.9 699.73 623.03C696.48 622.56 692.87 624.23 692.87 624.23C691.34 623.78 689.23 623.81 686.25 624.61C678.95 626.53 677.95 630.28 677.95 630.28C677.95 630.28 674.62 631.59 672.15 629.54C668.99 626.91 665.69 621.18 663.08 612.76C664.65 611.13 666.16 609.34 667.6 607.38C662.39 608.98 656.39 609.89 649.49 609.82C641.59 609.74 634.64 609.27 628.57 608.17C628.57 608.17 617.45 615.28 618.97 622.98C617.99 623.16 617.01 623.52 616.1 624.01C612.61 621.5 606.7 624.23 606.7 624.23C605.17 623.78 603.06 623.81 600.08 624.61C592.78 626.53 591.74 630 591.77 630.28" id="ciTGx8rkE"></path><linearGradient id="gradienta74Ng6Uzy" gradientUnits="userSpaceOnUse" x1="648.89" y1="362.54" x2="648.89" y2="626.32"><stop style="stop-color: #fef0bb;stop-opacity: 1" offset="0%"></stop><stop style="stop-color: #fef0bb;stop-opacity: 1" offset="0.43290000000000006%"></stop><stop style="stop-color: #ffffff;stop-opacity: 1" offset="16.699339%"></stop><stop style="stop-color: #ffffff;stop-opacity: 1" offset="17.316000000000003%"></stop><stop style="stop-color: #f2fbfe;stop-opacity: 1" offset="65.68613599999999%"></stop><stop style="stop-color: #f2fbfe;stop-opacity: 1" offset="86.5801%"></stop><stop style="stop-color: #e8f0f3;stop-opacity: 1" offset="91.7749%"></stop><stop style="stop-color: #e8f0f3;stop-opacity: 1" offset="100%"></stop></linearGradient><path d="M784.08 581.03C790.42 595.16 803.39 612.45 832.79 612.16C862.19 611.87 878.32 606.11 885.82 583.05C885.82 583.05 873.35 604.69 829.45 604.69C798.76 604.69 784.08 581.03 784.08 581.03" id="dSXPF3n9N"></path><path d="M619.94 597.43C603.65 590.99 596.46 580.71 596.46 580.71C603.95 603.77 620.09 609.54 649.49 609.82C678.88 610.11 691.85 592.82 698.19 578.7C698.19 578.7 682.24 602.42 653.02 602.42C640.3 602.42 628.44 600.78 619.94 597.43" id="c10x2SaLHM"></path><path d="M670.86 529.17C670.29 526.29 664.92 522.46 660.66 522.49C664.19 519.49 666.49 512.98 666.49 512.98C666.49 512.98 670.45 520.84 670.81 525.88C670.89 527 670.9 528.1 670.86 529.17" id="b3zimhynfZ"></path><path d="M646.68 559.87C646.68 559.87 649.86 557.96 651 556.45C652.13 554.94 652.89 552.67 650.35 552.04C645.05 551.04 640.75 548.44 638.41 546.67C633.65 542.34 633.17 534.71 633.17 531.32C633.17 523.65 641.03 517.52 642.42 516.01C643.82 514.5 643.95 511.58 644.89 510.02C645.84 508.46 648.33 506.07 648.33 506.07C648.33 506.07 649.11 516.39 652.83 521.37C652.83 521.36 652.8 521.34 652.8 521.34C643.79 516.66 638.67 523.21 635.94 529.56C634.26 533.46 637.4 540.48 640.86 542.97C644.91 545.87 650.61 547.72 654.35 547.3C657.04 546.99 660.63 545.9 663.42 544.56C661.5 547.74 662.46 552.31 661.28 555.14C658.72 561.29 653.88 561.55 649.92 560.97C648.69 560.79 647.64 560.38 646.68 559.87" id="c4iZ99hoC"></path><path d="M663.41 544.56C663.41 544.56 668.68 540.44 670.42 541.15C670.43 541.16 670.47 541.19 670.48 541.19C669.36 540.63 668.99 539.25 669.51 537.7C670.02 536.19 670.74 532.93 670.87 529.19C670.87 529.19 670.86 529.17 670.86 529.17C670.29 526.29 664.92 522.46 660.66 522.49C659.27 523.69 657.69 524.32 655.97 523.79C654.74 523.41 653.7 522.54 652.83 521.36C652.82 521.36 652.8 521.34 652.8 521.34C643.79 516.66 638.67 523.21 635.94 529.56C634.26 533.46 637.4 540.48 640.86 542.97C644.91 545.87 650.61 547.72 654.35 547.3C657.04 546.99 660.62 545.91 663.41 544.56" id="kz8xSsD7q"></path><path d="M643.15 526.73C643.15 526.73 641 527.45 640.6 530.02C640.15 532.91 642.49 533.84 642.49 533.84C642.49 533.84 644.68 533.26 644.9 530.64C645.1 528.37 643.15 526.73 643.15 526.73" id="i2uxCkl29"></path><path d="M663.41 544.56C663.41 544.56 668.69 540.44 670.43 541.16C670.72 541.32 671.06 541.42 671.46 541.44C673.33 541.59 675.71 542.88 679.24 544.54C682.77 546.2 687.24 550.45 687.1 558.45C686.88 563.06 688.07 585.93 688.61 590.94C689.15 595.95 691.96 606 689.83 615.3C687.85 625.24 677.77 632.83 677.77 632.83C676.85 632.31 675.58 632.41 674.51 632.99C673.19 632.04 671.03 632.88 670.64 633.05C670.64 633.05 670.64 633.06 670.64 633.06C670 632.84 669.09 632.85 667.81 633.24C667.47 633.34 667.17 633.45 666.9 633.57C666.9 633.57 666.89 633.57 666.88 633.58C666.88 633.58 665.88 630.84 667.2 627.75C671.3 624.36 674.68 618.96 676.65 610.41C676.65 610.41 674.58 623.45 661.12 624.66C656.16 625.1 652.63 622.13 651.1 608.66C651.1 608.66 652.64 619.39 650.93 624.66C649.49 629.08 645.45 632.66 645.45 632.66C645.45 632.66 645.43 632.67 645.43 632.67C643.99 632.23 642.15 633.08 642.15 633.08C641.52 632.89 640.63 632.9 639.38 633.24C636.33 634.04 635.91 635.61 635.91 635.61C631.68 635.34 629.2 628.22 628.16 619.33C626.98 609.24 627.44 601.61 629.45 595.12C631.47 588.64 640.48 576.82 640.84 573.51C641.2 570.19 639.98 569.4 638.68 568.25C637.38 567.09 632.68 567.13 630.9 566.3C627.94 564.93 624.91 561.76 622.97 560.54C621.02 559.31 611.66 553.04 607.99 551.74C604.31 550.45 607.19 548.22 609.13 547.86C611.08 547.49 615.55 546.78 619.65 547.86C623.76 548.94 627.89 551.59 633.49 553.91C636.43 555.13 638.17 554.92 640.69 556.07C643.79 557.48 645.95 560.39 649.92 560.97C653.88 561.55 658.72 561.29 661.28 555.14C662.46 552.31 661.49 547.74 663.41 544.56" id="fbrIEYaqc"></path><path d="M687.18 565.25C687.18 565.25 689.98 566.76 693.22 566.81C698.05 566.88 704.24 563.71 707.77 563.13C711.31 562.55 715.73 562.28 717.1 561.99C718.47 561.7 718.94 559.89 717.5 558.81C716.06 557.73 708.71 555.86 700.93 554.92C693.15 553.98 686.94 555.5 686.94 555.5C687.07 556.42 687.11 557.41 687.1 558.45C687.04 559.67 687.08 562.16 687.18 565.25" id="cTtbm7cYb"></path><path d="M675.56 636.03C676.41 635.76 677.26 636.92 677.65 637.51C677.98 637.89 678.48 637.89 678.79 637.33C678.95 637.03 679.52 634.79 678.41 633.38C677.54 632.29 675.86 632.26 674.51 632.99C673.19 632.04 671.04 632.89 670.64 633.06C669.99 632.84 669.09 632.85 667.81 633.24C665.41 633.96 664.7 635.35 664.7 635.75C664.7 636.14 664.98 636.55 666.17 636.85C667.04 637.06 668.33 636.67 669.13 636.67C670.69 636.67 670.13 638.13 671.43 638.02C671.69 638 672.11 637.2 672.24 636.29C672.91 636.32 673.46 636.6 673.69 637.48C673.87 638.18 674.87 637.95 675 637.63C675.07 637.47 675.42 636.84 675.56 636.03" id="b1HIpoCRYc"></path><path d="M643.82 636.29C643.68 637.2 643.26 638 643.01 638.02C641.7 638.13 642.27 636.67 640.7 636.67C639.91 636.67 638.61 637.06 637.75 636.85C636.56 636.55 635.91 635.61 635.91 635.61C635.91 635.61 636.33 634.04 639.38 633.24C640.64 632.9 641.52 632.89 642.16 633.08C642.16 633.08 644.63 631.93 646.09 632.99C647.44 632.27 649.12 632.29 649.98 633.38C651.1 634.79 650.52 637.03 650.36 637.33C650.05 637.89 649.55 637.89 649.23 637.51C648.84 636.92 647.98 635.76 647.14 636.03C646.99 636.84 646.64 637.48 646.58 637.63C646.44 637.95 645.45 638.18 645.26 637.48C645.04 636.6 644.49 636.32 643.82 636.29" id="bkuP40551"></path><path d="M651.1 608.66C651.1 608.66 652.64 619.39 650.93 624.66C649.49 629.08 645.45 632.66 645.45 632.66C645.45 632.66 645.46 632.67 645.46 632.68C645.68 632.75 645.89 632.85 646.08 632.99C647.44 632.26 649.12 632.29 649.98 633.38C660.82 632.85 672.25 629.53 676.65 610.41C676.65 610.41 674.58 623.45 661.12 624.66C656.16 625.1 652.63 622.13 651.1 608.66" id="mMjblcLac"></path><path d="M661.14 631.29C663.26 630.45 665.31 629.32 667.2 627.76C665.88 630.84 666.89 633.58 666.89 633.58C665.22 634.33 664.7 635.41 664.7 635.75C664.7 635.78 664.7 635.82 664.7 635.85C662.93 635.88 661.73 633.84 661.12 631.29C661.12 631.29 661.13 631.29 661.14 631.29" id="d1nh7zIix"></path></defs>

<g filter="url(#transferOpacity)"><g><g><use xlink:href="#c1udPWdgu" fill="url(#gradientghCmY6BMG)"></use><g><use xlink:href="#c1udPWdgu" fill-opacity="0" stroke="#000000" stroke-width="1" stroke-opacity="0"></use></g></g><g><use xlink:href="#bold5wiD" fill="#cbd8f1" fill-opacity="1"></use><g><use xlink:href="#bold5wiD" fill-opacity="0" stroke="#000000" stroke-width="1" stroke-opacity="0"></use></g></g><g><use xlink:href="#c1h4mkrk" fill="#d1d6e2" fill-opacity="1"></use><g><use xlink:href="#c1h4mkrk" fill-opacity="0" stroke="#000000" stroke-width="1" stroke-opacity="0"></use></g></g><g><use xlink:href="#b60U37W2GE" fill="#ffffff" fill-opacity="1"></use><g><use xlink:href="#b60U37W2GE" fill-opacity="0" stroke="#000000" stroke-width="1" stroke-opacity="0"></use></g></g><g><use xlink:href="#dq2Jy8uEA" fill="#f2fbfe" fill-opacity="1"></use><g><use xlink:href="#dq2Jy8uEA" fill-opacity="0" stroke="#000000" stroke-width="1" stroke-opacity="0"></use></g></g><g><use xlink:href="#aHEO6dQ8s" fill="#e8f0f3" fill-opacity="1"></use><g><use xlink:href="#aHEO6dQ8s" fill-opacity="0" stroke="#000000" stroke-width="1" stroke-opacity="0"></use></g></g><g><use xlink:href="#c39SURrNcm" fill="#b1c5d6" fill-opacity="1"></use><g><use xlink:href="#c39SURrNcm" fill-opacity="0" stroke="#000000" stroke-width="1" stroke-opacity="0"></use></g></g><g><use xlink:href="#bFc8Pa5Zx" fill="url(#gradientaWvEEEcDa)"></use><g><use xlink:href="#bFc8Pa5Zx" fill-opacity="0" stroke="#000000" stroke-width="1" stroke-opacity="0"></use></g></g><g><use xlink:href="#bq7ZG6imF" fill="#ffffff" fill-opacity="1"></use><g><use xlink:href="#bq7ZG6imF" fill-opacity="0" stroke="#000000" stroke-width="1" stroke-opacity="0"></use></g></g><g><use xlink:href="#a5y5aPXAHl" fill="#e8f0f3" fill-opacity="1"></use><g><use xlink:href="#a5y5aPXAHl" fill-opacity="0" stroke="#000000" stroke-width="1" stroke-opacity="0"></use></g></g><g><use xlink:href="#a1evea2UL" fill="#e8f0f3" fill-opacity="1"></use><g><use xlink:href="#a1evea2UL" fill-opacity="0" stroke="#000000" stroke-width="1" stroke-opacity="0"></use></g></g><g><use xlink:href="#f4UxVVqUGl" fill="#e8f0f3" fill-opacity="1"></use><g><use xlink:href="#f4UxVVqUGl" fill-opacity="0" stroke="#000000" stroke-width="1" stroke-opacity="0"></use></g></g><g><use xlink:href="#d1hbmnd1ao" fill="#e8f0f3" fill-opacity="1"></use><g><use xlink:href="#d1hbmnd1ao" fill-opacity="0" stroke="#000000" stroke-width="1" stroke-opacity="0"></use></g></g><g><use xlink:href="#e4PMtyANh" fill="#e8f0f3" fill-opacity="1"></use><g><use xlink:href="#e4PMtyANh" fill-opacity="0" stroke="#000000" stroke-width="1" stroke-opacity="0"></use></g></g><g><use xlink:href="#b3hx5Z3GKe" fill="#e8f0f3" fill-opacity="1"></use><g><use xlink:href="#b3hx5Z3GKe" fill-opacity="0" stroke="#000000" stroke-width="1" stroke-opacity="0"></use></g></g><g><use xlink:href="#a6rMRM1p3" fill="#e8f0f3" fill-opacity="1"></use><g><use xlink:href="#a6rMRM1p3" fill-opacity="0" stroke="#000000" stroke-width="1" stroke-opacity="0"></use></g></g><g><use xlink:href="#awY6pXr7N" fill="#e8f0f3" fill-opacity="1"></use><g><use xlink:href="#awY6pXr7N" fill-opacity="0" stroke="#000000" stroke-width="1" stroke-opacity="0"></use></g></g><g><use xlink:href="#djaNfJe3l" fill="#e8f0f3" fill-opacity="1"></use><g><use xlink:href="#djaNfJe3l" fill-opacity="0" stroke="#000000" stroke-width="1" stroke-opacity="0"></use></g></g><g><use xlink:href="#c1bzgVGY" fill="#a9c4d0" fill-opacity="1"></use><g><use xlink:href="#c1bzgVGY" fill-opacity="0" stroke="#000000" stroke-width="1" stroke-opacity="0"></use></g></g><g><use xlink:href="#a8fWwApVy" fill="#a9c4d0" fill-opacity="1"></use><g><use xlink:href="#a8fWwApVy" fill-opacity="0" stroke="#000000" stroke-width="1" stroke-opacity="0"></use></g></g><g><use xlink:href="#a2Uyzt3nDE" fill="#282b30" fill-opacity="1"></use><g><use xlink:href="#a2Uyzt3nDE" fill-opacity="0" stroke="#000000" stroke-width="1" stroke-opacity="0"></use></g></g><g><use xlink:href="#g45xD2dTEm" fill="#282b30" fill-opacity="1"></use><g><use xlink:href="#g45xD2dTEm" fill-opacity="0" stroke="#000000" stroke-width="1" stroke-opacity="0"></use></g></g><g><use xlink:href="#b9A0ZL6rl" fill="#282b30" fill-opacity="1"></use><g><use xlink:href="#b9A0ZL6rl" fill-opacity="0" stroke="#000000" stroke-width="1" stroke-opacity="0"></use></g></g><g><use xlink:href="#b8D7u6eec7" fill="#5b5f63" fill-opacity="1"></use><g><use xlink:href="#b8D7u6eec7" fill-opacity="0" stroke="#000000" stroke-width="1" stroke-opacity="0"></use></g></g><g><use xlink:href="#b6GM1VuSQL" fill="#5b5f63" fill-opacity="1"></use><g><use xlink:href="#b6GM1VuSQL" fill-opacity="0" stroke="#000000" stroke-width="1" stroke-opacity="0"></use></g></g><g><use xlink:href="#e1nmOaWXa5" fill="#f14624" fill-opacity="1"></use><g><use xlink:href="#e1nmOaWXa5" fill-opacity="0" stroke="#000000" stroke-width="1" stroke-opacity="0"></use></g></g><g><use xlink:href="#c3hdISaMM4" fill="#d3dadd" fill-opacity="1"></use><g><use xlink:href="#c3hdISaMM4" fill-opacity="0" stroke="#000000" stroke-width="1" stroke-opacity="0"></use></g></g><g><use xlink:href="#b5U9sawI4" fill="url(#gradienta3LJDMp51P)"></use><g><use xlink:href="#b5U9sawI4" fill-opacity="0" stroke="#000000" stroke-width="1" stroke-opacity="0"></use></g></g><g><use xlink:href="#a1znKjOev1" fill="url(#gradientd3WIx13M9X)"></use><g><use xlink:href="#a1znKjOev1" fill-opacity="0" stroke="#000000" stroke-width="1" stroke-opacity="0"></use></g></g><g><use xlink:href="#b6ZLTDQ5P9" fill="#2e2a2b" fill-opacity="1"></use><g><use xlink:href="#b6ZLTDQ5P9" fill-opacity="0" stroke="#000000" stroke-width="1" stroke-opacity="0"></use></g></g><g><use xlink:href="#baFTbDFZF" fill="#f14624" fill-opacity="1"></use><g><use xlink:href="#baFTbDFZF" fill-opacity="0" stroke="#000000" stroke-width="1" stroke-opacity="0"></use></g></g><g><use xlink:href="#d3WvzwFhPy" fill="#282b30" fill-opacity="1"></use><g><use xlink:href="#d3WvzwFhPy" fill-opacity="0" stroke="#000000" stroke-width="1" stroke-opacity="0"></use></g></g><g><use xlink:href="#e1kYUNkqNh" fill="#282b30" fill-opacity="1"></use><g><use xlink:href="#e1kYUNkqNh" fill-opacity="0" stroke="#000000" stroke-width="1" stroke-opacity="0"></use></g></g><g><use xlink:href="#h2V0vcQvch" fill="url(#gradientaCH3fpBWk)"></use><g><use xlink:href="#h2V0vcQvch" fill-opacity="0" stroke="#000000" stroke-width="1" stroke-opacity="0"></use></g></g><g><use xlink:href="#a1HnK7YCZi" fill="#5b5f63" fill-opacity="1"></use><g><use xlink:href="#a1HnK7YCZi" fill-opacity="0" stroke="#000000" stroke-width="1" stroke-opacity="0"></use></g></g><g><use xlink:href="#i2n55cHoka" fill="#5b5f63" fill-opacity="1"></use><g><use xlink:href="#i2n55cHoka" fill-opacity="0" stroke="#000000" stroke-width="1" stroke-opacity="0"></use></g></g><g><use xlink:href="#fQawNslRE" fill="#d3dadd" fill-opacity="1"></use><g><use xlink:href="#fQawNslRE" fill-opacity="0" stroke="#000000" stroke-width="1" stroke-opacity="0"></use></g></g><g><use xlink:href="#aKrKerg50" fill="#282b30" fill-opacity="1"></use><g><use xlink:href="#aKrKerg50" fill-opacity="0" stroke="#000000" stroke-width="1" stroke-opacity="0"></use></g></g><g><use xlink:href="#ciTGx8rkE" fill="url(#gradienta74Ng6Uzy)"></use><g><use xlink:href="#ciTGx8rkE" fill-opacity="0" stroke="#000000" stroke-width="1" stroke-opacity="0"></use></g></g><g><use xlink:href="#dSXPF3n9N" fill="#dde5e8" fill-opacity="1"></use><g><use xlink:href="#dSXPF3n9N" fill-opacity="0" stroke="#000000" stroke-width="1" stroke-opacity="0"></use></g></g><g><use xlink:href="#c10x2SaLHM" fill="#dde5e8" fill-opacity="1"></use><g><use xlink:href="#c10x2SaLHM" fill-opacity="0" stroke="#000000" stroke-width="1" stroke-opacity="0"></use></g></g><g><use xlink:href="#b3zimhynfZ" fill="#393536" fill-opacity="1"></use><g><use xlink:href="#b3zimhynfZ" fill-opacity="0" stroke="#000000" stroke-width="1" stroke-opacity="0"></use></g></g><g><use xlink:href="#c4iZ99hoC" fill="#393536" fill-opacity="1"></use><g><use xlink:href="#c4iZ99hoC" fill-opacity="0" stroke="#000000" stroke-width="1" stroke-opacity="0"></use></g></g><g><use xlink:href="#kz8xSsD7q" fill="#e9e9e9" fill-opacity="1"></use><g><use xlink:href="#kz8xSsD7q" fill-opacity="0" stroke="#000000" stroke-width="1" stroke-opacity="0"></use></g></g><g><use xlink:href="#i2uxCkl29" fill="#231f20" fill-opacity="1"></use><g><use xlink:href="#i2uxCkl29" fill-opacity="0" stroke="#000000" stroke-width="1" stroke-opacity="0"></use></g></g><g><use xlink:href="#fbrIEYaqc" fill="#bdbcbc" fill-opacity="1"></use><g><use xlink:href="#fbrIEYaqc" fill-opacity="0" stroke="#000000" stroke-width="1" stroke-opacity="0"></use></g></g><g><use xlink:href="#cTtbm7cYb" fill="#a7a5a6" fill-opacity="1"></use><g><use xlink:href="#cTtbm7cYb" fill-opacity="0" stroke="#000000" stroke-width="1" stroke-opacity="0"></use></g></g><g><use xlink:href="#b1HIpoCRYc" fill="#5b5f63" fill-opacity="1"></use><g><use xlink:href="#b1HIpoCRYc" fill-opacity="0" stroke="#000000" stroke-width="1" stroke-opacity="0"></use></g></g><g><use xlink:href="#bkuP40551" fill="#5b5f63" fill-opacity="1"></use><g><use xlink:href="#bkuP40551" fill-opacity="0" stroke="#000000" stroke-width="1" stroke-opacity="0"></use></g></g><g><use xlink:href="#mMjblcLac" fill="#918f90" fill-opacity="1"></use><g><use xlink:href="#mMjblcLac" fill-opacity="0" stroke="#000000" stroke-width="1" stroke-opacity="0"></use></g></g><g><use xlink:href="#d1nh7zIix" fill="#918f90" fill-opacity="1"></use><g><use xlink:href="#d1nh7zIix" fill-opacity="0" stroke="#000000" stroke-width="1" stroke-opacity="0"></use></g></g></g></g></svg>
