<svg xmlns="http://www.w3.org/2000/svg" xmlns:xlink="http://www.w3.org/1999/xlink" width="350" height="150" viewBox="0 0 350 150"><defs><clipPath id="b"><rect width="350" height="150"/></clipPath></defs><g id="a" clip-path="url(#b)"><rect width="350" height="150" fill="#fff"/><g transform="translate(885.688 1571.973)"><rect width="350" height="150" transform="translate(-885.687 -1571.973)" fill="#fffeff"/><g transform="translate(-798.187 -1537.974)"><rect width="175" height="5" transform="translate(0 10)" fill="#acb4bd"/><rect width="43.9" height="5" fill="#acb4bd"/><rect width="175" height="5" transform="translate(0 20)" fill="#acb4bd"/><rect width="175" height="5" transform="translate(0 30)" fill="#acb4bd"/></g><g transform="translate(-800.687 -1493.153)"><path d="M-586.987-1402.153h3.165c3.27,0,5.37-1.86,5.37-5.595s-2.1-5.5-5.49-5.5h-3.045Zm2.22-1.785v-7.545h.69c2.07,0,3.36,1.02,3.36,3.735s-1.29,3.81-3.36,3.81Zm11.955,1.995a5.3,5.3,0,0,0,2.94-.93l-.75-1.35a3.465,3.465,0,0,1-1.89.585,2.208,2.208,0,0,1-2.325-2.083v-.017h5.175a4.121,4.121,0,0,0,.1-1c0-2.325-1.2-4.02-3.51-4.02a4.112,4.112,0,0,0-3.915,4.425A4.07,4.07,0,0,0-572.812-1401.943Zm-2.055-5.25a1.894,1.894,0,0,1,1.83-1.86c1.08,0,1.59.72,1.59,1.86Zm11.94-6.84a4.391,4.391,0,0,0-1.59-.3c-2.115,0-2.925,1.35-2.925,3.1v.69l-1.125.09v1.635h1.125v6.66h2.205v-6.66h1.575v-1.74h-1.575v-.72c0-.93.36-1.32,1.02-1.32a2.726,2.726,0,0,1,.885.18Zm2.415,12.09a3.953,3.953,0,0,0,2.535-1.11h.045l.165.9h1.8v-4.9c0-2.43-1.095-3.7-3.225-3.7a6.709,6.709,0,0,0-3.51,1.11l.8,1.455a4.74,4.74,0,0,1,2.31-.795c1.035,0,1.395.63,1.425,1.455-3.375.36-4.83,1.305-4.83,3.105a2.386,2.386,0,0,0,2.277,2.49Q-560.618-1401.938-560.512-1401.943Zm.72-1.725c-.645,0-1.11-.285-1.11-.945,0-.75.69-1.3,2.73-1.575v1.7A2.229,2.229,0,0,1-559.792-1403.668Zm8.565,1.725a3.377,3.377,0,0,0,2.685-1.41h.06l.165,1.2h1.8v-8.4h-2.205v5.67a2.024,2.024,0,0,1-1.71,1.05c-.81,0-1.17-.45-1.17-1.755v-4.965h-2.205v5.25C-553.807-1403.2-553.027-1401.943-551.227-1401.943Zm9.135,0a3.011,3.011,0,0,0,1.14-.195l-.27-1.635a1.267,1.267,0,0,1-.3.03c-.21,0-.45-.165-.45-.66v-9.72h-2.19v9.615C-544.162-1402.948-543.622-1401.943-542.092-1401.943Zm5.73,0a5.431,5.431,0,0,0,1.77-.315l-.36-1.6a2.464,2.464,0,0,1-.825.18c-.75,0-1.14-.45-1.14-1.41v-3.72h2.07v-1.74h-2.07v-2.25h-1.845l-.255,2.25-1.29.1v1.635h1.185v3.72C-539.122-1403.2-538.357-1401.943-536.362-1401.943Z" transform="translate(651.337 1414.333)" fill="#1760a5"/><g transform="translate(0 5.18)"><path d="M-360.687-1372.474a2,2,0,0,1-2-2v-27.5a2,2,0,0,1,2-2,2,2,0,0,1,2,2v27.5A2,2,0,0,1-360.687-1372.474Z" transform="translate(539.187 1403.974)" fill="#1760a5"/><path d="M-536.188-1372.478h-6.5v-4h6.5Zm-13,0h-6.5v-4h6.5Zm-13,0h-6.5v-4h6.5Zm-13,0h-6.5v-4h6.5Zm-13,0h-6.5v-4h6.5Zm-13,0h-6.5v-4h6.5Zm-13,0h-6.5v-4h6.5Zm-13,0h-6.5v-4h6.5Zm-13,0h-6.5v-4h6.5Zm-13,0h-6.5v-4h6.5Zm-13,0h-6.5v-4h6.5Zm-13,0h-6.5v-4h6.5Zm-13,0h-6.5v-4h6.5Zm-13,0h-6.5v-4h6.5Z" transform="translate(713.688 1390.226)" fill="#1760a5"/><path d="M-713.687-1372.474a2,2,0,0,1-2-2v-27.5a2,2,0,0,1,2-2,2,2,0,0,1,2,2v27.5A2,2,0,0,1-713.687-1372.474Z" transform="translate(715.687 1403.974)" fill="#1760a5"/></g></g></g></g></svg>