<svg xmlns="http://www.w3.org/2000/svg" width="249" height="160" viewBox="0 0 249 160">
  <g transform="translate(17766 9529)">
    <rect width="249" height="160" rx="2" transform="translate(-17766 -9529)" fill="#fff"/>
    <g transform="translate(-17700 -9500)">
      <rect width="170" height="5" transform="translate(0 10)" fill="#abb4bd"/>
      <rect width="42.646" height="5" fill="#abb4bd"/>
      <rect width="170" height="5" transform="translate(0 20)" fill="#abb4bd"/>
      <rect width="170" height="5" transform="translate(0 30)" fill="#abb4bd"/>
    </g>
    <g transform="translate(-17700 -9435)">
      <rect width="170" height="5" transform="translate(0 10)" fill="#abb4bd"/>
      <rect width="42.646" height="5" fill="#abb4bd"/>
      <rect width="170" height="5" transform="translate(0 20)" fill="#abb4bd"/>
      <rect width="170" height="5" transform="translate(0 30)" fill="#abb4bd"/>
    </g>
    <rect width="249" height="160" transform="translate(-17766 -9529)" fill="#25272f" opacity="0.271"/>
    <g transform="translate(-217 -20)">
      <path d="M2,160H-2V0H2Z" transform="translate(-17461 -9509)" fill="#209fd8"/>
      <rect width="86" height="160" transform="translate(-17549 -9509)" fill="#f3f7fc"/>
    </g>
    <g transform="translate(-217 -9)">
      <rect width="47" height="5" transform="translate(-17530 -9431)" fill="#abb4bd"/>
      <rect width="47" height="5" transform="translate(-17530 -9441)" fill="#abb4bd"/>
      <rect width="47" height="5" transform="translate(-17530 -9451)" fill="#abb4bd"/>
      <rect width="47" height="5" transform="translate(-17530 -9461)" fill="#abb4bd"/>
      <rect width="47" height="5" transform="translate(-17530 -9471)" fill="#abb4bd"/>
      <rect width="47" height="5" transform="translate(-17530 -9481)" fill="#abb4bd"/>
      <rect width="11.787" height="5" transform="translate(-17530 -9491)" fill="#abb4bd"/>
    </g>
  </g>
</svg>
