<svg width="1440" height="798" viewBox="0 0 1440 798" fill="none" xmlns="http://www.w3.org/2000/svg">
<path fill-rule="evenodd" clip-rule="evenodd" d="M982.925 797.672H939L1439.17 447H1440.82V476.638L982.925 797.672ZM1073.21 797.672H1029.29L1440.82 509.145V539.941L1073.21 797.672ZM1165.94 797.672H1122.02L1440.82 574.159V604.955L1165.94 797.672ZM1255.68 797.672H1211.76L1440.82 637.075V667.871L1255.68 797.672ZM1345.97 797.672H1302.05L1440.82 700.379V731.175L1345.97 797.672Z" fill="#FDF5DB"/>
<path d="M1328.56 708.501C1327.23 706.114 1323.09 704.552 1319.79 706.638C1321.45 703.44 1315.6 688.709 1314.59 688.709C1313.57 688.709 1309.22 699.14 1310.01 707.398C1304.59 702.494 1296.82 709.423 1300.48 715.469C1301.79 719.062 1308.14 718.242 1305.89 714.28C1302.53 716.078 1303.35 709.221 1307.06 709.644C1311.11 710.104 1313.13 712.752 1312.48 716.599C1312.07 719.075 1311.21 719.509 1309.12 721.186C1312.89 724.919 1313.98 731.5 1314.71 731.5C1315.51 731.5 1315.11 726.118 1319.95 721.186C1317.49 719.403 1316.87 719.083 1316.64 716.789C1316.22 712.68 1318.8 710.51 1320.8 709.85C1326.58 707.95 1325.61 713.705 1322.8 715.905C1326.24 721.572 1331.79 712.129 1328.56 708.501Z" fill="#FDF5DB"/>
<path d="M1103.65 708.501C1102.32 706.114 1098.18 704.552 1094.88 706.638C1096.54 703.44 1090.69 688.709 1089.68 688.709C1088.67 688.709 1084.31 699.14 1085.1 707.398C1079.68 702.494 1071.91 709.423 1075.58 715.469C1076.89 719.062 1083.24 718.242 1080.98 714.28C1077.63 716.078 1078.44 709.221 1082.15 709.644C1086.2 710.104 1088.22 712.752 1087.57 716.599C1087.16 719.075 1086.3 719.509 1084.21 721.186C1087.98 724.919 1089.07 731.5 1089.8 731.5C1090.6 731.5 1090.2 726.118 1095.04 721.186C1092.58 719.403 1091.97 719.083 1091.73 716.789C1091.31 712.68 1093.89 710.51 1095.9 709.85C1101.67 707.95 1100.7 713.705 1097.89 715.905C1101.33 721.572 1106.88 712.129 1103.65 708.501Z" fill="#FDF5DB"/>
<path d="M878.745 708.501C877.418 706.114 873.272 704.552 869.973 706.638C871.631 703.44 865.788 688.709 864.774 688.709C863.76 688.709 859.407 699.14 860.194 707.398C854.779 702.494 847.002 709.423 850.669 715.469C851.98 719.062 858.33 718.242 856.071 714.28C852.72 716.078 853.533 709.221 857.248 709.644C861.292 710.104 863.311 712.752 862.667 716.599C862.253 719.075 861.391 719.509 859.302 721.186C863.071 724.919 864.162 731.5 864.894 731.5C865.698 731.5 865.291 726.118 870.135 721.186C867.671 719.403 867.06 719.083 866.825 716.789C866.405 712.68 868.984 710.51 870.99 709.85C876.762 707.95 875.796 713.705 872.984 715.905C876.428 721.572 881.978 712.129 878.745 708.501Z" fill="#FDF5DB"/>
<path d="M653.839 708.501C652.512 706.114 648.365 704.552 645.067 706.638C646.725 703.44 640.881 688.709 639.868 688.709C638.854 688.709 634.501 699.14 635.287 707.398C629.872 702.494 622.096 709.423 625.763 715.469C627.073 719.062 633.423 718.242 631.165 714.28C627.814 716.078 628.627 709.221 632.341 709.644C636.386 710.104 638.405 712.752 637.761 716.599C637.346 719.075 636.485 719.509 634.396 721.186C638.165 724.919 639.256 731.5 639.988 731.5C640.791 731.5 640.385 726.118 645.229 721.186C642.764 719.403 642.154 719.083 641.919 716.789C641.499 712.68 644.078 710.51 646.084 709.85C651.855 707.95 650.889 713.705 648.078 715.905C651.521 721.572 657.071 712.129 653.839 708.501Z" fill="#FDF5DB"/>
<path d="M428.933 708.501C427.606 706.114 423.459 704.552 420.161 706.638C421.819 703.44 415.975 688.709 414.962 688.709C413.948 688.709 409.595 699.14 410.381 707.398C404.966 702.494 397.189 709.423 400.857 715.469C402.167 719.062 408.517 718.242 406.259 714.28C402.907 716.078 403.72 709.221 407.435 709.644C411.48 710.104 413.499 712.752 412.855 716.599C412.44 719.075 411.578 719.509 409.49 721.186C413.259 724.919 414.35 731.5 415.081 731.5C415.885 731.5 415.479 726.118 420.322 721.186C417.858 719.403 417.247 719.083 417.013 716.789C416.593 712.68 419.171 710.51 421.178 709.85C426.949 707.95 425.983 713.705 423.171 715.905C426.615 721.572 432.165 712.129 428.933 708.501Z" fill="#FDF5DB"/>
<path d="M204.025 708.501C202.698 706.114 198.551 704.552 195.253 706.638C196.91 703.44 191.067 688.709 190.053 688.709C189.04 688.709 184.686 699.14 185.473 707.398C180.058 702.494 172.281 709.423 175.948 715.469C177.259 719.062 183.609 718.242 181.351 714.28C177.999 716.078 178.812 709.221 182.527 709.644C186.571 710.104 188.591 712.752 187.947 716.599C187.532 719.075 186.67 719.509 184.581 721.186C188.35 724.919 189.442 731.5 190.173 731.5C190.977 731.5 190.57 726.118 195.414 721.186C192.95 719.403 192.339 719.083 192.105 716.789C191.685 712.68 194.263 710.51 196.269 709.85C202.041 707.95 201.075 713.705 198.263 715.905C201.707 721.572 207.257 712.129 204.025 708.501Z" fill="#FDF5DB"/>
<path d="M1218.65 550.185C1217.32 547.798 1213.18 546.235 1209.88 548.322C1211.54 545.124 1205.69 530.393 1204.68 530.393C1203.67 530.393 1199.31 540.823 1200.1 549.082C1194.68 544.177 1186.91 551.106 1190.58 557.152C1191.89 560.746 1198.24 559.926 1195.98 555.963C1192.63 557.761 1193.44 550.905 1197.15 551.328C1201.2 551.788 1203.22 554.435 1202.57 558.283C1202.16 560.759 1201.3 561.192 1199.21 562.87C1202.98 566.603 1204.07 573.183 1204.8 573.183C1205.6 573.183 1205.2 567.801 1210.04 562.87C1207.58 561.087 1206.97 560.767 1206.73 558.473C1206.31 554.363 1208.89 552.193 1210.9 551.533C1216.67 549.634 1215.7 555.388 1212.89 557.588C1216.33 563.255 1221.88 553.813 1218.65 550.185Z" fill="#FDF5DB"/>
<path d="M993.745 550.185C992.418 547.798 988.272 546.235 984.973 548.322C986.631 545.124 980.788 530.393 979.774 530.393C978.76 530.393 974.407 540.823 975.194 549.082C969.779 544.177 962.002 551.106 965.669 557.152C966.98 560.746 973.33 559.926 971.071 555.963C967.72 557.761 968.533 550.905 972.248 551.328C976.292 551.788 978.311 554.435 977.667 558.283C977.253 560.759 976.391 561.192 974.302 562.87C978.071 566.603 979.162 573.183 979.894 573.183C980.698 573.183 980.291 567.801 985.135 562.87C982.671 561.087 982.06 560.767 981.825 558.473C981.405 554.363 983.984 552.193 985.99 551.533C991.762 549.634 990.796 555.388 987.984 557.588C991.428 563.255 996.978 553.813 993.745 550.185Z" fill="#FDF5DB"/>
<path d="M768.839 550.185C767.512 547.798 763.365 546.235 760.067 548.322C761.725 545.124 755.881 530.393 754.868 530.393C753.854 530.393 749.501 540.823 750.287 549.082C744.872 544.177 737.096 551.106 740.763 557.152C742.073 560.746 748.423 559.926 746.165 555.963C742.814 557.761 743.627 550.905 747.341 551.328C751.386 551.788 753.405 554.435 752.761 558.283C752.346 560.759 751.485 561.192 749.396 562.87C753.165 566.603 754.256 573.183 754.988 573.183C755.791 573.183 755.385 567.801 760.229 562.87C757.764 561.087 757.154 560.767 756.919 558.473C756.499 554.363 759.078 552.193 761.084 551.533C766.855 549.634 765.889 555.388 763.078 557.588C766.521 563.255 772.071 553.813 768.839 550.185Z" fill="#FDF5DB"/>
<path d="M543.933 550.185C542.606 547.798 538.459 546.235 535.161 548.322C536.819 545.124 530.975 530.393 529.962 530.393C528.948 530.393 524.595 540.823 525.381 549.082C519.966 544.177 512.189 551.106 515.857 557.152C517.167 560.746 523.517 559.926 521.259 555.963C517.907 557.761 518.72 550.905 522.435 551.328C526.48 551.788 528.499 554.435 527.855 558.283C527.44 560.759 526.578 561.192 524.49 562.87C528.259 566.603 529.35 573.183 530.081 573.183C530.885 573.183 530.479 567.801 535.322 562.87C532.858 561.087 532.247 560.767 532.013 558.473C531.593 554.363 534.171 552.193 536.178 551.533C541.949 549.634 540.983 555.388 538.171 557.588C541.615 563.255 547.165 553.813 543.933 550.185Z" fill="#FDF5DB"/>
<path d="M319.025 550.185C317.698 547.798 313.551 546.235 310.253 548.322C311.91 545.124 306.067 530.393 305.053 530.393C304.04 530.393 299.686 540.823 300.473 549.082C295.058 544.177 287.281 551.106 290.948 557.152C292.259 560.746 298.609 559.926 296.351 555.963C292.999 557.761 293.812 550.905 297.527 551.328C301.571 551.788 303.591 554.435 302.947 558.283C302.532 560.759 301.67 561.192 299.581 562.87C303.35 566.603 304.442 573.183 305.173 573.183C305.977 573.183 305.57 567.801 310.414 562.87C307.95 561.087 307.339 560.767 307.105 558.473C306.685 554.363 309.263 552.193 311.269 551.533C317.041 549.634 316.075 555.388 313.263 557.588C316.707 563.255 322.257 553.813 319.025 550.185Z" fill="#FDF5DB"/>
<path d="M1328.56 391.869C1327.23 389.481 1323.09 387.919 1319.79 390.005C1321.45 386.807 1315.6 372.076 1314.59 372.076C1313.57 372.076 1309.22 382.507 1310.01 390.765C1304.59 385.861 1296.82 392.79 1300.48 398.836C1301.79 402.43 1308.14 401.61 1305.89 397.647C1302.53 399.445 1303.35 392.589 1307.06 393.011C1311.11 393.471 1313.13 396.119 1312.48 399.967C1312.07 402.442 1311.21 402.876 1309.12 404.554C1312.89 408.287 1313.98 414.867 1314.71 414.867C1315.51 414.867 1315.11 409.485 1319.95 404.554C1317.49 402.77 1316.87 402.451 1316.64 400.156C1316.22 396.047 1318.8 393.877 1320.8 393.217C1326.58 391.318 1325.61 397.072 1322.8 399.272C1326.24 404.939 1331.79 395.497 1328.56 391.869Z" fill="#FDF5DB"/>
<path d="M1103.65 391.869C1102.32 389.481 1098.18 387.919 1094.88 390.005C1096.54 386.807 1090.69 372.076 1089.68 372.076C1088.67 372.076 1084.31 382.507 1085.1 390.765C1079.68 385.861 1071.91 392.79 1075.58 398.836C1076.89 402.43 1083.24 401.61 1080.98 397.647C1077.63 399.445 1078.44 392.589 1082.15 393.011C1086.2 393.471 1088.22 396.119 1087.57 399.967C1087.16 402.442 1086.3 402.876 1084.21 404.554C1087.98 408.287 1089.07 414.867 1089.8 414.867C1090.6 414.867 1090.2 409.485 1095.04 404.554C1092.58 402.77 1091.97 402.451 1091.73 400.156C1091.31 396.047 1093.89 393.877 1095.9 393.217C1101.67 391.318 1100.7 397.072 1097.89 399.272C1101.33 404.939 1106.88 395.497 1103.65 391.869Z" fill="#FDF5DB"/>
<path d="M878.745 391.869C877.418 389.481 873.272 387.919 869.973 390.005C871.631 386.807 865.788 372.076 864.774 372.076C863.76 372.076 859.407 382.507 860.194 390.765C854.779 385.861 847.002 392.79 850.669 398.836C851.98 402.43 858.33 401.61 856.071 397.647C852.72 399.445 853.533 392.589 857.248 393.011C861.292 393.471 863.311 396.119 862.667 399.967C862.253 402.442 861.391 402.876 859.302 404.554C863.071 408.287 864.162 414.867 864.894 414.867C865.698 414.867 865.291 409.485 870.135 404.554C867.671 402.77 867.06 402.451 866.825 400.156C866.405 396.047 868.984 393.877 870.99 393.217C876.762 391.318 875.796 397.072 872.984 399.272C876.428 404.939 881.978 395.497 878.745 391.869Z" fill="#E8D595" fill-opacity="0.2"/>
<path d="M653.839 391.869C652.512 389.481 648.365 387.919 645.067 390.005C646.725 386.807 640.881 372.076 639.868 372.076C638.854 372.076 634.501 382.507 635.287 390.765C629.872 385.861 622.096 392.79 625.763 398.836C627.073 402.43 633.423 401.61 631.165 397.647C627.814 399.445 628.627 392.589 632.341 393.011C636.386 393.471 638.405 396.119 637.761 399.967C637.346 402.442 636.485 402.876 634.396 404.554C638.165 408.287 639.256 414.867 639.988 414.867C640.791 414.867 640.385 409.485 645.229 404.554C642.764 402.77 642.154 402.451 641.919 400.156C641.499 396.047 644.078 393.877 646.084 393.217C651.855 391.318 650.889 397.072 648.078 399.272C651.521 404.939 657.071 395.497 653.839 391.869Z" fill="#FDF5DB"/>
<path d="M428.933 391.869C427.606 389.481 423.459 387.919 420.161 390.005C421.819 386.807 415.975 372.076 414.962 372.076C413.948 372.076 409.595 382.507 410.381 390.765C404.966 385.861 397.189 392.79 400.857 398.836C402.167 402.43 408.517 401.61 406.259 397.647C402.907 399.445 403.72 392.589 407.435 393.011C411.48 393.471 413.499 396.119 412.855 399.967C412.44 402.442 411.578 402.876 409.49 404.554C413.259 408.287 414.35 414.867 415.081 414.867C415.885 414.867 415.479 409.485 420.322 404.554C417.858 402.77 417.247 402.451 417.013 400.156C416.593 396.047 419.171 393.877 421.178 393.217C426.949 391.318 425.983 397.072 423.171 399.272C426.615 404.939 432.165 395.497 428.933 391.869Z" fill="#FDF5DB"/>
<path d="M204.025 391.869C202.698 389.481 198.551 387.919 195.253 390.005C196.91 386.807 191.067 372.076 190.053 372.076C189.04 372.076 184.686 382.507 185.473 390.765C180.058 385.861 172.281 392.79 175.948 398.836C177.259 402.43 183.609 401.61 181.351 397.647C177.999 399.445 178.812 392.589 182.527 393.011C186.571 393.471 188.591 396.119 187.947 399.967C187.532 402.442 186.67 402.876 184.581 404.554C188.35 408.287 189.442 414.867 190.173 414.867C190.977 414.867 190.57 409.485 195.414 404.554C192.95 402.77 192.339 402.451 192.105 400.156C191.685 396.047 194.263 393.877 196.269 393.217C202.041 391.318 201.075 397.072 198.263 399.272C201.707 404.939 207.257 395.497 204.025 391.869Z" fill="#FDF5DB"/>
<path d="M1440 230.966C1438.37 230.51 1436.47 230.627 1434.79 231.689C1436.45 228.491 1430.6 213.76 1429.59 213.76C1428.57 213.76 1424.22 224.191 1425.01 232.449C1419.59 227.545 1411.82 234.473 1415.48 240.52C1416.79 244.113 1423.14 243.293 1420.89 239.33C1417.53 241.128 1418.35 234.272 1422.06 234.695C1426.11 235.155 1428.13 237.802 1427.48 241.65C1427.11 243.871 1426.38 244.448 1424.72 245.754C1424.53 245.905 1424.33 246.064 1424.12 246.237C1426.54 248.642 1427.86 252.228 1428.69 254.476C1429.14 255.717 1429.45 256.55 1429.71 256.55C1429.97 256.55 1430.1 256.001 1430.32 255.093C1430.79 253.158 1431.65 249.593 1434.95 246.237C1434.82 246.141 1434.69 246.049 1434.57 245.961C1432.42 244.414 1431.86 244.011 1431.64 241.84C1431.22 237.73 1433.8 235.56 1435.8 234.9C1438.58 233.988 1439.79 234.842 1440 236.219V230.966Z" fill="#FDF5DB"/>
<path d="M1440 237.149C1439.83 238.493 1438.97 240.035 1437.8 240.956C1438.48 242.074 1439.24 242.604 1440 242.706V237.149Z" fill="#FDF5DB"/>
<path d="M1218.65 233.552C1217.32 231.165 1213.18 229.602 1209.88 231.689C1211.54 228.491 1205.69 213.76 1204.68 213.76C1203.67 213.76 1199.31 224.191 1200.1 232.449C1194.68 227.545 1186.91 234.473 1190.58 240.52C1191.89 244.113 1198.24 243.293 1195.98 239.33C1192.63 241.128 1193.44 234.272 1197.15 234.695C1201.2 235.155 1203.22 237.802 1202.57 241.65C1202.16 244.126 1201.3 244.559 1199.21 246.237C1202.98 249.97 1204.07 256.55 1204.8 256.55C1205.6 256.55 1205.2 251.168 1210.04 246.237C1207.58 244.454 1206.97 244.134 1206.73 241.84C1206.31 237.73 1208.89 235.56 1210.9 234.9C1216.67 233.001 1215.7 238.756 1212.89 240.956C1216.33 246.622 1221.88 237.18 1218.65 233.552Z" fill="#FDF5DB"/>
<path d="M993.745 233.552C992.418 231.165 988.272 229.602 984.973 231.689C986.631 228.491 980.788 213.76 979.774 213.76C978.76 213.76 974.407 224.191 975.194 232.449C969.779 227.545 962.002 234.473 965.669 240.52C966.98 244.113 973.33 243.293 971.071 239.33C967.72 241.128 968.533 234.272 972.248 234.695C976.292 235.155 978.311 237.802 977.667 241.65C977.253 244.126 976.391 244.559 974.302 246.237C978.071 249.97 979.162 256.55 979.894 256.55C980.698 256.55 980.291 251.168 985.135 246.237C982.671 244.454 982.06 244.134 981.825 241.84C981.405 237.73 983.984 235.56 985.99 234.9C991.762 233.001 990.796 238.756 987.984 240.956C991.428 246.622 996.978 237.18 993.745 233.552Z" fill="#FDF5DB"/>
<path d="M768.839 233.552C767.512 231.165 763.365 229.602 760.067 231.689C761.725 228.491 755.881 213.76 754.868 213.76C753.854 213.76 749.501 224.191 750.287 232.449C744.872 227.545 737.096 234.473 740.763 240.52C742.073 244.113 748.423 243.293 746.165 239.33C742.814 241.128 743.627 234.272 747.341 234.695C751.386 235.155 753.405 237.802 752.761 241.65C752.346 244.126 751.485 244.559 749.396 246.237C753.165 249.97 754.256 256.55 754.988 256.55C755.791 256.55 755.385 251.168 760.229 246.237C757.764 244.454 757.154 244.134 756.919 241.84C756.499 237.73 759.078 235.56 761.084 234.9C766.855 233.001 765.889 238.756 763.078 240.956C766.521 246.622 772.071 237.18 768.839 233.552Z" fill="#FDF5DB"/>
<path d="M543.933 233.552C542.606 231.165 538.459 229.602 535.161 231.689C536.819 228.491 530.975 213.76 529.962 213.76C528.948 213.76 524.595 224.191 525.381 232.449C519.966 227.545 512.189 234.473 515.857 240.52C517.167 244.113 523.517 243.293 521.259 239.33C517.907 241.128 518.72 234.272 522.435 234.695C526.48 235.155 528.499 237.802 527.855 241.65C527.44 244.126 526.578 244.559 524.49 246.237C528.259 249.97 529.35 256.55 530.081 256.55C530.885 256.55 530.479 251.168 535.322 246.237C532.858 244.454 532.247 244.134 532.013 241.84C531.593 237.73 534.171 235.56 536.178 234.9C541.949 233.001 540.983 238.756 538.171 240.956C541.615 246.622 547.165 237.18 543.933 233.552Z" fill="#FDF5DB"/>
<path d="M319.025 233.552C317.698 231.165 313.551 229.602 310.253 231.689C311.91 228.491 306.067 213.76 305.053 213.76C304.04 213.76 299.686 224.191 300.473 232.449C295.058 227.545 287.281 234.473 290.948 240.52C292.259 244.113 298.609 243.293 296.351 239.33C292.999 241.128 293.812 234.272 297.527 234.695C301.571 235.155 303.591 237.802 302.947 241.65C302.532 244.126 301.67 244.559 299.581 246.237C303.35 249.97 304.442 256.55 305.173 256.55C305.977 256.55 305.57 251.168 310.414 246.237C307.95 244.454 307.339 244.134 307.105 241.84C306.685 237.73 309.263 235.56 311.269 234.9C317.041 233.001 316.075 238.756 313.263 240.956C316.707 246.622 322.257 237.18 319.025 233.552Z" fill="#FDF5DB"/>
<path d="M1122.82 634.017C1120.86 637.846 1119.88 642.13 1119.88 646.413C1119.88 652.204 1121.62 657.995 1125.02 662.691C1120.14 659.489 1117.15 654.165 1114.32 649.055C1112.2 645.172 1110.06 641.302 1107.93 637.419C1107.93 637.419 1107.9 637.459 1107.89 637.486C1107.89 637.486 1107.88 637.513 1107.86 637.526C1107.86 637.526 1107.86 637.54 1107.85 637.553C1107.85 637.58 1107.82 637.593 1107.81 637.62C1107.74 637.74 1107.68 637.846 1107.61 637.966C1107.61 637.98 1107.6 637.993 1107.58 638.02C1104.14 644.518 1106.71 656.887 1100.99 656.9C1100.99 656.9 1100.99 656.9 1100.98 656.9C1099.59 656.9 1097.72 656.167 1095.18 654.472C1095.06 654.392 1094.95 654.312 1094.83 654.232L1094.55 654.178C1092.97 662.464 1090.97 668.189 1087.71 673.526L1092.16 675.888C1092.32 675.968 1092.45 676.088 1092.56 676.235C1095.72 680.464 1103.17 684.24 1109.14 687.269C1110.73 688.07 1112.21 688.817 1113.47 689.511C1129.54 698.264 1144.29 702.574 1158.58 702.681C1158.72 702.681 1158.86 702.681 1159 702.681C1161.4 702.681 1163.84 702.561 1166.21 702.454C1168.6 702.347 1171.05 702.227 1173.51 702.227C1173.86 702.227 1174.19 702.227 1174.54 702.227C1184.37 702.347 1194.15 704.562 1203.61 706.697C1213.16 708.858 1223 711.087 1232.82 711.087C1234.45 711.087 1236.06 711.02 1237.69 710.9C1242.57 710.513 1260.85 710.406 1271.31 710.38C1275.63 710.38 1279.27 710.366 1281.39 710.366C1281.51 710.366 1281.63 710.366 1281.74 710.366C1281.14 708.391 1280.61 706.47 1280.15 704.695C1280.12 704.602 1280.1 704.495 1280.07 704.402C1263.92 704.268 1245.08 696.77 1235.55 688.497C1235.53 688.47 1235.5 688.444 1235.47 688.417C1235.46 688.417 1235.45 688.39 1235.43 688.377C1235.35 688.31 1235.27 688.23 1235.19 688.163C1235.18 688.15 1235.15 688.123 1235.14 688.11C1235.14 688.11 1235.11 688.083 1235.1 688.07C1235.07 688.043 1235.03 688.017 1235.01 687.99C1230.03 683.493 1224.95 677.982 1218.25 677.649C1221.15 685.174 1226.27 691.806 1232.79 696.503C1232.73 696.529 1232.65 696.543 1232.58 696.556C1230.41 697.157 1228.22 697.423 1226.02 697.423H1225.99C1218.47 697.423 1210.88 694.381 1203.49 691.739C1203.47 691.739 1203.46 691.739 1203.45 691.726C1203.2 691.646 1202.96 691.552 1202.74 691.472C1202.7 691.459 1202.64 691.446 1202.6 691.419C1202.55 691.406 1202.5 691.379 1202.44 691.366C1202.38 691.339 1202.31 691.326 1202.26 691.299C1202.22 691.286 1202.18 691.272 1202.14 691.259C1202.14 691.259 1202.07 691.232 1202.03 691.219C1201.9 691.165 1201.76 691.125 1201.63 691.072C1201.42 690.992 1201.2 690.925 1200.99 690.845C1200.96 690.845 1200.92 690.819 1200.9 690.805C1197.88 689.778 1194.79 688.857 1191.97 687.336C1185.41 683.76 1181.11 677.195 1177.07 670.897C1176.95 672.498 1176.88 674.113 1176.88 675.728C1176.88 679.69 1177.24 683.64 1177.97 687.536C1154.78 675.768 1135.29 656.834 1122.88 633.99" fill="#DAD4C6"/>
<path d="M1233.97 575.814C1241.98 579.978 1249.44 584.901 1257.11 589.651C1260.25 591.586 1263.57 593.214 1266.72 595.122C1270.76 597.564 1273.97 601.233 1277.9 603.662C1276.03 602.501 1273.83 601.86 1271.63 601.847C1285.38 607.197 1295.61 618.873 1304.22 630.841C1304.08 625.798 1301.68 621.101 1298.92 616.885C1292.9 607.651 1284.9 599.685 1275.63 593.721C1277 595.135 1278.12 596.763 1278.98 598.524C1272.2 591.586 1264.18 585.862 1255.42 581.712C1248.68 578.51 1241.42 576.215 1233.97 575.828" fill="#F0ECDB"/>
<path d="M1227.42 545.459C1229.03 548.902 1230.94 552.197 1233.1 555.32L1232.51 559.189C1244.37 560.417 1256.5 561.711 1267.27 566.835C1273.03 569.583 1278.3 573.399 1284.35 575.414C1278.72 564.993 1269.53 556.547 1258.7 551.784C1262.86 553.612 1268.24 556.027 1272.07 558.482C1269.88 555.8 1265.89 553.598 1262.04 551.623C1259.9 550.876 1257.7 550.169 1255.42 549.502C1252.38 548.621 1249.15 547.807 1245.68 547.047C1250.8 549.489 1255.73 553.078 1258.73 557.054C1256.06 554.813 1252.22 554.933 1248.75 554.532C1241.01 553.612 1234.09 549.502 1227.42 545.459Z" fill="#F0ECDB"/>
<path d="M1202.04 545.314C1205.77 552.573 1211 559.031 1217.31 564.195L1217.47 567.331C1217.47 567.331 1217.59 567.331 1217.64 567.331C1217.67 567.331 1217.69 567.331 1217.72 567.331C1218.23 567.304 1218.75 567.304 1219.25 567.304C1219.25 567.304 1219.27 567.304 1219.28 567.304C1226.08 567.304 1232.81 569.212 1239.22 571.587C1246.43 574.242 1253.44 577.511 1260.86 579.513C1252.58 571.32 1242.51 565.209 1232.51 559.191L1233.1 555.322C1227.07 553.734 1221.47 550.558 1217 546.195C1218.68 550.158 1221.11 553.787 1224.14 556.856C1216 554.881 1208.91 550.051 1202.03 545.314" fill="#F0ECDB"/>
<path d="M1227.66 543.873L1227.43 545.461C1234.1 549.491 1241.02 553.6 1248.76 554.534C1252.23 554.934 1256.06 554.814 1258.74 557.056C1255.74 553.08 1250.82 549.491 1245.69 547.049C1243.17 546.502 1240.52 545.968 1237.72 545.474C1234.63 544.927 1231.35 544.407 1227.67 543.886" fill="#F8F5E5"/>
<path d="M1182.55 544.861C1187.49 551.813 1192.41 558.765 1197.36 565.703C1186.44 563.115 1176.3 557.257 1168.6 549.091C1170.64 553.855 1174.56 557.511 1178.38 561.02C1175.39 559.766 1172.55 558.124 1169.93 556.176L1169.55 556.683C1172.17 561.62 1177.07 564.849 1181.78 567.878C1187.92 571.828 1194.04 575.777 1200.19 579.714C1205.37 583.049 1210.66 586.438 1216.62 588C1212.28 583.209 1208.3 578.072 1204.77 572.655C1216.74 581.395 1240 588.413 1256.54 598.1C1248.39 592.056 1228.9 578.339 1221.01 571.948C1219.12 570.4 1218.25 569.266 1216.72 567.371C1216.84 567.371 1216.96 567.358 1217.08 567.344C1217.16 567.344 1217.24 567.344 1217.33 567.344C1217.37 567.344 1217.41 567.344 1217.44 567.344C1217.44 567.344 1217.44 567.344 1217.45 567.344L1217.29 564.209C1205.03 559.018 1192.55 553.694 1182.55 544.875" fill="#F0ECDB"/>
<path d="M1186.01 430.842C1182.46 431.989 1179.82 433.417 1176.84 436.112C1176.47 436.446 1174.96 438.714 1174.28 440.289C1174.08 440.756 1173.95 441.183 1173.95 441.463C1173.95 441.556 1173.95 441.636 1173.99 441.69C1175.98 445.559 1177.08 447.707 1181.22 449.109C1181.61 449.242 1181.97 449.362 1182.33 449.469C1182.33 449.469 1182.41 449.495 1182.45 449.509C1184.11 450.016 1185.58 450.323 1187.06 450.323C1187.06 450.323 1187.06 450.323 1187.08 450.323C1187.08 450.323 1187.08 450.323 1187.09 450.323C1188.1 450.323 1189.13 450.176 1190.21 449.842C1190.52 449.389 1190.81 448.922 1191.1 448.455L1191.2 448.321C1192.55 446.12 1193.64 443.798 1194.47 441.45C1194.89 440.235 1195.13 439.235 1194.91 438.341C1194.65 437.353 1193.75 436.473 1192.89 435.739C1191.06 434.164 1189.06 432.696 1186.94 431.402C1186.64 431.215 1186.33 431.029 1186.02 430.855" fill="#E0D8C8"/>
<path d="M1136.22 532.078C1137.19 534.079 1137.96 536.294 1138.31 537.188C1140.31 542.419 1141.53 547.903 1142.75 553.36C1140.8 552.586 1139.28 551.198 1138.07 549.477L1136.92 550.318C1137.51 557.67 1141.29 564.715 1147.12 569.252C1147.32 564.782 1147.51 560.298 1147.71 555.829C1154.61 567.944 1165.53 577.711 1178.31 583.235C1178.34 582.955 1178.35 582.675 1178.35 582.395C1178.35 578.739 1176.09 575.39 1174.32 572.12C1171.76 567.33 1170.12 562.06 1169.55 556.669L1169.94 556.162C1164.32 551.986 1159.76 546.382 1156.89 539.99C1158.9 547.849 1161.36 555.602 1164.24 563.181C1157 556.949 1150.77 549.571 1145.84 541.391C1145.88 541.938 1145.92 542.485 1145.96 543.032C1143.15 539.71 1140.72 536.067 1138.67 532.211L1136.22 532.064" fill="#F0ECDB"/>
<path d="M1132.93 528.008C1132.64 528.008 1132.36 528.155 1132.08 528.475C1132.08 528.475 1132.06 528.488 1132.05 528.502C1132.05 528.502 1132.02 528.528 1132.02 528.542C1131.54 529.169 1131.34 530.049 1131.34 531.063C1131.34 534.613 1133.76 539.843 1134.53 542.018C1135.46 544.58 1136.52 547.275 1138.07 549.464C1139.28 551.171 1140.79 552.573 1142.75 553.346C1141.53 547.889 1140.31 542.405 1138.31 537.175C1137.96 536.281 1137.17 534.066 1136.22 532.064C1136.18 531.984 1136.14 531.891 1136.1 531.811C1136.1 531.797 1136.09 531.784 1136.08 531.771C1136.08 531.757 1136.06 531.744 1136.05 531.731C1136.05 531.731 1136.05 531.704 1136.04 531.704C1136.04 531.691 1136.02 531.677 1136.01 531.664C1136 531.624 1135.97 531.597 1135.96 531.557C1135.01 529.676 1133.94 528.075 1132.96 528.008C1132.94 528.008 1132.92 528.008 1132.9 528.008" fill="#F8F5E5"/>
<path d="M1130.76 496.613L1130.65 496.653C1130.61 497 1130.57 497.36 1130.57 497.68C1130.57 498.2 1130.65 498.601 1130.82 498.654C1131.28 498.761 1131.41 499.308 1131.41 499.802C1131.41 499.882 1131.41 499.962 1131.41 500.042C1131.37 501.003 1131.34 501.95 1131.34 502.911C1131.34 513.078 1133.9 523.232 1138.67 532.225C1140.71 536.082 1143.15 539.724 1145.96 543.047C1145.92 542.5 1145.88 541.953 1145.84 541.405C1150.77 549.585 1157.01 556.964 1164.24 563.195C1161.36 555.603 1158.92 547.864 1156.89 540.004C1159.76 546.396 1164.32 552 1169.94 556.176C1172.55 558.124 1175.38 559.766 1178.38 561.02C1174.55 557.511 1170.64 553.855 1168.6 549.091C1176.31 557.257 1186.44 563.115 1197.36 565.703C1192.43 558.765 1187.5 551.813 1182.56 544.861C1192.55 553.668 1205.03 559.005 1217.29 564.196C1210.98 559.032 1205.75 552.574 1202.03 545.315C1208.92 550.065 1216.01 554.882 1224.14 556.857C1221.11 553.788 1218.67 550.145 1217 546.196C1221.46 550.559 1227.06 553.735 1233.1 555.322C1230.94 552.2 1229.03 548.904 1227.42 545.462L1227.65 543.874C1223.46 543.26 1219.24 542.7 1215.01 542.139C1202.29 540.458 1189.13 538.724 1176.69 535.374C1169.18 533.346 1159.69 530.144 1152.94 523.245L1152.25 522.525C1150.45 520.644 1148.58 518.695 1146.36 518.682C1146.32 518.682 1146.3 518.682 1146.26 518.682C1146.26 518.682 1146.24 518.682 1146.23 518.682C1145.82 518.682 1145.43 518.469 1145.2 518.108C1144.35 516.734 1143.5 515.333 1142.64 513.905C1138.99 507.874 1135.21 501.656 1130.76 496.586" fill="#F8F5E5"/>
<path d="M1106.44 395.605H1106.42C1102.97 395.605 1099.55 395.912 1096.7 396.553C1096.67 396.553 1096.64 396.566 1096.6 396.58C1096.55 396.58 1096.5 396.606 1096.44 396.62C1090.08 398.114 1084.1 401.743 1080.53 407.187C1087.27 409.549 1094.03 411.897 1101.02 413.325C1106.53 414.433 1112.16 414.94 1117.64 416.127C1126.37 418.022 1134.72 421.625 1142.08 426.668C1141.08 427.602 1140.09 428.536 1139.09 429.457C1143.15 430.057 1147.24 430.378 1151.35 430.431C1150.17 432.553 1148.98 434.674 1147.78 436.809C1147.95 436.809 1148.11 436.782 1148.28 436.769C1148.39 436.769 1148.48 436.756 1148.59 436.742C1148.6 436.742 1148.63 436.742 1148.64 436.742C1148.7 436.742 1148.74 436.742 1148.79 436.742C1151.39 436.542 1154.01 436.382 1156.62 436.382C1156.62 436.382 1156.62 436.382 1156.64 436.382C1156.64 436.382 1156.65 436.382 1156.66 436.382C1160.09 436.382 1163.49 436.676 1166.81 437.556C1166.81 437.556 1166.83 437.556 1166.84 437.556C1166.92 437.583 1166.99 437.596 1167.07 437.623C1169.46 438.277 1171.31 438.837 1173.7 440.158L1174.28 440.305C1174.96 438.73 1176.47 436.462 1176.85 436.129C1179.82 433.433 1182.48 432.005 1186.01 430.858C1176.66 425.374 1165.51 422.719 1155.63 420.384C1155.31 420.304 1155.03 420.103 1154.87 419.81C1148.24 408.108 1135.84 400.049 1122.43 398.808C1120.94 398.661 1119.48 398.501 1118.12 398.114C1116.59 397.687 1115.43 397.06 1114.6 396.206C1112.04 395.832 1109.22 395.632 1106.46 395.632H1106.45" fill="#FDFAED"/>
<path d="M1111.8 380.513C1111.8 380.513 1111.76 380.513 1111.74 380.513C1108.8 380.527 1104.89 382.074 1104.71 385.344C1104.71 385.37 1104.71 385.397 1104.71 385.41C1104.71 385.41 1104.71 385.49 1104.71 385.53C1104.71 388.159 1107.74 391.201 1110.45 391.228H1110.48C1110.76 391.228 1111.02 391.201 1111.29 391.121C1111.29 391.121 1111.3 391.121 1111.32 391.121C1111.42 390.681 1111.46 390.24 1111.46 389.8C1111.46 388.546 1111.14 387.278 1111.14 386.011C1111.14 385.984 1111.14 385.957 1111.14 385.931C1111.17 384.036 1111.96 382.301 1112.49 380.527C1112.26 380.5 1112.04 380.5 1111.8 380.5" fill="#FDFAED"/>
<path d="M1013.13 590.72C1012.44 591.388 1012.21 592.402 1012.04 593.362C1011.4 597.005 1011.08 600.701 1011.08 604.397C1011.08 611.816 1012.37 619.248 1014.91 626.226C1015.4 626.56 1015.88 626.907 1016.36 627.24C1024.11 632.698 1030.66 638.262 1037.45 645.174C1042.09 639.89 1045.55 634.673 1048.24 628.842C1048.31 628.695 1048.38 628.561 1048.44 628.415C1041.47 621.009 1037.05 613.697 1035.4 604.397C1034.64 607.012 1034.34 608.867 1034.34 610.588C1034.34 613.003 1034.93 615.192 1035.66 618.901C1029.35 612.83 1027.45 603.636 1025.83 595.03C1024.45 601.075 1023.74 607.266 1023.74 613.47C1023.74 615.619 1023.82 617.78 1023.99 619.928C1017.91 611.362 1014.12 601.168 1013.12 590.707" fill="#DAD4C6"/>
<path d="M1078.62 488.273C1077.39 488.54 1076.14 488.7 1074.87 488.74C1073.78 488.78 1072.7 488.74 1071.6 488.86C1067.61 489.287 1064.12 491.822 1061.49 494.865C1061.26 495.131 1061.02 495.518 1061.02 495.839C1061.02 495.985 1061.08 496.132 1061.2 496.239C1061.33 496.372 1061.56 496.426 1061.77 496.452C1062.34 496.546 1062.94 496.626 1063.53 496.693C1064.25 496.399 1064.96 496.119 1065.68 495.892C1068.19 495.105 1070.8 494.704 1073.27 493.824C1075.9 492.903 1078.3 491.475 1080.61 489.914C1080.37 489.968 1080.13 490.021 1079.87 490.074C1079.78 490.088 1079.7 490.101 1079.61 490.101C1079.54 490.101 1079.47 490.101 1079.41 490.088C1078.94 490.008 1078.54 489.647 1078.43 489.167C1078.37 488.847 1078.43 488.527 1078.59 488.26" fill="#FDFAED"/>
<path d="M1069.57 481.734C1069.29 481.734 1069 481.734 1068.73 481.774C1064.22 482.201 1057.9 488.739 1057.9 488.739L1057.77 488.846C1054.35 491.608 1051.08 494.53 1047.95 497.599C1047.99 497.572 1048.03 497.546 1048.07 497.519C1048.12 497.492 1048.16 497.452 1048.22 497.426C1049.99 496.305 1051.91 495.197 1053.98 495.184C1053.98 495.184 1053.99 495.184 1054.01 495.184C1054.17 495.184 1054.33 495.184 1054.49 495.211C1051.07 498.466 1047.54 501.909 1045.92 506.339C1049.3 504.404 1052.67 502.469 1056.06 500.521C1058.49 499.12 1060.94 497.732 1063.52 496.665C1062.93 496.612 1062.33 496.532 1061.76 496.425C1061.54 496.385 1061.33 496.331 1061.18 496.211C1061.06 496.091 1061.01 495.958 1061.01 495.811C1061.01 495.477 1061.24 495.104 1061.48 494.837C1064.1 491.795 1067.6 489.26 1071.59 488.833C1072.68 488.726 1073.76 488.766 1074.86 488.713C1076.12 488.672 1077.38 488.512 1078.61 488.245C1078.77 487.992 1079.03 487.792 1079.35 487.725C1080.33 487.512 1081.31 487.311 1082.29 487.138C1078.53 484.296 1073.66 481.761 1069.67 481.721C1069.63 481.721 1069.6 481.721 1069.56 481.721" fill="#F0ECDB"/>
<path d="M1044.59 558.857C1041.4 562.14 1037.84 565.062 1033.98 567.557L1034.08 567.691C1034.44 569.078 1034.78 570.479 1035.14 571.867C1036.39 569.265 1037.8 566.743 1039.35 564.315C1039.31 564.755 1039.28 565.209 1039.28 565.662C1039.28 567.264 1039.56 568.878 1040.09 570.386C1041.32 567.624 1043.16 565.115 1045.43 563.127H1045.52C1045.47 561.673 1045.16 560.205 1044.58 558.857" fill="#F0ECDB"/>
<path d="M1053.25 542.777C1043.28 545.9 1034.32 552.158 1027.96 560.43L1028.66 561.404C1029.24 564.887 1028.82 568.676 1030.4 571.852C1031.64 570.464 1032.86 569.077 1034.09 567.689L1034 567.556C1033.78 567.689 1033.58 567.836 1033.37 567.969C1033.64 564.353 1034.47 560.764 1035.77 557.375C1041.6 552.518 1047.43 547.634 1053.25 542.777Z" fill="#F0ECDB"/>
<path d="M1036.75 541.765C1031.62 545.021 1027.84 552.827 1023.82 557.577C1024.54 560.833 1025.62 563.995 1027.05 566.997C1027.58 565.129 1028.12 563.274 1028.66 561.393L1027.96 560.419C1031.17 554.334 1034.11 548.117 1036.75 541.752" fill="#F0ECDB"/>
<path d="M1044.94 403.01C1042.52 403.01 1040.23 403.81 1038.71 405.732C1038.68 405.772 1038.65 405.798 1038.63 405.839C1038.61 405.865 1038.6 405.879 1038.57 405.905C1038.56 405.932 1038.53 405.959 1038.52 405.972C1036.53 408.721 1037.77 409.481 1039.99 409.495C1039.99 409.495 1039.99 409.495 1040 409.495C1041.33 409.495 1043.01 409.214 1044.55 408.921C1044.58 408.921 1044.62 408.921 1044.64 408.907C1044.68 408.907 1044.72 408.894 1044.78 408.881C1046.38 408.574 1047.78 408.267 1048.4 408.267C1048.4 408.267 1048.44 408.267 1048.47 408.267C1048.58 408.267 1048.66 408.28 1048.7 408.307C1049.02 408.48 1049.1 408.761 1049.11 409.094C1049.11 409.535 1048.96 410.055 1048.96 410.562C1048.96 410.962 1049.06 411.336 1049.38 411.656C1050.42 412.684 1051.73 413.391 1052.95 414.205C1054.46 415.205 1055.87 416.393 1057.57 417.02C1057.61 417.02 1057.64 417.047 1057.68 417.06C1057.7 417.06 1057.72 417.073 1057.74 417.087C1059.21 417.58 1060.78 417.821 1062.36 417.821C1062.36 417.821 1062.36 417.821 1062.37 417.821C1062.38 417.821 1062.37 417.821 1062.38 417.821C1063.85 417.821 1065.31 417.62 1066.69 417.247C1066.73 417.247 1066.77 417.22 1066.8 417.22C1062.9 415.379 1058.69 412.617 1056.02 409.241C1055.51 408.601 1055.06 407.893 1054.53 407.266C1054.53 407.266 1054.49 407.226 1054.47 407.2C1054.47 407.186 1054.45 407.173 1054.43 407.159C1054.42 407.146 1054.41 407.119 1054.38 407.106C1052.35 404.758 1048.51 403.05 1044.95 403.036C1044.95 403.036 1044.94 403.036 1044.92 403.036" fill="#FDFAED"/>
<path d="M1033.24 415.338C1030.7 416.485 1029.72 417.94 1029.73 419.448C1029.73 423.077 1035.52 426.96 1039.24 427.36C1039.24 427.36 1039.29 427.36 1039.31 427.36C1039.65 427.4 1040 427.413 1040.35 427.413C1040.35 427.413 1040.36 427.413 1040.37 427.413C1042.35 427.413 1044.32 426.866 1045.94 425.746C1045.94 425.746 1045.96 425.732 1045.98 425.719C1045.98 425.719 1046 425.705 1046.02 425.692C1046.02 425.692 1046.03 425.692 1046.04 425.679C1046.08 425.652 1046.12 425.625 1046.15 425.599C1042.5 425.505 1038.89 424.158 1036.07 421.863C1035.06 421.062 1034.16 420.128 1033.58 418.967C1033.22 418.247 1033.05 417.473 1033.05 416.699C1033.05 416.245 1033.1 415.792 1033.22 415.351" fill="#F0ECDB"/>
<path d="M1121.83 436.367C1121.08 436.367 1120.34 436.313 1119.59 436.193C1118.92 436.073 1118.27 435.9 1117.63 435.646C1114.2 434.259 1112.57 431.91 1113.25 429.348C1113.92 426.84 1116.91 424.478 1120.8 424.478C1121.26 424.478 1121.71 424.505 1122.18 424.571C1125.21 425.012 1128.18 426.493 1131.3 429.148C1131.89 429.668 1132.69 430.362 1133.1 431.31C1133.6 432.417 1133.41 433.671 1132.65 434.405C1132.04 435.019 1131.24 435.166 1130.45 435.286L1126.54 435.9C1125.1 436.127 1123.48 436.367 1121.83 436.367ZM1029.73 419.434C1029.73 417.927 1030.7 416.472 1033.24 415.325C1033.12 415.778 1033.06 416.232 1033.06 416.672C1033.06 417.446 1033.24 418.22 1033.6 418.941C1034.17 420.101 1035.08 421.035 1036.08 421.836C1038.92 424.144 1042.52 425.479 1046.16 425.572C1046.16 425.572 1046.1 425.626 1046.06 425.652C1046.06 425.652 1046.04 425.652 1046.03 425.666C1046.03 425.666 1046 425.679 1045.99 425.692C1045.99 425.692 1045.96 425.706 1045.95 425.719C1044.32 426.84 1042.35 427.387 1040.39 427.387C1040.39 427.387 1040.37 427.387 1040.36 427.387C1040.01 427.387 1039.67 427.373 1039.32 427.333C1039.29 427.333 1039.27 427.333 1039.25 427.333C1035.53 426.946 1029.76 423.05 1029.74 419.421M1044.94 403.009C1044.94 403.009 1044.95 403.009 1044.96 403.009C1048.53 403.009 1052.37 404.73 1054.4 407.079C1054.41 407.092 1054.42 407.119 1054.45 407.132C1054.45 407.145 1054.48 407.159 1054.49 407.172C1054.5 407.199 1054.53 407.212 1054.54 407.239C1055.08 407.866 1055.52 408.573 1056.04 409.213C1058.7 412.589 1062.93 415.351 1066.82 417.193C1066.82 417.193 1066.73 417.219 1066.71 417.219C1065.32 417.593 1063.87 417.793 1062.4 417.793C1062.4 417.793 1062.4 417.793 1062.39 417.793C1062.39 417.793 1062.39 417.793 1062.37 417.793C1060.8 417.793 1059.22 417.553 1057.76 417.059C1057.73 417.059 1057.72 417.046 1057.69 417.033C1057.65 417.033 1057.62 417.006 1057.58 416.993C1055.89 416.379 1054.48 415.191 1052.97 414.177C1051.74 413.363 1050.45 412.656 1049.39 411.629C1049.07 411.308 1048.99 410.935 1048.98 410.534C1048.98 410.027 1049.13 409.494 1049.13 409.067C1049.13 408.733 1049.03 408.453 1048.71 408.279C1048.66 408.253 1048.58 408.239 1048.49 408.239C1048.46 408.239 1048.45 408.239 1048.42 408.239C1047.79 408.239 1046.38 408.546 1044.79 408.853C1044.75 408.853 1044.71 408.867 1044.66 408.88C1044.63 408.88 1044.59 408.88 1044.56 408.893C1043.03 409.187 1041.35 409.467 1040.01 409.467C1040.01 409.467 1040.01 409.467 1040 409.467C1037.79 409.467 1036.55 408.693 1038.53 405.944C1038.55 405.918 1038.57 405.904 1038.59 405.878C1038.6 405.851 1038.61 405.838 1038.64 405.811C1038.67 405.771 1038.69 405.744 1038.72 405.704C1040.24 403.783 1042.52 402.996 1044.95 402.982M1111.8 380.512C1112.04 380.512 1112.27 380.512 1112.49 380.539C1111.96 382.314 1111.17 384.048 1111.14 385.943C1111.14 385.97 1111.14 385.996 1111.14 386.023C1111.14 387.291 1111.46 388.558 1111.46 389.813C1111.46 390.253 1111.42 390.693 1111.32 391.134C1111.32 391.134 1111.3 391.134 1111.29 391.134C1111.02 391.2 1110.74 391.24 1110.48 391.24H1110.45C1107.74 391.214 1104.73 388.171 1104.71 385.543C1104.71 385.503 1104.71 385.463 1104.71 385.423C1104.71 385.423 1104.71 385.369 1104.71 385.356C1104.87 382.074 1108.8 380.539 1111.74 380.526C1111.76 380.526 1111.79 380.526 1111.8 380.526M1110.53 375.482C1106.17 375.482 1102.21 378.111 1098.52 380.806C1095.04 383.368 1090.96 388.638 1092.84 392.374C1093.03 392.748 1093.02 393.188 1092.79 393.535C1092.58 393.896 1092.19 394.109 1091.77 394.109C1079.84 394.162 1068 398.099 1058.45 405.211C1058.25 405.357 1058.01 405.464 1057.77 405.464C1057.69 405.464 1057.6 405.464 1057.52 405.424C1057.18 405.357 1056.9 405.157 1056.72 404.877C1054.25 400.887 1049.61 399.059 1044.94 399.059C1041.9 399.059 1038.84 399.847 1036.37 401.328C1030.37 404.917 1026.1 412.122 1024.66 421.102C1024.06 424.892 1024.13 427.8 1024.87 430.269C1025.7 433.004 1029.33 436.247 1030.2 436.487C1031.42 436.7 1032.17 437.634 1032.34 438.408C1032.46 438.969 1032.29 439.502 1031.89 439.836C1031.73 440.516 1031.57 441.197 1031.4 441.851C1031.36 442.011 1031.32 442.171 1031.28 442.344C1031.29 442.344 1031.3 442.344 1031.32 442.344C1031.32 442.344 1031.34 442.344 1031.36 442.344C1031.81 442.344 1032.34 442.184 1032.88 441.998C1032.98 441.958 1033.09 441.931 1033.18 441.891C1033.29 441.851 1033.41 441.811 1033.52 441.784C1033.53 441.784 1033.54 441.784 1033.56 441.771C1033.56 441.771 1033.61 441.757 1033.64 441.744C1033.69 441.731 1033.74 441.704 1033.8 441.691C1046.55 437.741 1057.44 428.001 1070.72 426.786C1066.03 432.777 1060.81 438.368 1055.17 443.492C1061.72 437.915 1069.7 434.058 1078.14 432.377C1072.08 434.872 1066.78 439.142 1063.04 444.533C1063.92 444.186 1064.81 443.879 1065.72 443.585C1065.72 443.572 1065.72 443.559 1065.71 443.532C1065.71 443.439 1065.81 443.372 1065.95 443.372C1065.95 443.372 1065.95 443.372 1065.96 443.372C1065.96 443.372 1065.97 443.372 1065.99 443.372C1066 443.372 1066.03 443.372 1066.04 443.372C1066.04 443.372 1066.13 443.399 1066.17 443.425C1069.27 442.465 1072.46 441.824 1075.7 441.517C1068.43 444.773 1061.49 448.816 1055.08 453.539C1062.81 448.803 1070.99 443.919 1080.08 443.505C1080.13 443.505 1080.17 443.505 1080.22 443.505C1080.57 443.505 1080.92 443.492 1081.26 443.492C1081.26 443.492 1081.28 443.492 1081.29 443.492C1084.54 443.492 1087.79 444.026 1091 444.613C1091.2 444.653 1091.4 444.693 1091.6 444.72C1091.68 444.733 1091.77 444.746 1091.85 444.773C1091.96 444.786 1092.07 444.813 1092.17 444.826C1097.51 445.814 1102.86 446.801 1108.21 447.802C1106.2 448.509 1104.17 449.23 1102.15 449.95C1102.22 449.963 1102.3 449.99 1102.37 450.003C1105.09 450.644 1107.89 450.951 1110.69 450.951C1110.69 450.951 1110.69 450.951 1110.7 450.951C1110.7 450.951 1110.7 450.951 1110.72 450.951C1112.99 450.951 1115.27 450.737 1117.49 450.324C1117.6 450.297 1117.71 450.284 1117.81 450.257C1117.91 450.244 1117.99 450.217 1118.08 450.204C1118.11 450.204 1118.13 450.204 1118.17 450.19C1118.2 450.19 1118.22 450.19 1118.24 450.177C1118.3 450.177 1118.35 450.15 1118.39 450.15C1118.43 450.15 1118.48 450.137 1118.52 450.123C1118.56 450.123 1118.62 450.11 1118.66 450.097C1118.75 450.083 1118.83 450.057 1118.92 450.043C1119.23 449.977 1119.52 449.91 1119.83 449.843C1119.87 449.843 1119.91 449.83 1119.94 449.817C1122.96 449.109 1125.98 448.295 1129.01 448.282H1129.03C1129.83 448.282 1130.62 448.336 1131.42 448.469C1131.45 448.469 1131.49 448.469 1131.52 448.482C1130.39 449.656 1129.29 450.844 1128.17 452.018C1131.3 450.324 1134.49 448.602 1137.99 447.842C1138.05 447.828 1138.11 447.815 1138.17 447.802C1138.23 447.802 1138.29 447.775 1138.35 447.762C1139.81 447.468 1141.29 447.348 1142.77 447.348H1142.8C1147.35 447.348 1151.93 448.522 1156.47 449.456C1156.51 449.456 1156.54 449.47 1156.58 449.483C1156.69 449.51 1156.8 449.523 1156.92 449.55C1156.93 449.55 1156.96 449.55 1156.97 449.55C1157.41 449.643 1157.86 449.723 1158.3 449.817C1158.3 449.817 1158.32 449.817 1158.33 449.817C1158.53 449.857 1158.73 449.897 1158.93 449.923C1161.68 450.417 1164.71 450.617 1167.83 450.617H1167.87C1172.39 450.617 1177.07 450.19 1181.18 449.616C1181.19 449.616 1181.21 449.616 1181.22 449.616C1181.38 449.59 1181.55 449.576 1181.71 449.55C1181.89 449.523 1182.06 449.496 1182.23 449.47C1181.87 449.35 1181.51 449.243 1181.13 449.109C1176.99 447.708 1175.88 445.573 1173.9 441.691C1173.87 441.637 1173.86 441.557 1173.86 441.464C1173.86 441.184 1173.99 440.77 1174.19 440.29L1173.6 440.143C1171.22 438.822 1169.36 438.261 1166.97 437.608C1166.89 437.581 1166.83 437.568 1166.75 437.541C1166.75 437.541 1166.73 437.541 1166.72 437.541C1163.41 436.647 1160.01 436.367 1156.57 436.367C1156.57 436.367 1156.55 436.367 1156.54 436.367C1156.54 436.367 1156.54 436.367 1156.53 436.367C1153.93 436.367 1151.3 436.54 1148.7 436.727C1148.64 436.727 1148.6 436.727 1148.55 436.727C1148.54 436.727 1148.51 436.727 1148.5 436.727C1148.39 436.727 1148.3 436.74 1148.19 436.754C1148.02 436.754 1147.86 436.78 1147.68 436.794C1148.87 434.672 1150.06 432.551 1151.26 430.416C1147.15 430.376 1143.05 430.042 1139 429.442C1140 428.521 1140.99 427.587 1141.99 426.653C1134.62 421.596 1126.29 417.993 1117.55 416.112C1112.05 414.924 1106.42 414.417 1100.93 413.31C1093.92 411.895 1087.17 409.534 1080.44 407.172C1084.01 401.715 1090 398.099 1096.35 396.604C1096.4 396.604 1096.46 396.578 1096.51 396.564C1096.54 396.564 1096.56 396.551 1096.6 396.538C1099.46 395.897 1102.87 395.59 1106.33 395.59H1106.37C1109.14 395.59 1111.95 395.79 1114.51 396.164C1113.99 395.617 1113.6 394.976 1113.36 394.243C1112.41 391.4 1114.16 388.999 1115.69 386.89C1116.59 385.663 1117.51 384.395 1117.88 383.114C1118.4 381.3 1117.65 379.752 1116.93 378.778C1115.51 376.843 1112.99 375.522 1110.64 375.469C1110.57 375.469 1110.5 375.469 1110.44 375.469" fill="#E0D8C8"/>
<path d="M1026.18 519.548C1022.77 522.243 1018.27 527.768 1016.3 531.637C1016.06 530.796 1015.87 529.969 1015.7 529.142C1015.63 528.782 1015.56 528.421 1015.5 528.061L1013 529.008C1012.45 532.344 1012.17 535.733 1012.17 539.109C1012.17 545.794 1013.24 552.492 1015.35 558.844C1016.83 554.854 1017.63 550.598 1017.7 546.328C1018.84 551.718 1020 557.122 1021.15 562.513C1022.53 560.165 1023.25 557.456 1023.23 554.747C1023.23 554.681 1023.23 554.614 1023.23 554.547C1023.33 555.148 1023.42 555.735 1023.54 556.322C1023.58 555.641 1023.59 554.961 1023.59 554.294C1023.59 549.09 1022.58 544.26 1022.58 538.322C1022.58 533.198 1023.34 527.247 1026.15 519.521" fill="#F0ECDB"/>
<path d="M1070.72 426.773C1057.44 427.988 1046.55 437.715 1033.8 441.678C1033.8 441.678 1033.69 441.718 1033.64 441.731C1033.61 441.731 1033.59 441.744 1033.56 441.758C1033.56 441.758 1033.53 441.758 1033.52 441.771C1033.41 441.811 1033.31 441.851 1033.19 441.878C1033.08 441.918 1032.97 441.945 1032.88 441.985C1032.34 442.158 1031.81 442.318 1031.36 442.332C1031.36 442.332 1031.33 442.332 1031.32 442.332C1031.3 442.332 1031.29 442.332 1031.28 442.332C1029.61 448.696 1027.28 454.767 1024.14 460.825C1025.98 459.491 1027.93 458.317 1029.97 457.329C1027.02 461.893 1024.09 466.443 1021.15 471.006L1021.3 471.099C1033.69 458.704 1048.05 446.708 1065.4 444.213C1065.79 444.16 1066.27 444.026 1066.31 443.639L1066.2 443.426C1066.04 443.479 1065.88 443.519 1065.75 443.572C1064.84 443.866 1063.95 444.173 1063.07 444.52C1066.79 439.129 1072.1 434.859 1078.17 432.364C1069.74 434.045 1061.75 437.902 1055.2 443.479C1060.84 438.355 1066.06 432.764 1070.75 426.773" fill="#F0ECDB"/>
<path d="M1075.7 441.504C1072.47 441.81 1069.28 442.464 1066.18 443.412L1066.28 443.625C1066.24 444.012 1065.76 444.146 1065.37 444.199C1048.02 446.707 1033.67 458.69 1021.27 471.085L1021.13 470.992C1020.75 471.579 1020.38 472.153 1020 472.74C1023.39 470.338 1027.02 468.297 1030.81 466.629C1026.39 471.579 1022.58 477.05 1019.4 482.881C1026.03 475.435 1035.96 471.579 1045.42 468.056C1038.4 471.699 1033.38 478.17 1028.61 484.455C1036.05 479.612 1044.12 475.715 1052.54 472.913C1044.96 478.637 1038.87 486.283 1034.95 494.929C1042.76 488.832 1050.71 482.654 1059.89 478.864C1051.07 485.429 1043.46 493.608 1037.55 502.882C1044.19 495.703 1051.81 489.392 1060.09 484.215C1056.74 487.564 1053.57 491.1 1050.58 494.769C1052.53 492.461 1054.89 490.486 1057.48 488.938L1057.76 488.832L1057.89 488.725C1057.89 488.725 1064.21 482.187 1068.72 481.76C1069 481.733 1069.28 481.72 1069.56 481.72C1069.56 481.72 1069.63 481.72 1069.67 481.72C1073.66 481.76 1078.53 484.295 1082.29 487.137C1082.46 487.11 1082.65 487.07 1082.82 487.044C1087.19 486.27 1091.67 485.803 1096 485.362C1098.75 485.082 1101.58 484.789 1104.35 484.415C1116.4 482.814 1131.38 480.812 1143.78 475.542H1143.8L1145.23 474.928C1147.87 473.887 1150.61 473.193 1153.26 472.526C1154.19 472.286 1155.14 472.046 1156.08 471.792C1164.57 469.511 1172.32 465.921 1178.63 461.425C1174.83 462.813 1170.6 463.626 1166.76 463.626C1166.65 463.626 1166.53 463.626 1166.43 463.626C1166.33 463.68 1166.21 463.707 1166.11 463.707C1166.03 463.707 1165.93 463.693 1165.85 463.653L1165.67 463.6C1164.76 463.56 1163.97 463.493 1163.23 463.4C1161.24 463.64 1159.14 464.734 1157.29 465.695C1151.94 468.457 1147.2 469.818 1142.92 469.818C1141.83 469.818 1140.75 469.724 1139.71 469.551C1139.27 469.471 1138.83 469.377 1138.39 469.271C1138.17 469.217 1138 469.07 1137.92 468.857C1137.84 468.657 1137.87 468.43 1137.99 468.243C1140.52 464.507 1144.54 461.919 1149 461.118C1150.14 460.918 1151.27 460.838 1152.41 460.838C1154.83 460.838 1157.26 461.198 1159.64 461.558C1160.82 461.732 1162.01 461.919 1163.21 462.052C1163.49 462.012 1163.79 461.999 1164.05 461.999C1164.71 461.999 1165.33 462.092 1165.95 462.292C1166.21 462.292 1166.48 462.292 1166.75 462.292C1172.2 462.292 1178.45 460.584 1183 457.942C1183.81 457.222 1184.6 456.475 1185.34 455.714L1185.4 455.661C1187.21 453.806 1188.81 451.844 1190.17 449.816C1189.09 450.15 1188.08 450.297 1187.05 450.297C1187.05 450.297 1187.05 450.297 1187.04 450.297C1187.04 450.297 1187.04 450.297 1187.02 450.297C1185.56 450.297 1184.08 449.99 1182.41 449.483C1182.37 449.483 1182.33 449.456 1182.29 449.443C1182.12 449.469 1181.94 449.496 1181.77 449.523C1181.61 449.549 1181.43 449.563 1181.27 449.59C1181.26 449.59 1181.25 449.59 1181.23 449.59C1177.11 450.163 1172.44 450.577 1167.92 450.59H1167.88C1164.77 450.59 1161.73 450.39 1158.98 449.896C1158.78 449.856 1158.58 449.816 1158.38 449.79C1158.38 449.79 1158.37 449.79 1158.36 449.79C1157.92 449.71 1157.46 449.616 1157.02 449.523C1157.01 449.523 1156.98 449.523 1156.97 449.523C1156.86 449.496 1156.76 449.483 1156.64 449.456C1156.6 449.456 1156.57 449.443 1156.53 449.429C1151.98 448.495 1147.39 447.321 1142.85 447.321H1142.83C1141.35 447.321 1139.87 447.441 1138.4 447.735C1138.35 447.735 1138.28 447.761 1138.23 447.775C1138.16 447.775 1138.11 447.802 1138.04 447.815C1134.56 448.575 1131.36 450.297 1128.22 451.991C1129.33 450.817 1130.44 449.63 1131.57 448.455C1131.57 448.455 1131.5 448.455 1131.48 448.442C1130.68 448.309 1129.89 448.255 1129.09 448.255H1129.06C1126.03 448.255 1123 449.082 1119.99 449.79C1119.95 449.79 1119.91 449.803 1119.88 449.816C1119.58 449.883 1119.28 449.95 1118.98 450.016C1118.88 450.03 1118.8 450.057 1118.71 450.07C1118.71 450.07 1118.62 450.097 1118.58 450.097C1118.54 450.097 1118.48 450.11 1118.44 450.123C1118.39 450.123 1118.34 450.15 1118.3 450.15C1118.27 450.15 1118.26 450.15 1118.23 450.163C1118.2 450.163 1118.18 450.163 1118.14 450.177C1118.04 450.19 1117.96 450.217 1117.87 450.23C1117.76 450.257 1117.66 450.27 1117.55 450.297C1115.32 450.71 1113.04 450.924 1110.77 450.924C1110.77 450.924 1110.77 450.924 1110.76 450.924C1110.76 450.924 1110.76 450.924 1110.74 450.924C1107.94 450.924 1105.16 450.604 1102.42 449.976C1102.35 449.963 1102.27 449.936 1102.21 449.923C1104.22 449.203 1106.25 448.482 1108.26 447.775C1102.91 446.774 1097.58 445.787 1092.23 444.799C1092.12 444.786 1092.02 444.759 1091.91 444.746C1091.83 444.733 1091.74 444.719 1091.66 444.693C1091.45 444.653 1091.25 444.613 1091.05 444.586C1087.84 443.999 1084.6 443.478 1081.34 443.465C1081.34 443.465 1081.33 443.465 1081.32 443.465C1080.97 443.465 1080.62 443.465 1080.28 443.478C1080.22 443.478 1080.18 443.478 1080.13 443.478C1071.04 443.879 1062.87 448.776 1055.13 453.512C1061.55 448.776 1068.48 444.746 1075.75 441.49" fill="#FDFAED"/>
<path d="M1233.97 575.817C1241.41 576.204 1248.68 578.499 1255.42 581.701C1264.18 585.864 1272.2 591.589 1278.98 598.514C1278.12 596.752 1277 595.124 1275.63 593.71C1284.9 599.674 1292.9 607.627 1298.92 616.874C1301.67 621.104 1304.07 625.787 1304.22 630.831C1295.61 618.862 1285.38 607.187 1271.63 601.836C1273.83 601.863 1276.02 602.503 1277.9 603.651C1273.99 601.222 1270.77 597.553 1266.72 595.111C1263.57 593.203 1260.25 591.575 1257.11 589.64C1249.46 584.904 1241.99 579.98 1233.97 575.804M1029.96 457.33C1027.91 458.317 1025.97 459.492 1024.13 460.826C1023.94 461.186 1023.75 461.547 1023.55 461.907C1023.55 461.933 1023.53 461.96 1023.51 461.987C1021.84 465.136 1019.96 468.298 1017.74 471.647C1015.65 474.783 1013.37 477.825 1011.17 480.787C1009.41 483.149 1007.58 485.591 1005.88 488.046C1004.38 490.194 1002.51 492.436 1000.54 494.811C997.619 498.307 994.617 501.923 992.789 505.299L992.976 505.419C993.51 505.779 994.924 506.726 994.217 508.207C989.174 518.548 985.025 529.29 981.09 539.831L984.492 536.468C984.719 536.241 985.025 536.121 985.332 536.121C985.479 536.121 985.626 536.148 985.773 536.201C986.213 536.375 986.506 536.802 986.533 537.282C987.12 555.282 980.983 584.116 962.04 584.81C955.277 585.064 949.1 586.998 940.015 591.735C934.586 594.551 927.422 595.164 920.512 595.752C916.523 596.085 912.761 596.405 909.48 597.126C902.503 598.66 895.659 602.183 889.696 607.32C876.342 618.849 869.366 637.582 871.914 655.048C871.954 655.329 871.887 655.622 871.74 655.862C871.473 656.289 871.58 656.449 871.66 656.57C872.194 657.33 874.248 657.997 876.209 657.997C876.743 657.997 877.25 657.944 877.743 657.837C880.545 657.21 882.546 654.515 884.493 651.579L885.854 649.524C890.75 642.106 895.806 634.42 903.503 629.83C913.562 623.826 920.072 622.545 926.102 622.545C928.236 622.545 930.317 622.705 932.478 622.878C934.773 623.052 937.121 623.238 939.749 623.238C940.042 623.238 940.349 623.238 940.656 623.238C944.258 623.185 947.833 622.985 951.288 622.798C955.477 622.571 959.546 622.344 963.614 622.344C966.362 622.344 969.097 622.451 971.872 622.718C970.925 622.171 970.271 621.731 969.858 621.304C969.497 620.93 969.431 620.37 969.657 619.916C969.871 619.516 970.284 619.275 970.725 619.275C970.791 619.275 970.845 619.276 970.911 619.289C973.566 619.702 976.394 620.196 979.289 620.703C987.453 622.131 996.631 623.732 1004.22 623.759L1003.61 621.357C1003.49 620.877 1003.66 620.383 1004.06 620.089C1004.28 619.943 1004.52 619.863 1004.77 619.863C1005 619.863 1005.21 619.929 1005.41 620.049C1009.02 622.331 1012.08 624.333 1014.88 626.254C1012.35 619.276 1011.05 611.843 1011.05 604.425C1011.05 600.729 1011.37 597.033 1012.01 593.39C1012.17 592.429 1012.4 591.415 1013.11 590.748C1014.11 601.209 1017.9 611.39 1023.98 619.969C1023.81 617.821 1023.73 615.673 1023.73 613.511C1023.73 607.307 1024.43 601.116 1025.82 595.071C1027.43 603.677 1029.34 612.871 1035.65 618.942C1034.9 615.233 1034.33 613.044 1034.33 610.629C1034.33 608.895 1034.62 607.053 1035.38 604.438C1037.04 613.738 1041.44 621.05 1048.43 628.456C1049.71 625.68 1050.85 622.678 1051.79 619.516C1053.38 614.245 1051.45 606.906 1051.42 606.826C1051.25 606.186 1051.63 605.532 1052.27 605.359C1052.38 605.332 1052.49 605.319 1052.58 605.319C1053.11 605.319 1053.59 605.679 1053.74 606.213C1053.83 606.546 1055.88 614.285 1054.09 620.21C1053.05 623.652 1051.81 626.908 1050.39 629.91C1047.43 636.301 1043.6 641.986 1038.35 647.79C1032.38 654.408 1025.19 660.386 1017.56 666.737L1014.52 669.272C1010.07 672.982 1005.02 677.185 999.206 679.733C995.618 681.321 991.936 682.108 988.454 682.108C985.612 682.108 982.904 681.575 980.503 680.494C979.276 679.947 978.115 679.266 976.995 678.612C975.247 677.585 973.593 676.598 971.765 676.171C971.032 675.997 970.284 675.917 969.551 675.917C965.362 675.917 961.2 678.506 957.251 681.201L953.009 684.096C958.598 685.844 964.895 688.219 969.071 693.143C969.417 693.557 969.751 693.997 970.084 694.424C970.845 695.411 971.552 696.332 972.446 697.026C973.82 698.08 975.634 698.56 977.675 699.027C986.44 701.055 997.218 703.07 1008.29 703.07C1019.36 703.07 1030.41 701.109 1040.19 695.251C1040.37 695.131 1040.59 695.078 1040.8 695.078C1041.09 695.078 1041.39 695.185 1041.6 695.385C1041.99 695.745 1042.11 696.305 1041.88 696.786C1041.77 697.013 1041.73 697.813 1042.32 699.254C1043.08 701.109 1044.36 702.67 1045.04 702.924C1045.1 702.937 1045.15 702.95 1045.2 702.95C1045.5 702.95 1045.84 702.63 1046.56 701.869C1047.3 701.082 1048.14 700.202 1049.34 699.868C1051.54 699.268 1054.27 696.706 1056.92 694.224C1059.09 692.182 1061.14 690.261 1063.03 689.274C1063.2 689.18 1063.39 689.14 1063.59 689.14C1063.89 689.14 1064.2 689.26 1064.43 689.487C1065.67 690.715 1066.29 691.875 1066.71 692.636L1066.87 692.943C1067.07 692.796 1067.39 692.529 1067.87 692.076C1075.63 684.83 1081.2 679.173 1084.93 673.395C1084.94 673.369 1084.96 673.342 1084.97 673.328C1088.45 667.951 1090.53 662.267 1092.15 653.754C1092.79 650.352 1093.41 646.269 1094.1 640.891C1094.18 640.291 1094.7 639.837 1095.28 639.837C1095.34 639.837 1095.39 639.837 1095.44 639.837C1096.11 639.957 1096.56 640.518 1096.48 641.185C1095.79 646.602 1095.16 650.739 1094.51 654.181L1094.79 654.234C1094.91 654.315 1095.02 654.395 1095.14 654.475C1097.68 656.169 1099.55 656.903 1100.94 656.903C1100.94 656.903 1100.94 656.903 1100.95 656.903C1106.68 656.903 1104.1 644.521 1107.54 638.023C1107.54 638.009 1107.56 637.996 1107.57 637.969C1107.64 637.849 1107.7 637.729 1107.77 637.622C1107.77 637.596 1107.8 637.582 1107.81 637.556C1107.81 637.556 1107.81 637.542 1107.82 637.529C1107.82 637.529 1107.84 637.502 1107.85 637.489C1107.85 637.462 1107.88 637.449 1107.89 637.422C1110.02 641.292 1112.16 645.175 1114.28 649.057C1117.09 654.168 1120.1 659.492 1124.98 662.694C1121.58 658.011 1119.84 652.206 1119.84 646.415C1119.84 642.119 1120.82 637.836 1122.78 634.02C1135.2 656.863 1154.67 675.797 1177.86 687.566C1177.14 683.669 1176.78 679.706 1176.78 675.757C1176.78 674.142 1176.84 672.541 1176.96 670.927C1180.99 677.225 1185.3 683.789 1191.87 687.365C1194.68 688.887 1197.76 689.807 1200.79 690.835C1200.82 690.835 1200.86 690.861 1200.88 690.875C1201.1 690.955 1201.31 691.021 1201.52 691.102C1201.66 691.142 1201.79 691.195 1201.92 691.248C1201.96 691.248 1201.99 691.275 1202.03 691.288C1202.03 691.288 1202.11 691.315 1202.15 691.328C1202.22 691.355 1202.28 691.368 1202.34 691.395C1202.39 691.408 1202.44 691.435 1202.5 691.448C1202.54 691.462 1202.59 691.475 1202.63 691.502C1202.87 691.582 1203.1 691.675 1203.34 691.755C1203.35 691.755 1203.37 691.755 1203.38 691.769C1210.76 694.411 1218.36 697.44 1225.88 697.453H1225.91C1228.11 697.453 1230.3 697.186 1232.47 696.586C1232.54 696.572 1232.62 696.546 1232.69 696.532C1226.16 691.835 1221.03 685.204 1218.15 677.678C1224.84 677.999 1229.93 683.523 1234.9 688.019C1234.93 688.046 1234.97 688.073 1234.99 688.099C1234.99 688.099 1235.02 688.126 1235.03 688.139C1235.05 688.153 1235.08 688.179 1235.09 688.193C1235.17 688.259 1235.25 688.339 1235.33 688.406C1235.34 688.406 1235.36 688.433 1235.37 688.446C1235.4 688.473 1235.42 688.5 1235.45 688.526C1244.97 696.786 1263.81 704.298 1279.96 704.431C1277.26 694.571 1264.12 682.055 1250.84 680.534C1250.19 680.467 1249.71 679.867 1249.79 679.199C1249.86 678.586 1250.38 678.132 1250.98 678.132C1251.03 678.132 1251.07 678.132 1251.12 678.132C1265.69 679.84 1279.59 693.236 1282.37 704.111C1282.93 706.299 1283.62 708.754 1284.39 711.21C1288.08 722.885 1294 736.908 1299.59 741.258C1314.94 753.2 1330.88 761.14 1350.13 770.28C1350.79 770.586 1351.55 770.693 1352.14 770.693C1352.4 770.693 1352.63 770.667 1352.8 770.627C1352.76 770.533 1352.75 770.44 1352.74 770.346C1352.66 769.692 1353.12 769.092 1353.79 769.012L1355.39 768.812C1354.64 763.435 1351.67 758.378 1349.03 753.894C1347.19 750.772 1345.29 748.504 1343.29 746.088C1341.32 743.727 1339.29 741.285 1337.35 738.003L1336.87 737.189C1335.51 734.867 1334.34 732.852 1332.39 731.144C1331.31 730.197 1330.26 728.529 1329.14 726.754C1328.22 725.287 1327.26 723.779 1326.48 723.072C1323.45 720.27 1321.87 716.507 1320.33 712.851C1319.41 710.663 1318.45 708.394 1317.21 706.419C1317.01 706.086 1316.8 705.779 1316.58 705.459C1315.82 704.325 1315.05 703.15 1314.64 701.723C1314.22 700.215 1314.28 698.694 1314.38 697.133C1314.86 694.384 1315.92 687.059 1315.28 684.577C1314.49 681.494 1313.16 672.795 1313.49 665.683C1313.86 657.317 1321.05 654.888 1324.51 653.714C1325.2 653.474 1325.8 653.434 1326.28 653.434C1326.42 653.434 1326.54 653.434 1326.64 653.434C1326.75 653.434 1326.84 653.434 1326.92 653.434C1327.28 653.434 1327.31 653.394 1327.46 653.207C1333.33 645.722 1332.66 633.686 1326 626.908C1325.64 626.534 1325.55 625.974 1325.79 625.507C1326 625.106 1326.42 624.866 1326.86 624.866C1326.92 624.866 1326.99 624.866 1327.06 624.88C1327.51 624.96 1327.98 625 1328.44 625C1330.32 625 1332.23 624.373 1333.75 623.252C1325.8 618.248 1320.99 609.775 1316.33 601.556C1315.72 600.475 1315.1 599.394 1314.49 598.327C1304.76 581.568 1293.48 568.959 1280.91 560.819C1275.26 557.163 1269 554.134 1261.94 551.639C1265.78 553.601 1269.79 555.816 1271.97 558.498C1268.15 556.042 1262.78 553.627 1258.61 551.799C1269.44 556.563 1278.63 565.009 1284.26 575.43C1278.2 573.415 1272.95 569.599 1267.17 566.85C1256.41 561.727 1244.29 560.432 1232.42 559.205C1242.4 565.223 1252.48 571.334 1260.77 579.526C1253.35 577.525 1246.33 574.256 1239.13 571.601C1232.71 569.225 1225.99 567.317 1219.19 567.317C1219.19 567.317 1219.17 567.317 1219.16 567.317C1218.65 567.317 1218.13 567.317 1217.63 567.344C1217.6 567.344 1217.57 567.344 1217.55 567.344C1217.49 567.344 1217.43 567.344 1217.37 567.344C1217.37 567.344 1217.37 567.344 1217.36 567.344C1217.36 567.344 1217.28 567.344 1217.25 567.344C1217.17 567.344 1217.09 567.344 1217 567.344C1216.88 567.344 1216.76 567.357 1216.64 567.371C1218.17 569.266 1219.03 570.413 1220.93 571.947C1228.81 578.339 1248.3 592.056 1256.46 598.1C1239.92 588.426 1216.67 581.394 1204.69 572.655C1208.22 578.072 1212.2 583.209 1216.55 587.999C1210.58 586.438 1205.3 583.049 1200.11 579.713C1193.96 575.777 1187.84 571.827 1181.7 567.878C1176.99 564.849 1172.1 561.607 1169.47 556.683C1170.04 562.074 1171.68 567.357 1174.24 572.134C1176 575.403 1178.27 578.752 1178.27 582.408C1178.27 582.689 1178.27 582.969 1178.23 583.249C1165.44 577.725 1154.51 567.945 1147.63 555.842C1147.43 560.312 1147.24 564.796 1147.04 569.265C1141.21 564.729 1137.42 557.684 1136.84 550.332L1137.98 549.491C1136.44 547.303 1135.37 544.607 1134.45 542.046C1133.66 539.871 1131.26 534.627 1131.26 531.091C1131.26 530.077 1131.45 529.196 1131.94 528.569C1131.94 528.569 1131.97 528.542 1131.97 528.529C1131.97 528.529 1131.98 528.516 1131.99 528.502C1132.26 528.182 1132.56 528.035 1132.85 528.035C1132.85 528.035 1132.89 528.035 1132.9 528.035C1133.88 528.089 1134.96 529.69 1135.9 531.585C1135.92 531.625 1135.94 531.651 1135.96 531.691C1135.96 531.705 1135.97 531.718 1135.98 531.731C1135.98 531.731 1135.98 531.758 1136 531.758C1136 531.771 1136.01 531.785 1136.02 531.798C1136.02 531.811 1136.04 531.825 1136.05 531.838C1136.09 531.918 1136.13 532.012 1136.17 532.092L1138.61 532.238C1133.85 523.258 1131.29 513.091 1131.29 502.924C1131.29 501.963 1131.31 501.015 1131.35 500.055C1131.35 499.975 1131.35 499.895 1131.35 499.815C1131.35 499.321 1131.23 498.787 1130.77 498.667C1130.58 498.627 1130.51 498.213 1130.51 497.693C1130.51 497.373 1130.54 497.013 1130.59 496.666L1128.59 497.533C1128.43 497.6 1128.27 497.64 1128.11 497.64C1127.83 497.64 1127.57 497.546 1127.35 497.359C1127.01 497.066 1126.85 496.612 1126.95 496.172C1128.26 490.381 1131.41 485.03 1135.74 480.961C1125.11 484.11 1113.59 485.644 1104.63 486.832C1101.83 487.205 1098.98 487.499 1096.22 487.779C1091.92 488.219 1087.49 488.673 1083.21 489.434C1082.33 489.58 1081.45 489.754 1080.57 489.941C1078.25 491.502 1075.86 492.93 1073.23 493.85C1070.75 494.731 1068.14 495.131 1065.64 495.918C1064.91 496.145 1064.2 496.412 1063.49 496.719C1064.63 496.852 1065.76 496.919 1066.91 496.919C1066.91 496.919 1066.93 496.919 1066.95 496.919C1067.25 496.919 1067.55 496.919 1067.86 496.906C1067.91 496.906 1067.96 496.906 1068.02 496.906C1067.13 498.027 1067.65 498.36 1066.59 499.308C1062.52 502.897 1058.26 506.273 1053.82 509.395C1059.41 508.541 1064.8 506.459 1069.52 503.364C1064.33 508.981 1059.41 514.852 1054.77 520.937C1060.74 516.947 1066.73 512.931 1072.71 508.941C1075.55 507.033 1078.61 505.072 1082.04 504.965C1075.7 511.997 1070.55 520.109 1066.92 528.836C1073.78 523.085 1080.93 517.668 1088.35 512.651C1088.36 512.651 1088.37 512.624 1088.4 512.624C1088.4 512.624 1088.41 512.624 1088.43 512.611C1088.48 512.571 1088.53 512.544 1088.59 512.504C1089.73 511.743 1091.04 511.009 1092.33 510.996H1092.36C1092.67 510.996 1092.97 511.036 1093.28 511.13C1093.31 511.13 1093.32 511.13 1093.35 511.143C1093.36 511.143 1093.37 511.143 1093.4 511.156C1093.2 511.343 1093.12 511.543 1093.12 511.743C1093.12 512.571 1094.56 513.411 1095.67 513.425C1095.87 513.425 1096.06 513.425 1096.26 513.425C1096.26 513.425 1096.27 513.425 1096.28 513.425C1099.34 513.425 1102.39 512.931 1105.3 511.957C1105.33 511.957 1105.35 511.943 1105.38 511.93C1105.41 511.93 1105.45 511.903 1105.47 511.903C1105.55 511.877 1105.62 511.85 1105.7 511.823C1099.99 516.187 1093.7 519.763 1087.05 522.458C1088.16 522.551 1089.28 522.591 1090.39 522.591C1090.39 522.591 1090.4 522.591 1090.41 522.591C1097.8 522.591 1105.19 520.657 1111.64 517.041C1111.69 517.014 1111.73 516.987 1111.78 516.96C1111.78 516.96 1111.8 516.96 1111.81 516.947C1111.9 516.894 1111.98 516.84 1112.08 516.8C1112.2 516.734 1112.3 516.667 1112.42 516.6C1104.06 527.115 1088.93 529.757 1079.3 539.15C1076.81 541.592 1074.65 544.527 1071.47 545.955C1068.8 547.169 1065.72 547.183 1063 548.277C1059.46 549.704 1056.9 552.773 1054.5 555.722C1054.5 555.722 1054.59 555.696 1054.63 555.682C1054.69 555.669 1054.74 555.656 1054.79 555.642C1054.94 555.602 1055.08 555.575 1055.22 555.535C1055.25 555.535 1055.28 555.535 1055.29 555.522C1056.54 555.242 1057.84 555.082 1059.12 555.082C1059.14 555.082 1059.17 555.082 1059.2 555.082C1059.36 555.082 1059.53 555.082 1059.69 555.082C1059.73 555.082 1059.76 555.082 1059.8 555.082C1053.93 558.751 1048.69 563.408 1044.36 568.825C1045.12 567.211 1045.51 565.436 1045.51 563.661C1045.51 563.488 1045.51 563.328 1045.51 563.154H1045.42C1043.15 565.142 1041.32 567.651 1040.08 570.413C1039.55 568.905 1039.27 567.291 1039.27 565.69C1039.27 565.236 1039.29 564.796 1039.33 564.342C1037.77 566.77 1036.37 569.292 1035.13 571.894C1034.77 570.506 1034.42 569.105 1034.06 567.718C1032.84 569.105 1031.61 570.493 1030.37 571.881C1028.79 568.692 1029.21 564.916 1028.63 561.433C1028.1 563.301 1027.57 565.156 1027.02 567.037C1025.59 564.035 1024.51 560.859 1023.79 557.617C1023.66 557.777 1023.53 557.937 1023.39 558.084C1023.45 557.51 1023.5 556.963 1023.54 556.403V556.376C1023.43 555.789 1023.33 555.202 1023.23 554.601C1023.23 554.601 1023.23 554.735 1023.23 554.802C1023.23 557.51 1022.51 560.219 1021.15 562.567C1019.99 557.163 1018.83 551.773 1017.7 546.382C1017.63 550.652 1016.83 554.895 1015.35 558.898C1013.24 552.547 1012.17 545.862 1012.17 539.163C1012.17 535.774 1012.45 532.398 1013 529.063C1011.15 534.974 1009.46 540.925 1007.92 546.929C1007.9 546.155 1007.89 545.381 1007.89 544.607C1007.89 534.387 1009.3 524.166 1012.13 514.345C1008.28 520.47 1004.85 526.861 1001.91 533.479C1001.85 532.332 1001.81 531.198 1001.81 530.05C1001.81 520.336 1004.34 510.649 1009.13 502.19C1004.93 507.794 1000.74 513.398 996.538 518.989C999.633 507.54 1003.89 493.743 1018.59 484.443C1018.86 483.936 1019.14 483.429 1019.4 482.922C1022.56 477.091 1026.39 471.621 1030.81 466.67C1027.02 468.351 1023.39 470.393 1020 472.781C1020.38 472.194 1020.75 471.621 1021.12 471.033C1024.06 466.47 1026.99 461.92 1029.94 457.357" fill="#E0D8C8"/>
<path d="M1281.69 712.744C1279.86 712.744 1276.66 712.744 1272.79 712.744C1274.38 721.564 1271.48 731.972 1265.73 737.522L1264.48 738.723C1257.53 745.435 1251.52 751.226 1241.91 754.041C1241 754.521 1238.48 758.658 1238.49 759.699C1239.72 763.888 1241.32 766.143 1242.36 766.49C1242.44 766.517 1242.53 766.53 1242.64 766.53C1242.83 766.53 1243.07 766.464 1243.39 766.223L1243.64 766.037C1245.59 764.555 1248.52 762.327 1251.12 762.327C1251.83 762.327 1252.52 762.501 1253.15 762.888C1253.74 762.687 1255.07 761.753 1255.9 761.18C1257.57 760.005 1258.99 759.005 1260.13 759.005C1260.57 759.005 1260.96 759.152 1261.3 759.498C1261.81 760.005 1262.2 760.406 1262.5 760.739C1262.73 760.98 1262.96 761.22 1263.12 761.366C1263.21 761.326 1263.3 761.26 1263.44 761.206C1263.96 760.939 1264.74 760.539 1265.98 760.086L1268.51 759.165C1281.46 754.428 1290.16 751.252 1297.32 742.366C1290.45 735.988 1284.54 719.149 1282.49 712.757C1282.26 712.757 1281.99 712.757 1281.7 712.757" fill="#DAD4C6"/>
<path d="M1018.6 484.402C1003.9 493.702 999.646 507.486 996.551 518.948C1000.75 513.344 1004.94 507.739 1009.14 502.149L1011.59 502.776C1013.23 496.411 1015.59 490.247 1018.6 484.416" fill="#F0ECDB"/>
<path d="M1045.43 468.057C1035.97 471.579 1026.03 475.435 1019.42 482.881C1019.13 483.388 1018.87 483.895 1018.6 484.402C1015.59 490.233 1013.21 496.397 1011.58 502.762C1010.98 505.044 1010.5 507.352 1010.1 509.687C1012.24 504.51 1015.33 499.707 1019.19 495.61C1017.41 505.791 1015.03 513.904 1015.03 521.99C1015.03 524.004 1015.17 526.019 1015.51 528.061C1015.57 528.408 1015.63 528.768 1015.71 529.141C1015.88 529.969 1016.07 530.796 1016.31 531.637C1018.28 527.767 1022.78 522.243 1026.19 519.548C1023.36 527.273 1022.62 533.224 1022.62 538.348C1022.62 544.286 1023.63 549.116 1023.63 554.32C1023.63 554.987 1023.62 555.668 1023.58 556.348V556.375C1023.66 556.775 1023.75 557.189 1023.84 557.589C1027.86 552.839 1031.65 545.02 1036.77 541.777C1034.12 548.129 1031.18 554.36 1027.98 560.444C1034.34 552.172 1043.31 545.914 1053.27 542.791C1047.46 547.648 1041.63 552.532 1035.8 557.389C1034.49 560.778 1033.66 564.354 1033.4 567.983C1033.61 567.863 1033.81 567.716 1034.02 567.57C1037.88 565.074 1041.44 562.152 1044.63 558.87C1045.2 560.231 1045.52 561.685 1045.58 563.153C1045.58 563.327 1045.58 563.487 1045.58 563.66C1045.58 565.448 1045.19 567.209 1044.43 568.824C1048.75 563.407 1053.99 558.75 1059.86 555.08C1059.86 555.08 1059.8 555.08 1059.76 555.08C1059.6 555.08 1059.42 555.08 1059.26 555.08C1059.26 555.08 1059.21 555.08 1059.18 555.08C1057.9 555.08 1056.61 555.241 1055.35 555.521C1055.33 555.521 1055.3 555.521 1055.29 555.534C1055.14 555.561 1055.01 555.601 1054.86 555.641C1054.81 555.654 1054.75 555.668 1054.7 555.681C1054.66 555.681 1054.61 555.708 1054.57 555.721C1056.97 552.759 1059.53 549.69 1063.06 548.275C1065.79 547.181 1068.85 547.168 1071.54 545.954C1074.71 544.526 1076.87 541.591 1079.37 539.149C1089 529.755 1104.13 527.113 1112.49 516.599C1112.37 516.666 1112.26 516.732 1112.14 516.799C1112.05 516.852 1111.97 516.906 1111.88 516.946C1111.88 516.946 1111.86 516.946 1111.85 516.959C1111.8 516.986 1111.76 517.013 1111.7 517.039C1105.27 520.669 1097.87 522.59 1090.48 522.59C1090.48 522.59 1090.47 522.59 1090.45 522.59C1089.34 522.59 1088.22 522.55 1087.12 522.457C1093.76 519.761 1100.07 516.199 1105.77 511.822C1105.69 511.849 1105.62 511.875 1105.54 511.902C1105.51 511.902 1105.47 511.929 1105.45 511.929C1105.42 511.929 1105.39 511.942 1105.37 511.956C1102.46 512.93 1099.4 513.423 1096.35 513.423C1096.35 513.423 1096.33 513.423 1096.32 513.423C1096.12 513.423 1095.93 513.423 1095.73 513.423C1094.63 513.41 1093.19 512.569 1093.19 511.742C1093.19 511.542 1093.27 511.342 1093.47 511.155C1093.47 511.155 1093.44 511.155 1093.41 511.142C1093.39 511.142 1093.37 511.128 1093.35 511.128C1093.04 511.035 1092.73 510.995 1092.43 510.995H1092.4C1091.11 510.995 1089.8 511.742 1088.65 512.503C1088.6 512.543 1088.54 512.569 1088.49 512.609C1088.49 512.609 1088.48 512.609 1088.46 512.623C1088.45 512.623 1088.44 512.649 1088.41 512.649C1080.99 517.653 1073.86 523.084 1066.99 528.835C1070.63 520.108 1075.76 511.996 1082.1 504.964C1078.67 505.07 1075.63 507.032 1072.78 508.94C1066.8 512.93 1060.81 516.946 1054.83 520.935C1059.48 514.851 1064.4 508.98 1069.59 503.363C1064.88 506.471 1059.48 508.54 1053.89 509.394C1058.32 506.271 1062.58 502.896 1066.65 499.306C1067.72 498.359 1067.2 498.025 1068.08 496.904C1068.08 496.904 1067.97 496.904 1067.92 496.904C1067.61 496.904 1067.32 496.904 1067.01 496.918C1067.01 496.918 1066.99 496.918 1066.97 496.918C1065.84 496.918 1064.69 496.851 1063.56 496.718C1060.98 497.772 1058.53 499.173 1056.1 500.574C1052.73 502.509 1049.35 504.443 1045.96 506.391C1047.58 501.962 1051.1 498.519 1054.53 495.263C1054.37 495.25 1054.21 495.237 1054.05 495.237C1054.05 495.237 1054.03 495.237 1054.02 495.237C1051.95 495.237 1050.03 496.357 1048.26 497.478C1048.26 497.478 1048.16 497.545 1048.11 497.572C1048.07 497.598 1048.03 497.625 1047.99 497.652C1051.11 494.583 1054.39 491.661 1057.81 488.899L1057.53 489.005C1054.94 490.553 1052.58 492.528 1050.63 494.836C1053.62 491.167 1056.79 487.631 1060.14 484.282C1051.85 489.459 1044.24 495.77 1037.6 502.949C1043.51 493.675 1051.12 485.496 1059.94 478.931C1050.76 482.721 1042.81 488.885 1035 494.996C1038.92 486.337 1045.03 478.704 1052.59 472.98C1044.16 475.782 1036.1 479.678 1028.66 484.522C1033.44 478.237 1038.45 471.766 1045.47 468.123" fill="#F8F5E5"/>
<path d="M1019.19 495.598C1015.34 499.681 1012.24 504.484 1010.11 509.675C1010.51 507.353 1011 505.031 1011.59 502.75L1009.15 502.122C1004.37 510.582 1001.82 520.269 1001.82 529.983C1001.82 531.13 1001.86 532.278 1001.93 533.412C1004.86 526.794 1008.29 520.403 1012.15 514.278C1009.33 524.099 1007.91 534.319 1007.91 544.54C1007.91 545.314 1007.91 546.088 1007.93 546.862C1009.48 540.858 1011.16 534.906 1013.01 528.995L1015.51 528.048C1015.18 526.007 1015.03 523.992 1015.03 521.977C1015.03 513.878 1017.42 505.765 1019.19 495.598Z" fill="#F0ECDB"/>
<path d="M1272.77 712.757C1272.29 712.757 1271.8 712.757 1271.29 712.757C1270.97 712.757 1270.65 712.757 1270.33 712.757C1272.13 721.67 1268.64 731.371 1264.05 735.801L1262.79 737.002C1256.07 743.486 1250.27 749.09 1241.22 751.732C1239.6 752.199 1237.65 755.629 1237.27 756.309C1235.78 759.044 1236.05 759.952 1236.15 760.285C1236.95 763.047 1238.73 767.824 1241.6 768.772C1241.74 768.825 1241.9 768.865 1242.08 768.892C1242.25 768.918 1242.42 768.945 1242.62 768.945C1243.26 768.945 1244.02 768.745 1244.81 768.144L1245.06 767.958C1246.53 766.85 1249.31 764.742 1251.07 764.742C1251.41 764.742 1251.72 764.822 1251.96 765.009C1252.27 765.236 1252.62 765.342 1252.98 765.342C1254.12 765.342 1255.56 764.342 1257.26 763.154C1258.03 762.607 1259.26 761.753 1259.87 761.5C1260.22 761.86 1260.51 762.153 1260.75 762.407C1261.63 763.328 1262.18 763.835 1262.94 763.835C1263.37 763.835 1263.86 763.675 1264.51 763.341C1265.01 763.087 1265.69 762.74 1266.8 762.34L1269.3 761.42C1282.16 756.723 1291.57 753.28 1299.16 743.873C1298.84 743.633 1298.53 743.393 1298.21 743.139C1297.91 742.899 1297.6 742.632 1297.29 742.352C1290.13 751.239 1281.43 754.414 1268.48 759.151L1265.96 760.072C1264.71 760.526 1263.93 760.926 1263.41 761.193C1263.29 761.259 1263.18 761.313 1263.09 761.353C1262.93 761.206 1262.7 760.966 1262.47 760.726C1262.17 760.405 1261.78 759.992 1261.27 759.485C1260.93 759.138 1260.54 758.991 1260.1 758.991C1258.97 758.991 1257.55 759.992 1255.87 761.166C1255.04 761.74 1253.71 762.674 1253.12 762.874C1252.5 762.474 1251.8 762.313 1251.09 762.313C1248.49 762.313 1245.54 764.555 1243.61 766.023L1243.36 766.21C1243.04 766.45 1242.81 766.517 1242.61 766.517C1242.5 766.517 1242.42 766.49 1242.33 766.477C1241.29 766.13 1239.69 763.875 1238.46 759.685C1238.43 758.644 1240.97 754.508 1241.88 754.027C1251.49 751.212 1257.5 745.421 1264.45 738.71L1265.7 737.509C1271.45 731.958 1274.35 721.55 1272.76 712.73" fill="#DFD7BE"/>
<path d="M1144.73 477.77C1144.73 477.77 1144.73 477.77 1144.72 477.77C1141.88 478.984 1138.88 480.025 1135.81 480.932C1131.49 485.002 1128.32 490.353 1127.02 496.144C1126.92 496.584 1127.07 497.051 1127.42 497.331C1127.63 497.518 1127.91 497.611 1128.18 497.611C1128.34 497.611 1128.5 497.585 1128.66 497.505L1130.66 496.637L1130.77 496.597C1135.23 501.668 1139 507.886 1142.65 513.917C1143.52 515.344 1144.37 516.745 1145.21 518.12C1145.44 518.48 1145.83 518.694 1146.24 518.694C1146.24 518.694 1146.25 518.694 1146.27 518.694C1146.31 518.694 1146.33 518.694 1146.37 518.694C1148.59 518.694 1150.46 520.642 1152.26 522.536L1152.95 523.257C1159.7 530.169 1169.19 533.371 1176.7 535.386C1189.14 538.722 1202.3 540.469 1215.02 542.151C1219.24 542.711 1223.45 543.272 1227.66 543.885C1231.34 544.419 1234.62 544.939 1237.7 545.473C1240.5 545.98 1243.16 546.501 1245.68 547.048C1249.15 547.808 1252.38 548.622 1255.42 549.503C1257.7 550.157 1259.9 550.864 1262.03 551.624C1269.1 554.119 1275.35 557.148 1281 560.804C1293.56 568.93 1304.86 581.553 1314.58 598.312C1315.19 599.379 1315.81 600.46 1316.42 601.541C1321.09 609.76 1325.89 618.233 1333.84 623.237C1332.32 624.358 1330.43 624.985 1328.54 624.985C1328.07 624.985 1327.6 624.945 1327.15 624.865C1327.08 624.865 1327.01 624.851 1326.95 624.851C1326.51 624.851 1326.09 625.092 1325.88 625.492C1325.64 625.959 1325.72 626.519 1326.09 626.893C1332.75 633.671 1333.42 645.707 1327.55 653.192C1327.4 653.379 1327.37 653.419 1327.01 653.419C1326.93 653.419 1326.84 653.419 1326.73 653.419C1326.63 653.419 1326.49 653.419 1326.37 653.419C1325.89 653.419 1325.29 653.459 1324.6 653.699C1321.14 654.873 1313.95 657.302 1313.58 665.668C1313.25 672.78 1314.57 681.48 1315.37 684.562C1316.01 687.044 1314.95 694.369 1314.47 697.118C1314.37 698.679 1314.31 700.2 1314.73 701.708C1315.14 703.135 1315.92 704.31 1316.68 705.444C1316.89 705.764 1317.09 706.071 1317.3 706.404C1318.56 708.379 1319.5 710.648 1320.42 712.836C1321.96 716.479 1323.55 720.255 1326.57 723.057C1327.33 723.764 1328.29 725.272 1329.23 726.739C1330.35 728.514 1331.4 730.182 1332.48 731.129C1334.43 732.837 1335.62 734.852 1336.97 737.174L1337.45 737.988C1339.38 741.257 1341.42 743.699 1343.38 746.074C1345.38 748.475 1347.28 750.757 1349.12 753.879C1351.76 758.376 1354.74 763.42 1355.48 768.797L1353.88 768.997C1353.23 769.077 1352.75 769.678 1352.83 770.331C1352.83 770.425 1352.87 770.532 1352.89 770.612C1352.75 770.065 1352.96 769.451 1353.47 769.184C1353.67 769.077 1353.87 769.037 1354.07 769.037C1354.48 769.037 1354.86 769.237 1355.07 769.638C1355.36 770.185 1355.46 770.745 1355.35 771.239L1356.94 771.039C1357.58 770.959 1358.04 770.398 1357.99 769.758C1357.48 763.393 1354.14 757.695 1351.17 752.665C1349.24 749.369 1347.18 746.914 1345.21 744.539C1343.22 742.137 1341.33 739.882 1339.5 736.773L1339.02 735.959C1337.62 733.558 1336.29 731.289 1334.04 729.315C1333.22 728.607 1332.22 727.006 1331.23 725.458C1330.18 723.791 1329.18 722.216 1328.17 721.295C1325.53 718.854 1324.11 715.478 1322.61 711.915C1321.65 709.634 1320.65 707.272 1319.3 705.137C1319.09 704.803 1318.88 704.47 1318.65 704.123C1317.97 703.095 1317.32 702.121 1317.02 701.067C1316.7 699.933 1316.76 698.692 1316.84 697.425C1317.01 696.411 1318.56 687.404 1317.68 683.988C1316.94 681.133 1315.65 672.593 1315.97 665.801C1316.24 659.89 1320.64 657.595 1325.36 655.994C1325.73 655.874 1326.04 655.847 1326.36 655.847C1326.47 655.847 1326.56 655.847 1326.67 655.847C1326.76 655.847 1326.87 655.847 1326.97 655.847C1327.71 655.847 1328.63 655.741 1329.43 654.7C1335.54 646.921 1335.45 635.219 1329.6 627.36C1332.28 627.093 1334.9 625.852 1336.74 623.891C1336.99 623.624 1337.1 623.25 1337.05 622.877C1336.99 622.516 1336.77 622.196 1336.43 622.009C1328.2 617.486 1323.27 608.786 1318.49 600.38C1317.88 599.286 1317.25 598.205 1316.64 597.124C1306.72 580.032 1295.17 567.142 1282.28 558.816C1274.72 553.933 1266.14 550.143 1256.06 547.221C1250.72 545.673 1244.84 544.326 1238.09 543.125C1234.98 542.578 1231.67 542.057 1227.98 541.524C1223.77 540.91 1219.55 540.349 1215.32 539.789C1202.67 538.121 1189.6 536.386 1177.3 533.091C1170.08 531.156 1160.98 528.087 1154.65 521.602L1153.96 520.895C1152.02 518.867 1149.83 516.585 1146.89 516.345C1146.16 515.158 1145.43 513.943 1144.68 512.716C1140.81 506.338 1136.82 499.746 1131.94 494.396C1131.71 494.142 1131.38 494.009 1131.06 494.009C1130.9 494.009 1130.74 494.035 1130.58 494.102L1129.98 494.356C1132.34 487.137 1137.82 480.932 1144.71 477.81M1110.53 373.08C1105.45 373.08 1100.94 376.056 1097.1 378.858C1093.49 381.5 1089.08 386.837 1090.09 391.734C1078.63 392.107 1067.35 395.91 1058.01 402.542C1054.93 398.472 1049.96 396.617 1044.99 396.617C1041.48 396.617 1037.96 397.538 1035.12 399.259C1028.51 403.222 1023.83 411.028 1022.27 420.702C1021.86 423.317 1021.43 427.226 1022.56 430.949C1023.58 434.298 1027.81 438.355 1029.65 438.808C1029.46 439.636 1029.26 440.449 1029.06 441.237C1027.34 447.988 1024.83 454.406 1021.39 460.838C1021.38 460.864 1021.36 460.904 1021.34 460.931C1021.35 460.904 1021.36 460.878 1021.38 460.851C1021.59 460.437 1022 460.211 1022.44 460.211C1022.63 460.211 1022.83 460.251 1023 460.344C1023.56 460.638 1023.79 461.318 1023.55 461.879C1023.74 461.518 1023.94 461.158 1024.12 460.798C1027.26 454.74 1029.59 448.669 1031.26 442.304C1031.3 442.144 1031.34 441.984 1031.38 441.81C1031.54 441.143 1031.71 440.476 1031.87 439.796C1032.27 439.475 1032.45 438.928 1032.33 438.368C1032.17 437.594 1031.42 436.66 1030.18 436.447C1029.31 436.206 1025.67 432.977 1024.86 430.229C1024.11 427.76 1024.04 424.838 1024.64 421.062C1026.1 412.095 1030.37 404.89 1036.36 401.287C1038.82 399.806 1041.88 399.019 1044.92 399.019C1049.59 399.019 1054.23 400.86 1056.7 404.837C1056.87 405.117 1057.17 405.317 1057.5 405.384C1057.58 405.41 1057.67 405.424 1057.75 405.424C1058.01 405.424 1058.24 405.317 1058.44 405.17C1067.99 398.058 1079.83 394.122 1091.76 394.069C1092.17 394.069 1092.56 393.855 1092.77 393.495C1092.99 393.135 1093.01 392.694 1092.83 392.334C1090.96 388.598 1095.03 383.314 1098.51 380.766C1102.19 378.07 1106.15 375.442 1110.52 375.442C1110.58 375.442 1110.65 375.442 1110.72 375.442C1113.05 375.495 1115.58 376.829 1117.01 378.751C1117.73 379.725 1118.48 381.273 1117.96 383.087C1117.6 384.355 1116.67 385.636 1115.77 386.864C1114.24 388.985 1112.49 391.373 1113.44 394.216C1113.68 394.949 1114.06 395.59 1114.58 396.137C1115.4 396.991 1116.57 397.618 1118.11 398.045C1119.47 398.419 1120.92 398.579 1122.41 398.739C1135.82 399.98 1148.23 408.026 1154.86 419.741C1155.02 420.034 1155.3 420.235 1155.62 420.315C1165.49 422.663 1176.64 425.305 1185.99 430.789C1186.3 430.976 1186.61 431.149 1186.92 431.336C1189.04 432.644 1191.04 434.098 1192.86 435.673C1193.72 436.407 1194.64 437.287 1194.88 438.275C1195.09 439.169 1194.87 440.156 1194.44 441.383C1193.61 443.732 1192.52 446.054 1191.17 448.255L1191.08 448.389C1190.8 448.856 1190.49 449.309 1190.18 449.776C1188.82 451.804 1187.22 453.766 1185.41 455.621L1185.35 455.674C1184.61 456.435 1183.82 457.182 1183.01 457.902C1184.03 457.315 1184.97 456.675 1185.79 455.994L1185.95 455.861C1186.07 455.781 1186.19 455.754 1186.33 455.754C1186.54 455.754 1186.75 455.861 1186.89 456.048C1187.09 456.341 1187.02 456.741 1186.73 456.955L1186.61 457.048C1184.53 458.77 1181.73 460.251 1178.64 461.371C1172.33 465.868 1164.58 469.457 1156.09 471.739C1155.15 471.993 1154.22 472.233 1153.27 472.473C1150.62 473.14 1147.88 473.847 1145.24 474.875L1143.81 475.488C1144.29 475.288 1144.75 475.088 1145.2 474.888L1146.17 477.076C1148.64 476.116 1151.3 475.435 1153.87 474.781C1154.82 474.541 1155.77 474.301 1156.71 474.047C1168.93 470.765 1179.7 464.854 1187.04 457.382L1187.09 457.329C1189.41 454.953 1191.41 452.418 1193.04 449.776L1193.14 449.63C1194.61 447.241 1195.81 444.719 1196.72 442.157C1197.21 440.743 1197.61 439.235 1197.23 437.674C1196.81 436.02 1195.59 434.805 1194.44 433.831C1192.52 432.177 1190.41 430.642 1188.18 429.268C1178.48 423.304 1166.94 420.502 1156.69 418.06C1149.62 405.931 1136.61 397.605 1122.64 396.31C1121.27 396.177 1119.93 396.017 1118.75 395.697C1117.04 395.216 1116.08 394.496 1115.72 393.415C1115.16 391.747 1116.35 390.119 1117.72 388.238C1118.73 386.837 1119.79 385.396 1120.27 383.715C1120.88 381.566 1120.41 379.285 1118.95 377.283C1117.08 374.748 1113.88 373.053 1110.77 373C1110.69 373 1110.61 373 1110.52 373" fill="#DFD7BE"/>
<path d="M1022.46 460.225C1022.03 460.225 1021.6 460.451 1021.39 460.865C1021.38 460.892 1021.36 460.918 1021.35 460.945C1019.74 464.001 1017.89 467.056 1015.73 470.312C1013.69 473.394 1011.42 476.41 1009.25 479.332C1007.48 481.707 1005.63 484.176 1003.91 486.657C1002.47 488.726 1000.65 490.927 998.698 493.249C995.576 496.985 992.348 500.854 990.454 504.59C989.666 506.085 991.107 507.046 991.641 507.406L991.854 507.553C986.038 519.535 981.422 531.997 976.953 544.059C976.753 544.593 976.953 545.18 977.433 545.487C977.634 545.621 977.86 545.674 978.087 545.674C978.394 545.674 978.701 545.554 978.928 545.327L984.17 540.15C984.064 557.256 978.234 581.807 961.945 582.394C954.795 582.661 948.338 584.676 938.907 589.586C933.904 592.188 926.994 592.775 920.297 593.336C916.228 593.682 912.386 594.003 908.958 594.763C901.594 596.378 894.377 600.087 888.121 605.478C874.273 617.46 866.99 636.847 869.484 654.981C869.004 655.995 869.084 657.049 869.698 657.943C870.525 659.117 872.272 659.891 874.167 660.211C874.847 660.331 875.527 660.385 876.208 660.385C876.928 660.385 877.635 660.318 878.275 660.171C882.264 659.291 884.719 655.595 886.52 652.899L887.88 650.844C892.63 643.652 897.525 636.207 904.742 631.897C914.307 626.186 920.324 624.959 926.087 624.959C928.141 624.959 930.156 625.119 932.303 625.279C934.638 625.452 937.053 625.639 939.761 625.639C940.067 625.639 940.388 625.639 940.708 625.639C944.35 625.586 947.952 625.386 951.433 625.186C955.555 624.959 959.571 624.732 963.573 624.732C968.149 624.732 972.684 625.025 977.353 625.906H977.38C977.447 625.919 977.514 625.933 977.58 625.933C978.007 625.933 978.421 625.693 978.634 625.306C978.888 624.852 978.808 624.278 978.461 623.905C978.1 623.518 977.54 623.131 976.766 622.677C977.473 622.797 978.181 622.917 978.901 623.051C987.225 624.505 996.59 626.146 1004.42 626.146C1004.89 626.146 1005.35 626.146 1005.81 626.133C1006.17 626.133 1006.52 625.946 1006.73 625.653C1006.96 625.359 1007.02 624.985 1006.93 624.625L1006.69 623.678C1009.78 625.666 1012.45 627.454 1014.96 629.215C1022.63 634.619 1029.1 640.117 1035.82 646.975C1036.08 646.695 1036.33 646.428 1036.58 646.148C1036.88 645.827 1037.16 645.507 1037.44 645.187C1030.65 638.275 1024.1 632.711 1016.35 627.254C1015.87 626.92 1015.39 626.587 1014.89 626.24C1012.09 624.305 1009.05 622.303 1005.42 620.035C1005.22 619.915 1005.01 619.848 1004.78 619.848C1004.53 619.848 1004.29 619.928 1004.07 620.075C1003.67 620.369 1003.5 620.862 1003.62 621.343L1004.23 623.745C996.643 623.718 987.465 622.117 979.301 620.689C976.393 620.182 973.578 619.688 970.923 619.275C970.857 619.275 970.803 619.261 970.737 619.261C970.296 619.261 969.883 619.501 969.669 619.902C969.429 620.355 969.509 620.916 969.87 621.289C970.283 621.716 970.937 622.157 971.884 622.704C969.109 622.437 966.374 622.33 963.626 622.33C959.558 622.33 955.475 622.557 951.3 622.784C947.845 622.971 944.256 623.171 940.668 623.224C940.361 623.224 940.054 623.224 939.761 623.224C937.133 623.224 934.785 623.037 932.49 622.864C930.329 622.704 928.261 622.53 926.114 622.53C920.084 622.53 913.574 623.811 903.515 629.816C895.818 634.406 890.762 642.078 885.866 649.51L884.505 651.565C882.544 654.514 880.557 657.209 877.755 657.823C877.275 657.93 876.755 657.983 876.221 657.983C874.26 657.983 872.206 657.316 871.672 656.555C871.592 656.435 871.472 656.275 871.752 655.848C871.912 655.608 871.965 655.314 871.925 655.034C869.377 637.581 876.354 618.834 889.708 607.306C895.671 602.169 902.515 598.646 909.492 597.112C912.773 596.391 916.535 596.071 920.524 595.737C927.448 595.15 934.598 594.55 940.027 591.721C949.112 586.998 955.289 585.049 962.052 584.796C980.995 584.102 987.132 555.281 986.545 537.268C986.532 536.787 986.238 536.374 985.784 536.187C985.638 536.134 985.491 536.107 985.344 536.107C985.037 536.107 984.731 536.227 984.504 536.454L981.102 539.816C985.024 529.275 989.173 518.534 994.229 508.193C994.949 506.712 993.522 505.765 992.988 505.404L992.801 505.284C994.616 501.895 997.631 498.293 1000.55 494.797C1002.53 492.422 1004.39 490.18 1005.89 488.032C1007.58 485.577 1009.41 483.135 1011.18 480.773C1013.39 477.824 1015.67 474.769 1017.75 471.633C1019.98 468.284 1021.86 465.122 1023.52 461.973C1023.54 461.946 1023.55 461.919 1023.56 461.892C1023.82 461.319 1023.58 460.652 1023.02 460.358C1022.84 460.265 1022.64 460.225 1022.46 460.225Z" fill="#DFD7BE"/>
<path d="M1087.71 673.516C1087.48 673.889 1087.25 674.249 1087.01 674.623C1086.81 674.93 1086.61 675.237 1086.41 675.544L1090.81 677.879C1094.39 682.469 1101.97 686.312 1108.06 689.394C1109.62 690.181 1111.08 690.915 1112.33 691.596C1124.07 698 1135.16 702.07 1145.9 703.911C1150.18 704.645 1154.39 705.032 1158.58 705.059C1158.74 705.059 1158.9 705.059 1159.05 705.059C1161.49 705.059 1163.95 704.939 1166.33 704.832C1168.69 704.725 1171.14 704.605 1173.54 704.605C1173.86 704.605 1174.19 704.605 1174.51 704.605C1184.1 704.725 1193.75 706.913 1203.09 709.022C1212.78 711.21 1222.75 713.465 1232.81 713.465C1234.49 713.465 1236.18 713.398 1237.88 713.265C1242.53 712.891 1259.79 712.784 1270.35 712.744C1270.68 712.744 1271 712.744 1271.31 712.744C1271.81 712.744 1272.31 712.744 1272.79 712.744C1276.67 712.744 1279.86 712.744 1281.69 712.744C1281.99 712.744 1282.25 712.744 1282.47 712.744C1282.38 712.437 1282.29 712.157 1282.21 711.904C1282.05 711.383 1281.89 710.863 1281.73 710.343C1281.62 710.343 1281.5 710.343 1281.38 710.343C1279.26 710.343 1275.63 710.343 1271.29 710.356C1260.84 710.383 1242.56 710.489 1237.68 710.876C1236.06 711.01 1234.44 711.063 1232.81 711.063C1222.99 711.063 1213.16 708.835 1203.59 706.673C1194.15 704.538 1184.37 702.323 1174.52 702.203C1174.18 702.203 1173.84 702.203 1173.5 702.203C1171.04 702.203 1168.59 702.323 1166.2 702.43C1163.83 702.537 1161.38 702.657 1158.98 702.657C1158.85 702.657 1158.7 702.657 1158.57 702.657C1144.28 702.55 1129.53 698.24 1113.45 689.487C1112.19 688.793 1110.7 688.046 1109.13 687.246C1103.15 684.217 1095.71 680.454 1092.55 676.211C1092.44 676.064 1092.31 675.957 1092.15 675.864L1087.69 673.502M1085.02 673.289C1085.02 673.289 1085 673.329 1084.98 673.355C1084.98 673.355 1085 673.329 1085.01 673.315C1085.01 673.315 1085.02 673.289 1085.04 673.275" fill="#DFD7BE"/>
<path d="M1251.07 678.104C1250.47 678.104 1249.95 678.557 1249.88 679.171C1249.8 679.825 1250.28 680.425 1250.94 680.505C1264.21 682.013 1277.35 694.542 1280.06 704.403C1280.09 704.496 1280.11 704.603 1280.14 704.696C1280.59 706.458 1281.13 708.392 1281.73 710.367C1281.89 710.888 1282.05 711.408 1282.21 711.928C1282.29 712.182 1282.38 712.462 1282.47 712.769C1284.53 719.16 1290.44 735.999 1297.31 742.377C1297.62 742.657 1297.92 742.924 1298.23 743.165C1298.55 743.405 1298.86 743.658 1299.18 743.898C1314.42 755.587 1330.23 763.446 1349.23 772.453C1349.72 772.693 1350.35 772.88 1351 773C1351.4 773.066 1351.83 773.106 1352.24 773.106C1353.27 773.106 1354.26 772.866 1354.87 772.226C1355.14 771.946 1355.31 771.612 1355.38 771.252C1355.49 770.745 1355.38 770.198 1355.1 769.651C1354.88 769.264 1354.51 769.05 1354.1 769.05C1353.9 769.05 1353.68 769.104 1353.5 769.197C1352.99 769.464 1352.78 770.091 1352.92 770.625C1352.75 770.665 1352.52 770.691 1352.26 770.691C1351.67 770.691 1350.91 770.571 1350.26 770.278C1331.01 761.138 1315.05 753.199 1299.71 741.256C1294.11 736.907 1288.18 722.883 1284.51 711.208C1283.74 708.753 1283.05 706.298 1282.49 704.109C1279.71 693.248 1265.8 679.838 1251.24 678.13C1251.19 678.13 1251.15 678.13 1251.1 678.13" fill="#DFD7BE"/>
<path d="M1052.61 605.277C1052.5 605.277 1052.39 605.277 1052.3 605.317C1051.66 605.491 1051.29 606.145 1051.45 606.785C1051.47 606.865 1053.41 614.191 1051.82 619.474C1050.86 622.637 1049.74 625.639 1048.46 628.414C1048.39 628.561 1048.33 628.695 1048.26 628.841C1045.55 634.659 1042.11 639.876 1037.47 645.173C1037.19 645.493 1036.91 645.814 1036.61 646.134C1036.36 646.414 1036.11 646.694 1035.85 646.961C1030.17 653.099 1023.62 658.556 1016.08 664.841L1013.04 667.376C1008.72 670.979 1003.81 675.062 998.299 677.477C995.004 678.931 991.656 679.652 988.521 679.652C986.013 679.652 983.638 679.185 981.544 678.251C980.437 677.757 979.396 677.143 978.289 676.49C976.461 675.409 974.567 674.301 972.379 673.781C971.472 673.567 970.578 673.474 969.671 673.474C964.789 673.474 960.066 676.356 955.957 679.172L949.647 683.468C949.261 683.735 949.06 684.189 949.14 684.642C949.207 685.096 949.541 685.483 949.981 685.616C955.771 687.364 962.974 689.539 967.297 694.65C967.617 695.036 967.937 695.437 968.244 695.85C969.057 696.918 969.911 698.012 971.045 698.893C972.806 700.24 974.874 700.787 977.195 701.334C980.583 702.122 984.252 702.896 988.147 703.563C994.484 704.657 1001.35 705.444 1008.36 705.444C1018.96 705.444 1029.86 703.643 1039.61 698.346C1039.75 698.986 1039.96 699.613 1040.17 700.147C1041.01 702.202 1042.62 704.55 1044.27 705.151C1044.63 705.284 1044.98 705.351 1045.3 705.351C1046.64 705.351 1047.62 704.31 1048.38 703.496C1048.93 702.922 1049.49 702.322 1050.03 702.175C1052.81 701.428 1055.77 698.652 1058.62 695.957C1060.34 694.343 1061.99 692.795 1063.41 691.861C1064 692.568 1064.36 693.222 1064.65 693.769C1065.07 694.543 1065.44 695.33 1066.44 695.49C1066.55 695.504 1066.64 695.517 1066.73 695.517C1067.58 695.517 1068.38 694.93 1069.56 693.822C1077.07 686.817 1082.57 681.253 1086.42 675.569C1086.64 675.262 1086.84 674.955 1087.03 674.648C1087.27 674.275 1087.49 673.914 1087.72 673.541C1090.97 668.19 1092.99 662.479 1094.56 654.193C1095.22 650.751 1095.84 646.614 1096.54 641.197C1096.62 640.543 1096.16 639.969 1095.5 639.849C1095.44 639.849 1095.39 639.849 1095.34 639.849C1094.74 639.849 1094.23 640.29 1094.15 640.903C1093.47 646.281 1092.84 650.364 1092.2 653.766C1090.59 662.279 1088.51 667.95 1085.02 673.341C1085.02 673.341 1085.01 673.367 1085 673.381C1085 673.381 1084.98 673.407 1084.97 673.421C1081.24 679.212 1075.67 684.856 1067.91 692.101C1067.43 692.555 1067.11 692.808 1066.91 692.968L1066.75 692.661C1066.33 691.901 1065.71 690.74 1064.47 689.512C1064.24 689.286 1063.93 689.166 1063.63 689.166C1063.44 689.166 1063.25 689.206 1063.07 689.299C1061.19 690.286 1059.13 692.208 1056.96 694.249C1054.31 696.731 1051.58 699.306 1049.38 699.893C1048.18 700.227 1047.34 701.108 1046.6 701.895C1045.88 702.655 1045.54 702.976 1045.24 702.976C1045.19 702.976 1045.14 702.976 1045.08 702.949C1044.42 702.695 1043.14 701.134 1042.36 699.28C1041.78 697.839 1041.82 697.025 1041.92 696.811C1042.15 696.331 1042.03 695.77 1041.64 695.41C1041.41 695.21 1041.12 695.103 1040.84 695.103C1040.63 695.103 1040.41 695.157 1040.23 695.277C1030.45 701.134 1019.26 703.096 1008.33 703.096C997.405 703.096 986.48 701.081 977.715 699.053C975.661 698.572 973.86 698.092 972.486 697.051C971.605 696.371 970.885 695.437 970.125 694.449C969.791 694.022 969.458 693.582 969.111 693.168C964.935 688.245 958.639 685.87 953.049 684.122L957.291 681.226C961.24 678.531 965.416 675.942 969.591 675.942C970.325 675.942 971.072 676.023 971.806 676.196C973.633 676.623 975.287 677.597 977.035 678.638C978.156 679.292 979.316 679.985 980.543 680.519C982.945 681.6 985.653 682.134 988.494 682.134C991.963 682.134 995.645 681.333 999.246 679.759C1005.06 677.21 1010.12 673.007 1014.56 669.298L1017.6 666.762C1025.22 660.424 1032.42 654.433 1038.39 647.815C1043.63 642.011 1047.46 636.327 1050.43 629.935C1051.85 626.933 1053.09 623.677 1054.13 620.235C1055.92 614.311 1053.86 606.558 1053.78 606.238C1053.63 605.704 1053.15 605.344 1052.62 605.344" fill="#DFD7BE"/>
<path d="M1117.83 430.375C1117.83 430.375 1117.83 430.375 1117.81 430.375C1117.12 430.375 1116.52 430.508 1116.39 430.775C1116.32 430.895 1116.29 431.029 1116.29 431.162C1116.29 431.643 1116.72 432.123 1117.59 432.27C1117.69 432.283 1117.8 432.296 1117.91 432.296C1117.99 432.296 1118.07 432.296 1118.16 432.296C1119.27 432.203 1120.7 431.509 1120.11 430.962C1120.11 430.962 1120.08 430.949 1120.07 430.935C1120.07 430.935 1120.07 430.935 1120.05 430.935C1120.04 430.922 1120.01 430.909 1120 430.895C1119.99 430.895 1119.96 430.869 1119.95 430.855C1119.47 430.562 1118.63 430.415 1117.88 430.402C1117.87 430.402 1117.84 430.402 1117.83 430.402" fill="#FFFCF4"/>
<path d="M1117.83 430.374C1117.83 430.374 1117.87 430.374 1117.88 430.374C1118.63 430.374 1119.47 430.534 1119.95 430.828C1119.98 430.828 1119.99 430.855 1120 430.868C1120.02 430.868 1120.04 430.895 1120.06 430.908C1120.06 430.908 1120.06 430.908 1120.07 430.908C1120.07 430.908 1120.1 430.921 1120.11 430.935C1120.7 431.468 1119.27 432.176 1118.16 432.269C1118.08 432.269 1117.99 432.269 1117.91 432.269C1117.79 432.269 1117.68 432.269 1117.59 432.242C1116.72 432.095 1116.29 431.628 1116.29 431.135C1116.29 431.001 1116.32 430.868 1116.39 430.748C1116.52 430.481 1117.12 430.348 1117.82 430.348C1117.82 430.348 1117.82 430.348 1117.83 430.348M1120.84 425.824C1117.66 425.824 1115.09 427.692 1114.56 429.694C1114.05 431.562 1115.36 433.283 1118.14 434.404C1119.31 434.871 1120.58 435.031 1121.84 435.031C1123.4 435.031 1124.97 434.791 1126.34 434.577L1130.26 433.964C1130.85 433.883 1131.4 433.777 1131.72 433.456C1132.12 433.056 1132.1 432.349 1131.88 431.842C1131.6 431.215 1131.06 430.708 1130.42 430.161C1127.63 427.786 1124.99 426.411 1122.35 425.958C1122.23 425.931 1122.11 425.918 1121.98 425.904C1121.59 425.851 1121.19 425.824 1120.82 425.824" fill="#DAD4C6"/>
<path d="M1152.45 462.185C1151.38 462.185 1150.32 462.265 1149.27 462.439C1145.55 463.106 1142.05 465.227 1139.72 468.19C1140.79 468.39 1141.87 468.497 1143 468.497C1147.06 468.497 1151.56 467.162 1156.67 464.534C1157.71 464 1158.81 463.426 1159.94 462.959C1159.78 462.932 1159.62 462.906 1159.46 462.892C1157.05 462.532 1154.73 462.172 1152.45 462.172" fill="#FDFAED"/>
<path d="M1121.84 435.033C1120.58 435.033 1119.31 434.873 1118.13 434.406C1115.36 433.285 1114.05 431.564 1114.56 429.696C1115.09 427.681 1117.67 425.826 1120.84 425.826C1121.22 425.826 1121.6 425.853 1122 425.906C1122.12 425.92 1122.26 425.946 1122.38 425.96C1125.02 426.413 1127.66 427.788 1130.45 430.163C1131.07 430.71 1131.62 431.217 1131.9 431.844C1132.13 432.351 1132.14 433.058 1131.74 433.458C1131.42 433.779 1130.87 433.885 1130.29 433.965L1126.37 434.579C1124.99 434.793 1123.43 435.033 1121.87 435.033M1120.8 424.479C1116.91 424.479 1113.93 426.84 1113.25 429.349C1112.57 431.911 1114.2 434.259 1117.63 435.647C1118.27 435.9 1118.92 436.074 1119.59 436.194C1120.34 436.327 1121.08 436.367 1121.83 436.367C1123.48 436.367 1125.11 436.114 1126.54 435.9L1130.45 435.286C1131.22 435.18 1132.03 435.02 1132.65 434.406C1133.41 433.659 1133.58 432.418 1133.1 431.31C1132.69 430.363 1131.89 429.669 1131.3 429.149C1128.18 426.493 1125.2 425.012 1122.18 424.572C1121.71 424.505 1121.24 424.479 1120.8 424.479Z" fill="#E7E3D5"/>
<path d="M1142.99 468.511C1141.87 468.511 1140.77 468.404 1139.71 468.204C1142.04 465.241 1145.54 463.107 1149.26 462.453C1150.31 462.266 1151.37 462.199 1152.43 462.199C1154.73 462.199 1157.05 462.546 1159.45 462.92C1159.61 462.946 1159.77 462.973 1159.93 462.986C1158.8 463.453 1157.69 464.014 1156.66 464.561C1151.55 467.19 1147.04 468.524 1142.99 468.524M1152.43 460.852C1151.3 460.852 1150.17 460.932 1149.03 461.132C1144.56 461.932 1140.55 464.534 1138.01 468.257C1137.89 468.444 1137.87 468.671 1137.95 468.871C1138.03 469.071 1138.2 469.231 1138.41 469.284C1138.85 469.391 1139.29 469.485 1139.73 469.565C1140.77 469.738 1141.84 469.831 1142.95 469.831C1147.23 469.831 1151.97 468.47 1157.32 465.708C1159.17 464.748 1161.26 463.654 1163.25 463.413C1163.23 463.413 1163.2 463.413 1163.17 463.413H1163.15C1162.8 463.347 1162.56 463.026 1162.6 462.666C1162.64 462.333 1162.93 462.079 1163.25 462.079C1162.07 461.946 1160.86 461.759 1159.68 461.585C1157.3 461.225 1154.87 460.865 1152.45 460.865" fill="#DFD7BE"/>
<path d="M1186.34 455.809C1186.21 455.809 1186.09 455.849 1185.97 455.915L1185.81 456.049C1184.98 456.729 1184.05 457.37 1183.02 457.957C1178.47 460.585 1172.23 462.307 1166.77 462.307C1166.5 462.307 1166.24 462.307 1165.97 462.307V462.974L1165.81 462.293C1164.93 462.253 1164.13 462.187 1163.38 462.093C1163.37 462.093 1163.34 462.093 1163.33 462.093C1163.3 462.093 1163.28 462.093 1163.25 462.093C1162.92 462.093 1162.64 462.347 1162.6 462.68C1162.56 463.041 1162.8 463.361 1163.14 463.428H1163.17C1163.17 463.428 1163.22 463.428 1163.25 463.441C1164 463.534 1164.78 463.601 1165.69 463.641C1165.73 463.641 1165.76 463.641 1165.8 463.641V462.974L1165.96 463.654C1166.12 463.654 1166.29 463.654 1166.45 463.654C1166.56 463.654 1166.68 463.654 1166.78 463.654C1170.61 463.654 1174.84 462.827 1178.66 461.453C1181.74 460.332 1184.53 458.851 1186.62 457.13L1186.74 457.036C1187.04 456.823 1187.1 456.422 1186.9 456.129C1186.77 455.942 1186.56 455.835 1186.34 455.835" fill="#DFD7BE"/>
<path d="M1145.21 474.955C1144.76 475.155 1144.31 475.355 1143.83 475.556H1143.8C1131.41 480.826 1116.41 482.828 1104.38 484.429C1101.6 484.802 1098.78 485.083 1096.03 485.376C1091.69 485.816 1087.21 486.283 1082.85 487.057C1082.68 487.084 1082.49 487.124 1082.31 487.151C1081.34 487.324 1080.35 487.524 1079.38 487.738C1079.06 487.805 1078.79 488.005 1078.63 488.258C1078.47 488.512 1078.41 488.845 1078.47 489.166C1078.58 489.659 1078.98 490.006 1079.45 490.086C1079.51 490.086 1079.58 490.1 1079.65 490.1C1079.73 490.1 1079.82 490.1 1079.91 490.073C1080.15 490.019 1080.39 489.966 1080.65 489.913C1081.53 489.726 1082.39 489.552 1083.29 489.406C1087.57 488.645 1092.01 488.191 1096.3 487.751C1099.06 487.471 1101.91 487.177 1104.71 486.804C1113.66 485.616 1125.19 484.082 1135.82 480.933C1138.89 480.025 1141.89 478.985 1144.73 477.77C1144.73 477.77 1144.73 477.77 1144.75 477.77C1145.24 477.57 1145.72 477.357 1146.2 477.143L1145.23 474.955" fill="#DFD7BE"/>
</svg>
