<svg width="1266" height="584" viewBox="0 0 1266 584" fill="none" xmlns="http://www.w3.org/2000/svg">
<path fill-rule="evenodd" clip-rule="evenodd" d="M807.925 583.911H764L1264.17 233.24H1265.82V262.878L807.925 583.911ZM898.214 583.911H854.289L1265.82 295.384V326.18L898.214 583.911ZM990.944 583.911H947.02L1265.82 360.398V391.194L990.944 583.911ZM1080.68 583.911H1036.76L1265.82 423.314V454.111L1080.68 583.911ZM1170.97 583.911H1127.05L1265.82 486.618V517.414L1170.97 583.911Z" fill="#2DA340"/>
<path d="M1153.56 494.742C1152.23 492.354 1148.09 490.792 1144.79 492.878C1146.45 489.68 1140.6 474.949 1139.59 474.949C1138.57 474.949 1134.22 485.38 1135.01 493.638C1129.59 488.734 1121.82 495.663 1125.48 501.709C1126.79 505.303 1133.14 504.483 1130.89 500.52C1127.53 502.318 1128.35 495.462 1132.06 495.884C1136.11 496.344 1138.13 498.992 1137.48 502.84C1137.07 505.315 1136.21 505.749 1134.12 507.427C1137.89 511.16 1138.98 517.74 1139.71 517.74C1140.51 517.74 1140.11 512.358 1144.95 507.427C1142.49 505.643 1141.87 505.324 1141.64 503.029C1141.22 498.92 1143.8 496.75 1145.8 496.09C1151.58 494.191 1150.61 499.945 1147.8 502.145C1151.24 507.812 1156.79 498.37 1153.56 494.742Z" fill="#FDF5DB"/>
<path d="M928.652 494.742C927.325 492.354 923.178 490.792 919.879 492.878C921.537 489.68 915.694 474.949 914.68 474.949C913.667 474.949 909.313 485.38 910.1 493.638C904.685 488.734 896.908 495.663 900.575 501.709C901.886 505.303 908.236 504.483 905.978 500.52C902.626 502.318 903.439 495.462 907.154 495.884C911.198 496.344 913.218 498.992 912.573 502.84C912.159 505.315 911.297 505.749 909.208 507.427C912.977 511.16 914.068 517.74 914.8 517.74C915.604 517.74 915.197 512.358 920.041 507.427C917.577 505.643 916.966 505.324 916.732 503.029C916.312 498.92 918.89 496.75 920.896 496.09C926.668 494.191 925.702 499.945 922.89 502.145C926.334 507.812 931.884 498.37 928.652 494.742Z" fill="#FDF5DB"/>
<path d="M703.745 494.742C702.418 492.354 698.272 490.792 694.973 492.878C696.631 489.68 690.788 474.949 689.774 474.949C688.76 474.949 684.407 485.38 685.194 493.638C679.779 488.734 672.002 495.663 675.669 501.709C676.98 505.303 683.33 504.483 681.071 500.52C677.72 502.318 678.533 495.462 682.248 495.884C686.292 496.344 688.311 498.992 687.667 502.84C687.253 505.315 686.391 505.749 684.302 507.427C688.071 511.16 689.162 517.74 689.894 517.74C690.698 517.74 690.291 512.358 695.135 507.427C692.671 505.643 692.06 505.324 691.825 503.029C691.405 498.92 693.984 496.75 695.99 496.09C701.762 494.191 700.796 499.945 697.984 502.145C701.428 507.812 706.978 498.37 703.745 494.742Z" fill="#FDF5DB"/>
<path d="M478.839 494.742C477.512 492.354 473.365 490.792 470.067 492.878C471.725 489.68 465.881 474.949 464.868 474.949C463.854 474.949 459.501 485.38 460.287 493.638C454.872 488.734 447.096 495.663 450.763 501.709C452.073 505.303 458.423 504.483 456.165 500.52C452.814 502.318 453.627 495.462 457.341 495.884C461.386 496.344 463.405 498.992 462.761 502.84C462.346 505.315 461.485 505.749 459.396 507.427C463.165 511.16 464.256 517.74 464.988 517.74C465.791 517.74 465.385 512.358 470.229 507.427C467.764 505.643 467.154 505.324 466.919 503.029C466.499 498.92 469.078 496.75 471.084 496.09C476.855 494.191 475.889 499.945 473.078 502.145C476.521 507.812 482.071 498.37 478.839 494.742Z" fill="#FDF5DB"/>
<path d="M253.933 494.742C252.606 492.354 248.459 490.792 245.161 492.878C246.819 489.68 240.975 474.949 239.962 474.949C238.948 474.949 234.595 485.38 235.381 493.638C229.966 488.734 222.189 495.663 225.857 501.709C227.167 505.303 233.517 504.483 231.259 500.52C227.907 502.318 228.72 495.462 232.435 495.884C236.48 496.344 238.499 498.992 237.855 502.84C237.44 505.315 236.578 505.749 234.49 507.427C238.259 511.16 239.35 517.74 240.081 517.74C240.885 517.74 240.479 512.358 245.322 507.427C242.858 505.643 242.247 505.324 242.013 503.029C241.593 498.92 244.171 496.75 246.178 496.09C251.949 494.191 250.983 499.945 248.171 502.145C251.615 507.812 257.165 498.37 253.933 494.742Z" fill="#FDF5DB"/>
<path d="M29.0246 494.742C27.6976 492.354 23.5508 490.792 20.2525 492.878C21.9104 489.68 16.0669 474.949 15.0534 474.949C14.0396 474.949 9.68649 485.38 10.473 493.638C5.05791 488.734 -2.71871 495.663 0.948441 501.709C2.25885 505.303 8.60883 504.483 6.35055 500.52C2.99926 502.318 3.81224 495.462 7.52697 495.884C11.5714 496.344 13.5906 498.992 12.9465 502.84C12.5319 505.315 11.6702 505.749 9.5814 507.427C13.3503 511.16 14.4415 517.74 15.1732 517.74C15.9769 517.74 15.5704 512.358 20.4142 507.427C17.95 505.643 17.3391 505.324 17.1048 503.029C16.6848 498.92 19.2631 496.75 21.2694 496.09C27.0409 494.191 26.075 499.945 23.2633 502.145C26.707 507.812 32.257 498.37 29.0246 494.742Z" fill="#FDF5DB"/>
<path d="M1043.65 336.425C1042.32 334.038 1038.18 332.475 1034.88 334.562C1036.54 331.364 1030.69 316.633 1029.68 316.633C1028.67 316.633 1024.31 327.064 1025.1 335.322C1019.68 330.418 1011.91 337.346 1015.58 343.393C1016.89 346.986 1023.24 346.166 1020.98 342.203C1017.63 344.001 1018.44 337.145 1022.15 337.568C1026.2 338.028 1028.22 340.675 1027.57 344.523C1027.16 346.999 1026.3 347.432 1024.21 349.11C1027.98 352.843 1029.07 359.423 1029.8 359.423C1030.6 359.423 1030.2 354.041 1035.04 349.11C1032.58 347.327 1031.97 347.007 1031.73 344.713C1031.31 340.603 1033.89 338.433 1035.9 337.773C1041.67 335.874 1040.7 341.629 1037.89 343.829C1041.33 349.495 1046.88 340.053 1043.65 336.425Z" fill="#FDF5DB"/>
<path d="M818.745 336.425C817.418 334.038 813.272 332.475 809.973 334.562C811.631 331.364 805.788 316.633 804.774 316.633C803.76 316.633 799.407 327.064 800.194 335.322C794.779 330.418 787.002 337.346 790.669 343.393C791.98 346.986 798.33 346.166 796.071 342.203C792.72 344.001 793.533 337.145 797.248 337.568C801.292 338.028 803.311 340.675 802.667 344.523C802.253 346.999 801.391 347.432 799.302 349.11C803.071 352.843 804.162 359.423 804.894 359.423C805.698 359.423 805.291 354.041 810.135 349.11C807.671 347.327 807.06 347.007 806.825 344.713C806.405 340.603 808.984 338.433 810.99 337.773C816.762 335.874 815.796 341.629 812.984 343.829C816.428 349.495 821.978 340.053 818.745 336.425Z" fill="#FDF5DB"/>
<path d="M593.839 336.425C592.512 334.038 588.365 332.475 585.067 334.562C586.725 331.364 580.881 316.633 579.868 316.633C578.854 316.633 574.501 327.064 575.287 335.322C569.872 330.418 562.096 337.346 565.763 343.393C567.073 346.986 573.423 346.166 571.165 342.203C567.814 344.001 568.627 337.145 572.341 337.568C576.386 338.028 578.405 340.675 577.761 344.523C577.346 346.999 576.485 347.432 574.396 349.11C578.165 352.843 579.256 359.423 579.988 359.423C580.791 359.423 580.385 354.041 585.229 349.11C582.764 347.327 582.154 347.007 581.919 344.713C581.499 340.603 584.078 338.433 586.084 337.773C591.855 335.874 590.889 341.629 588.078 343.829C591.521 349.495 597.071 340.053 593.839 336.425Z" fill="#FDF5DB"/>
<path d="M368.933 336.425C367.606 334.038 363.459 332.475 360.161 334.562C361.819 331.364 355.975 316.633 354.962 316.633C353.948 316.633 349.595 327.064 350.381 335.322C344.966 330.418 337.189 337.346 340.857 343.393C342.167 346.986 348.517 346.166 346.259 342.203C342.907 344.001 343.72 337.145 347.435 337.568C351.48 338.028 353.499 340.675 352.855 344.523C352.44 346.999 351.578 347.432 349.49 349.11C353.259 352.843 354.35 359.423 355.081 359.423C355.885 359.423 355.479 354.041 360.322 349.11C357.858 347.327 357.247 347.007 357.013 344.713C356.593 340.603 359.171 338.433 361.178 337.773C366.949 335.874 365.983 341.629 363.171 343.829C366.615 349.495 372.165 340.053 368.933 336.425Z" fill="#FDF5DB"/>
<path d="M144.025 336.425C142.698 334.038 138.551 332.475 135.253 334.562C136.91 331.364 131.067 316.633 130.053 316.633C129.04 316.633 124.686 327.064 125.473 335.322C120.058 330.418 112.281 337.346 115.948 343.393C117.259 346.986 123.609 346.166 121.351 342.203C117.999 344.001 118.812 337.145 122.527 337.568C126.571 338.028 128.591 340.675 127.947 344.523C127.532 346.999 126.67 347.432 124.581 349.11C128.35 352.843 129.442 359.423 130.173 359.423C130.977 359.423 130.57 354.041 135.414 349.11C132.95 347.327 132.339 347.007 132.105 344.713C131.685 340.603 134.263 338.433 136.269 337.773C142.041 335.874 141.075 341.629 138.263 343.829C141.707 349.495 147.257 340.053 144.025 336.425Z" fill="#FDF5DB"/>
<path d="M1153.56 178.109C1152.23 175.721 1148.09 174.159 1144.79 176.245C1146.45 173.048 1140.6 158.316 1139.59 158.316C1138.57 158.316 1134.22 168.747 1135.01 177.006C1129.59 172.101 1121.82 179.03 1125.48 185.076C1126.79 188.67 1133.14 187.85 1130.89 183.887C1127.53 185.685 1128.35 178.829 1132.06 179.252C1136.11 179.712 1138.13 182.359 1137.48 186.207C1137.07 188.682 1136.21 189.116 1134.12 190.794C1137.89 194.527 1138.98 201.107 1139.71 201.107C1140.51 201.107 1140.11 195.725 1144.95 190.794C1142.49 189.01 1141.87 188.691 1141.64 186.396C1141.22 182.287 1143.8 180.117 1145.8 179.457C1151.58 177.558 1150.61 183.312 1147.8 185.512C1151.24 191.179 1156.79 181.737 1153.56 178.109Z" fill="#FDF5DB"/>
<path d="M928.652 178.109C927.325 175.721 923.178 174.159 919.879 176.245C921.537 173.048 915.694 158.316 914.68 158.316C913.667 158.316 909.313 168.747 910.1 177.006C904.685 172.101 896.908 179.03 900.575 185.076C901.886 188.67 908.236 187.85 905.978 183.887C902.626 185.685 903.439 178.829 907.154 179.252C911.198 179.712 913.218 182.359 912.573 186.207C912.159 188.682 911.297 189.116 909.208 190.794C912.977 194.527 914.068 201.107 914.8 201.107C915.604 201.107 915.197 195.725 920.041 190.794C917.577 189.01 916.966 188.691 916.732 186.396C916.312 182.287 918.89 180.117 920.896 179.457C926.668 177.558 925.702 183.312 922.89 185.512C926.334 191.179 931.884 181.737 928.652 178.109Z" fill="#FDF5DB"/>
<path d="M703.745 178.109C702.418 175.721 698.272 174.159 694.973 176.245C696.631 173.048 690.788 158.316 689.774 158.316C688.76 158.316 684.407 168.747 685.194 177.006C679.779 172.101 672.002 179.03 675.669 185.076C676.98 188.67 683.33 187.85 681.071 183.887C677.72 185.685 678.533 178.829 682.248 179.252C686.292 179.712 688.311 182.359 687.667 186.207C687.253 188.682 686.391 189.116 684.302 190.794C688.071 194.527 689.162 201.107 689.894 201.107C690.698 201.107 690.291 195.725 695.135 190.794C692.671 189.01 692.06 188.691 691.825 186.396C691.405 182.287 693.984 180.117 695.99 179.457C701.762 177.558 700.796 183.312 697.984 185.512C701.428 191.179 706.978 181.737 703.745 178.109Z" fill="#E8D595" fill-opacity="0.2"/>
<path d="M478.839 178.109C477.512 175.721 473.365 174.159 470.067 176.245C471.725 173.048 465.881 158.316 464.868 158.316C463.854 158.316 459.501 168.747 460.287 177.006C454.872 172.101 447.096 179.03 450.763 185.076C452.073 188.67 458.423 187.85 456.165 183.887C452.814 185.685 453.627 178.829 457.341 179.252C461.386 179.712 463.405 182.359 462.761 186.207C462.346 188.682 461.485 189.116 459.396 190.794C463.165 194.527 464.256 201.107 464.988 201.107C465.791 201.107 465.385 195.725 470.229 190.794C467.764 189.01 467.154 188.691 466.919 186.396C466.499 182.287 469.078 180.117 471.084 179.457C476.855 177.558 475.889 183.312 473.078 185.512C476.521 191.179 482.071 181.737 478.839 178.109Z" fill="#FDF5DB"/>
<path d="M253.933 178.109C252.606 175.721 248.459 174.159 245.161 176.245C246.819 173.048 240.975 158.316 239.962 158.316C238.948 158.316 234.595 168.747 235.381 177.006C229.966 172.101 222.189 179.03 225.857 185.076C227.167 188.67 233.517 187.85 231.259 183.887C227.907 185.685 228.72 178.829 232.435 179.252C236.48 179.712 238.499 182.359 237.855 186.207C237.44 188.682 236.578 189.116 234.49 190.794C238.259 194.527 239.35 201.107 240.081 201.107C240.885 201.107 240.479 195.725 245.322 190.794C242.858 189.01 242.247 188.691 242.013 186.396C241.593 182.287 244.171 180.117 246.178 179.457C251.949 177.558 250.983 183.312 248.171 185.512C251.615 191.179 257.165 181.737 253.933 178.109Z" fill="#FDF5DB"/>
<path d="M29.0246 178.109C27.6976 175.721 23.5508 174.159 20.2525 176.245C21.9104 173.048 16.0669 158.316 15.0534 158.316C14.0396 158.316 9.68649 168.747 10.473 177.006C5.05791 172.101 -2.71871 179.03 0.948441 185.076C2.25885 188.67 8.60883 187.85 6.35055 183.887C2.99926 185.685 3.81224 178.829 7.52697 179.252C11.5714 179.712 13.5906 182.359 12.9465 186.207C12.5319 188.682 11.6702 189.116 9.5814 190.794C13.3503 194.527 14.4415 201.107 15.1732 201.107C15.9769 201.107 15.5704 195.725 20.4142 190.794C17.95 189.01 17.3391 188.691 17.1048 186.396C16.6848 182.287 19.2631 180.117 21.2694 179.457C27.0409 177.558 26.075 183.312 23.2633 185.512C26.707 191.179 32.257 181.737 29.0246 178.109Z" fill="#FDF5DB"/>
<path d="M1265 17.2067C1263.37 16.7504 1261.47 16.867 1259.79 17.929C1261.45 14.7312 1255.6 0 1254.59 0C1253.57 0 1249.22 10.4309 1250.01 18.6892C1244.59 13.7849 1236.82 20.7136 1240.48 26.7597C1241.79 30.3534 1248.14 29.5335 1245.89 25.5707C1242.53 27.3686 1243.35 20.5124 1247.06 20.9352C1251.11 21.3953 1253.13 24.0426 1252.48 27.8904C1252.11 30.1109 1251.38 30.6886 1249.72 31.9946C1249.53 32.1447 1249.33 32.3045 1249.12 32.4774C1251.54 34.8822 1252.86 38.4684 1253.69 40.716C1254.14 41.9575 1254.45 42.7905 1254.71 42.7905C1254.97 42.7905 1255.1 42.2413 1255.32 41.3331C1255.79 39.3981 1256.65 35.8334 1259.95 32.4774C1259.82 32.3814 1259.69 32.2896 1259.57 32.2015C1257.42 30.6538 1256.86 30.2509 1256.64 28.0801C1256.22 23.9706 1258.8 21.8006 1260.8 21.1405C1263.58 20.2284 1264.79 21.0819 1265 22.4591V17.2067Z" fill="#FDF5DB"/>
<path d="M1265 23.389C1264.83 24.7329 1263.97 26.2754 1262.8 27.1957C1263.48 28.3142 1264.24 28.8441 1265 28.9463V23.389Z" fill="#FDF5DB"/>
<path d="M1043.65 19.7925C1042.32 17.405 1038.18 15.8426 1034.88 17.929C1036.54 14.7312 1030.69 0 1029.68 0C1028.67 0 1024.31 10.4309 1025.1 18.6892C1019.68 13.7849 1011.91 20.7136 1015.58 26.7597C1016.89 30.3534 1023.24 29.5335 1020.98 25.5707C1017.63 27.3686 1018.44 20.5124 1022.15 20.9352C1026.2 21.3953 1028.22 24.0426 1027.57 27.8904C1027.16 30.3661 1026.3 30.7997 1024.21 32.4774C1027.98 36.2105 1029.07 42.7905 1029.8 42.7905C1030.6 42.7905 1030.2 37.4086 1035.04 32.4774C1032.58 30.694 1031.97 30.3745 1031.73 28.0801C1031.31 23.9706 1033.89 21.8006 1035.9 21.1405C1041.67 19.2415 1040.7 24.9959 1037.89 27.1957C1041.33 32.8625 1046.88 23.4205 1043.65 19.7925Z" fill="#FDF5DB"/>
<path d="M818.745 19.7925C817.418 17.405 813.272 15.8426 809.973 17.929C811.631 14.7312 805.788 0 804.774 0C803.76 0 799.407 10.4309 800.194 18.6892C794.779 13.7849 787.002 20.7136 790.669 26.7597C791.98 30.3534 798.33 29.5335 796.071 25.5707C792.72 27.3686 793.533 20.5124 797.248 20.9352C801.292 21.3953 803.311 24.0426 802.667 27.8904C802.253 30.3661 801.391 30.7997 799.302 32.4774C803.071 36.2105 804.162 42.7905 804.894 42.7905C805.698 42.7905 805.291 37.4086 810.135 32.4774C807.671 30.694 807.06 30.3745 806.825 28.0801C806.405 23.9706 808.984 21.8006 810.99 21.1405C816.762 19.2415 815.796 24.9959 812.984 27.1957C816.428 32.8625 821.978 23.4205 818.745 19.7925Z" fill="#FDF5DB"/>
<path d="M593.839 19.7925C592.512 17.405 588.365 15.8426 585.067 17.929C586.725 14.7312 580.881 0 579.868 0C578.854 0 574.501 10.4309 575.287 18.6892C569.872 13.7849 562.096 20.7136 565.763 26.7597C567.073 30.3534 573.423 29.5335 571.165 25.5707C567.814 27.3686 568.627 20.5124 572.341 20.9352C576.386 21.3953 578.405 24.0426 577.761 27.8904C577.346 30.3661 576.485 30.7997 574.396 32.4774C578.165 36.2105 579.256 42.7905 579.988 42.7905C580.791 42.7905 580.385 37.4086 585.229 32.4774C582.764 30.694 582.154 30.3745 581.919 28.0801C581.499 23.9706 584.078 21.8006 586.084 21.1405C591.855 19.2415 590.889 24.9959 588.078 27.1957C591.521 32.8625 597.071 23.4205 593.839 19.7925Z" fill="#FDF5DB"/>
<path d="M368.933 19.7925C367.606 17.405 363.459 15.8426 360.161 17.929C361.819 14.7312 355.975 0 354.962 0C353.948 0 349.595 10.4309 350.381 18.6892C344.966 13.7849 337.189 20.7136 340.857 26.7597C342.167 30.3534 348.517 29.5335 346.259 25.5707C342.907 27.3686 343.72 20.5124 347.435 20.9352C351.48 21.3953 353.499 24.0426 352.855 27.8904C352.44 30.3661 351.578 30.7997 349.49 32.4774C353.259 36.2105 354.35 42.7905 355.081 42.7905C355.885 42.7905 355.479 37.4086 360.322 32.4774C357.858 30.694 357.247 30.3745 357.013 28.0801C356.593 23.9706 359.171 21.8006 361.178 21.1405C366.949 19.2415 365.983 24.9959 363.171 27.1957C366.615 32.8625 372.165 23.4205 368.933 19.7925Z" fill="#FDF5DB"/>
<path d="M144.025 19.7925C142.698 17.405 138.551 15.8426 135.253 17.929C136.91 14.7312 131.067 0 130.053 0C129.04 0 124.686 10.4309 125.473 18.6892C120.058 13.7849 112.281 20.7136 115.948 26.7597C117.259 30.3534 123.609 29.5335 121.351 25.5707C117.999 27.3686 118.812 20.5124 122.527 20.9352C126.571 21.3953 128.591 24.0426 127.947 27.8904C127.532 30.3661 126.67 30.7997 124.581 32.4774C128.35 36.2105 129.442 42.7905 130.173 42.7905C130.977 42.7905 130.57 37.4086 135.414 32.4774C132.95 30.694 132.339 30.3745 132.105 28.0801C131.685 23.9706 134.263 21.8006 136.269 21.1405C142.041 19.2415 141.075 24.9959 138.263 27.1957C141.707 32.8625 147.257 23.4205 144.025 19.7925Z" fill="#FDF5DB"/>
<path d="M947.817 420.257C945.856 424.087 944.882 428.37 944.882 432.653C944.882 438.444 946.616 444.235 950.018 448.932C945.135 445.729 942.147 440.405 939.319 435.295C937.198 431.412 935.063 427.543 932.929 423.66C932.929 423.66 932.902 423.7 932.889 423.726C932.889 423.726 932.876 423.753 932.862 423.766C932.862 423.766 932.862 423.78 932.849 423.793C932.849 423.82 932.822 423.833 932.809 423.86C932.742 423.98 932.675 424.087 932.609 424.207C932.609 424.22 932.595 424.233 932.582 424.26C929.14 430.758 931.715 443.127 925.992 443.141C925.992 443.141 925.992 443.141 925.979 443.141C924.591 443.141 922.724 442.407 920.176 440.712C920.056 440.632 919.949 440.552 919.829 440.472L919.549 440.419C917.974 448.705 915.973 454.429 912.705 459.766L917.161 462.128C917.321 462.208 917.454 462.328 917.561 462.475C920.723 466.705 928.166 470.481 934.143 473.51C935.73 474.31 937.211 475.057 938.465 475.751C954.54 484.504 969.294 488.814 983.582 488.921C983.715 488.921 983.862 488.921 983.995 488.921C986.397 488.921 988.838 488.801 991.212 488.694C993.6 488.587 996.055 488.467 998.51 488.467C998.856 488.467 999.19 488.467 999.537 488.467C1009.37 488.587 1019.15 490.802 1028.61 492.937C1038.16 495.099 1048 497.327 1057.82 497.327C1059.45 497.327 1061.06 497.26 1062.69 497.14C1067.57 496.753 1085.85 496.647 1096.31 496.62C1100.63 496.62 1104.27 496.606 1106.39 496.606C1106.51 496.606 1106.63 496.606 1106.74 496.606C1106.14 494.632 1105.61 492.71 1105.15 490.936C1105.12 490.842 1105.1 490.736 1105.07 490.642C1088.92 490.509 1070.08 483.01 1060.55 474.737C1060.53 474.71 1060.5 474.684 1060.47 474.657C1060.46 474.657 1060.45 474.63 1060.43 474.617C1060.35 474.55 1060.27 474.47 1060.19 474.404C1060.18 474.39 1060.15 474.364 1060.14 474.35C1060.14 474.35 1060.11 474.323 1060.1 474.31C1060.07 474.283 1060.03 474.257 1060.01 474.23C1055.03 469.733 1049.95 464.223 1043.25 463.889C1046.15 471.415 1051.27 478.046 1057.79 482.743C1057.73 482.77 1057.65 482.783 1057.58 482.796C1055.41 483.397 1053.22 483.664 1051.02 483.664H1050.99C1043.47 483.664 1035.88 480.621 1028.49 477.98C1028.47 477.98 1028.46 477.979 1028.45 477.966C1028.2 477.886 1027.96 477.793 1027.74 477.713C1027.7 477.699 1027.64 477.686 1027.6 477.659C1027.55 477.646 1027.5 477.619 1027.44 477.606C1027.38 477.579 1027.31 477.566 1027.26 477.539C1027.22 477.526 1027.18 477.512 1027.14 477.499C1027.14 477.499 1027.07 477.472 1027.03 477.459C1026.9 477.406 1026.76 477.366 1026.63 477.312C1026.42 477.232 1026.2 477.166 1025.99 477.085C1025.96 477.085 1025.92 477.059 1025.9 477.045C1022.88 476.018 1019.79 475.097 1016.97 473.576C1010.41 470 1006.11 463.435 1002.07 457.138C1001.95 458.739 1001.88 460.353 1001.88 461.968C1001.88 465.931 1002.24 469.88 1002.97 473.776C979.78 462.008 960.29 443.074 947.883 420.23" fill="#DAD4C6"/>
<path d="M1058.97 362.055C1066.98 366.218 1074.44 371.141 1082.11 375.891C1085.25 377.826 1088.57 379.454 1091.72 381.362C1095.76 383.804 1098.97 387.473 1102.9 389.902C1101.03 388.741 1098.83 388.1 1096.63 388.087C1110.38 393.438 1120.61 405.113 1129.22 417.082C1129.08 412.038 1126.68 407.341 1123.92 403.125C1117.9 393.891 1109.9 385.926 1100.63 379.961C1102 381.376 1103.12 383.003 1103.98 384.765C1097.2 377.826 1089.18 372.102 1080.42 367.952C1073.68 364.75 1066.42 362.455 1058.97 362.068" fill="#F0ECDB"/>
<path d="M1052.42 331.699C1054.03 335.142 1055.94 338.437 1058.1 341.56L1057.51 345.429C1069.37 346.657 1081.5 347.951 1092.27 353.075C1098.03 355.824 1103.3 359.64 1109.35 361.655C1103.72 351.234 1094.53 342.787 1083.7 338.024C1087.86 339.852 1093.24 342.267 1097.07 344.722C1094.88 342.04 1090.89 339.839 1087.04 337.864C1084.9 337.117 1082.7 336.409 1080.42 335.742C1077.38 334.862 1074.15 334.048 1070.68 333.287C1075.8 335.729 1080.73 339.318 1083.73 343.294C1081.06 341.053 1077.22 341.173 1073.75 340.773C1066.01 339.852 1059.09 335.742 1052.42 331.699Z" fill="#F0ECDB"/>
<path d="M1027.04 331.555C1030.77 338.813 1036 345.271 1042.31 350.435L1042.47 353.571C1042.47 353.571 1042.59 353.571 1042.64 353.571C1042.67 353.571 1042.69 353.571 1042.72 353.571C1043.23 353.544 1043.75 353.544 1044.25 353.544C1044.25 353.544 1044.27 353.544 1044.28 353.544C1051.08 353.544 1057.81 355.452 1064.22 357.827C1071.43 360.483 1078.44 363.752 1085.86 365.753C1077.58 357.56 1067.51 351.449 1057.51 345.432L1058.1 341.562C1052.07 339.974 1046.47 336.799 1042 332.435C1043.68 336.398 1046.11 340.028 1049.14 343.096C1041 341.122 1033.91 336.291 1027.03 331.555" fill="#F0ECDB"/>
<path d="M1052.66 330.113L1052.43 331.701C1059.1 335.731 1066.02 339.84 1073.76 340.774C1077.23 341.175 1081.06 341.055 1083.74 343.296C1080.74 339.32 1075.82 335.731 1070.69 333.289C1068.17 332.742 1065.52 332.208 1062.72 331.714C1059.63 331.167 1056.35 330.647 1052.67 330.127" fill="#F8F5E5"/>
<path d="M1007.55 331.102C1012.49 338.053 1017.41 345.005 1022.36 351.944C1011.44 349.355 1001.3 343.497 993.6 335.331C995.641 340.095 999.563 343.751 1003.38 347.26C1000.39 346.006 997.548 344.365 994.934 342.417L994.547 342.924C997.175 347.861 1002.07 351.09 1006.78 354.118C1012.92 358.068 1019.04 362.018 1025.19 365.954C1030.37 369.29 1035.66 372.679 1041.62 374.24C1037.28 369.45 1033.3 364.313 1029.77 358.895C1041.74 367.635 1065 374.653 1081.54 384.341C1073.39 378.296 1053.9 364.579 1046.01 358.188C1044.12 356.64 1043.25 355.506 1041.72 353.611C1041.84 353.611 1041.96 353.598 1042.08 353.585C1042.16 353.585 1042.24 353.585 1042.33 353.585C1042.37 353.585 1042.41 353.585 1042.44 353.585C1042.44 353.585 1042.44 353.585 1042.45 353.585L1042.29 350.449C1030.03 345.259 1017.55 339.935 1007.55 331.115" fill="#F0ECDB"/>
<path d="M1011.01 217.082C1007.46 218.23 1004.82 219.657 1001.84 222.353C1001.47 222.686 999.963 224.954 999.283 226.529C999.083 226.996 998.949 227.423 998.949 227.703C998.949 227.797 998.949 227.877 998.989 227.93C1000.98 231.799 1002.08 233.948 1006.22 235.349C1006.61 235.482 1006.97 235.602 1007.33 235.709C1007.33 235.709 1007.41 235.736 1007.45 235.749C1009.11 236.256 1010.58 236.563 1012.06 236.563C1012.06 236.563 1012.06 236.563 1012.08 236.563C1012.08 236.563 1012.08 236.563 1012.09 236.563C1013.1 236.563 1014.13 236.416 1015.21 236.083C1015.52 235.629 1015.81 235.162 1016.1 234.695L1016.2 234.562C1017.55 232.36 1018.64 230.038 1019.47 227.69C1019.89 226.476 1020.13 225.475 1019.91 224.581C1019.65 223.593 1018.75 222.713 1017.89 221.979C1016.06 220.404 1014.06 218.937 1011.94 217.642C1011.64 217.456 1011.33 217.269 1011.02 217.095" fill="#E0D8C8"/>
<path d="M961.225 318.318C962.185 320.32 962.959 322.534 963.306 323.428C965.307 328.659 966.534 334.143 967.748 339.6C965.8 338.826 964.28 337.439 963.066 335.717L961.918 336.558C962.505 343.91 966.294 350.955 972.124 355.492C972.324 351.022 972.51 346.539 972.711 342.069C979.607 354.184 990.533 363.951 1003.31 369.476C1003.34 369.195 1003.35 368.915 1003.35 368.635C1003.35 364.979 1001.09 361.63 999.324 358.361C996.763 353.571 995.122 348.3 994.549 342.909L994.935 342.402C989.319 338.226 984.757 332.622 981.889 326.23C983.903 334.09 986.358 341.842 989.239 349.421C981.995 343.19 975.765 335.811 970.843 327.632C970.883 328.179 970.923 328.726 970.963 329.273C968.148 325.95 965.72 322.308 963.666 318.451L961.225 318.305" fill="#F0ECDB"/>
<path d="M957.929 314.248C957.636 314.248 957.356 314.395 957.076 314.715C957.076 314.715 957.062 314.728 957.049 314.742C957.049 314.742 957.022 314.768 957.022 314.782C956.542 315.409 956.342 316.29 956.342 317.304C956.342 320.853 958.756 326.083 959.53 328.258C960.464 330.82 961.518 333.516 963.065 335.704C964.279 337.412 965.787 338.813 967.748 339.587C966.534 334.129 965.306 328.645 963.305 323.415C962.959 322.521 962.171 320.306 961.224 318.304C961.184 318.224 961.144 318.131 961.104 318.051C961.104 318.037 961.091 318.024 961.078 318.011C961.078 317.997 961.064 317.984 961.051 317.971C961.051 317.971 961.051 317.944 961.038 317.944C961.038 317.931 961.024 317.917 961.011 317.904C960.998 317.864 960.971 317.837 960.958 317.797C960.01 315.916 958.943 314.315 957.956 314.248C957.943 314.248 957.916 314.248 957.903 314.248" fill="#F8F5E5"/>
<path d="M955.755 282.853L955.648 282.893C955.608 283.24 955.568 283.6 955.568 283.92C955.568 284.441 955.648 284.841 955.822 284.894C956.275 285.001 956.409 285.548 956.409 286.042C956.409 286.122 956.409 286.202 956.409 286.282C956.369 287.243 956.342 288.19 956.342 289.151C956.342 299.318 958.903 309.472 963.666 318.466C965.707 322.322 968.148 325.964 970.963 329.287C970.923 328.74 970.883 328.193 970.843 327.646C975.765 335.825 982.009 343.204 989.239 349.435C986.358 341.843 983.916 334.104 981.889 326.245C984.757 332.636 989.319 338.24 994.935 342.417C997.55 344.365 1000.38 346.006 1003.38 347.26C999.551 343.751 995.642 340.095 993.601 335.331C1001.31 343.497 1011.44 349.355 1022.36 351.944C1017.43 345.005 1012.5 338.053 1007.56 331.102C1017.55 339.908 1030.03 345.245 1042.29 350.436C1035.98 345.272 1030.75 338.814 1027.03 331.555C1033.92 336.305 1041.01 341.122 1049.14 343.097C1046.11 340.028 1043.67 336.385 1042 332.436C1046.46 336.799 1052.06 339.975 1058.1 341.563C1055.94 338.44 1054.03 335.145 1052.42 331.702L1052.65 330.114C1048.46 329.5 1044.24 328.94 1040.01 328.38C1027.29 326.698 1014.13 324.964 1001.69 321.615C994.175 319.586 984.69 316.384 977.94 309.486L977.246 308.765C975.445 306.884 973.578 304.936 971.363 304.922C971.323 304.922 971.297 304.922 971.256 304.922C971.256 304.922 971.243 304.922 971.23 304.922C970.816 304.922 970.429 304.709 970.203 304.349C969.349 302.974 968.495 301.573 967.641 300.146C963.986 294.114 960.211 287.897 955.755 282.826" fill="#F8F5E5"/>
<path d="M931.436 181.846H931.423C927.968 181.846 924.552 182.153 921.698 182.793C921.671 182.793 921.644 182.806 921.604 182.82C921.551 182.82 921.498 182.846 921.444 182.86C915.081 184.354 909.104 187.984 905.529 193.428C912.266 195.789 919.03 198.138 926.02 199.565C931.529 200.673 937.159 201.18 942.642 202.367C951.366 204.262 959.717 207.865 967.081 212.908C966.081 213.843 965.093 214.777 964.093 215.697C968.148 216.298 972.244 216.618 976.353 216.671C975.165 218.793 973.978 220.914 972.777 223.049C972.951 223.049 973.111 223.023 973.284 223.009C973.391 223.009 973.485 222.996 973.591 222.983C973.605 222.983 973.631 222.983 973.645 222.983C973.698 222.983 973.738 222.983 973.791 222.983C976.393 222.782 979.007 222.622 981.622 222.622C981.622 222.622 981.622 222.622 981.635 222.622C981.635 222.622 981.649 222.622 981.662 222.622C985.091 222.622 988.492 222.916 991.814 223.796C991.814 223.796 991.827 223.796 991.841 223.796C991.921 223.823 991.987 223.836 992.067 223.863C994.455 224.517 996.31 225.077 998.698 226.398L999.285 226.545C999.965 224.971 1001.47 222.702 1001.85 222.369C1004.82 219.673 1007.48 218.246 1011.01 217.098C1001.66 211.614 990.507 208.959 980.635 206.624C980.315 206.544 980.035 206.344 979.874 206.05C973.244 194.348 960.838 186.289 947.431 185.048C945.937 184.901 944.483 184.741 943.122 184.354C941.588 183.927 940.427 183.3 939.6 182.446C937.039 182.073 934.224 181.872 931.463 181.872H931.449" fill="#FDFAED"/>
<path d="M936.797 166.754C936.797 166.754 936.757 166.754 936.743 166.754C933.795 166.767 929.886 168.315 929.713 171.584C929.713 171.61 929.713 171.637 929.713 171.651C929.713 171.651 929.713 171.731 929.713 171.771C929.713 174.399 932.741 177.441 935.449 177.468H935.476C935.756 177.468 936.023 177.441 936.29 177.361C936.29 177.361 936.303 177.361 936.316 177.361C936.423 176.921 936.463 176.481 936.463 176.04C936.463 174.786 936.143 173.519 936.143 172.251C936.143 172.224 936.143 172.198 936.143 172.171C936.17 170.276 936.957 168.542 937.49 166.767C937.263 166.74 937.037 166.74 936.797 166.74" fill="#FDFAED"/>
<path d="M838.133 376.961C837.439 377.628 837.212 378.642 837.039 379.603C836.398 383.245 836.078 386.941 836.078 390.637C836.078 398.056 837.372 405.488 839.907 412.467C840.4 412.8 840.881 413.147 841.361 413.481C849.112 418.938 855.662 424.502 862.452 431.414C867.094 426.13 870.549 420.913 873.244 415.082C873.311 414.935 873.377 414.802 873.444 414.655C866.467 407.249 862.052 399.937 860.397 390.637C859.637 393.253 859.344 395.107 859.344 396.829C859.344 399.244 859.93 401.432 860.664 405.141C854.354 399.07 852.447 389.877 850.832 381.27C849.445 387.315 848.738 393.506 848.738 399.711C848.738 401.859 848.818 404.02 848.991 406.169C842.908 397.602 839.12 387.408 838.119 376.947" fill="#DAD4C6"/>
<path d="M903.619 274.513C902.392 274.78 901.138 274.94 899.871 274.98C898.777 275.02 897.696 274.98 896.602 275.1C892.614 275.527 889.118 278.063 886.49 281.105C886.264 281.372 886.023 281.759 886.023 282.079C886.023 282.226 886.077 282.372 886.197 282.479C886.33 282.613 886.557 282.666 886.77 282.693C887.344 282.786 887.944 282.866 888.531 282.933C889.252 282.639 889.959 282.359 890.679 282.132C893.187 281.345 895.802 280.945 898.27 280.064C900.898 279.143 903.299 277.716 905.607 276.155C905.367 276.208 905.127 276.261 904.873 276.315C904.78 276.328 904.7 276.341 904.606 276.341C904.54 276.341 904.473 276.341 904.406 276.328C903.939 276.248 903.539 275.888 903.432 275.407C903.366 275.087 903.432 274.767 903.593 274.5" fill="#FDFAED"/>
<path d="M894.574 267.974C894.294 267.974 894.001 267.974 893.734 268.014C889.225 268.441 882.901 274.979 882.901 274.979L882.768 275.086C879.353 277.848 876.085 280.77 872.95 283.839C872.99 283.813 873.03 283.786 873.07 283.759C873.123 283.733 873.163 283.692 873.216 283.666C874.991 282.545 876.912 281.437 878.979 281.424C878.979 281.424 878.993 281.424 879.006 281.424C879.166 281.424 879.326 281.424 879.486 281.451C876.071 284.707 872.536 288.149 870.922 292.579C874.297 290.644 877.672 288.709 881.06 286.761C883.488 285.36 885.943 283.973 888.518 282.905C887.931 282.852 887.33 282.772 886.757 282.665C886.543 282.625 886.33 282.572 886.183 282.452C886.063 282.331 886.01 282.198 886.01 282.051C886.01 281.718 886.236 281.344 886.477 281.077C889.105 278.035 892.6 275.5 896.589 275.073C897.682 274.966 898.763 275.006 899.857 274.953C901.124 274.913 902.378 274.753 903.605 274.486C903.766 274.232 904.032 274.032 904.353 273.965C905.326 273.752 906.314 273.552 907.287 273.378C903.525 270.536 898.656 268.001 894.668 267.961C894.627 267.961 894.601 267.961 894.561 267.961" fill="#F0ECDB"/>
<path d="M869.59 345.098C866.402 348.38 862.84 351.302 858.984 353.797L859.078 353.931C859.438 355.318 859.785 356.72 860.145 358.107C861.386 355.505 862.8 352.983 864.347 350.555C864.307 350.995 864.28 351.449 864.28 351.903C864.28 353.504 864.561 355.118 865.094 356.626C866.322 353.864 868.162 351.356 870.43 349.367H870.524C870.47 347.913 870.164 346.445 869.577 345.098" fill="#F0ECDB"/>
<path d="M878.248 329.018C868.283 332.14 859.318 338.398 852.955 346.671L853.662 347.645C854.236 351.127 853.822 354.917 855.396 358.092C856.637 356.705 857.864 355.317 859.092 353.929L858.998 353.796C858.785 353.929 858.585 354.076 858.371 354.209C858.638 350.593 859.465 347.004 860.772 343.615C866.602 338.758 872.432 333.874 878.248 329.018Z" fill="#F0ECDB"/>
<path d="M861.747 328.006C856.624 331.261 852.836 339.067 848.82 343.817C849.541 347.073 850.621 350.235 852.049 353.237C852.582 351.369 853.116 349.515 853.663 347.633L852.956 346.659C856.171 340.575 859.106 334.357 861.747 327.992" fill="#F0ECDB"/>
<path d="M869.935 189.25C867.521 189.25 865.226 190.051 863.706 191.972C863.679 192.012 863.652 192.039 863.626 192.079C863.612 192.105 863.599 192.119 863.572 192.145C863.559 192.172 863.532 192.199 863.519 192.212C861.531 194.961 862.772 195.721 864.986 195.735C864.986 195.735 864.986 195.735 865 195.735C866.334 195.735 868.014 195.455 869.549 195.161C869.575 195.161 869.615 195.161 869.642 195.148C869.682 195.148 869.722 195.134 869.775 195.121C871.376 194.814 872.777 194.507 873.404 194.507C873.404 194.507 873.444 194.507 873.471 194.507C873.577 194.507 873.657 194.521 873.697 194.547C874.018 194.721 874.098 195.001 874.111 195.334C874.111 195.775 873.964 196.295 873.964 196.802C873.964 197.202 874.058 197.576 874.378 197.896C875.418 198.924 876.726 199.631 877.953 200.445C879.46 201.446 880.874 202.633 882.569 203.26C882.609 203.26 882.635 203.287 882.675 203.3C882.702 203.3 882.715 203.314 882.742 203.327C884.21 203.821 885.784 204.061 887.358 204.061C887.358 204.061 887.358 204.061 887.371 204.061C887.385 204.061 887.371 204.061 887.385 204.061C888.852 204.061 890.306 203.861 891.693 203.487C891.733 203.487 891.773 203.46 891.8 203.46C887.905 201.619 883.689 198.857 881.021 195.481C880.514 194.841 880.061 194.134 879.527 193.506C879.527 193.506 879.487 193.466 879.474 193.44C879.474 193.426 879.447 193.413 879.434 193.4C879.42 193.386 879.407 193.36 879.38 193.346C877.353 190.998 873.511 189.29 869.949 189.277C869.949 189.277 869.935 189.277 869.922 189.277" fill="#FDFAED"/>
<path d="M858.237 201.578C855.702 202.726 854.715 204.18 854.729 205.688C854.729 209.317 860.518 213.2 864.24 213.6C864.24 213.6 864.294 213.6 864.307 213.6C864.654 213.64 865.001 213.654 865.347 213.654C865.347 213.654 865.361 213.654 865.374 213.654C867.349 213.654 869.323 213.107 870.937 211.986C870.937 211.986 870.964 211.972 870.977 211.959C870.977 211.959 871.004 211.946 871.017 211.932C871.017 211.932 871.03 211.932 871.044 211.919C871.084 211.892 871.124 211.866 871.15 211.839C867.495 211.746 863.893 210.398 861.065 208.103C860.065 207.302 859.158 206.368 858.584 205.207C858.224 204.487 858.05 203.713 858.05 202.939C858.05 202.485 858.104 202.032 858.224 201.591" fill="#F0ECDB"/>
<path d="M946.83 222.607C946.083 222.607 945.336 222.554 944.589 222.434C943.922 222.313 943.268 222.14 942.628 221.886C939.2 220.499 937.572 218.15 938.252 215.588C938.919 213.08 941.908 210.718 945.803 210.718C946.257 210.718 946.71 210.745 947.177 210.812C950.205 211.252 953.18 212.733 956.302 215.388C956.889 215.909 957.689 216.603 958.103 217.55C958.596 218.657 958.41 219.912 957.649 220.646C957.036 221.259 956.235 221.406 955.448 221.526L951.539 222.14C950.099 222.367 948.484 222.607 946.83 222.607ZM854.729 205.675C854.729 204.167 855.703 202.712 858.238 201.565C858.118 202.019 858.064 202.472 858.064 202.913C858.064 203.686 858.238 204.46 858.598 205.181C859.171 206.342 860.079 207.276 861.079 208.076C863.921 210.385 867.522 211.719 871.164 211.812C871.164 211.812 871.098 211.866 871.058 211.892C871.058 211.892 871.044 211.892 871.031 211.906C871.031 211.906 871.004 211.919 870.991 211.932C870.991 211.932 870.964 211.946 870.951 211.959C869.323 213.08 867.349 213.627 865.388 213.627C865.388 213.627 865.375 213.627 865.361 213.627C865.014 213.627 864.668 213.614 864.321 213.574C864.294 213.574 864.267 213.574 864.254 213.574C860.532 213.187 854.756 209.291 854.742 205.661M869.937 189.249C869.937 189.249 869.95 189.249 869.964 189.249C873.526 189.249 877.368 190.97 879.395 193.319C879.409 193.332 879.422 193.359 879.449 193.372C879.449 193.386 879.475 193.399 879.489 193.412C879.502 193.439 879.529 193.452 879.542 193.479C880.076 194.106 880.516 194.813 881.036 195.454C883.704 198.83 887.933 201.592 891.815 203.433C891.815 203.433 891.735 203.46 891.708 203.46C890.321 203.833 888.867 204.033 887.399 204.033C887.399 204.033 887.399 204.033 887.386 204.033C887.386 204.033 887.386 204.033 887.373 204.033C885.799 204.033 884.224 203.793 882.757 203.299C882.73 203.299 882.717 203.286 882.69 203.273C882.65 203.273 882.624 203.246 882.584 203.233C880.889 202.619 879.475 201.431 877.968 200.417C876.741 199.603 875.447 198.896 874.393 197.869C874.073 197.549 873.992 197.175 873.979 196.775C873.979 196.268 874.126 195.734 874.126 195.307C874.126 194.973 874.033 194.693 873.712 194.52C873.659 194.493 873.579 194.48 873.486 194.48C873.459 194.48 873.446 194.48 873.419 194.48C872.792 194.48 871.378 194.787 869.79 195.093C869.75 195.093 869.71 195.107 869.657 195.12C869.63 195.12 869.59 195.12 869.564 195.133C868.029 195.427 866.349 195.707 865.014 195.707C865.014 195.707 865.014 195.707 865.001 195.707C862.787 195.707 861.546 194.933 863.534 192.185C863.547 192.158 863.574 192.145 863.587 192.118C863.6 192.091 863.614 192.078 863.64 192.051C863.667 192.011 863.694 191.985 863.72 191.944C865.241 190.023 867.522 189.236 869.95 189.222M936.798 166.753C937.038 166.753 937.265 166.753 937.492 166.779C936.958 168.554 936.171 170.289 936.145 172.183C936.145 172.21 936.145 172.237 936.145 172.263C936.145 173.531 936.465 174.799 936.465 176.053C936.465 176.493 936.425 176.933 936.318 177.374C936.318 177.374 936.305 177.374 936.291 177.374C936.025 177.441 935.744 177.481 935.478 177.481H935.451C932.743 177.454 929.728 174.412 929.715 171.783C929.715 171.743 929.715 171.703 929.715 171.663C929.715 171.663 929.715 171.61 929.715 171.596C929.875 168.314 933.797 166.779 936.745 166.766C936.758 166.766 936.785 166.766 936.798 166.766M935.531 161.722C931.169 161.722 927.207 164.351 923.525 167.046C920.043 169.608 915.961 174.879 917.842 178.615C918.029 178.988 918.015 179.429 917.788 179.776C917.575 180.136 917.188 180.349 916.775 180.349C904.835 180.403 893.002 184.339 883.451 191.451C883.251 191.598 883.01 191.704 882.77 191.704C882.69 191.704 882.597 191.704 882.517 191.664C882.183 191.598 881.903 191.397 881.716 191.117C879.249 187.128 874.606 185.3 869.937 185.3C866.895 185.3 863.841 186.087 861.373 187.568C855.369 191.157 851.101 198.363 849.66 207.342C849.06 211.132 849.126 214.041 849.873 216.509C850.7 219.245 854.329 222.487 855.196 222.727C856.423 222.941 857.17 223.875 857.344 224.648C857.464 225.209 857.29 225.743 856.89 226.076C856.73 226.757 856.57 227.437 856.397 228.091C856.357 228.251 856.317 228.411 856.277 228.585C856.29 228.585 856.303 228.585 856.317 228.585C856.317 228.585 856.343 228.585 856.357 228.585C856.81 228.585 857.344 228.425 857.877 228.238C857.984 228.198 858.091 228.171 858.184 228.131C858.291 228.091 858.411 228.051 858.518 228.024C858.531 228.024 858.544 228.024 858.558 228.011C858.558 228.011 858.611 227.998 858.638 227.984C858.691 227.971 858.745 227.944 858.798 227.931C871.551 223.981 882.437 214.241 895.724 213.027C891.028 219.018 885.812 224.608 880.169 229.732C886.719 224.155 894.697 220.299 903.141 218.617C897.084 221.113 891.775 225.382 888.04 230.773C888.92 230.426 889.814 230.119 890.721 229.826C890.721 229.812 890.721 229.799 890.708 229.772C890.708 229.679 890.815 229.612 890.948 229.612C890.948 229.612 890.948 229.612 890.961 229.612C890.961 229.612 890.975 229.612 890.988 229.612C891.001 229.612 891.028 229.612 891.041 229.612C891.041 229.612 891.135 229.639 891.175 229.665C894.27 228.705 897.458 228.064 900.7 227.757C893.429 231.013 886.492 235.056 880.076 239.78C887.813 235.043 895.991 230.159 905.075 229.746C905.129 229.746 905.169 229.746 905.222 229.746C905.569 229.746 905.916 229.732 906.263 229.732C906.263 229.732 906.276 229.732 906.289 229.732C909.544 229.732 912.786 230.266 916.001 230.853C916.201 230.893 916.401 230.933 916.601 230.96C916.681 230.973 916.775 230.986 916.855 231.013C916.961 231.026 917.068 231.053 917.175 231.067C922.511 232.054 927.86 233.041 933.21 234.042C931.195 234.749 929.168 235.47 927.153 236.19C927.22 236.204 927.3 236.23 927.367 236.244C930.088 236.884 932.89 237.191 935.691 237.191C935.691 237.191 935.691 237.191 935.704 237.191C935.704 237.191 935.704 237.191 935.718 237.191C937.986 237.191 940.267 236.978 942.495 236.564C942.601 236.537 942.708 236.524 942.815 236.497C942.908 236.484 942.988 236.457 943.082 236.444C943.108 236.444 943.135 236.444 943.175 236.43C943.202 236.43 943.215 236.43 943.242 236.417C943.295 236.417 943.348 236.39 943.388 236.39C943.428 236.39 943.482 236.377 943.522 236.364C943.562 236.364 943.615 236.35 943.655 236.337C943.749 236.324 943.829 236.297 943.922 236.284C944.229 236.217 944.522 236.15 944.829 236.084C944.869 236.084 944.909 236.07 944.936 236.057C947.964 235.35 950.979 234.536 954.007 234.522H954.034C954.834 234.522 955.621 234.576 956.422 234.709C956.449 234.709 956.489 234.709 956.515 234.723C955.395 235.897 954.287 237.084 953.167 238.258C956.302 236.564 959.49 234.843 962.985 234.082C963.052 234.069 963.105 234.055 963.172 234.042C963.225 234.042 963.292 234.015 963.345 234.002C964.813 233.708 966.294 233.588 967.774 233.588H967.801C972.35 233.588 976.926 234.763 981.475 235.697C981.515 235.697 981.542 235.71 981.582 235.723C981.688 235.75 981.795 235.763 981.915 235.79C981.928 235.79 981.955 235.79 981.968 235.79C982.409 235.883 982.862 235.963 983.302 236.057C983.302 236.057 983.316 236.057 983.329 236.057C983.529 236.097 983.729 236.137 983.929 236.164C986.678 236.657 989.706 236.857 992.827 236.857H992.867C997.39 236.857 1002.07 236.43 1006.18 235.857C1006.19 235.857 1006.21 235.857 1006.22 235.857C1006.38 235.83 1006.55 235.817 1006.71 235.79C1006.89 235.763 1007.06 235.737 1007.23 235.71C1006.87 235.59 1006.51 235.483 1006.13 235.35C1001.99 233.949 1000.88 231.814 998.897 227.931C998.871 227.878 998.857 227.797 998.857 227.704C998.857 227.424 998.991 227.01 999.191 226.53L998.604 226.383C996.216 225.062 994.362 224.502 991.974 223.848C991.894 223.821 991.827 223.808 991.747 223.781C991.747 223.781 991.733 223.781 991.72 223.781C988.412 222.887 985.01 222.607 981.568 222.607C981.568 222.607 981.555 222.607 981.542 222.607C981.542 222.607 981.542 222.607 981.528 222.607C978.927 222.607 976.299 222.78 973.697 222.967C973.644 222.967 973.604 222.967 973.551 222.967C973.537 222.967 973.511 222.967 973.497 222.967C973.391 222.967 973.297 222.981 973.191 222.994C973.017 222.994 972.857 223.021 972.684 223.034C973.871 220.912 975.058 218.791 976.259 216.656C972.15 216.616 968.055 216.282 963.999 215.682C965 214.761 965.987 213.827 966.987 212.893C959.624 207.836 951.286 204.234 942.548 202.352C937.052 201.165 931.422 200.658 925.926 199.55C918.922 198.136 912.172 195.774 905.435 193.412C909.011 187.955 915 184.339 921.35 182.844C921.404 182.844 921.457 182.818 921.51 182.804C921.537 182.804 921.564 182.791 921.604 182.778C924.459 182.137 927.874 181.83 931.329 181.83H931.369C934.144 181.83 936.945 182.031 939.506 182.404C938.986 181.857 938.599 181.217 938.359 180.483C937.412 177.641 939.16 175.239 940.694 173.131C941.587 171.903 942.508 170.636 942.881 169.355C943.402 167.54 942.655 165.992 941.934 165.018C940.507 163.083 937.986 161.762 935.638 161.709C935.571 161.709 935.504 161.709 935.438 161.709" fill="#E0D8C8"/>
<path d="M851.181 305.788C847.766 308.484 843.27 314.008 841.296 317.877C841.056 317.037 840.869 316.209 840.696 315.382C840.629 315.022 840.562 314.662 840.496 314.301L838.001 315.249C837.454 318.584 837.174 321.974 837.174 325.349C837.174 332.034 838.241 338.733 840.349 345.084C841.83 341.094 842.63 336.838 842.697 332.568C843.844 337.959 845.005 343.363 846.152 348.753C847.526 346.405 848.246 343.696 848.233 340.988C848.233 340.921 848.233 340.854 848.233 340.787C848.326 341.388 848.42 341.975 848.54 342.562C848.58 341.882 848.593 341.201 848.593 340.534C848.593 335.33 847.579 330.5 847.579 324.562C847.579 319.438 848.34 313.487 851.154 305.762" fill="#F0ECDB"/>
<path d="M895.725 213.014C882.438 214.228 871.552 223.955 858.799 227.918C858.799 227.918 858.692 227.958 858.639 227.971C858.612 227.971 858.585 227.985 858.559 227.998C858.559 227.998 858.532 227.998 858.519 228.011C858.412 228.051 858.305 228.091 858.185 228.118C858.079 228.158 857.972 228.185 857.878 228.225C857.345 228.398 856.811 228.558 856.358 228.572C856.358 228.572 856.331 228.572 856.318 228.572C856.304 228.572 856.291 228.572 856.278 228.572C854.61 234.936 852.276 241.008 849.141 247.065C850.982 245.731 852.929 244.557 854.97 243.569C852.022 248.133 849.087 252.683 846.152 257.246L846.299 257.34C858.692 244.944 873.046 232.948 890.402 230.453C890.789 230.4 891.269 230.266 891.309 229.879L891.202 229.666C891.042 229.719 890.882 229.759 890.749 229.813C889.842 230.106 888.948 230.413 888.067 230.76C891.789 225.369 897.099 221.1 903.169 218.604C894.738 220.286 886.747 224.142 880.197 229.719C885.84 224.595 891.056 219.005 895.751 213.014" fill="#F0ECDB"/>
<path d="M900.7 227.744C897.472 228.051 894.283 228.705 891.175 229.652L891.282 229.865C891.242 230.252 890.762 230.386 890.375 230.439C873.019 232.948 858.665 244.93 846.272 257.326L846.125 257.232C845.752 257.819 845.378 258.393 845.005 258.98C848.393 256.578 852.022 254.537 855.81 252.869C851.395 257.819 847.579 263.29 844.404 269.121C851.034 261.675 860.96 257.819 870.418 254.297C863.401 257.939 858.385 264.411 853.609 270.695C861.053 265.852 869.124 261.956 877.541 259.154C869.964 264.878 863.868 272.523 859.946 281.17C867.763 275.072 875.714 268.894 884.892 265.105C876.074 271.669 868.457 279.849 862.547 289.122C869.19 281.944 876.808 275.632 885.092 270.455C881.744 273.804 878.569 277.34 875.58 281.01C877.528 278.701 879.889 276.726 882.477 275.179L882.758 275.072L882.891 274.965C882.891 274.965 889.214 268.427 893.723 268C894.003 267.973 894.283 267.96 894.564 267.96C894.564 267.96 894.63 267.96 894.67 267.96C898.659 268 903.528 270.535 907.29 273.377C907.464 273.351 907.65 273.311 907.824 273.284C912.186 272.51 916.668 272.043 921.004 271.603C923.752 271.322 926.58 271.029 929.355 270.655C941.401 269.054 956.382 267.053 968.775 261.782H968.802L970.229 261.168C972.871 260.128 975.606 259.434 978.26 258.767C979.194 258.526 980.141 258.286 981.075 258.033C989.573 255.751 997.324 252.162 1003.63 247.665C999.831 249.053 995.603 249.867 991.761 249.867C991.654 249.867 991.534 249.867 991.427 249.867C991.334 249.92 991.214 249.947 991.107 249.947C991.027 249.947 990.934 249.933 990.854 249.893L990.667 249.84C989.76 249.8 988.973 249.733 988.225 249.64C986.238 249.88 984.143 250.974 982.289 251.935C976.94 254.697 972.204 256.058 967.922 256.058C966.828 256.058 965.747 255.965 964.707 255.791C964.266 255.711 963.826 255.618 963.386 255.511C963.172 255.457 962.999 255.311 962.919 255.097C962.839 254.897 962.866 254.67 962.986 254.483C965.52 250.747 969.536 248.159 974.005 247.358C975.139 247.158 976.273 247.078 977.407 247.078C979.834 247.078 982.262 247.438 984.637 247.799C985.824 247.972 987.012 248.159 988.212 248.292C988.492 248.252 988.786 248.239 989.053 248.239C989.706 248.239 990.333 248.332 990.947 248.532C991.214 248.532 991.48 248.532 991.747 248.532C997.203 248.532 1003.45 246.824 1008 244.183C1008.81 243.462 1009.6 242.715 1010.34 241.954L1010.4 241.901C1012.21 240.046 1013.81 238.085 1015.17 236.057C1014.09 236.39 1013.08 236.537 1012.05 236.537C1012.05 236.537 1012.05 236.537 1012.04 236.537C1012.04 236.537 1012.04 236.537 1012.02 236.537C1010.56 236.537 1009.08 236.23 1007.41 235.723C1007.37 235.723 1007.33 235.696 1007.29 235.683C1007.12 235.71 1006.94 235.736 1006.77 235.763C1006.61 235.79 1006.43 235.803 1006.27 235.83C1006.26 235.83 1006.25 235.83 1006.23 235.83C1002.11 236.403 997.444 236.817 992.921 236.83H992.881C989.773 236.83 986.731 236.63 983.983 236.137C983.783 236.097 983.583 236.057 983.383 236.03C983.383 236.03 983.37 236.03 983.356 236.03C982.916 235.95 982.462 235.856 982.022 235.763C982.009 235.763 981.982 235.763 981.969 235.763C981.862 235.736 981.755 235.723 981.635 235.696C981.595 235.696 981.569 235.683 981.529 235.67C976.98 234.736 972.391 233.561 967.855 233.561H967.828C966.347 233.561 964.867 233.682 963.399 233.975C963.346 233.975 963.279 234.002 963.226 234.015C963.159 234.015 963.106 234.042 963.039 234.055C959.557 234.816 956.356 236.537 953.221 238.232C954.328 237.057 955.435 235.87 956.569 234.696C956.569 234.696 956.502 234.696 956.476 234.682C955.675 234.549 954.888 234.495 954.088 234.495H954.061C951.033 234.495 948.005 235.323 944.99 236.03C944.95 236.03 944.91 236.043 944.883 236.057C944.576 236.123 944.283 236.19 943.976 236.257C943.883 236.27 943.802 236.297 943.709 236.31C943.709 236.31 943.616 236.337 943.576 236.337C943.536 236.337 943.482 236.35 943.442 236.363C943.389 236.363 943.336 236.39 943.296 236.39C943.269 236.39 943.256 236.39 943.229 236.403C943.202 236.403 943.175 236.403 943.135 236.417C943.042 236.43 942.962 236.457 942.869 236.47C942.762 236.497 942.655 236.51 942.548 236.537C940.321 236.951 938.039 237.164 935.772 237.164C935.772 237.164 935.772 237.164 935.758 237.164C935.758 237.164 935.758 237.164 935.745 237.164C932.944 237.164 930.155 236.844 927.421 236.217C927.354 236.203 927.274 236.177 927.207 236.163C929.222 235.443 931.249 234.722 933.264 234.015C927.914 233.014 922.578 232.027 917.229 231.04C917.122 231.026 917.015 231 916.909 230.986C916.828 230.973 916.735 230.96 916.655 230.933C916.455 230.893 916.255 230.853 916.055 230.826C912.84 230.239 909.598 229.719 906.343 229.705C906.343 229.705 906.33 229.705 906.316 229.705C905.97 229.705 905.623 229.705 905.276 229.719C905.222 229.719 905.182 229.719 905.129 229.719C896.044 230.119 887.867 235.016 880.129 239.753C886.546 235.016 893.483 230.986 900.753 227.73" fill="#FDFAED"/>
<path d="M1058.97 362.057C1066.41 362.444 1073.68 364.739 1080.42 367.942C1089.18 372.105 1097.2 377.829 1103.98 384.754C1103.12 382.993 1102 381.365 1100.63 379.95C1109.9 385.915 1117.9 393.867 1123.92 403.114C1126.67 407.344 1129.07 412.027 1129.22 417.071C1120.61 405.102 1110.38 393.427 1096.63 388.076C1098.83 388.103 1101.02 388.743 1102.9 389.891C1098.99 387.463 1095.77 383.793 1091.72 381.351C1088.57 379.443 1085.25 377.815 1082.11 375.881C1074.46 371.144 1066.99 366.22 1058.97 362.044M854.955 243.57C852.914 244.558 850.967 245.732 849.126 247.066C848.939 247.426 848.752 247.787 848.552 248.147C848.552 248.174 848.525 248.2 848.512 248.227C846.845 251.376 844.964 254.538 842.736 257.887C840.655 261.023 838.373 264.065 836.172 267.028C834.411 269.389 832.584 271.831 830.876 274.286C829.382 276.434 827.515 278.676 825.54 281.051C822.619 284.547 819.617 288.163 817.789 291.539L817.976 291.659C818.51 292.019 819.924 292.967 819.217 294.448C814.174 304.789 810.025 315.53 806.09 326.071L809.492 322.708C809.719 322.482 810.025 322.361 810.332 322.361C810.479 322.361 810.626 322.388 810.773 322.441C811.213 322.615 811.506 323.042 811.533 323.522C812.12 341.522 805.983 370.357 787.04 371.05C780.277 371.304 774.1 373.239 765.015 377.976C759.586 380.791 752.422 381.405 745.512 381.992C741.523 382.325 737.761 382.646 734.48 383.366C727.503 384.901 720.659 388.423 714.696 393.56C701.342 405.089 694.366 423.823 696.914 441.289C696.954 441.569 696.887 441.862 696.74 442.103C696.473 442.53 696.58 442.69 696.66 442.81C697.194 443.57 699.248 444.237 701.209 444.237C701.743 444.237 702.25 444.184 702.743 444.077C705.545 443.45 707.546 440.755 709.493 437.819L710.854 435.765C715.75 428.346 720.806 420.66 728.503 416.07C738.562 410.066 745.072 408.785 751.102 408.785C753.236 408.785 755.317 408.945 757.478 409.118C759.773 409.292 762.121 409.479 764.749 409.479C765.042 409.479 765.349 409.479 765.656 409.479C769.258 409.425 772.833 409.225 776.288 409.038C780.477 408.811 784.546 408.585 788.614 408.585C791.362 408.585 794.097 408.691 796.872 408.958C795.925 408.411 795.271 407.971 794.858 407.544C794.497 407.17 794.431 406.61 794.657 406.156C794.871 405.756 795.284 405.516 795.725 405.516C795.791 405.516 795.845 405.516 795.911 405.529C798.566 405.943 801.394 406.436 804.289 406.943C812.453 408.371 821.631 409.972 829.222 409.999L828.608 407.597C828.488 407.117 828.662 406.623 829.062 406.33C829.275 406.183 829.516 406.103 829.769 406.103C829.996 406.103 830.209 406.17 830.409 406.29C834.025 408.571 837.079 410.573 839.881 412.494C837.346 405.516 836.052 398.084 836.052 390.665C836.052 386.969 836.372 383.273 837.013 379.63C837.173 378.669 837.4 377.655 838.107 376.988C839.107 387.449 842.896 397.63 848.979 406.21C848.806 404.061 848.726 401.913 848.726 399.752C848.726 393.547 849.433 387.356 850.82 381.311C852.434 389.918 854.342 399.111 860.652 405.182C859.905 401.473 859.331 399.285 859.331 396.869C859.331 395.135 859.624 393.293 860.385 390.678C862.039 399.978 866.441 407.29 873.432 414.696C874.712 411.92 875.846 408.918 876.793 405.756C878.381 400.485 876.447 393.147 876.42 393.067C876.246 392.426 876.633 391.772 877.274 391.599C877.38 391.572 877.487 391.559 877.58 391.559C878.114 391.559 878.594 391.919 878.741 392.453C878.834 392.786 880.876 400.525 879.088 406.45C878.047 409.892 876.807 413.148 875.393 416.15C872.431 422.542 868.602 428.226 863.346 434.03C857.383 440.648 850.193 446.626 842.562 452.977L839.521 455.512C835.065 459.222 830.022 463.425 824.206 465.973C820.618 467.561 816.936 468.348 813.454 468.348C810.612 468.348 807.904 467.815 805.503 466.734C804.276 466.187 803.115 465.506 801.995 464.853C800.247 463.825 798.593 462.838 796.765 462.411C796.032 462.237 795.284 462.157 794.551 462.157C790.362 462.157 786.2 464.746 782.251 467.441L778.009 470.337C783.598 472.085 789.895 474.46 794.071 479.383C794.417 479.797 794.751 480.237 795.084 480.664C795.845 481.652 796.552 482.572 797.446 483.266C798.82 484.32 800.634 484.801 802.675 485.268C811.44 487.296 822.218 489.311 833.291 489.311C844.363 489.311 855.409 487.349 865.187 481.491C865.374 481.371 865.588 481.318 865.801 481.318C866.095 481.318 866.388 481.425 866.601 481.625C866.988 481.985 867.108 482.546 866.882 483.026C866.775 483.253 866.735 484.053 867.322 485.494C868.082 487.349 869.363 488.91 870.043 489.164C870.097 489.177 870.15 489.19 870.203 489.19C870.497 489.19 870.844 488.87 871.564 488.11C872.298 487.322 873.138 486.442 874.339 486.108C876.54 485.508 879.275 482.946 881.916 480.464C884.09 478.423 886.145 476.501 888.026 475.514C888.199 475.42 888.386 475.38 888.586 475.38C888.893 475.38 889.2 475.5 889.427 475.727C890.667 476.955 891.294 478.116 891.708 478.876L891.868 479.183C892.068 479.036 892.388 478.769 892.868 478.316C900.632 471.07 906.195 465.413 909.931 459.635C909.944 459.609 909.957 459.582 909.971 459.569C913.452 454.191 915.533 448.507 917.148 439.994C917.788 436.592 918.415 432.509 919.095 427.132C919.175 426.531 919.696 426.077 920.283 426.077C920.336 426.077 920.389 426.077 920.443 426.077C921.11 426.198 921.563 426.758 921.483 427.425C920.79 432.842 920.163 436.979 919.509 440.421L919.789 440.475C919.909 440.555 920.016 440.635 920.136 440.715C922.684 442.409 924.551 443.143 925.939 443.143C925.939 443.143 925.939 443.143 925.952 443.143C931.675 443.143 929.1 430.761 932.542 424.263C932.542 424.249 932.556 424.236 932.569 424.209C932.636 424.089 932.702 423.969 932.769 423.863C932.769 423.836 932.796 423.823 932.809 423.796C932.809 423.796 932.809 423.782 932.822 423.769C932.822 423.769 932.836 423.742 932.849 423.729C932.849 423.702 932.876 423.689 932.889 423.662C935.024 427.532 937.158 431.415 939.279 435.298C942.094 440.408 945.095 445.732 949.978 448.934C946.576 444.251 944.842 438.447 944.842 432.656C944.842 428.359 945.816 424.076 947.777 420.26C960.197 443.103 979.673 462.037 1002.86 473.806C1002.14 469.91 1001.78 465.947 1001.78 461.997C1001.78 460.383 1001.84 458.781 1001.96 457.167C1005.99 463.465 1010.3 470.03 1016.87 473.606C1019.68 475.127 1022.76 476.047 1025.79 477.075C1025.82 477.075 1025.86 477.102 1025.88 477.115C1026.1 477.195 1026.31 477.262 1026.52 477.342C1026.66 477.382 1026.79 477.435 1026.92 477.489C1026.96 477.489 1026.99 477.515 1027.03 477.529C1027.03 477.529 1027.11 477.555 1027.15 477.569C1027.22 477.595 1027.28 477.609 1027.34 477.635C1027.39 477.649 1027.44 477.675 1027.5 477.689C1027.54 477.702 1027.59 477.715 1027.63 477.742C1027.87 477.822 1028.1 477.916 1028.34 477.996C1028.35 477.996 1028.37 477.996 1028.38 478.009C1035.76 480.651 1043.36 483.68 1050.88 483.693H1050.91C1053.11 483.693 1055.3 483.426 1057.47 482.826C1057.54 482.812 1057.62 482.786 1057.69 482.772C1051.16 478.076 1046.03 471.444 1043.15 463.919C1049.84 464.239 1054.93 469.763 1059.9 474.259C1059.93 474.286 1059.97 474.313 1059.99 474.34C1059.99 474.34 1060.02 474.366 1060.03 474.38C1060.05 474.393 1060.08 474.42 1060.09 474.433C1060.17 474.5 1060.25 474.58 1060.33 474.646C1060.34 474.646 1060.36 474.673 1060.37 474.686C1060.4 474.713 1060.42 474.74 1060.45 474.767C1069.97 483.026 1088.81 490.538 1104.96 490.672C1102.26 480.811 1089.12 468.295 1075.84 466.774C1075.19 466.707 1074.71 466.107 1074.79 465.44C1074.86 464.826 1075.38 464.372 1075.98 464.372C1076.03 464.372 1076.07 464.372 1076.12 464.372C1090.69 466.08 1104.59 479.477 1107.37 490.351C1107.93 492.54 1108.62 494.995 1109.39 497.45C1113.08 509.125 1119 523.149 1124.59 527.499C1139.94 539.441 1155.88 547.38 1175.13 556.52C1175.79 556.827 1176.55 556.933 1177.14 556.933C1177.4 556.933 1177.63 556.907 1177.8 556.867C1177.76 556.773 1177.75 556.68 1177.74 556.587C1177.66 555.933 1178.12 555.332 1178.79 555.252L1180.39 555.052C1179.64 549.675 1176.67 544.618 1174.03 540.134C1172.19 537.012 1170.29 534.744 1168.29 532.329C1166.32 529.967 1164.29 527.525 1162.35 524.243L1161.87 523.429C1160.51 521.107 1159.34 519.092 1157.39 517.384C1156.31 516.437 1155.26 514.769 1154.14 512.995C1153.22 511.527 1152.26 510.019 1151.48 509.312C1148.45 506.51 1146.87 502.747 1145.33 499.091C1144.41 496.903 1143.45 494.634 1142.21 492.66C1142.01 492.326 1141.8 492.019 1141.58 491.699C1140.82 490.565 1140.05 489.391 1139.64 487.963C1139.22 486.455 1139.28 484.934 1139.38 483.373C1139.86 480.624 1140.92 473.299 1140.28 470.817C1139.49 467.735 1138.16 459.035 1138.49 451.923C1138.86 443.557 1146.05 441.129 1149.51 439.954C1150.2 439.714 1150.8 439.674 1151.28 439.674C1151.42 439.674 1151.54 439.674 1151.64 439.674C1151.75 439.674 1151.84 439.674 1151.92 439.674C1152.28 439.674 1152.31 439.634 1152.46 439.447C1158.33 431.962 1157.66 419.926 1151 413.148C1150.64 412.774 1150.55 412.214 1150.79 411.747C1151 411.347 1151.42 411.107 1151.86 411.107C1151.92 411.107 1151.99 411.107 1152.06 411.12C1152.51 411.2 1152.98 411.24 1153.44 411.24C1155.32 411.24 1157.23 410.613 1158.75 409.492C1150.8 404.488 1145.99 396.015 1141.33 387.796C1140.72 386.715 1140.1 385.634 1139.49 384.567C1129.76 367.808 1118.48 355.199 1105.91 347.06C1100.26 343.404 1094 340.375 1086.94 337.879C1090.78 339.841 1094.79 342.056 1096.97 344.738C1093.15 342.283 1087.78 339.868 1083.61 338.04C1094.44 342.803 1103.63 351.249 1109.26 361.67C1103.2 359.655 1097.95 355.839 1092.17 353.091C1081.41 347.967 1069.29 346.673 1057.42 345.445C1067.4 351.463 1077.48 357.574 1085.77 365.767C1078.35 363.765 1071.33 360.496 1064.13 357.841C1057.71 355.466 1050.99 353.558 1044.19 353.558C1044.19 353.558 1044.17 353.558 1044.16 353.558C1043.65 353.558 1043.13 353.558 1042.63 353.584C1042.6 353.584 1042.57 353.584 1042.55 353.584C1042.49 353.584 1042.43 353.584 1042.37 353.584C1042.37 353.584 1042.37 353.584 1042.36 353.584C1042.36 353.584 1042.28 353.584 1042.25 353.584C1042.17 353.584 1042.09 353.584 1042 353.584C1041.88 353.584 1041.76 353.598 1041.64 353.611C1043.17 355.506 1044.03 356.653 1045.93 358.188C1053.81 364.579 1073.3 378.296 1081.46 384.34C1064.92 374.666 1041.67 367.635 1029.69 358.895C1033.22 364.312 1037.2 369.449 1041.55 374.239C1035.58 372.678 1030.3 369.289 1025.11 365.953C1018.96 362.017 1012.84 358.068 1006.7 354.118C1001.99 351.089 997.096 347.847 994.468 342.923C995.041 348.314 996.682 353.598 999.243 358.374C1001 361.644 1003.27 364.993 1003.27 368.649C1003.27 368.929 1003.27 369.209 1003.23 369.489C990.439 363.965 979.513 354.185 972.63 342.083C972.43 346.553 972.243 351.036 972.043 355.506C966.213 350.969 962.424 343.924 961.837 336.572L962.985 335.731C961.437 333.543 960.37 330.848 959.45 328.286C958.662 326.111 956.261 320.867 956.261 317.331C956.261 316.317 956.448 315.436 956.942 314.809C956.942 314.809 956.968 314.783 956.968 314.769C956.968 314.769 956.982 314.756 956.995 314.743C957.262 314.422 957.555 314.275 957.849 314.275C957.849 314.275 957.889 314.275 957.902 314.275C958.876 314.329 959.956 315.93 960.904 317.825C960.917 317.865 960.944 317.891 960.957 317.932C960.957 317.945 960.97 317.958 960.984 317.972C960.984 317.972 960.984 317.998 960.997 317.998C960.997 318.012 961.01 318.025 961.024 318.038C961.024 318.052 961.037 318.065 961.05 318.078C961.09 318.158 961.13 318.252 961.17 318.332L963.612 318.479C958.849 309.499 956.288 299.331 956.288 289.164C956.288 288.203 956.315 287.256 956.355 286.295C956.355 286.215 956.355 286.135 956.355 286.055C956.355 285.561 956.235 285.027 955.768 284.907C955.581 284.867 955.514 284.454 955.514 283.933C955.514 283.613 955.541 283.253 955.594 282.906L953.593 283.773C953.433 283.84 953.273 283.88 953.113 283.88C952.833 283.88 952.566 283.786 952.353 283.6C952.006 283.306 951.846 282.852 951.952 282.412C953.26 276.621 956.408 271.271 960.744 267.201C950.111 270.35 938.585 271.884 929.634 273.072C926.833 273.446 923.978 273.739 921.216 274.019C916.921 274.46 912.492 274.913 908.21 275.674C907.329 275.821 906.449 275.994 905.568 276.181C903.247 277.742 900.859 279.17 898.231 280.09C895.75 280.971 893.135 281.371 890.641 282.159C889.907 282.385 889.2 282.652 888.493 282.959C889.627 283.093 890.761 283.159 891.908 283.159C891.908 283.159 891.935 283.159 891.948 283.159C892.255 283.159 892.548 283.159 892.855 283.146C892.908 283.146 892.962 283.146 893.015 283.146C892.135 284.267 892.655 284.6 891.588 285.548C887.519 289.137 883.263 292.513 878.821 295.635C884.411 294.781 889.8 292.7 894.523 289.604C889.333 295.222 884.411 301.092 879.768 307.177C885.745 303.187 891.734 299.171 897.711 295.181C900.552 293.273 903.607 291.312 907.036 291.205C900.699 298.237 895.55 306.35 891.921 315.076C898.778 309.325 905.928 303.908 913.346 298.891C913.359 298.891 913.372 298.864 913.399 298.864C913.399 298.864 913.412 298.864 913.426 298.851C913.479 298.811 913.532 298.784 913.586 298.744C914.733 297.984 916.04 297.25 917.334 297.236H917.361C917.668 297.236 917.975 297.276 918.282 297.37C918.308 297.37 918.322 297.37 918.348 297.383C918.362 297.383 918.375 297.383 918.402 297.396C918.202 297.583 918.121 297.783 918.121 297.984C918.121 298.811 919.562 299.651 920.669 299.665C920.87 299.665 921.056 299.665 921.256 299.665C921.256 299.665 921.27 299.665 921.283 299.665C924.338 299.665 927.393 299.171 930.301 298.197C930.328 298.197 930.354 298.184 930.381 298.17C930.408 298.17 930.448 298.144 930.475 298.144C930.555 298.117 930.621 298.09 930.701 298.064C924.992 302.427 918.695 306.003 912.052 308.698C913.159 308.791 914.279 308.832 915.387 308.832C915.387 308.832 915.4 308.832 915.413 308.832C922.804 308.832 930.194 306.897 936.638 303.281C936.691 303.254 936.731 303.227 936.784 303.201C936.784 303.201 936.798 303.201 936.811 303.187C936.905 303.134 936.985 303.081 937.078 303.041C937.198 302.974 937.305 302.907 937.425 302.84C929.06 313.355 913.933 315.997 904.301 325.39C901.806 327.832 899.645 330.768 896.47 332.195C893.802 333.41 890.721 333.423 887.999 334.517C884.464 335.945 881.903 339.014 879.501 341.962C879.501 341.962 879.595 341.936 879.635 341.922C879.688 341.909 879.742 341.896 879.795 341.882C879.942 341.842 880.075 341.816 880.222 341.776C880.248 341.776 880.275 341.776 880.289 341.762C881.543 341.482 882.837 341.322 884.117 341.322C884.144 341.322 884.171 341.322 884.197 341.322C884.357 341.322 884.531 341.322 884.691 341.322C884.731 341.322 884.758 341.322 884.798 341.322C878.928 344.991 873.685 349.648 869.363 355.065C870.123 353.451 870.51 351.676 870.51 349.902C870.51 349.728 870.51 349.568 870.51 349.395H870.417C868.149 351.383 866.321 353.891 865.081 356.653C864.547 355.145 864.267 353.531 864.267 351.93C864.267 351.476 864.294 351.036 864.334 350.582C862.773 353.011 861.372 355.532 860.131 358.134C859.771 356.747 859.424 355.346 859.064 353.958C857.837 355.346 856.61 356.733 855.369 358.121C853.795 354.932 854.208 351.156 853.635 347.673C853.101 349.541 852.567 351.396 852.021 353.277C850.593 350.275 849.513 347.1 848.792 343.857C848.659 344.017 848.525 344.177 848.392 344.324C848.445 343.75 848.499 343.203 848.539 342.643V342.616C848.432 342.029 848.325 341.442 848.232 340.842C848.232 340.842 848.232 340.975 848.232 341.042C848.232 343.75 847.512 346.459 846.151 348.807C844.99 343.404 843.83 338.013 842.696 332.622C842.629 336.892 841.829 341.135 840.348 345.138C838.24 338.787 837.173 332.102 837.173 325.404C837.173 322.015 837.453 318.639 838 315.303C836.146 321.214 834.465 327.165 832.917 333.169C832.904 332.395 832.891 331.622 832.891 330.848C832.891 320.627 834.305 310.406 837.133 300.585C833.278 306.71 829.849 313.101 826.914 319.719C826.848 318.572 826.807 317.438 826.807 316.29C826.807 306.577 829.342 296.889 834.131 288.43C829.929 294.034 825.74 299.638 821.538 305.229C824.633 293.78 828.889 279.984 843.59 270.684C843.856 270.176 844.136 269.669 844.403 269.162C847.565 263.331 851.394 257.861 855.809 252.91C852.021 254.592 848.392 256.633 845.004 259.022C845.377 258.435 845.751 257.861 846.124 257.274C849.059 252.71 851.994 248.16 854.942 243.597" fill="#E0D8C8"/>
<path d="M1106.69 498.984C1104.86 498.984 1101.66 498.984 1097.79 498.984C1099.38 507.804 1096.48 518.212 1090.73 523.763L1089.48 524.963C1082.53 531.675 1076.52 537.466 1066.91 540.281C1066 540.762 1063.48 544.898 1063.49 545.939C1064.72 550.129 1066.32 552.384 1067.36 552.73C1067.44 552.757 1067.53 552.77 1067.64 552.77C1067.83 552.77 1068.07 552.704 1068.39 552.464L1068.64 552.277C1070.59 550.796 1073.52 548.567 1076.12 548.567C1076.83 548.567 1077.52 548.741 1078.15 549.128C1078.74 548.928 1080.07 547.994 1080.9 547.42C1082.57 546.246 1083.99 545.245 1085.13 545.245C1085.57 545.245 1085.96 545.392 1086.3 545.739C1086.81 546.246 1087.2 546.646 1087.5 546.98C1087.73 547.22 1087.96 547.46 1088.12 547.607C1088.21 547.567 1088.3 547.5 1088.44 547.447C1088.96 547.18 1089.74 546.779 1090.98 546.326L1093.51 545.405C1106.46 540.668 1115.16 537.493 1122.32 528.606C1115.45 522.228 1109.54 505.389 1107.49 498.998C1107.26 498.998 1106.99 498.998 1106.7 498.998" fill="#DAD4C6"/>
<path d="M843.602 270.643C828.901 279.943 824.646 293.726 821.551 305.188C825.753 299.584 829.942 293.98 834.144 288.389L836.585 289.016C838.226 282.651 840.587 276.487 843.602 270.656" fill="#F0ECDB"/>
<path d="M870.428 254.297C860.97 257.819 851.032 261.676 844.415 269.121C844.135 269.628 843.868 270.135 843.601 270.642C840.586 276.473 838.212 282.638 836.584 289.002C835.984 291.284 835.504 293.592 835.104 295.927C837.238 290.75 840.333 285.947 844.188 281.85C842.414 292.031 840.026 300.144 840.026 308.23C840.026 310.245 840.173 312.259 840.506 314.301C840.573 314.648 840.626 315.008 840.706 315.382C840.88 316.209 841.067 317.036 841.307 317.877C843.281 314.007 847.777 308.483 851.192 305.788C848.364 313.514 847.617 319.465 847.617 324.588C847.617 330.526 848.631 335.356 848.631 340.56C848.631 341.227 848.617 341.908 848.577 342.588V342.615C848.657 343.015 848.751 343.429 848.844 343.829C852.859 339.079 856.648 331.26 861.771 328.018C859.116 334.369 856.181 340.6 852.979 346.685C859.343 338.412 868.307 332.154 878.273 329.032C872.456 333.889 866.627 338.772 860.797 343.629C859.489 347.018 858.662 350.594 858.396 354.223C858.609 354.103 858.809 353.957 859.023 353.81C862.878 351.315 866.44 348.393 869.628 345.11C870.202 346.471 870.522 347.926 870.575 349.393C870.575 349.567 870.575 349.727 870.575 349.9C870.575 351.688 870.188 353.45 869.428 355.064C873.75 349.647 878.993 344.99 884.863 341.321C884.863 341.321 884.796 341.321 884.756 341.321C884.596 341.321 884.422 341.321 884.262 341.321C884.262 341.321 884.209 341.321 884.182 341.321C882.902 341.321 881.608 341.481 880.354 341.761C880.327 341.761 880.3 341.761 880.287 341.774C880.14 341.801 880.007 341.841 879.86 341.881C879.807 341.894 879.753 341.908 879.7 341.921C879.66 341.921 879.607 341.948 879.567 341.961C881.968 338.999 884.529 335.93 888.064 334.516C890.786 333.422 893.854 333.408 896.535 332.194C899.71 330.766 901.871 327.831 904.366 325.389C913.998 315.995 929.126 313.354 937.49 302.839C937.37 302.906 937.263 302.973 937.143 303.039C937.05 303.093 936.97 303.146 936.876 303.186C936.876 303.186 936.863 303.186 936.85 303.199C936.796 303.226 936.756 303.253 936.703 303.279C930.273 306.909 922.869 308.83 915.479 308.83C915.479 308.83 915.465 308.83 915.452 308.83C914.345 308.83 913.224 308.79 912.117 308.697C918.76 306.001 925.07 302.439 930.766 298.062C930.686 298.089 930.62 298.116 930.54 298.142C930.513 298.142 930.473 298.169 930.446 298.169C930.42 298.169 930.393 298.182 930.366 298.196C927.458 299.17 924.403 299.663 921.348 299.663C921.348 299.663 921.335 299.663 921.322 299.663C921.121 299.663 920.935 299.663 920.735 299.663C919.627 299.65 918.187 298.81 918.187 297.982C918.187 297.782 918.267 297.582 918.467 297.395C918.467 297.395 918.44 297.395 918.413 297.382C918.387 297.382 918.373 297.368 918.347 297.368C918.04 297.275 917.733 297.235 917.426 297.235H917.4C916.105 297.235 914.798 297.982 913.651 298.743C913.598 298.783 913.544 298.81 913.491 298.85C913.491 298.85 913.477 298.85 913.464 298.863C913.451 298.863 913.437 298.89 913.411 298.89C905.994 303.893 898.857 309.324 891.986 315.075C895.628 306.348 900.764 298.236 907.101 291.204C903.672 291.311 900.631 293.272 897.776 295.18C891.8 299.17 885.81 303.186 879.833 307.176C884.476 301.091 889.398 295.22 894.588 289.603C889.879 292.712 884.476 294.78 878.886 295.634C883.315 292.512 887.584 289.136 891.653 285.546C892.72 284.599 892.2 284.266 893.08 283.145C893.08 283.145 892.974 283.145 892.92 283.145C892.613 283.145 892.32 283.145 892.013 283.158C892.013 283.158 891.986 283.158 891.973 283.158C890.839 283.158 889.692 283.091 888.558 282.958C885.983 284.012 883.529 285.413 881.101 286.814C877.726 288.749 874.351 290.684 870.962 292.632C872.576 288.202 876.098 284.759 879.527 281.503C879.366 281.49 879.206 281.477 879.046 281.477C879.046 281.477 879.033 281.477 879.02 281.477C876.952 281.477 875.031 282.598 873.257 283.718C873.257 283.718 873.163 283.785 873.11 283.812C873.07 283.839 873.03 283.865 872.99 283.892C876.111 280.823 879.393 277.901 882.808 275.139L882.528 275.246C879.94 276.793 877.579 278.768 875.631 281.077C878.619 277.407 881.794 273.871 885.143 270.522C876.845 275.699 869.241 282.011 862.598 289.189C868.507 279.916 876.125 271.736 884.943 265.172C875.765 268.961 867.814 275.125 859.996 281.237C863.918 272.577 870.028 264.945 877.592 259.22C869.161 262.023 861.104 265.919 853.66 270.762C858.436 264.478 863.452 258.006 870.469 254.364" fill="#F8F5E5"/>
<path d="M844.191 281.838C840.336 285.921 837.241 290.724 835.107 295.915C835.507 293.593 836 291.271 836.587 288.99L834.146 288.363C829.37 296.822 826.822 306.509 826.822 316.223C826.822 317.371 826.862 318.518 826.929 319.652C829.864 313.034 833.292 306.643 837.148 300.518C834.333 310.339 832.905 320.56 832.905 330.78C832.905 331.554 832.905 332.328 832.932 333.102C834.48 327.098 836.16 321.147 838.015 315.236L840.509 314.288C840.176 312.247 840.029 310.232 840.029 308.217C840.029 300.118 842.417 292.005 844.191 281.838Z" fill="#F0ECDB"/>
<path d="M1097.77 498.997C1097.29 498.997 1096.8 498.997 1096.29 498.997C1095.97 498.997 1095.65 498.997 1095.33 498.997C1097.13 507.911 1093.64 517.611 1089.05 522.041L1087.79 523.242C1081.07 529.727 1075.27 535.331 1066.22 537.973C1064.6 538.44 1062.65 541.869 1062.27 542.549C1060.78 545.285 1061.05 546.192 1061.15 546.526C1061.95 549.288 1063.73 554.064 1066.6 555.012C1066.74 555.065 1066.9 555.105 1067.08 555.132C1067.25 555.159 1067.42 555.185 1067.62 555.185C1068.26 555.185 1069.02 554.985 1069.81 554.385L1070.06 554.198C1071.53 553.09 1074.31 550.982 1076.07 550.982C1076.41 550.982 1076.72 551.062 1076.96 551.249C1077.27 551.476 1077.62 551.583 1077.98 551.583C1079.12 551.583 1080.56 550.582 1082.26 549.394C1083.03 548.847 1084.26 547.993 1084.87 547.74C1085.22 548.1 1085.51 548.394 1085.75 548.647C1086.63 549.568 1087.18 550.075 1087.94 550.075C1088.37 550.075 1088.86 549.915 1089.51 549.581C1090.01 549.328 1090.69 548.981 1091.8 548.58L1094.3 547.66C1107.16 542.963 1116.57 539.52 1124.16 530.114C1123.84 529.873 1123.53 529.633 1123.21 529.38C1122.91 529.139 1122.6 528.873 1122.29 528.592C1115.13 537.479 1106.43 540.655 1093.48 545.391L1090.96 546.312C1089.71 546.766 1088.93 547.166 1088.41 547.433C1088.29 547.5 1088.18 547.553 1088.09 547.593C1087.93 547.446 1087.7 547.206 1087.47 546.966C1087.17 546.646 1086.78 546.232 1086.27 545.725C1085.93 545.378 1085.54 545.231 1085.1 545.231C1083.97 545.231 1082.55 546.232 1080.87 547.406C1080.04 547.98 1078.71 548.914 1078.12 549.114C1077.5 548.714 1076.8 548.554 1076.09 548.554C1073.49 548.554 1070.54 550.795 1068.61 552.263L1068.36 552.45C1068.04 552.69 1067.81 552.757 1067.61 552.757C1067.5 552.757 1067.42 552.73 1067.33 552.717C1066.29 552.37 1064.69 550.115 1063.46 545.925C1063.43 544.884 1065.97 540.748 1066.88 540.268C1076.49 537.452 1082.5 531.661 1089.45 524.95L1090.7 523.749C1096.45 518.198 1099.35 507.791 1097.76 498.971" fill="#DFD7BE"/>
<path d="M969.733 264.01C969.733 264.01 969.733 264.01 969.72 264.01C966.878 265.225 963.877 266.265 960.809 267.173C956.486 271.242 953.325 276.593 952.017 282.384C951.924 282.824 952.071 283.291 952.418 283.571C952.631 283.758 952.911 283.852 953.178 283.852C953.338 283.852 953.498 283.825 953.658 283.745L955.659 282.878L955.766 282.838C960.235 287.908 963.997 294.126 967.652 300.157C968.519 301.585 969.373 302.986 970.213 304.36C970.44 304.72 970.827 304.934 971.241 304.934C971.241 304.934 971.254 304.934 971.267 304.934C971.307 304.934 971.334 304.934 971.374 304.934C973.589 304.934 975.456 306.882 977.257 308.777L977.951 309.497C984.701 316.409 994.186 319.611 1001.7 321.626C1014.14 324.962 1027.3 326.71 1040.02 328.391C1044.24 328.951 1048.45 329.512 1052.66 330.126C1056.34 330.659 1059.62 331.18 1062.7 331.713C1065.5 332.22 1068.16 332.741 1070.68 333.288C1074.15 334.048 1077.38 334.862 1080.42 335.743C1082.7 336.397 1084.9 337.104 1087.03 337.865C1094.1 340.36 1100.35 343.389 1106 347.045C1118.56 355.171 1129.86 367.793 1139.58 384.552C1140.19 385.62 1140.81 386.7 1141.42 387.781C1146.09 396.001 1150.89 404.473 1158.84 409.477C1157.32 410.598 1155.43 411.225 1153.54 411.225C1153.07 411.225 1152.6 411.185 1152.15 411.105C1152.08 411.105 1152.01 411.092 1151.95 411.092C1151.51 411.092 1151.09 411.332 1150.88 411.732C1150.64 412.199 1150.72 412.759 1151.09 413.133C1157.75 419.911 1158.42 431.947 1152.55 439.432C1152.4 439.619 1152.37 439.659 1152.01 439.659C1151.93 439.659 1151.84 439.659 1151.73 439.659C1151.63 439.659 1151.49 439.659 1151.37 439.659C1150.89 439.659 1150.29 439.699 1149.6 439.939C1146.14 441.114 1138.95 443.542 1138.58 451.908C1138.25 459.02 1139.57 467.72 1140.37 470.802C1141.01 473.284 1139.95 480.609 1139.47 483.358C1139.37 484.919 1139.31 486.44 1139.73 487.948C1140.14 489.376 1140.92 490.55 1141.68 491.684C1141.89 492.004 1142.09 492.311 1142.3 492.645C1143.56 494.62 1144.5 496.888 1145.42 499.076C1146.96 502.719 1148.55 506.495 1151.57 509.297C1152.33 510.004 1153.29 511.512 1154.23 512.98C1155.35 514.754 1156.4 516.422 1157.48 517.37C1159.43 519.077 1160.62 521.092 1161.97 523.414L1162.45 524.228C1164.38 527.497 1166.42 529.939 1168.38 532.314C1170.38 534.716 1172.28 536.997 1174.12 540.12C1176.76 544.616 1179.74 549.66 1180.48 555.037L1178.88 555.237C1178.23 555.317 1177.75 555.918 1177.83 556.572C1177.83 556.665 1177.87 556.772 1177.89 556.852C1177.75 556.305 1177.96 555.691 1178.47 555.424C1178.67 555.317 1178.87 555.277 1179.07 555.277C1179.48 555.277 1179.86 555.477 1180.07 555.878C1180.36 556.425 1180.46 556.985 1180.35 557.479L1181.94 557.279C1182.58 557.199 1183.04 556.638 1182.99 555.998C1182.48 549.633 1179.14 543.936 1176.17 538.905C1174.24 535.61 1172.18 533.154 1170.21 530.779C1168.22 528.378 1166.33 526.123 1164.5 523.014L1164.02 522.2C1162.62 519.798 1161.29 517.53 1159.04 515.555C1158.22 514.848 1157.22 513.247 1156.23 511.699C1155.18 510.031 1154.18 508.456 1153.17 507.536C1150.53 505.094 1149.11 501.718 1147.61 498.155C1146.65 495.874 1145.65 493.512 1144.3 491.377C1144.09 491.044 1143.88 490.71 1143.65 490.363C1142.97 489.336 1142.32 488.362 1142.02 487.307C1141.7 486.173 1141.76 484.932 1141.84 483.665C1142.01 482.651 1143.56 473.644 1142.68 470.228C1141.94 467.373 1140.65 458.833 1140.97 452.042C1141.24 446.131 1145.64 443.836 1150.36 442.234C1150.73 442.114 1151.04 442.088 1151.36 442.088C1151.47 442.088 1151.56 442.088 1151.67 442.088C1151.76 442.088 1151.87 442.088 1151.97 442.088C1152.71 442.088 1153.63 441.981 1154.43 440.94C1160.54 433.161 1160.45 421.459 1154.6 413.6C1157.28 413.333 1159.9 412.092 1161.74 410.131C1161.99 409.864 1162.1 409.49 1162.05 409.117C1161.99 408.757 1161.77 408.436 1161.43 408.25C1153.2 403.726 1148.27 395.026 1143.49 386.62C1142.88 385.526 1142.25 384.445 1141.64 383.365C1131.72 366.272 1120.17 353.383 1107.28 345.056C1099.72 340.173 1091.14 336.383 1081.06 333.461C1075.72 331.914 1069.84 330.566 1063.09 329.365C1059.98 328.818 1056.67 328.298 1052.98 327.764C1048.77 327.15 1044.55 326.59 1040.32 326.029C1027.67 324.361 1014.6 322.627 1002.3 319.331C995.08 317.396 985.982 314.327 979.645 307.843L978.965 307.135C977.017 305.107 974.829 302.826 971.894 302.585C971.161 301.398 970.427 300.184 969.68 298.956C965.811 292.578 961.822 285.987 956.94 280.636C956.713 280.382 956.38 280.249 956.059 280.249C955.899 280.249 955.739 280.276 955.579 280.342L954.979 280.596C957.34 273.377 962.823 267.173 969.707 264.05M935.529 159.32C930.446 159.32 925.937 162.296 922.095 165.098C918.493 167.74 914.078 173.077 915.092 177.974C903.632 178.348 892.346 182.15 883.008 188.782C879.927 184.712 874.964 182.858 869.988 182.858C866.48 182.858 862.958 183.778 860.116 185.499C853.513 189.462 848.831 197.268 847.27 206.942C846.856 209.557 846.429 213.467 847.563 217.189C848.577 220.539 852.806 224.595 854.647 225.048C854.46 225.876 854.26 226.69 854.06 227.477C852.339 234.229 849.831 240.647 846.389 247.078C846.376 247.105 846.363 247.145 846.336 247.171C846.349 247.145 846.363 247.118 846.376 247.091C846.589 246.678 847.003 246.451 847.443 246.451C847.63 246.451 847.83 246.491 848.003 246.584C848.564 246.878 848.791 247.558 848.55 248.119C848.737 247.758 848.937 247.398 849.124 247.038C852.259 240.98 854.594 234.909 856.261 228.544C856.301 228.384 856.341 228.224 856.381 228.051C856.541 227.384 856.715 226.716 856.875 226.036C857.275 225.716 857.448 225.169 857.328 224.608C857.168 223.834 856.421 222.9 855.181 222.687C854.313 222.447 850.672 219.218 849.858 216.469C849.111 214 849.044 211.078 849.644 207.302C851.098 198.336 855.367 191.13 861.357 187.528C863.825 186.047 866.88 185.259 869.921 185.259C874.591 185.259 879.233 187.101 881.701 191.077C881.874 191.357 882.168 191.557 882.501 191.624C882.581 191.651 882.675 191.664 882.755 191.664C883.008 191.664 883.235 191.557 883.435 191.41C892.987 184.299 904.833 180.362 916.759 180.309C917.173 180.309 917.56 180.096 917.773 179.735C917.986 179.375 918.013 178.935 917.826 178.574C915.959 174.838 920.027 169.554 923.509 167.006C927.191 164.311 931.153 161.682 935.515 161.682C935.582 161.682 935.649 161.682 935.716 161.682C938.05 161.735 940.585 163.07 942.012 164.991C942.733 165.965 943.48 167.513 942.959 169.328C942.599 170.595 941.665 171.876 940.772 173.104C939.237 175.225 937.49 177.614 938.437 180.456C938.677 181.19 939.064 181.83 939.584 182.377C940.398 183.231 941.572 183.858 943.106 184.285C944.467 184.659 945.921 184.819 947.415 184.979C960.822 186.22 973.228 194.266 979.858 205.981C980.019 206.275 980.299 206.475 980.619 206.555C990.491 208.903 1001.64 211.545 1010.99 217.029C1011.3 217.216 1011.61 217.39 1011.92 217.576C1014.04 218.884 1016.04 220.338 1017.86 221.913C1018.72 222.647 1019.64 223.527 1019.88 224.515C1020.09 225.409 1019.87 226.396 1019.44 227.624C1018.61 229.972 1017.52 232.294 1016.17 234.495L1016.08 234.629C1015.8 235.096 1015.49 235.55 1015.18 236.017C1013.82 238.045 1012.22 240.006 1010.41 241.861L1010.35 241.914C1009.61 242.675 1008.82 243.422 1008.01 244.142C1009.03 243.555 1009.97 242.915 1010.79 242.234L1010.95 242.101C1011.07 242.021 1011.19 241.994 1011.33 241.994C1011.54 241.994 1011.75 242.101 1011.89 242.288C1012.09 242.581 1012.02 242.982 1011.73 243.195L1011.61 243.289C1009.53 245.01 1006.73 246.491 1003.64 247.612C997.334 252.108 989.583 255.698 981.086 257.979C980.152 258.233 979.218 258.473 978.271 258.713C975.616 259.38 972.882 260.088 970.24 261.115L968.813 261.729C969.293 261.529 969.747 261.328 970.2 261.128L971.174 263.317C973.642 262.356 976.297 261.675 978.871 261.022C979.818 260.781 980.766 260.541 981.713 260.288C993.932 257.005 1004.7 251.094 1012.04 243.622L1012.09 243.569C1014.41 241.194 1016.41 238.658 1018.04 236.017L1018.14 235.87C1019.61 233.481 1020.81 230.959 1021.72 228.398C1022.21 226.983 1022.61 225.475 1022.23 223.914C1021.81 222.26 1020.59 221.046 1019.44 220.072C1017.52 218.417 1015.41 216.883 1013.18 215.508C1003.48 209.544 991.945 206.742 981.686 204.3C974.616 192.171 961.609 183.845 947.642 182.551C946.268 182.417 944.934 182.257 943.746 181.937C942.039 181.457 941.078 180.736 940.718 179.655C940.158 177.987 941.345 176.359 942.719 174.478C943.733 173.077 944.787 171.636 945.267 169.955C945.881 167.807 945.414 165.525 943.947 163.523C942.079 160.988 938.877 159.294 935.769 159.24C935.689 159.24 935.609 159.24 935.515 159.24" fill="#DFD7BE"/>
<path d="M847.457 246.465C847.03 246.465 846.603 246.692 846.39 247.105C846.376 247.132 846.363 247.159 846.35 247.185C844.735 250.241 842.894 253.297 840.733 256.552C838.692 259.635 836.424 262.65 834.25 265.572C832.476 267.947 830.635 270.416 828.914 272.898C827.473 274.966 825.646 277.167 823.698 279.489C820.576 283.225 817.348 287.095 815.454 290.831C814.666 292.325 816.107 293.286 816.641 293.646L816.854 293.793C811.038 305.775 806.422 318.237 801.953 330.3C801.753 330.833 801.953 331.42 802.433 331.727C802.634 331.861 802.86 331.914 803.087 331.914C803.394 331.914 803.701 331.794 803.928 331.567L809.17 326.39C809.064 343.496 803.234 368.047 786.945 368.634C779.795 368.901 773.338 370.916 763.907 375.826C758.904 378.428 751.994 379.015 745.297 379.576C741.228 379.923 737.386 380.243 733.958 381.004C726.594 382.618 719.377 386.327 713.121 391.718C699.273 403.7 691.99 423.088 694.484 441.221C694.004 442.235 694.084 443.289 694.698 444.183C695.525 445.357 697.272 446.131 699.167 446.452C699.847 446.572 700.527 446.625 701.208 446.625C701.928 446.625 702.635 446.558 703.275 446.411C707.264 445.531 709.719 441.835 711.52 439.139L712.88 437.085C717.63 429.893 722.525 422.447 729.742 418.137C739.307 412.427 745.324 411.199 751.087 411.199C753.141 411.199 755.156 411.359 757.303 411.519C759.638 411.693 762.053 411.879 764.761 411.879C765.067 411.879 765.388 411.879 765.708 411.879C769.35 411.826 772.952 411.626 776.433 411.426C780.555 411.199 784.571 410.972 788.573 410.972C793.149 410.972 797.684 411.266 802.353 412.146H802.38C802.447 412.16 802.514 412.173 802.58 412.173C803.007 412.173 803.421 411.933 803.634 411.546C803.888 411.092 803.808 410.518 803.461 410.145C803.1 409.758 802.54 409.371 801.766 408.917C802.473 409.037 803.181 409.157 803.901 409.291C812.225 410.745 821.59 412.387 829.421 412.387C829.888 412.387 830.355 412.387 830.808 412.373C831.168 412.373 831.515 412.186 831.729 411.893C831.955 411.599 832.022 411.226 831.929 410.865L831.689 409.918C834.784 411.906 837.452 413.694 839.96 415.455C847.63 420.859 854.1 426.357 860.824 433.215C861.077 432.935 861.331 432.668 861.584 432.388C861.878 432.068 862.158 431.747 862.438 431.427C855.648 424.515 849.098 418.951 841.347 413.494C840.867 413.16 840.386 412.827 839.893 412.48C837.091 410.545 834.05 408.544 830.421 406.275C830.221 406.155 830.008 406.089 829.781 406.089C829.528 406.089 829.287 406.169 829.074 406.315C828.674 406.609 828.5 407.103 828.62 407.583L829.234 409.985C821.643 409.958 812.465 408.357 804.301 406.929C801.393 406.422 798.578 405.928 795.923 405.515C795.857 405.515 795.803 405.501 795.737 405.501C795.296 405.501 794.883 405.742 794.669 406.142C794.429 406.596 794.509 407.156 794.87 407.53C795.283 407.957 795.937 408.397 796.884 408.944C794.109 408.677 791.374 408.57 788.626 408.57C784.558 408.57 780.475 408.797 776.3 409.024C772.845 409.211 769.256 409.411 765.668 409.464C765.361 409.464 765.054 409.464 764.761 409.464C762.133 409.464 759.785 409.278 757.49 409.104C755.329 408.944 753.261 408.771 751.114 408.771C745.084 408.771 738.574 410.051 728.515 416.056C720.818 420.646 715.762 428.318 710.866 435.75L709.505 437.805C707.544 440.754 705.557 443.449 702.755 444.063C702.275 444.17 701.755 444.223 701.221 444.223C699.26 444.223 697.206 443.556 696.672 442.795C696.592 442.675 696.472 442.515 696.752 442.088C696.912 441.848 696.965 441.555 696.925 441.274C694.377 423.822 701.354 405.074 714.708 393.546C720.671 388.409 727.515 384.886 734.492 383.352C737.773 382.631 741.535 382.311 745.524 381.978C752.448 381.39 759.598 380.79 765.027 377.961C774.112 373.238 780.289 371.29 787.052 371.036C805.995 370.342 812.132 341.521 811.545 323.508C811.532 323.028 811.238 322.614 810.784 322.427C810.638 322.374 810.491 322.347 810.344 322.347C810.037 322.347 809.731 322.467 809.504 322.694L806.102 326.057C810.024 315.515 814.173 304.774 819.229 294.433C819.949 292.952 818.522 292.005 817.988 291.645L817.801 291.525C819.616 288.135 822.631 284.533 825.552 281.037C827.526 278.662 829.394 276.42 830.888 274.272C832.582 271.817 834.41 269.375 836.184 267.013C838.385 264.064 840.667 261.009 842.748 257.873C844.976 254.524 846.856 251.362 848.524 248.213C848.537 248.186 848.551 248.159 848.564 248.133C848.818 247.559 848.577 246.892 848.017 246.598C847.844 246.505 847.644 246.465 847.457 246.465Z" fill="#DFD7BE"/>
<path d="M912.706 459.756C912.479 460.129 912.252 460.49 912.012 460.863C911.812 461.17 911.612 461.477 911.412 461.784L915.814 464.119C919.389 468.709 926.967 472.552 933.063 475.634C934.624 476.421 936.078 477.155 937.332 477.836C949.071 484.24 960.157 488.31 970.896 490.151C975.178 490.885 979.394 491.272 983.583 491.299C983.743 491.299 983.903 491.299 984.049 491.299C986.491 491.299 988.945 491.179 991.333 491.072C993.694 490.965 996.136 490.845 998.537 490.845C998.857 490.845 999.191 490.845 999.511 490.845C1009.1 490.965 1018.75 493.154 1028.09 495.262C1037.78 497.45 1047.75 499.705 1057.81 499.705C1059.49 499.705 1061.18 499.638 1062.88 499.505C1067.53 499.131 1084.79 499.025 1095.35 498.985C1095.68 498.985 1096 498.985 1096.31 498.985C1096.81 498.985 1097.31 498.985 1097.79 498.985C1101.67 498.985 1104.86 498.985 1106.69 498.985C1106.99 498.985 1107.25 498.985 1107.47 498.985C1107.38 498.678 1107.29 498.397 1107.21 498.144C1107.05 497.624 1106.89 497.103 1106.73 496.583C1106.62 496.583 1106.5 496.583 1106.38 496.583C1104.26 496.583 1100.63 496.583 1096.29 496.596C1085.84 496.623 1067.56 496.73 1062.68 497.117C1061.06 497.25 1059.44 497.303 1057.81 497.303C1047.99 497.303 1038.16 495.075 1028.59 492.913C1019.15 490.779 1009.37 488.564 999.524 488.444C999.177 488.444 998.844 488.444 998.497 488.444C996.042 488.444 993.588 488.564 991.2 488.67C988.825 488.777 986.384 488.897 983.983 488.897C983.849 488.897 983.703 488.897 983.569 488.897C969.282 488.79 954.527 484.481 938.452 475.728C937.185 475.034 935.704 474.286 934.13 473.486C928.154 470.457 920.71 466.694 917.548 462.451C917.442 462.304 917.308 462.198 917.148 462.104L912.692 459.742M910.024 459.529C910.024 459.529 909.998 459.569 909.984 459.596C909.984 459.596 909.998 459.569 910.011 459.556C910.011 459.556 910.024 459.529 910.038 459.516" fill="#DFD7BE"/>
<path d="M1076.07 464.344C1075.47 464.344 1074.95 464.797 1074.88 465.411C1074.8 466.065 1075.28 466.665 1075.94 466.745C1089.21 468.253 1102.35 480.782 1105.06 490.643C1105.09 490.736 1105.11 490.843 1105.14 490.937C1105.59 492.698 1106.13 494.633 1106.73 496.607C1106.89 497.128 1107.05 497.648 1107.21 498.169C1107.29 498.422 1107.38 498.702 1107.47 499.009C1109.53 505.401 1115.44 522.24 1122.31 528.618C1122.62 528.898 1122.92 529.165 1123.23 529.405C1123.55 529.645 1123.86 529.898 1124.18 530.139C1139.42 541.827 1155.23 549.686 1174.23 558.693C1174.72 558.933 1175.35 559.12 1176 559.24C1176.4 559.307 1176.83 559.347 1177.24 559.347C1178.27 559.347 1179.26 559.107 1179.87 558.466C1180.14 558.186 1180.31 557.852 1180.38 557.492C1180.49 556.985 1180.38 556.438 1180.1 555.891C1179.88 555.504 1179.51 555.29 1179.1 555.29C1178.9 555.29 1178.68 555.344 1178.5 555.437C1177.99 555.704 1177.78 556.331 1177.92 556.865C1177.75 556.905 1177.52 556.932 1177.26 556.932C1176.67 556.932 1175.91 556.812 1175.26 556.518C1156.01 547.378 1140.05 539.439 1124.71 527.497C1119.11 523.147 1113.18 509.123 1109.51 497.448C1108.74 494.993 1108.05 492.538 1107.49 490.349C1104.71 479.488 1090.8 466.078 1076.24 464.37C1076.19 464.37 1076.15 464.37 1076.1 464.37" fill="#DFD7BE"/>
<path d="M877.607 391.518C877.501 391.518 877.394 391.518 877.301 391.558C876.66 391.731 876.287 392.385 876.447 393.025C876.473 393.105 878.408 400.431 876.82 405.715C875.86 408.877 874.739 411.879 873.459 414.655C873.392 414.801 873.325 414.935 873.258 415.082C870.55 420.899 867.109 426.116 862.466 431.413C862.186 431.734 861.906 432.054 861.612 432.374C861.359 432.654 861.106 432.935 860.852 433.201C855.169 439.339 848.619 444.797 841.082 451.081L838.04 453.616C833.718 457.219 828.809 461.302 823.299 463.717C820.004 465.172 816.656 465.892 813.521 465.892C811.013 465.892 808.638 465.425 806.544 464.491C805.437 463.997 804.396 463.384 803.289 462.73C801.461 461.649 799.567 460.542 797.379 460.021C796.472 459.808 795.578 459.714 794.671 459.714C789.789 459.714 785.066 462.596 780.957 465.412L774.647 469.708C774.261 469.975 774.06 470.429 774.14 470.882C774.207 471.336 774.541 471.723 774.981 471.856C780.771 473.604 787.974 475.779 792.297 480.89C792.617 481.277 792.937 481.677 793.244 482.091C794.057 483.158 794.911 484.252 796.045 485.133C797.806 486.481 799.874 487.028 802.195 487.575C805.583 488.362 809.252 489.136 813.147 489.803C819.484 490.897 826.354 491.684 833.358 491.684C843.963 491.684 854.862 489.883 864.614 484.586C864.747 485.226 864.961 485.853 865.174 486.387C866.015 488.442 867.616 490.79 869.27 491.391C869.63 491.524 869.977 491.591 870.297 491.591C871.644 491.591 872.618 490.55 873.379 489.736C873.926 489.163 874.486 488.562 875.033 488.415C877.808 487.668 880.769 484.893 883.624 482.197C885.345 480.583 886.986 479.035 888.413 478.101C889 478.808 889.36 479.462 889.654 480.009C890.067 480.783 890.441 481.57 891.441 481.73C891.548 481.744 891.641 481.757 891.735 481.757C892.575 481.757 893.376 481.17 894.563 480.063C902.073 473.057 907.57 467.493 911.425 461.809C911.638 461.502 911.838 461.195 912.025 460.888C912.265 460.515 912.492 460.155 912.719 459.781C915.974 454.43 917.988 448.72 919.562 440.433C920.216 436.991 920.843 432.855 921.537 427.437C921.617 426.783 921.163 426.21 920.496 426.09C920.443 426.09 920.39 426.09 920.336 426.09C919.736 426.09 919.229 426.53 919.149 427.144C918.469 432.521 917.842 436.604 917.201 440.006C915.587 448.519 913.506 454.19 910.024 459.581C910.024 459.581 910.011 459.608 909.998 459.621C909.998 459.621 909.984 459.648 909.971 459.661C906.236 465.452 900.673 471.096 892.909 478.341C892.428 478.795 892.108 479.048 891.908 479.209L891.748 478.902C891.335 478.141 890.708 476.98 889.467 475.753C889.24 475.526 888.933 475.406 888.626 475.406C888.44 475.406 888.253 475.446 888.066 475.539C886.185 476.527 884.131 478.448 881.956 480.489C879.315 482.971 876.58 485.547 874.379 486.134C873.178 486.467 872.338 487.348 871.604 488.135C870.884 488.896 870.537 489.216 870.244 489.216C870.19 489.216 870.137 489.216 870.084 489.189C869.417 488.936 868.136 487.375 867.362 485.52C866.775 484.079 866.815 483.265 866.922 483.051C867.149 482.571 867.029 482.011 866.642 481.65C866.415 481.45 866.121 481.343 865.841 481.343C865.628 481.343 865.414 481.397 865.228 481.517C855.449 487.375 844.257 489.336 833.331 489.336C822.405 489.336 811.48 487.321 802.715 485.293C800.661 484.813 798.86 484.332 797.486 483.292C796.605 482.611 795.885 481.677 795.125 480.69C794.791 480.263 794.458 479.822 794.111 479.409C789.935 474.485 783.639 472.11 778.049 470.362L782.291 467.467C786.24 464.771 790.416 462.183 794.591 462.183C795.325 462.183 796.072 462.263 796.806 462.436C798.633 462.863 800.287 463.837 802.035 464.878C803.156 465.532 804.316 466.226 805.543 466.759C807.945 467.84 810.653 468.374 813.494 468.374C816.963 468.374 820.645 467.573 824.246 465.999C830.063 463.45 835.119 459.247 839.561 455.538L842.603 453.003C850.22 446.665 857.424 440.674 863.387 434.055C868.629 428.251 872.458 422.567 875.433 416.176C876.847 413.173 878.088 409.918 879.128 406.475C880.916 400.551 878.861 392.799 878.781 392.478C878.635 391.945 878.154 391.584 877.621 391.584" fill="#DFD7BE"/>
<path d="M942.827 216.615C942.827 216.615 942.827 216.615 942.814 216.615C942.12 216.615 941.52 216.749 941.386 217.016C941.32 217.136 941.293 217.269 941.293 217.402C941.293 217.883 941.72 218.363 942.587 218.51C942.694 218.523 942.8 218.537 942.907 218.537C942.987 218.537 943.067 218.537 943.161 218.537C944.268 218.443 945.695 217.749 945.108 217.202C945.108 217.202 945.082 217.189 945.068 217.176C945.068 217.176 945.068 217.176 945.055 217.176C945.042 217.162 945.015 217.149 945.002 217.136C944.988 217.136 944.962 217.109 944.948 217.096C944.468 216.802 943.628 216.655 942.88 216.642C942.867 216.642 942.84 216.642 942.827 216.642" fill="#FFFCF4"/>
<path d="M942.829 216.616C942.829 216.616 942.869 216.616 942.882 216.616C943.629 216.616 944.47 216.777 944.95 217.07C944.976 217.07 944.99 217.097 945.003 217.11C945.016 217.11 945.043 217.137 945.056 217.15C945.056 217.15 945.056 217.15 945.07 217.15C945.07 217.15 945.097 217.163 945.11 217.177C945.697 217.711 944.269 218.418 943.162 218.511C943.082 218.511 942.989 218.511 942.909 218.511C942.789 218.511 942.682 218.511 942.589 218.484C941.721 218.338 941.295 217.871 941.295 217.377C941.295 217.244 941.321 217.11 941.388 216.99C941.521 216.723 942.122 216.59 942.815 216.59C942.815 216.59 942.815 216.59 942.829 216.59M945.844 212.066C942.655 212.066 940.094 213.934 939.56 215.936C939.053 217.804 940.361 219.525 943.135 220.646C944.309 221.113 945.577 221.273 946.844 221.273C948.405 221.273 949.966 221.033 951.34 220.819L955.262 220.206C955.849 220.126 956.396 220.019 956.716 219.699C957.116 219.298 957.103 218.591 956.876 218.084C956.596 217.457 956.062 216.95 955.422 216.403C952.634 214.028 949.992 212.654 947.351 212.2C947.231 212.173 947.111 212.16 946.977 212.146C946.591 212.093 946.19 212.066 945.817 212.066" fill="#DAD4C6"/>
<path d="M977.445 248.425C976.378 248.425 975.324 248.506 974.27 248.679C970.548 249.346 967.053 251.468 964.719 254.43C965.786 254.63 966.867 254.737 968 254.737C972.056 254.737 976.565 253.402 981.674 250.774C982.715 250.24 983.809 249.666 984.943 249.199C984.782 249.173 984.622 249.146 984.462 249.133C982.048 248.772 979.727 248.412 977.445 248.412" fill="#FDFAED"/>
<path d="M946.843 221.273C945.575 221.273 944.308 221.113 943.134 220.646C940.359 219.525 939.052 217.804 939.559 215.936C940.093 213.921 942.667 212.066 945.842 212.066C946.216 212.066 946.603 212.093 947.003 212.146C947.123 212.16 947.256 212.186 947.376 212.2C950.018 212.654 952.659 214.028 955.447 216.403C956.074 216.95 956.621 217.457 956.901 218.084C957.128 218.591 957.141 219.298 956.741 219.699C956.421 220.019 955.874 220.126 955.287 220.206L951.365 220.819C949.991 221.033 948.43 221.273 946.87 221.273M945.802 210.719C941.907 210.719 938.932 213.08 938.252 215.589C937.571 218.151 939.199 220.499 942.627 221.887C943.268 222.14 943.921 222.314 944.588 222.434C945.335 222.567 946.082 222.607 946.829 222.607C948.484 222.607 950.111 222.354 951.539 222.14L955.447 221.527C956.221 221.42 957.035 221.26 957.648 220.646C958.409 219.899 958.582 218.658 958.102 217.55C957.688 216.603 956.888 215.909 956.301 215.389C953.179 212.734 950.205 211.252 947.176 210.812C946.709 210.745 946.243 210.719 945.802 210.719Z" fill="#E7E3D5"/>
<path d="M967.989 254.751C966.868 254.751 965.774 254.644 964.707 254.444C967.042 251.482 970.537 249.347 974.259 248.693C975.313 248.506 976.366 248.439 977.434 248.439C979.728 248.439 982.049 248.786 984.451 249.16C984.611 249.187 984.771 249.213 984.931 249.227C983.797 249.694 982.69 250.254 981.663 250.801C976.553 253.43 972.044 254.764 967.989 254.764M977.434 247.092C976.3 247.092 975.166 247.172 974.032 247.372C969.563 248.173 965.547 250.775 963.013 254.497C962.893 254.684 962.866 254.911 962.946 255.111C963.026 255.311 963.2 255.471 963.413 255.525C963.853 255.631 964.294 255.725 964.734 255.805C965.774 255.978 966.842 256.072 967.949 256.072C972.231 256.072 976.967 254.711 982.316 251.949C984.17 250.988 986.265 249.894 988.253 249.654C988.226 249.654 988.199 249.654 988.173 249.654H988.146C987.799 249.587 987.559 249.267 987.599 248.906C987.639 248.573 987.932 248.319 988.253 248.319C987.065 248.186 985.865 247.999 984.677 247.826C982.303 247.465 979.875 247.105 977.447 247.105" fill="#DFD7BE"/>
<path d="M1011.34 242.049C1011.21 242.049 1011.09 242.089 1010.97 242.156L1010.81 242.289C1009.98 242.97 1009.05 243.61 1008.02 244.197C1003.47 246.826 997.228 248.547 991.772 248.547C991.505 248.547 991.238 248.547 990.971 248.547V249.214L990.811 248.534C989.931 248.494 989.13 248.427 988.383 248.333C988.37 248.333 988.343 248.333 988.33 248.333C988.303 248.333 988.277 248.333 988.25 248.333C987.916 248.333 987.636 248.587 987.596 248.921C987.556 249.281 987.796 249.601 988.143 249.668H988.17C988.17 249.668 988.223 249.668 988.25 249.681C988.997 249.774 989.784 249.841 990.691 249.881C990.731 249.881 990.758 249.881 990.798 249.881V249.214L990.958 249.895C991.118 249.895 991.291 249.895 991.451 249.895C991.558 249.895 991.678 249.895 991.785 249.895C995.614 249.895 999.842 249.067 1003.66 247.693C1006.74 246.572 1009.53 245.091 1011.62 243.37L1011.74 243.276C1012.04 243.063 1012.1 242.663 1011.9 242.369C1011.77 242.182 1011.56 242.076 1011.34 242.076" fill="#DFD7BE"/>
<path d="M970.214 261.195C969.761 261.395 969.307 261.596 968.827 261.796H968.8C956.407 267.066 941.413 269.068 929.38 270.669C926.605 271.043 923.777 271.323 921.029 271.616C916.693 272.057 912.211 272.524 907.849 273.298C907.675 273.324 907.488 273.364 907.315 273.391C906.341 273.564 905.354 273.765 904.38 273.978C904.06 274.045 903.793 274.245 903.633 274.498C903.473 274.752 903.406 275.086 903.473 275.406C903.58 275.899 903.98 276.246 904.447 276.326C904.513 276.326 904.58 276.34 904.647 276.34C904.727 276.34 904.82 276.34 904.914 276.313C905.154 276.26 905.394 276.206 905.647 276.153C906.528 275.966 907.395 275.793 908.289 275.646C912.571 274.885 917.013 274.432 921.296 273.991C924.057 273.711 926.912 273.418 929.713 273.044C938.665 271.856 950.19 270.322 960.823 267.173C963.891 266.266 966.892 265.225 969.734 264.011C969.734 264.011 969.734 264.011 969.747 264.011C970.241 263.811 970.721 263.597 971.201 263.384L970.228 261.195" fill="#DFD7BE"/>
</svg>
