<svg width="1440" height="799" viewBox="0 0 1440 799" fill="none" xmlns="http://www.w3.org/2000/svg">
<path fill-rule="evenodd" clip-rule="evenodd" d="M981.927 798.91H938.002L1438.17 448.24H1439.82V477.878L981.927 798.91ZM1072.22 798.91H1028.29L1439.82 510.385V541.181L1072.22 798.91ZM1164.95 798.91H1121.02L1439.82 575.399V606.195L1164.95 798.91ZM1254.68 798.91H1210.76L1439.82 638.315V669.111L1254.68 798.91ZM1344.98 798.91H1301.05L1439.82 701.619V732.415L1344.98 798.91Z" fill="#38311B"/>
<path d="M1327.56 709.742C1326.23 707.354 1322.09 705.792 1318.79 707.878C1320.45 704.68 1314.6 689.949 1313.59 689.949C1312.57 689.949 1308.22 700.38 1309.01 708.638C1303.59 703.734 1295.82 710.663 1299.48 716.709C1300.79 720.303 1307.14 719.483 1304.89 715.52C1301.53 717.318 1302.35 710.462 1306.06 710.884C1310.11 711.344 1312.13 713.992 1311.48 717.84C1311.07 720.315 1310.21 720.749 1308.12 722.427C1311.89 726.16 1312.98 732.74 1313.71 732.74C1314.51 732.74 1314.11 727.358 1318.95 722.427C1316.49 720.643 1315.87 720.324 1315.64 718.029C1315.22 713.92 1317.8 711.75 1319.8 711.09C1325.58 709.191 1324.61 714.945 1321.8 717.145C1325.24 722.812 1330.79 713.37 1327.56 709.742Z" fill="#38311B"/>
<path d="M1102.65 709.742C1101.32 707.354 1097.18 705.792 1093.88 707.878C1095.54 704.68 1089.69 689.949 1088.68 689.949C1087.67 689.949 1083.31 700.38 1084.1 708.638C1078.68 703.734 1070.91 710.663 1074.58 716.709C1075.89 720.303 1082.24 719.483 1079.98 715.52C1076.63 717.318 1077.44 710.462 1081.15 710.884C1085.2 711.344 1087.22 713.992 1086.57 717.84C1086.16 720.315 1085.3 720.749 1083.21 722.427C1086.98 726.16 1088.07 732.74 1088.8 732.74C1089.6 732.74 1089.2 727.358 1094.04 722.427C1091.58 720.643 1090.97 720.324 1090.73 718.029C1090.31 713.92 1092.89 711.75 1094.9 711.09C1100.67 709.191 1099.7 714.945 1096.89 717.145C1100.33 722.812 1105.88 713.37 1102.65 709.742Z" fill="#38311B"/>
<path d="M877.745 709.742C876.418 707.354 872.272 705.792 868.973 707.878C870.631 704.68 864.788 689.949 863.774 689.949C862.76 689.949 858.407 700.38 859.194 708.638C853.779 703.734 846.002 710.663 849.669 716.709C850.98 720.303 857.33 719.483 855.071 715.52C851.72 717.318 852.533 710.462 856.248 710.884C860.292 711.344 862.311 713.992 861.667 717.84C861.253 720.315 860.391 720.749 858.302 722.427C862.071 726.16 863.162 732.74 863.894 732.74C864.698 732.74 864.291 727.358 869.135 722.427C866.671 720.643 866.06 720.324 865.825 718.029C865.405 713.92 867.984 711.75 869.99 711.09C875.762 709.191 874.796 714.945 871.984 717.145C875.428 722.812 880.978 713.37 877.745 709.742Z" fill="#38311B"/>
<path d="M652.839 709.742C651.512 707.354 647.365 705.792 644.067 707.878C645.725 704.68 639.881 689.949 638.868 689.949C637.854 689.949 633.501 700.38 634.287 708.638C628.872 703.734 621.096 710.663 624.763 716.709C626.073 720.303 632.423 719.483 630.165 715.52C626.814 717.318 627.627 710.462 631.341 710.884C635.386 711.344 637.405 713.992 636.761 717.84C636.346 720.315 635.485 720.749 633.396 722.427C637.165 726.16 638.256 732.74 638.988 732.74C639.791 732.74 639.385 727.358 644.229 722.427C641.764 720.643 641.154 720.324 640.919 718.029C640.499 713.92 643.078 711.75 645.084 711.09C650.855 709.191 649.889 714.945 647.078 717.145C650.521 722.812 656.071 713.37 652.839 709.742Z" fill="#38311B"/>
<path d="M427.933 709.742C426.606 707.354 422.459 705.792 419.161 707.878C420.819 704.68 414.975 689.949 413.962 689.949C412.948 689.949 408.595 700.38 409.381 708.638C403.966 703.734 396.189 710.663 399.857 716.709C401.167 720.303 407.517 719.483 405.259 715.52C401.907 717.318 402.72 710.462 406.435 710.884C410.48 711.344 412.499 713.992 411.855 717.84C411.44 720.315 410.578 720.749 408.49 722.427C412.259 726.16 413.35 732.74 414.081 732.74C414.885 732.74 414.479 727.358 419.322 722.427C416.858 720.643 416.247 720.324 416.013 718.029C415.593 713.92 418.171 711.75 420.178 711.09C425.949 709.191 424.983 714.945 422.171 717.145C425.615 722.812 431.165 713.37 427.933 709.742Z" fill="#38311B"/>
<path d="M203.025 709.742C201.698 707.354 197.551 705.792 194.253 707.878C195.91 704.68 190.067 689.949 189.053 689.949C188.04 689.949 183.686 700.38 184.473 708.638C179.058 703.734 171.281 710.663 174.948 716.709C176.259 720.303 182.609 719.483 180.351 715.52C176.999 717.318 177.812 710.462 181.527 710.884C185.571 711.344 187.591 713.992 186.947 717.84C186.532 720.315 185.67 720.749 183.581 722.427C187.35 726.16 188.442 732.74 189.173 732.74C189.977 732.74 189.57 727.358 194.414 722.427C191.95 720.643 191.339 720.324 191.105 718.029C190.685 713.92 193.263 711.75 195.269 711.09C201.041 709.191 200.075 714.945 197.263 717.145C200.707 722.812 206.257 713.37 203.025 709.742Z" fill="#38311B"/>
<path d="M1217.65 551.425C1216.32 549.038 1212.18 547.475 1208.88 549.562C1210.54 546.364 1204.69 531.633 1203.68 531.633C1202.67 531.633 1198.31 542.064 1199.1 550.322C1193.68 545.418 1185.91 552.346 1189.58 558.393C1190.89 561.986 1197.24 561.166 1194.98 557.203C1191.63 559.001 1192.44 552.145 1196.15 552.568C1200.2 553.028 1202.22 555.675 1201.57 559.523C1201.16 561.999 1200.3 562.432 1198.21 564.11C1201.98 567.843 1203.07 574.423 1203.8 574.423C1204.6 574.423 1204.2 569.041 1209.04 564.11C1206.58 562.327 1205.97 562.007 1205.73 559.713C1205.31 555.603 1207.89 553.433 1209.9 552.773C1215.67 550.874 1214.7 556.629 1211.89 558.829C1215.33 564.495 1220.88 555.053 1217.65 551.425Z" fill="#38311B"/>
<path d="M992.745 551.425C991.418 549.038 987.272 547.475 983.973 549.562C985.631 546.364 979.788 531.633 978.774 531.633C977.76 531.633 973.407 542.064 974.194 550.322C968.779 545.418 961.002 552.346 964.669 558.393C965.98 561.986 972.33 561.166 970.071 557.203C966.72 559.001 967.533 552.145 971.248 552.568C975.292 553.028 977.311 555.675 976.667 559.523C976.253 561.999 975.391 562.432 973.302 564.11C977.071 567.843 978.162 574.423 978.894 574.423C979.698 574.423 979.291 569.041 984.135 564.11C981.671 562.327 981.06 562.007 980.825 559.713C980.405 555.603 982.984 553.433 984.99 552.773C990.762 550.874 989.796 556.629 986.984 558.829C990.428 564.495 995.978 555.053 992.745 551.425Z" fill="#38311B"/>
<path d="M767.839 551.425C766.512 549.038 762.365 547.475 759.067 549.562C760.725 546.364 754.881 531.633 753.868 531.633C752.854 531.633 748.501 542.064 749.287 550.322C743.872 545.418 736.096 552.346 739.763 558.393C741.073 561.986 747.423 561.166 745.165 557.203C741.814 559.001 742.627 552.145 746.341 552.568C750.386 553.028 752.405 555.675 751.761 559.523C751.346 561.999 750.485 562.432 748.396 564.11C752.165 567.843 753.256 574.423 753.988 574.423C754.791 574.423 754.385 569.041 759.229 564.11C756.764 562.327 756.154 562.007 755.919 559.713C755.499 555.603 758.078 553.433 760.084 552.773C765.855 550.874 764.889 556.629 762.078 558.829C765.521 564.495 771.071 555.053 767.839 551.425Z" fill="#38311B"/>
<path d="M542.933 551.425C541.606 549.038 537.459 547.475 534.161 549.562C535.819 546.364 529.975 531.633 528.962 531.633C527.948 531.633 523.595 542.064 524.381 550.322C518.966 545.418 511.189 552.346 514.857 558.393C516.167 561.986 522.517 561.166 520.259 557.203C516.907 559.001 517.72 552.145 521.435 552.568C525.48 553.028 527.499 555.675 526.855 559.523C526.44 561.999 525.578 562.432 523.49 564.11C527.259 567.843 528.35 574.423 529.081 574.423C529.885 574.423 529.479 569.041 534.322 564.11C531.858 562.327 531.247 562.007 531.013 559.713C530.593 555.603 533.171 553.433 535.178 552.773C540.949 550.874 539.983 556.629 537.171 558.829C540.615 564.495 546.165 555.053 542.933 551.425Z" fill="#38311B"/>
<path d="M318.025 551.425C316.698 549.038 312.551 547.475 309.253 549.562C310.91 546.364 305.067 531.633 304.053 531.633C303.04 531.633 298.686 542.064 299.473 550.322C294.058 545.418 286.281 552.346 289.948 558.393C291.259 561.986 297.609 561.166 295.351 557.203C291.999 559.001 292.812 552.145 296.527 552.568C300.571 553.028 302.591 555.675 301.947 559.523C301.532 561.999 300.67 562.432 298.581 564.11C302.35 567.843 303.442 574.423 304.173 574.423C304.977 574.423 304.57 569.041 309.414 564.11C306.95 562.327 306.339 562.007 306.105 559.713C305.685 555.603 308.263 553.433 310.269 552.773C316.041 550.874 315.075 556.629 312.263 558.829C315.707 564.495 321.257 555.053 318.025 551.425Z" fill="#38311B"/>
<path d="M1327.56 393.109C1326.23 390.721 1322.09 389.159 1318.79 391.245C1320.45 388.048 1314.6 373.316 1313.59 373.316C1312.57 373.316 1308.22 383.747 1309.01 392.006C1303.59 387.101 1295.82 394.03 1299.48 400.076C1300.79 403.67 1307.14 402.85 1304.89 398.887C1301.53 400.685 1302.35 393.829 1306.06 394.252C1310.11 394.712 1312.13 397.359 1311.48 401.207C1311.07 403.682 1310.21 404.116 1308.12 405.794C1311.89 409.527 1312.98 416.107 1313.71 416.107C1314.51 416.107 1314.11 410.725 1318.95 405.794C1316.49 404.01 1315.87 403.691 1315.64 401.396C1315.22 397.287 1317.8 395.117 1319.8 394.457C1325.58 392.558 1324.61 398.312 1321.8 400.512C1325.24 406.179 1330.79 396.737 1327.56 393.109Z" fill="#38311B"/>
<path d="M1102.65 393.109C1101.32 390.721 1097.18 389.159 1093.88 391.245C1095.54 388.048 1089.69 373.316 1088.68 373.316C1087.67 373.316 1083.31 383.747 1084.1 392.006C1078.68 387.101 1070.91 394.03 1074.58 400.076C1075.89 403.67 1082.24 402.85 1079.98 398.887C1076.63 400.685 1077.44 393.829 1081.15 394.252C1085.2 394.712 1087.22 397.359 1086.57 401.207C1086.16 403.682 1085.3 404.116 1083.21 405.794C1086.98 409.527 1088.07 416.107 1088.8 416.107C1089.6 416.107 1089.2 410.725 1094.04 405.794C1091.58 404.01 1090.97 403.691 1090.73 401.396C1090.31 397.287 1092.89 395.117 1094.9 394.457C1100.67 392.558 1099.7 398.312 1096.89 400.512C1100.33 406.179 1105.88 396.737 1102.65 393.109Z" fill="#38311B"/>
<path d="M877.745 393.109C876.418 390.721 872.272 389.159 868.973 391.245C870.631 388.048 864.788 373.316 863.774 373.316C862.76 373.316 858.407 383.747 859.194 392.006C853.779 387.101 846.002 394.03 849.669 400.076C850.98 403.67 857.33 402.85 855.071 398.887C851.72 400.685 852.533 393.829 856.248 394.252C860.292 394.712 862.311 397.359 861.667 401.207C861.253 403.682 860.391 404.116 858.302 405.794C862.071 409.527 863.162 416.107 863.894 416.107C864.698 416.107 864.291 410.725 869.135 405.794C866.671 404.01 866.06 403.691 865.825 401.396C865.405 397.287 867.984 395.117 869.99 394.457C875.762 392.558 874.796 398.312 871.984 400.512C875.428 406.179 880.978 396.737 877.745 393.109Z" fill="#38311B"/>
<path d="M652.839 393.109C651.512 390.721 647.365 389.159 644.067 391.245C645.725 388.048 639.881 373.316 638.868 373.316C637.854 373.316 633.501 383.747 634.287 392.006C628.872 387.101 621.096 394.03 624.763 400.076C626.073 403.67 632.423 402.85 630.165 398.887C626.814 400.685 627.627 393.829 631.341 394.252C635.386 394.712 637.405 397.359 636.761 401.207C636.346 403.682 635.485 404.116 633.396 405.794C637.165 409.527 638.256 416.107 638.988 416.107C639.791 416.107 639.385 410.725 644.229 405.794C641.764 404.01 641.154 403.691 640.919 401.396C640.499 397.287 643.078 395.117 645.084 394.457C650.855 392.558 649.889 398.312 647.078 400.512C650.521 406.179 656.071 396.737 652.839 393.109Z" fill="#38311B"/>
<path d="M427.933 393.109C426.606 390.721 422.459 389.159 419.161 391.245C420.819 388.048 414.975 373.316 413.962 373.316C412.948 373.316 408.595 383.747 409.381 392.006C403.966 387.101 396.189 394.03 399.857 400.076C401.167 403.67 407.517 402.85 405.259 398.887C401.907 400.685 402.72 393.829 406.435 394.252C410.48 394.712 412.499 397.359 411.855 401.207C411.44 403.682 410.578 404.116 408.49 405.794C412.259 409.527 413.35 416.107 414.081 416.107C414.885 416.107 414.479 410.725 419.322 405.794C416.858 404.01 416.247 403.691 416.013 401.396C415.593 397.287 418.171 395.117 420.178 394.457C425.949 392.558 424.983 398.312 422.171 400.512C425.615 406.179 431.165 396.737 427.933 393.109Z" fill="#38311B"/>
<path d="M203.025 393.109C201.698 390.721 197.551 389.159 194.253 391.245C195.91 388.048 190.067 373.316 189.053 373.316C188.04 373.316 183.686 383.747 184.473 392.006C179.058 387.101 171.281 394.03 174.948 400.076C176.259 403.67 182.609 402.85 180.351 398.887C176.999 400.685 177.812 393.829 181.527 394.252C185.571 394.712 187.591 397.359 186.947 401.207C186.532 403.682 185.67 404.116 183.581 405.794C187.35 409.527 188.442 416.107 189.173 416.107C189.977 416.107 189.57 410.725 194.414 405.794C191.95 404.01 191.339 403.691 191.105 401.396C190.685 397.287 193.263 395.117 195.269 394.457C201.041 392.558 200.075 398.312 197.263 400.512C200.707 406.179 206.257 396.737 203.025 393.109Z" fill="#38311B"/>
<path d="M1439 232.207C1437.37 231.75 1435.47 231.867 1433.79 232.929C1435.45 229.731 1429.6 215 1428.59 215C1427.57 215 1423.22 225.431 1424.01 233.689C1418.59 228.785 1410.82 235.714 1414.48 241.76C1415.79 245.353 1422.14 244.534 1419.89 240.571C1416.53 242.369 1417.35 235.512 1421.06 235.935C1425.11 236.395 1427.13 239.043 1426.48 242.89C1426.11 245.111 1425.38 245.689 1423.72 246.995C1423.53 247.145 1423.33 247.304 1423.12 247.477C1425.54 249.882 1426.86 253.468 1427.69 255.716C1428.14 256.957 1428.45 257.791 1428.71 257.791C1428.97 257.791 1429.1 257.241 1429.32 256.333C1429.79 254.398 1430.65 250.833 1433.95 247.477C1433.82 247.381 1433.69 247.29 1433.57 247.201C1431.42 245.654 1430.86 245.251 1430.64 243.08C1430.22 238.971 1432.8 236.801 1434.8 236.141C1437.58 235.228 1438.79 236.082 1439 237.459V232.207Z" fill="#38311B"/>
<path d="M1439 238.389C1438.83 239.733 1437.97 241.275 1436.8 242.196C1437.48 243.314 1438.24 243.844 1439 243.946V238.389Z" fill="#38311B"/>
<path d="M1217.65 234.792C1216.32 232.405 1212.18 230.843 1208.88 232.929C1210.54 229.731 1204.69 215 1203.68 215C1202.67 215 1198.31 225.431 1199.1 233.689C1193.68 228.785 1185.91 235.714 1189.58 241.76C1190.89 245.353 1197.24 244.534 1194.98 240.571C1191.63 242.369 1192.44 235.512 1196.15 235.935C1200.2 236.395 1202.22 239.043 1201.57 242.89C1201.16 245.366 1200.3 245.8 1198.21 247.477C1201.98 251.21 1203.07 257.791 1203.8 257.791C1204.6 257.791 1204.2 252.409 1209.04 247.477C1206.58 245.694 1205.97 245.374 1205.73 243.08C1205.31 238.971 1207.89 236.801 1209.9 236.141C1215.67 234.241 1214.7 239.996 1211.89 242.196C1215.33 247.863 1220.88 238.42 1217.65 234.792Z" fill="#38311B"/>
<path d="M992.745 234.792C991.418 232.405 987.272 230.843 983.973 232.929C985.631 229.731 979.788 215 978.774 215C977.76 215 973.407 225.431 974.194 233.689C968.779 228.785 961.002 235.714 964.669 241.76C965.98 245.353 972.33 244.534 970.071 240.571C966.72 242.369 967.533 235.512 971.248 235.935C975.292 236.395 977.311 239.043 976.667 242.89C976.253 245.366 975.391 245.8 973.302 247.477C977.071 251.21 978.162 257.791 978.894 257.791C979.698 257.791 979.291 252.409 984.135 247.477C981.671 245.694 981.06 245.374 980.825 243.08C980.405 238.971 982.984 236.801 984.99 236.141C990.762 234.241 989.796 239.996 986.984 242.196C990.428 247.863 995.978 238.42 992.745 234.792Z" fill="#38311B"/>
<path d="M767.839 234.792C766.512 232.405 762.365 230.843 759.067 232.929C760.725 229.731 754.881 215 753.868 215C752.854 215 748.501 225.431 749.287 233.689C743.872 228.785 736.096 235.714 739.763 241.76C741.073 245.353 747.423 244.534 745.165 240.571C741.814 242.369 742.627 235.512 746.341 235.935C750.386 236.395 752.405 239.043 751.761 242.89C751.346 245.366 750.485 245.8 748.396 247.477C752.165 251.21 753.256 257.791 753.988 257.791C754.791 257.791 754.385 252.409 759.229 247.477C756.764 245.694 756.154 245.374 755.919 243.08C755.499 238.971 758.078 236.801 760.084 236.141C765.855 234.241 764.889 239.996 762.078 242.196C765.521 247.863 771.071 238.42 767.839 234.792Z" fill="#38311B"/>
<path d="M542.933 234.792C541.606 232.405 537.459 230.843 534.161 232.929C535.819 229.731 529.975 215 528.962 215C527.948 215 523.595 225.431 524.381 233.689C518.966 228.785 511.189 235.714 514.857 241.76C516.167 245.353 522.517 244.534 520.259 240.571C516.907 242.369 517.72 235.512 521.435 235.935C525.48 236.395 527.499 239.043 526.855 242.89C526.44 245.366 525.578 245.8 523.49 247.477C527.259 251.21 528.35 257.791 529.081 257.791C529.885 257.791 529.479 252.409 534.322 247.477C531.858 245.694 531.247 245.374 531.013 243.08C530.593 238.971 533.171 236.801 535.178 236.141C540.949 234.241 539.983 239.996 537.171 242.196C540.615 247.863 546.165 238.42 542.933 234.792Z" fill="#38311B"/>
<path d="M318.025 234.792C316.698 232.405 312.551 230.843 309.253 232.929C310.91 229.731 305.067 215 304.053 215C303.04 215 298.686 225.431 299.473 233.689C294.058 228.785 286.281 235.714 289.948 241.76C291.259 245.353 297.609 244.534 295.351 240.571C291.999 242.369 292.812 235.512 296.527 235.935C300.571 236.395 302.591 239.043 301.947 242.89C301.532 245.366 300.67 245.8 298.581 247.477C302.35 251.21 303.442 257.791 304.173 257.791C304.977 257.791 304.57 252.409 309.414 247.477C306.95 245.694 306.339 245.374 306.105 243.08C305.685 238.971 308.263 236.801 310.269 236.141C316.041 234.241 315.075 239.996 312.263 242.196C315.707 247.863 321.257 238.42 318.025 234.792Z" fill="#38311B"/>
<g clip-path="url(#clip0_2197_2223)">
<path d="M1121.81 634.668C1119.85 638.497 1118.88 642.779 1118.88 647.061C1118.88 652.851 1120.61 658.64 1124.01 663.336C1119.13 660.135 1116.14 654.812 1113.33 649.702C1111.21 645.82 1109.07 641.952 1106.94 638.07C1106.94 638.07 1106.92 638.096 1106.91 638.11C1106.88 638.15 1106.87 638.176 1106.84 638.216C1106.84 638.23 1106.82 638.256 1106.82 638.27C1106.82 638.283 1106.8 638.297 1106.79 638.323C1106.79 638.323 1106.79 638.337 1106.78 638.35C1106.78 638.363 1106.75 638.39 1106.75 638.403C1106.72 638.443 1106.71 638.47 1106.7 638.51C1103.14 644.953 1105.79 657.52 1100.03 657.533C1100.03 657.533 1099.99 657.533 1099.97 657.533C1098.6 657.52 1096.76 656.799 1094.25 655.132C1094.12 655.052 1094 654.958 1093.86 654.865L1093.58 654.812C1092.01 663.096 1090.01 668.819 1086.74 674.155L1091.2 676.516C1091.36 676.596 1091.49 676.716 1091.6 676.863C1094.76 681.092 1102.2 684.867 1108.18 687.896C1109.77 688.696 1111.25 689.443 1112.5 690.137C1128.58 698.888 1143.33 703.197 1157.62 703.304C1157.75 703.304 1157.88 703.304 1158.02 703.304C1160.42 703.304 1162.87 703.183 1165.23 703.077C1167.62 702.97 1170.08 702.85 1172.53 702.85C1172.88 702.85 1173.23 702.85 1173.56 702.85C1183.39 702.97 1193.17 705.185 1202.63 707.319C1212.18 709.48 1222.02 711.708 1231.84 711.708C1233.47 711.708 1235.08 711.641 1236.71 711.521C1241.59 711.134 1259.86 711.028 1270.32 711.001C1274.74 711.001 1278.45 710.988 1280.55 710.988H1280.73C1280.13 709.013 1279.6 707.092 1279.15 705.318C1279.12 705.225 1279.09 705.118 1279.07 705.024C1262.91 704.891 1244.08 697.394 1234.55 689.136C1234.5 689.096 1234.44 689.043 1234.39 689.003C1234.39 689.003 1234.38 689.003 1234.36 688.989C1234.23 688.869 1234.11 688.763 1233.98 688.643C1229 684.147 1223.92 678.637 1217.22 678.304C1220.12 685.828 1225.24 692.458 1231.78 697.154C1229.53 697.807 1227.27 698.074 1225 698.074H1224.97C1216.59 698.074 1208.11 694.299 1199.95 691.511C1199.92 691.511 1199.88 691.484 1199.84 691.471C1196.82 690.444 1193.73 689.523 1190.91 688.002C1184.35 684.427 1180.06 677.864 1176.01 671.567C1175.89 673.168 1175.83 674.782 1175.83 676.396C1175.83 680.358 1176.19 684.307 1176.91 688.202C1153.72 676.436 1134.23 657.506 1121.83 634.668" fill="#423C34"/>
<path d="M1232.96 576.479C1240.98 580.641 1248.44 585.563 1256.11 590.312C1259.24 592.247 1262.56 593.874 1265.71 595.782C1269.76 598.223 1272.97 601.892 1276.89 604.32C1275.02 603.159 1272.82 602.519 1270.62 602.492C1284.38 607.841 1294.61 619.514 1303.21 631.48C1303.08 626.438 1300.68 621.742 1297.92 617.526C1291.9 608.295 1283.9 600.331 1274.62 594.368C1276 595.782 1277.12 597.409 1277.97 599.17C1271.2 592.233 1263.18 586.51 1254.41 582.362C1247.68 579.16 1240.42 576.865 1232.96 576.479Z" fill="#575448"/>
<path d="M1226.41 546.129C1228.03 549.571 1229.93 552.866 1232.1 555.987L1231.51 559.856C1243.37 561.083 1255.49 562.377 1266.26 567.5C1272.02 570.248 1277.29 574.063 1283.35 576.078C1277.72 565.659 1268.53 557.215 1257.69 552.452C1261.86 554.28 1267.23 556.694 1271.05 559.149C1268.86 556.468 1264.87 554.266 1261.03 552.292C1258.9 551.545 1256.69 550.838 1254.41 550.171C1251.37 549.291 1248.14 548.477 1244.67 547.716C1249.8 550.158 1254.72 553.746 1257.72 557.722C1255.05 555.48 1251.21 555.6 1247.74 555.2C1240.01 554.28 1233.08 550.158 1226.41 546.129Z" fill="#575448"/>
<path d="M1201.04 545.984C1204.76 553.241 1209.99 559.697 1216.3 564.86L1216.46 567.995C1216.46 567.995 1216.57 567.995 1216.62 567.995C1217.17 567.968 1217.71 567.955 1218.26 567.955H1218.29C1224.69 567.955 1231.03 569.636 1237.1 571.824C1237.1 571.824 1237.11 571.824 1237.12 571.824C1237.16 571.837 1237.2 571.85 1237.24 571.864C1237.36 571.904 1237.47 571.944 1237.59 571.984C1237.6 571.984 1237.62 571.984 1237.63 571.997C1237.67 571.997 1237.7 572.024 1237.74 572.037C1237.87 572.091 1238 572.131 1238.14 572.184C1238.16 572.184 1238.2 572.211 1238.23 572.224C1245.44 574.879 1252.45 578.147 1259.87 580.148C1251.59 571.957 1241.51 565.847 1231.52 559.831L1232.11 555.962C1226.08 554.375 1220.48 551.2 1216.01 546.837C1217.69 550.8 1220.12 554.428 1223.14 557.496C1215.01 555.522 1207.92 550.693 1201.04 545.957" fill="#575448"/>
<path d="M1226.65 544.543L1226.41 546.13C1233.08 550.159 1240.01 554.268 1247.74 555.202C1251.21 555.602 1255.04 555.482 1257.72 557.723C1254.72 553.748 1249.8 550.159 1244.67 547.718C1242.15 547.171 1239.5 546.637 1236.7 546.144C1233.62 545.597 1230.33 545.077 1226.65 544.556" fill="#605D52"/>
<path d="M1181.55 545.529C1186.49 552.48 1191.41 559.43 1196.34 566.367C1185.42 563.779 1175.28 557.922 1167.58 549.758C1169.62 554.521 1173.55 558.176 1177.36 561.684C1174.37 560.43 1171.53 558.789 1168.92 556.842L1168.53 557.349C1171.16 562.285 1176.05 565.513 1180.76 568.541C1186.89 572.49 1193.02 576.439 1199.17 580.374C1204.35 583.709 1209.64 587.098 1215.61 588.658C1211.26 583.869 1207.28 578.733 1203.75 573.317C1215.73 582.055 1238.98 589.072 1255.52 598.757C1247.37 592.714 1227.88 579 1220 572.61C1218.1 571.063 1217.23 569.929 1215.71 568.034C1215.86 568.034 1216.02 568.021 1216.17 568.008C1216.23 568.008 1216.29 568.008 1216.34 568.008C1216.37 568.008 1216.39 568.008 1216.43 568.008C1216.43 568.008 1216.43 568.008 1216.45 568.008L1216.29 564.873C1204.03 559.683 1191.54 554.361 1181.55 545.543" fill="#575448"/>
<path d="M1185 431.537C1181.46 432.684 1178.82 434.112 1175.84 436.807C1175.47 437.14 1173.96 439.408 1173.28 440.982C1173.08 441.449 1172.95 441.876 1172.95 442.156C1172.95 442.249 1172.95 442.329 1172.99 442.383C1174.97 446.251 1176.08 448.399 1180.22 449.8C1180.6 449.933 1180.96 450.053 1181.32 450.16C1181.32 450.16 1181.4 450.187 1181.44 450.2C1181.5 450.213 1181.55 450.227 1181.6 450.253C1183.2 450.734 1184.63 451.027 1186.05 451.027C1186.05 451.027 1186.05 451.027 1186.06 451.027C1187.09 451.027 1188.1 450.88 1189.18 450.547C1189.49 450.093 1189.78 449.626 1190.07 449.16L1190.17 449.026C1191.51 446.825 1192.61 444.504 1193.44 442.156C1193.86 440.942 1194.1 439.941 1193.88 439.048C1193.62 438.06 1192.72 437.18 1191.86 436.446C1190.03 434.872 1188.03 433.418 1185.91 432.111C1185.61 431.924 1185.3 431.737 1184.99 431.564" fill="#474035"/>
<path d="M1135.22 532.75C1136.18 534.751 1136.95 536.965 1137.3 537.859C1139.3 543.088 1140.53 548.571 1141.74 554.027C1139.79 553.254 1138.27 551.866 1137.06 550.145L1135.91 550.986C1136.5 558.336 1140.29 565.38 1146.12 569.916C1146.32 565.447 1146.5 560.964 1146.7 556.495C1153.6 568.608 1164.53 578.373 1177.31 583.896C1177.33 583.616 1177.35 583.336 1177.35 583.056C1177.35 579.4 1175.08 576.052 1173.32 572.784C1170.76 567.995 1169.12 562.725 1168.54 557.336L1168.93 556.829C1163.31 552.653 1158.75 547.05 1155.88 540.66C1157.9 548.518 1160.35 556.269 1163.23 563.846C1155.99 557.616 1149.76 550.239 1144.84 542.061C1144.88 542.608 1144.92 543.155 1144.96 543.702C1142.14 540.38 1139.71 536.738 1137.66 532.883L1135.22 532.736" fill="#575448"/>
<path d="M1131.92 528.682C1131.63 528.682 1131.34 528.828 1131.06 529.162C1131.06 529.162 1131.04 529.175 1131.03 529.189C1131.03 529.189 1131.02 529.202 1131 529.215C1130.52 529.842 1130.32 530.723 1130.32 531.737C1130.32 535.285 1132.74 540.514 1133.51 542.689C1134.44 545.25 1135.5 547.945 1137.05 550.133C1138.26 551.84 1139.78 553.241 1141.73 554.015C1140.51 548.559 1139.29 543.076 1137.29 537.846C1136.94 536.953 1136.15 534.738 1135.2 532.737C1135.2 532.737 1135.16 532.657 1135.15 532.617C1135.11 532.55 1135.08 532.484 1135.04 532.417C1134.08 530.456 1132.96 528.735 1131.95 528.682C1131.94 528.682 1131.91 528.682 1131.9 528.682" fill="#605D52"/>
<path d="M1129.75 497.29L1129.64 497.33C1129.6 497.677 1129.56 498.037 1129.56 498.358C1129.56 498.878 1129.64 499.278 1129.82 499.331C1130.27 499.451 1130.4 499.985 1130.4 500.479C1130.4 500.559 1130.4 500.639 1130.4 500.719C1130.36 501.679 1130.34 502.626 1130.34 503.587C1130.34 513.752 1132.9 523.904 1137.66 532.895C1139.7 536.751 1142.14 540.393 1144.96 543.714C1144.92 543.167 1144.88 542.621 1144.84 542.074C1149.76 550.251 1156 557.628 1163.23 563.858C1160.35 556.268 1157.91 548.53 1155.88 540.673C1158.75 547.063 1163.31 552.666 1168.93 556.841C1171.54 558.789 1174.37 560.43 1177.37 561.684C1173.55 558.175 1169.64 554.52 1167.6 549.758C1175.31 557.922 1185.43 563.778 1196.36 566.366C1191.42 559.429 1186.5 552.479 1181.56 545.529C1191.55 554.333 1204.04 559.669 1216.3 564.859C1209.99 559.696 1204.76 553.239 1201.04 545.982C1207.92 550.731 1215.02 555.547 1223.14 557.522C1220.12 554.453 1217.67 550.811 1216.01 546.863C1220.46 551.225 1226.07 554.4 1232.11 555.987C1229.95 552.866 1228.04 549.571 1226.43 546.129L1226.67 544.542C1222.48 543.928 1218.26 543.368 1214.03 542.807C1201.31 541.126 1188.15 539.392 1175.71 536.044C1168.2 534.016 1158.71 530.814 1151.96 523.917L1151.27 523.197C1149.47 521.316 1147.61 519.355 1145.38 519.355C1145.34 519.355 1145.32 519.355 1145.28 519.355H1145.25C1144.84 519.355 1144.45 519.142 1144.22 518.781C1143.37 517.407 1142.52 516.007 1141.66 514.579C1138.01 508.55 1134.23 502.333 1129.78 497.264" fill="#605D52"/>
<path d="M1105.44 396.305C1105.44 396.305 1105.44 396.305 1105.43 396.305C1102.04 396.305 1098.71 396.598 1095.89 397.212C1095.86 397.212 1095.85 397.212 1095.82 397.225C1095.74 397.239 1095.66 397.265 1095.58 397.279C1095.54 397.279 1095.5 397.292 1095.46 397.305C1089.1 398.799 1083.12 402.428 1079.55 407.871C1086.29 410.232 1093.05 412.58 1100.04 414.007C1105.55 415.114 1111.18 415.621 1116.66 416.809C1125.39 418.703 1133.74 422.305 1141.1 427.347C1140.1 428.281 1139.11 429.215 1138.11 430.136C1142.17 430.736 1146.26 431.056 1150.37 431.109C1149.18 433.23 1148 435.352 1146.8 437.486C1146.88 437.486 1146.94 437.486 1147.02 437.473C1147.22 437.459 1147.41 437.446 1147.61 437.433C1150.28 437.233 1152.96 437.059 1155.64 437.059C1155.64 437.059 1155.64 437.059 1155.65 437.059C1155.65 437.059 1155.67 437.059 1155.68 437.059C1159 437.059 1162.3 437.326 1165.51 438.153C1165.51 438.153 1165.53 438.153 1165.54 438.153C1165.61 438.166 1165.67 438.193 1165.74 438.206C1165.85 438.233 1165.97 438.26 1166.07 438.3C1168.46 438.953 1170.32 439.514 1172.7 440.834L1173.29 440.981C1173.97 439.407 1175.48 437.139 1175.85 436.806C1178.83 434.111 1181.48 432.684 1185.02 431.536C1175.67 426.053 1164.51 423.399 1154.64 421.064C1154.32 420.984 1154.04 420.784 1153.88 420.491C1147.25 408.791 1134.84 400.734 1121.44 399.493C1119.94 399.346 1118.49 399.186 1117.13 398.799C1115.59 398.372 1114.43 397.745 1113.61 396.892C1111.05 396.518 1108.24 396.318 1105.47 396.318C1105.47 396.318 1105.46 396.318 1105.44 396.318" fill="#65625B"/>
<path d="M1110.79 381.217C1110.79 381.217 1110.75 381.217 1110.73 381.217C1107.76 381.243 1103.83 382.804 1103.71 386.126C1103.71 386.166 1103.71 386.206 1103.71 386.246C1103.71 388.874 1106.74 391.916 1109.45 391.942H1109.47C1109.75 391.942 1110.05 391.902 1110.31 391.836C1110.42 391.395 1110.46 390.955 1110.46 390.515C1110.46 389.261 1110.14 387.994 1110.14 386.726C1110.14 386.7 1110.14 386.673 1110.14 386.646C1110.17 384.752 1110.95 383.018 1111.49 381.243C1111.47 381.243 1111.46 381.243 1111.43 381.243C1111.22 381.23 1111.01 381.217 1110.78 381.217" fill="#65625B"/>
<path d="M1012.13 591.381C1011.43 592.048 1011.21 593.061 1011.03 594.022C1010.39 597.664 1010.07 601.359 1010.07 605.054C1010.07 612.471 1011.37 619.902 1013.9 626.879C1014.4 627.212 1014.88 627.559 1015.36 627.893C1023.11 633.349 1029.66 638.912 1036.45 645.822C1041.09 640.539 1044.55 635.323 1047.24 629.494C1047.31 629.347 1047.37 629.213 1047.44 629.067C1040.46 621.663 1036.05 614.352 1034.39 605.054C1033.63 607.669 1033.34 609.523 1033.34 611.244C1033.34 613.659 1033.93 615.847 1034.66 619.555C1028.35 613.485 1026.44 604.294 1024.83 595.689C1023.44 601.733 1022.73 607.922 1022.73 614.126C1022.73 616.273 1022.81 618.435 1022.99 620.582C1016.9 612.018 1013.12 601.826 1012.12 591.367" fill="#423C34"/>
<path d="M1077.62 488.953C1076.39 489.22 1075.12 489.38 1073.87 489.42C1072.77 489.46 1071.69 489.42 1070.6 489.54C1066.61 489.967 1063.11 492.502 1060.49 495.543C1060.26 495.81 1060.02 496.197 1060.02 496.53C1060.02 496.677 1060.07 496.824 1060.19 496.931C1060.33 497.064 1060.55 497.117 1060.77 497.157C1061.34 497.251 1061.94 497.331 1062.53 497.398C1063.25 497.104 1063.95 496.824 1064.68 496.597C1067.18 495.81 1069.8 495.41 1072.27 494.529C1074.89 493.609 1077.3 492.181 1079.6 490.621C1079.36 490.674 1079.12 490.727 1078.87 490.781C1078.78 490.794 1078.7 490.807 1078.6 490.807C1078.54 490.807 1078.47 490.807 1078.4 490.794C1077.94 490.714 1077.54 490.354 1077.43 489.874C1077.36 489.553 1077.43 489.233 1077.59 488.966" fill="#65625B"/>
<path d="M1068.57 482.417C1068.29 482.417 1068 482.417 1067.73 482.457C1063.22 482.884 1056.9 489.421 1056.9 489.421L1056.76 489.541C1053.35 492.302 1050.08 495.224 1046.95 498.292C1046.95 498.292 1046.99 498.265 1047 498.252C1047.04 498.225 1047.09 498.198 1047.13 498.158C1047.13 498.158 1047.16 498.145 1047.17 498.132C1047.19 498.132 1047.2 498.118 1047.21 498.105C1048.99 496.985 1050.91 495.891 1052.96 495.877C1052.96 495.877 1052.98 495.877 1052.99 495.877C1053.14 495.877 1053.28 495.877 1053.43 495.891C1053.44 495.891 1053.46 495.891 1053.47 495.891C1050.05 499.146 1046.52 502.587 1044.9 507.016C1048.28 505.082 1051.65 503.148 1055.04 501.2C1057.47 499.799 1059.93 498.412 1062.5 497.345C1061.91 497.291 1061.31 497.211 1060.74 497.105C1060.53 497.065 1060.31 497.011 1060.17 496.878C1060.05 496.758 1059.99 496.624 1059.99 496.478C1059.99 496.144 1060.22 495.771 1060.46 495.49C1063.09 492.449 1066.58 489.914 1070.57 489.487C1071.66 489.381 1072.75 489.421 1073.84 489.367C1075.11 489.327 1076.36 489.167 1077.59 488.9C1077.75 488.647 1078.01 488.447 1078.33 488.38C1079.31 488.167 1080.3 487.967 1081.27 487.793C1077.51 484.952 1072.64 482.417 1068.65 482.377C1068.61 482.377 1068.58 482.377 1068.54 482.377" fill="#575448"/>
<path d="M1043.58 559.523C1040.4 562.805 1036.83 565.727 1032.98 568.221L1033.07 568.355C1033.43 569.742 1033.78 571.143 1034.14 572.53C1035.38 569.929 1036.79 567.408 1038.34 564.98C1038.3 565.42 1038.27 565.873 1038.27 566.327C1038.27 567.928 1038.55 569.542 1039.09 571.049C1040.32 568.288 1042.16 565.78 1044.42 563.792H1044.52C1044.46 562.338 1044.16 560.871 1043.57 559.523" fill="#575448"/>
<path d="M1052.24 543.449C1042.28 546.571 1033.31 552.827 1026.95 561.098L1027.66 562.072C1028.23 565.554 1027.82 569.343 1029.39 572.518C1030.63 571.13 1031.86 569.743 1033.09 568.355L1032.99 568.222C1032.78 568.355 1032.58 568.502 1032.37 568.636C1032.63 565.007 1033.46 561.432 1034.77 558.043C1040.6 553.188 1046.43 548.305 1052.24 543.449Z" fill="#575448"/>
<path d="M1035.74 542.435C1030.62 545.69 1026.83 553.494 1022.81 558.243C1023.53 561.498 1024.62 564.66 1026.04 567.662C1026.58 565.794 1027.11 563.94 1027.66 562.059L1026.95 561.085C1030.16 555.002 1033.1 548.785 1035.74 542.422" fill="#575448"/>
<path d="M1043.93 403.709C1041.44 403.709 1039.09 404.549 1037.57 406.604C1037.54 406.63 1037.53 406.657 1037.5 406.684C1037.5 406.684 1037.5 406.697 1037.49 406.711C1037.46 406.751 1037.42 406.791 1037.39 406.844C1035.65 409.352 1036.73 410.139 1038.74 410.192C1038.82 410.192 1038.92 410.192 1039 410.192C1040.4 410.192 1042.18 409.886 1043.78 409.579C1045.39 409.272 1046.79 408.965 1047.41 408.965C1047.41 408.965 1047.44 408.965 1047.45 408.965C1047.57 408.965 1047.65 408.978 1047.71 409.005C1048.03 409.178 1048.11 409.459 1048.12 409.792C1048.12 410.232 1047.97 410.753 1047.97 411.26C1047.97 411.66 1048.07 412.033 1048.39 412.353C1049.43 413.381 1050.73 414.088 1051.96 414.901C1053.47 415.902 1054.88 417.103 1056.58 417.716C1058.09 418.263 1059.73 418.503 1061.35 418.517C1061.35 418.517 1061.35 418.517 1061.37 418.517C1061.37 418.517 1061.37 418.517 1061.38 418.517C1062.79 418.517 1064.22 418.33 1065.57 417.983C1065.6 417.983 1065.62 417.97 1065.65 417.956C1065.66 417.956 1065.69 417.956 1065.7 417.943C1065.73 417.943 1065.77 417.93 1065.8 417.916C1061.9 416.075 1057.68 413.314 1055.02 409.939C1054.51 409.299 1054.06 408.592 1053.52 407.965C1053.47 407.898 1053.42 407.831 1053.35 407.764C1053.34 407.751 1053.32 407.738 1053.31 407.711C1051.25 405.417 1047.47 403.736 1043.94 403.722C1043.94 403.722 1043.93 403.722 1043.92 403.722" fill="#65625B"/>
<path d="M1032.23 416.035C1029.7 417.182 1028.71 418.637 1028.72 420.144C1028.72 423.772 1034.51 427.655 1038.23 428.055C1038.23 428.055 1038.29 428.055 1038.33 428.055C1038.67 428.081 1039.01 428.108 1039.35 428.108C1039.35 428.108 1039.38 428.108 1039.41 428.108C1041.42 428.108 1043.42 427.534 1045.06 426.361C1045.06 426.361 1045.09 426.347 1045.1 426.334C1045.13 426.32 1045.14 426.307 1045.17 426.294C1041.52 426.2 1037.91 424.853 1035.09 422.559C1034.09 421.758 1033.18 420.824 1032.6 419.664C1032.24 418.943 1032.07 418.17 1032.07 417.396C1032.07 416.942 1032.12 416.489 1032.24 416.048" fill="#575448"/>
<path d="M1120.82 437.06C1120.08 437.06 1119.33 437.007 1118.58 436.887C1117.92 436.767 1117.26 436.593 1116.62 436.34C1113.19 434.952 1111.57 432.604 1112.25 430.043C1112.91 427.535 1115.9 425.174 1119.8 425.174C1120.25 425.174 1120.7 425.201 1121.17 425.267C1124.2 425.707 1127.17 427.188 1130.3 429.843C1130.88 430.35 1131.68 431.057 1132.1 432.004C1132.59 433.111 1132.4 434.365 1131.64 435.099C1131.03 435.713 1130.23 435.859 1129.44 435.979L1125.53 436.593C1124.09 436.82 1122.48 437.06 1120.82 437.06ZM1028.72 420.131C1028.72 418.624 1029.7 417.17 1032.23 416.022C1032.11 416.476 1032.06 416.93 1032.06 417.37C1032.06 418.144 1032.23 418.917 1032.59 419.638C1033.17 420.798 1034.07 421.732 1035.07 422.532C1037.91 424.84 1041.52 426.174 1045.16 426.268C1045.16 426.268 1045.12 426.294 1045.09 426.308C1045.09 426.308 1045.07 426.321 1045.05 426.334C1043.41 427.508 1041.41 428.069 1039.4 428.082C1039.38 428.082 1039.37 428.082 1039.34 428.082C1039 428.082 1038.66 428.069 1038.31 428.029C1038.29 428.029 1038.26 428.029 1038.22 428.029C1034.5 427.642 1028.72 423.746 1028.71 420.118M1043.93 403.709C1043.93 403.709 1043.94 403.709 1043.96 403.709C1047.48 403.709 1051.27 405.39 1053.32 407.698C1053.34 407.711 1053.35 407.725 1053.36 407.751C1053.42 407.818 1053.48 407.885 1053.54 407.952C1054.07 408.579 1054.51 409.286 1055.03 409.926C1057.7 413.314 1061.93 416.062 1065.81 417.903C1065.81 417.903 1065.74 417.917 1065.72 417.93C1065.7 417.93 1065.68 417.93 1065.66 417.943C1065.64 417.943 1065.61 417.957 1065.58 417.97C1064.24 418.317 1062.82 418.504 1061.39 418.504C1061.39 418.504 1061.39 418.504 1061.38 418.504C1061.38 418.504 1061.38 418.504 1061.37 418.504C1059.73 418.504 1058.1 418.25 1056.59 417.703C1054.9 417.09 1053.48 415.889 1051.98 414.889C1050.75 414.075 1049.45 413.368 1048.4 412.341C1048.08 412.02 1048 411.647 1047.99 411.247C1047.99 410.74 1048.13 410.206 1048.13 409.779C1048.13 409.446 1048.04 409.166 1047.72 408.992C1047.67 408.965 1047.59 408.952 1047.47 408.952C1047.47 408.952 1047.44 408.952 1047.43 408.952C1046.8 408.952 1045.39 409.259 1043.8 409.566C1042.2 409.873 1040.41 410.179 1039.01 410.179C1038.93 410.179 1038.84 410.179 1038.76 410.179C1036.74 410.126 1035.66 409.339 1037.41 406.831C1037.43 406.791 1037.47 406.751 1037.5 406.698C1037.5 406.698 1037.5 406.684 1037.51 406.671C1037.54 406.644 1037.55 406.618 1037.58 406.591C1039.09 404.55 1041.45 403.709 1043.94 403.696M1110.79 381.218C1111.02 381.218 1111.23 381.218 1111.45 381.244C1111.46 381.244 1111.47 381.244 1111.5 381.244C1110.97 383.019 1110.18 384.753 1110.15 386.647C1110.15 386.674 1110.15 386.701 1110.15 386.727C1110.15 387.995 1110.47 389.262 1110.47 390.516C1110.47 390.956 1110.43 391.396 1110.33 391.837C1110.05 391.903 1109.77 391.943 1109.49 391.943H1109.46C1106.75 391.917 1103.74 388.875 1103.72 386.247C1103.72 386.207 1103.72 386.167 1103.72 386.127C1103.83 382.805 1107.76 381.244 1110.74 381.218C1110.77 381.218 1110.79 381.218 1110.81 381.218M1109.53 376.188C1105.16 376.188 1101.2 378.816 1097.52 381.511C1094.04 384.073 1089.96 389.342 1091.84 393.077C1092.02 393.451 1092.01 393.891 1091.78 394.238C1091.57 394.598 1091.18 394.811 1090.77 394.811C1078.83 394.865 1067 398.8 1057.44 405.911C1057.24 406.057 1057 406.164 1056.76 406.164C1056.68 406.164 1056.59 406.164 1056.51 406.124C1056.18 406.057 1055.9 405.857 1055.71 405.577C1053.24 401.588 1048.6 399.761 1043.93 399.761C1040.89 399.761 1037.83 400.548 1035.37 402.029C1029.36 405.617 1025.09 412.821 1023.65 421.799C1023.05 425.587 1023.12 428.496 1023.87 430.964C1024.69 433.698 1028.32 436.94 1029.19 437.18C1030.42 437.393 1031.16 438.327 1031.34 439.101C1031.46 439.661 1031.28 440.195 1030.88 440.528C1030.72 441.209 1030.56 441.889 1030.39 442.543C1030.35 442.703 1030.31 442.863 1030.27 443.036C1030.28 443.036 1030.3 443.036 1030.31 443.036C1030.31 443.036 1030.34 443.036 1030.35 443.036C1030.79 443.036 1031.31 442.876 1031.83 442.703C1031.86 442.703 1031.87 442.69 1031.9 442.676C1032.03 442.636 1032.17 442.583 1032.29 442.543C1032.29 442.543 1032.31 442.543 1032.33 442.543C1032.35 442.543 1032.38 442.529 1032.42 442.516C1032.54 442.476 1032.65 442.436 1032.75 442.409C1032.75 442.409 1032.77 442.409 1032.78 442.409C1045.53 438.461 1056.42 428.722 1069.7 427.508C1065.01 433.498 1059.79 439.088 1054.15 444.21C1060.7 438.634 1068.68 434.779 1077.12 433.098C1071.07 435.593 1065.76 439.861 1062.02 445.251C1062.9 444.904 1063.79 444.597 1064.7 444.304C1064.7 444.29 1064.7 444.277 1064.7 444.264C1064.69 444.157 1064.81 444.104 1064.94 444.104C1064.94 444.104 1064.94 444.104 1064.96 444.104C1064.96 444.104 1064.96 444.104 1064.97 444.104C1065.04 444.104 1065.1 444.117 1065.16 444.144C1065.16 444.144 1065.16 444.144 1065.17 444.144C1068.26 443.183 1071.45 442.543 1074.69 442.236C1067.42 445.491 1060.49 449.533 1054.07 454.256C1061.81 449.52 1069.98 444.637 1079.07 444.224C1079.47 444.21 1079.86 444.197 1080.26 444.197C1080.26 444.197 1080.27 444.197 1080.28 444.197C1083.94 444.197 1087.57 444.864 1091.17 445.531C1096.51 446.518 1101.85 447.505 1107.2 448.506C1105.19 449.213 1103.16 449.933 1101.15 450.654C1103.94 451.321 1106.82 451.654 1109.69 451.654C1109.69 451.654 1109.7 451.654 1109.71 451.654C1109.71 451.654 1109.71 451.654 1109.73 451.654C1111.89 451.654 1114.05 451.467 1116.18 451.094C1116.29 451.081 1116.41 451.054 1116.52 451.027C1116.57 451.027 1116.64 451.001 1116.69 451.001C1116.74 451.001 1116.8 450.974 1116.85 450.974C1117.26 450.894 1117.68 450.8 1118.09 450.707C1118.13 450.707 1118.17 450.694 1118.21 450.68C1118.29 450.667 1118.37 450.64 1118.45 450.627C1121.64 449.907 1124.84 448.986 1128.04 448.973H1128.07C1128.9 448.973 1129.72 449.04 1130.54 449.173C1129.42 450.347 1128.31 451.534 1127.19 452.708C1130.32 451.014 1133.51 449.293 1137.01 448.533C1138.59 448.186 1140.21 448.039 1141.81 448.039H1141.84C1146.58 448.039 1151.37 449.306 1156.12 450.267C1156.16 450.267 1156.19 450.28 1156.23 450.294C1156.28 450.294 1156.35 450.32 1156.4 450.334C1156.4 450.334 1156.43 450.334 1156.44 450.334C1156.72 450.387 1157 450.44 1157.28 450.494C1157.28 450.494 1157.31 450.494 1157.32 450.494C1157.35 450.494 1157.36 450.494 1157.39 450.494C1157.42 450.494 1157.46 450.494 1157.5 450.507C1157.52 450.507 1157.56 450.507 1157.59 450.52C1157.62 450.52 1157.63 450.52 1157.66 450.52C1157.66 450.52 1157.68 450.52 1157.7 450.52C1157.75 450.52 1157.79 450.534 1157.84 450.547C1157.9 450.547 1157.95 450.56 1158 450.574C1160.75 451.067 1163.79 451.267 1166.9 451.267C1166.9 451.267 1166.9 451.267 1166.91 451.267C1166.91 451.267 1166.93 451.267 1166.94 451.267C1171.86 451.267 1176.95 450.76 1181.31 450.12C1180.95 450 1180.59 449.893 1180.2 449.76C1176.07 448.359 1174.96 446.225 1172.97 442.343C1172.94 442.289 1172.93 442.209 1172.93 442.116C1172.93 441.836 1173.06 441.422 1173.26 440.942L1172.68 440.795C1170.29 439.475 1168.44 438.914 1166.05 438.261C1165.94 438.234 1165.82 438.194 1165.71 438.167C1165.65 438.154 1165.58 438.127 1165.51 438.114C1165.51 438.114 1165.5 438.114 1165.49 438.114C1162.27 437.287 1158.98 437.02 1155.66 437.02C1155.66 437.02 1155.64 437.02 1155.63 437.02C1155.63 437.02 1155.63 437.02 1155.62 437.02C1152.95 437.02 1150.25 437.193 1147.58 437.393C1147.38 437.407 1147.2 437.42 1147 437.434C1146.92 437.434 1146.85 437.434 1146.77 437.447C1147.96 435.326 1149.15 433.205 1150.35 431.07C1146.24 431.03 1142.14 430.697 1138.09 430.096C1139.09 429.176 1140.07 428.242 1141.07 427.308C1133.71 422.252 1125.37 418.65 1116.64 416.769C1111.14 415.582 1105.51 415.075 1100.01 413.968C1093.01 412.554 1086.26 410.193 1079.52 407.832C1083.1 402.375 1089.09 398.747 1095.44 397.266C1095.44 397.266 1095.52 397.253 1095.56 397.239C1095.64 397.226 1095.72 397.199 1095.8 397.186C1095.82 397.186 1095.84 397.186 1095.86 397.173C1098.68 396.559 1102.01 396.266 1105.4 396.266C1105.4 396.266 1105.4 396.266 1105.42 396.266C1105.42 396.266 1105.43 396.266 1105.44 396.266C1108.22 396.266 1111.02 396.466 1113.58 396.839C1113.06 396.292 1112.67 395.652 1112.43 394.918C1111.49 392.077 1113.23 389.675 1114.77 387.568C1115.66 386.34 1116.6 385.073 1116.96 383.792C1117.48 381.978 1116.73 380.431 1116.01 379.457C1114.58 377.522 1112.06 376.202 1109.71 376.148C1109.65 376.148 1109.58 376.148 1109.51 376.148" fill="#474035"/>
<path d="M1025.18 520.222C1021.76 522.917 1017.26 528.44 1015.29 532.308C1015.05 531.468 1014.86 530.641 1014.69 529.814C1014.62 529.453 1014.56 529.093 1014.49 528.733L1012 529.68C1011.45 533.015 1011.17 536.404 1011.17 539.779C1011.17 546.462 1012.24 553.159 1014.34 559.509C1015.82 555.52 1016.62 551.265 1016.69 546.996C1017.84 552.385 1019 557.788 1020.15 563.178C1021.52 560.83 1022.24 558.122 1022.23 555.414C1022.23 555.347 1022.23 555.28 1022.23 555.213C1022.32 555.814 1022.41 556.401 1022.53 556.988C1022.57 556.307 1022.59 555.627 1022.59 554.96C1022.59 549.757 1021.57 544.928 1021.57 538.992C1021.57 533.869 1022.33 527.919 1025.15 520.195" fill="#575448"/>
<path d="M1069.72 427.468C1056.43 428.682 1045.54 438.407 1032.79 442.369C1032.79 442.369 1032.78 442.369 1032.76 442.369C1032.66 442.409 1032.54 442.436 1032.43 442.476C1032.4 442.476 1032.38 442.489 1032.34 442.503C1032.34 442.503 1032.31 442.503 1032.3 442.503C1032.16 442.543 1032.03 442.596 1031.91 442.636C1031.88 442.636 1031.87 442.649 1031.84 442.663C1031.32 442.836 1030.8 442.983 1030.36 442.996C1030.36 442.996 1030.34 442.996 1030.32 442.996C1030.31 442.996 1030.3 442.996 1030.28 442.996C1028.62 449.359 1026.28 455.429 1023.15 461.486C1024.99 460.152 1026.94 458.978 1028.98 457.991C1026.03 462.553 1023.09 467.102 1020.16 471.664L1020.3 471.758C1032.7 459.365 1047.05 447.372 1064.41 444.877C1064.79 444.824 1065.27 444.69 1065.31 444.303L1065.21 444.09C1065.05 444.143 1064.89 444.183 1064.75 444.237C1063.85 444.53 1062.95 444.837 1062.07 445.184C1065.8 439.794 1071.1 435.526 1077.17 433.031C1068.74 434.712 1060.75 438.567 1054.2 444.143C1059.85 439.021 1065.06 433.431 1069.76 427.441" fill="#575448"/>
<path d="M1074.69 442.195C1071.47 442.502 1068.28 443.156 1065.17 444.103L1065.28 444.316C1065.24 444.703 1064.76 444.837 1064.37 444.89C1047.01 447.398 1032.66 459.378 1020.27 471.771L1020.12 471.677C1019.75 472.264 1019.37 472.838 1019 473.425C1022.39 471.024 1026.02 468.983 1029.8 467.315C1025.39 472.264 1021.57 477.734 1018.4 483.563C1025.03 476.12 1034.95 472.264 1044.41 468.742C1037.39 472.384 1032.38 478.854 1027.6 485.138C1035.05 480.295 1043.12 476.4 1051.54 473.598C1043.96 479.321 1037.86 486.965 1033.94 495.61C1041.76 489.513 1049.71 483.337 1058.89 479.548C1050.07 486.111 1042.45 494.289 1036.54 503.56C1043.18 496.383 1050.8 490.073 1059.09 484.897C1055.74 488.246 1052.56 491.781 1049.57 495.45C1051.52 493.142 1053.88 491.167 1056.47 489.62L1056.75 489.513L1056.89 489.393C1056.89 489.393 1063.21 482.856 1067.72 482.429C1068 482.403 1068.28 482.389 1068.56 482.389C1068.56 482.389 1068.62 482.389 1068.66 482.389C1072.65 482.429 1077.52 484.964 1081.28 487.806C1081.46 487.779 1081.64 487.739 1081.82 487.712C1086.18 486.938 1090.66 486.472 1095 486.031C1097.75 485.751 1100.57 485.458 1103.35 485.084C1115.4 483.483 1130.38 481.482 1142.77 476.213C1142.77 476.213 1142.8 476.213 1142.81 476.2L1144.22 475.586C1146.86 474.545 1149.6 473.852 1152.25 473.185C1153.19 472.945 1154.14 472.704 1155.07 472.451C1163.57 470.17 1171.32 466.581 1177.63 462.086C1173.83 463.473 1169.6 464.287 1165.75 464.287C1165.65 464.287 1165.53 464.287 1165.42 464.287C1165.33 464.34 1165.21 464.367 1165.1 464.367C1165.02 464.367 1164.93 464.353 1164.85 464.313L1164.66 464.26C1163.75 464.22 1162.97 464.153 1162.22 464.06C1160.23 464.3 1158.14 465.394 1156.28 466.354C1150.93 469.116 1146.2 470.477 1141.92 470.477C1140.82 470.477 1139.74 470.383 1138.7 470.21C1138.26 470.13 1137.82 470.036 1137.38 469.93C1137.17 469.876 1136.99 469.73 1136.91 469.516C1136.83 469.316 1136.86 469.089 1136.98 468.902C1139.51 465.167 1143.53 462.579 1148 461.779C1149.13 461.579 1150.27 461.499 1151.4 461.499C1153.83 461.499 1156.26 461.859 1158.63 462.219C1159.82 462.392 1161.01 462.579 1162.21 462.713C1162.49 462.673 1162.78 462.659 1163.05 462.659C1163.7 462.659 1164.33 462.753 1164.94 462.953C1165.21 462.953 1165.47 462.953 1165.74 462.953C1171.2 462.953 1177.44 461.245 1181.99 458.604C1182.8 457.883 1183.59 457.136 1184.34 456.376L1184.39 456.323C1186.21 454.468 1187.81 452.507 1189.17 450.48C1188.09 450.813 1187.06 450.96 1186.05 450.96C1186.05 450.96 1186.05 450.96 1186.03 450.96C1184.6 450.96 1183.18 450.666 1181.59 450.186C1181.54 450.173 1181.48 450.159 1181.43 450.133C1181.39 450.133 1181.35 450.106 1181.31 450.093C1176.95 450.733 1171.86 451.24 1166.94 451.24C1166.94 451.24 1166.93 451.24 1166.92 451.24C1166.92 451.24 1166.92 451.24 1166.9 451.24C1163.79 451.24 1160.75 451.04 1158 450.546C1157.95 450.546 1157.9 450.533 1157.84 450.52C1157.79 450.52 1157.75 450.506 1157.7 450.493C1157.7 450.493 1157.67 450.493 1157.66 450.493C1157.63 450.493 1157.62 450.493 1157.59 450.493C1157.56 450.493 1157.52 450.493 1157.5 450.48C1157.47 450.48 1157.43 450.48 1157.39 450.466C1157.36 450.466 1157.35 450.466 1157.32 450.466C1157.32 450.466 1157.3 450.466 1157.28 450.466C1157 450.413 1156.72 450.36 1156.44 450.306C1156.44 450.306 1156.42 450.306 1156.4 450.306C1156.35 450.306 1156.28 450.28 1156.23 450.266C1156.19 450.266 1156.16 450.253 1156.12 450.239C1151.37 449.279 1146.58 448.012 1141.84 448.012H1141.81C1140.21 448.012 1138.59 448.158 1137.01 448.505C1133.52 449.266 1130.32 450.987 1127.19 452.681C1128.3 451.507 1129.4 450.32 1130.54 449.146C1129.71 448.999 1128.88 448.945 1128.07 448.945H1128.04C1124.84 448.945 1121.64 449.866 1118.45 450.6C1118.37 450.613 1118.29 450.64 1118.21 450.653C1118.17 450.653 1118.13 450.666 1118.09 450.68C1117.68 450.773 1117.26 450.853 1116.85 450.947C1116.8 450.947 1116.74 450.973 1116.69 450.973C1116.64 450.973 1116.57 451 1116.52 451C1116.41 451.027 1116.29 451.04 1116.18 451.067C1114.06 451.44 1111.9 451.627 1109.73 451.627C1109.73 451.627 1109.73 451.627 1109.71 451.627C1109.71 451.627 1109.7 451.627 1109.69 451.627C1106.82 451.627 1103.95 451.293 1101.15 450.626C1103.16 449.906 1105.19 449.186 1107.2 448.479C1101.86 447.478 1096.52 446.491 1091.17 445.504C1087.57 444.837 1083.94 444.17 1080.28 444.17C1080.28 444.17 1080.27 444.17 1080.26 444.17C1079.86 444.17 1079.47 444.17 1079.07 444.196C1069.99 444.597 1061.81 449.492 1054.07 454.228C1060.49 449.492 1067.42 445.464 1074.69 442.209" fill="#65625B"/>
<path d="M1232.96 576.479C1240.41 576.866 1247.68 579.16 1254.41 582.362C1263.18 586.524 1271.2 592.247 1277.97 599.171C1277.12 597.41 1276 595.782 1274.62 594.368C1283.89 600.331 1291.9 608.282 1297.92 617.527C1300.66 621.756 1303.06 626.438 1303.21 631.481C1294.61 619.515 1284.38 607.842 1270.62 602.492C1272.82 602.519 1275.01 603.146 1276.89 604.32C1272.98 601.892 1269.77 598.224 1265.71 595.782C1262.56 593.875 1259.24 592.247 1256.11 590.313C1248.45 585.577 1240.98 580.654 1232.96 576.479ZM1028.95 458.018C1026.91 459.005 1024.96 460.179 1023.12 461.513C1022.93 461.873 1022.75 462.233 1022.55 462.593C1022.55 462.62 1022.52 462.647 1022.51 462.673C1020.84 465.822 1018.96 468.983 1016.73 472.332C1014.65 475.467 1012.37 478.508 1010.17 481.47C1008.41 483.831 1006.58 486.272 1004.87 488.727C1003.38 490.875 1001.51 493.116 999.534 495.49C996.613 498.985 993.611 502.601 991.784 505.976L991.97 506.096C992.504 506.456 993.918 507.403 993.211 508.884C988.155 519.223 984.02 529.962 980.084 540.5L983.486 537.139C983.713 536.912 984.02 536.792 984.326 536.792C984.473 536.792 984.62 536.818 984.767 536.872C985.207 537.045 985.5 537.472 985.527 537.952C986.114 555.948 979.978 584.777 961.034 585.47C954.271 585.724 948.094 587.658 939.01 592.394C933.58 595.209 926.416 595.822 919.506 596.409C915.517 596.743 911.755 597.063 908.474 597.783C901.497 599.317 894.653 602.839 888.69 607.975C875.337 619.501 868.36 638.231 870.908 655.693C870.948 655.973 870.881 656.267 870.734 656.507C870.467 656.934 870.574 657.094 870.654 657.214C871.188 657.975 873.242 658.642 875.203 658.642C875.737 658.642 876.244 658.588 876.737 658.481C879.539 657.854 881.54 655.173 883.488 652.225L884.848 650.17C889.744 642.753 894.8 635.069 902.497 630.494C912.556 624.49 919.066 623.21 925.096 623.21C927.23 623.21 929.311 623.37 931.472 623.53C933.754 623.703 936.115 623.89 938.743 623.89C939.05 623.89 939.343 623.89 939.65 623.89C943.252 623.837 946.827 623.637 950.282 623.437C954.471 623.21 958.54 622.983 962.609 622.983C965.357 622.983 968.091 623.09 970.866 623.357C969.919 622.81 969.265 622.369 968.852 621.943C968.492 621.569 968.425 621.009 968.665 620.555C968.878 620.155 969.292 619.915 969.732 619.915C969.799 619.915 969.852 619.915 969.919 619.928C972.574 620.342 975.402 620.835 978.297 621.342C986.461 622.77 995.639 624.37 1003.23 624.397L1002.62 621.996C1002.5 621.516 1002.67 621.022 1003.07 620.729C1003.28 620.568 1003.52 620.502 1003.78 620.502C1004 620.502 1004.22 620.568 1004.42 620.689C1008.03 622.97 1011.09 624.971 1013.89 626.892C1011.35 619.901 1010.06 612.484 1010.06 605.067C1010.06 601.372 1010.38 597.677 1011.02 594.035C1011.18 593.074 1011.41 592.06 1012.11 591.393C1013.11 601.852 1016.9 612.031 1022.99 620.608C1022.81 618.461 1022.73 616.313 1022.73 614.152C1022.73 607.949 1023.44 601.759 1024.83 595.716C1026.44 604.32 1028.35 613.511 1034.66 619.581C1033.91 615.873 1033.34 613.685 1033.34 611.27C1033.34 609.536 1033.63 607.695 1034.39 605.08C1036.05 614.379 1040.45 621.689 1047.44 629.093C1048.72 626.318 1049.85 623.317 1050.8 620.155C1052.39 614.886 1050.45 607.548 1050.43 607.468C1050.25 606.828 1050.64 606.174 1051.28 606.001C1051.39 605.974 1051.49 605.961 1051.59 605.961C1052.12 605.961 1052.6 606.321 1052.75 606.855C1052.84 607.188 1054.88 614.926 1053.1 620.849C1052.05 624.29 1050.81 627.545 1049.4 630.547C1046.44 636.937 1042.61 642.62 1037.35 648.423C1031.39 655.04 1024.2 661.029 1016.57 667.366L1013.53 669.901C1009.07 673.609 1004.03 677.811 998.214 680.359C994.625 681.934 990.943 682.734 987.461 682.734C984.62 682.734 981.912 682.2 979.511 681.12C978.283 680.573 977.123 679.893 976.002 679.239C974.255 678.212 972.6 677.224 970.773 676.798C970.039 676.624 969.292 676.544 968.558 676.544C964.369 676.544 960.207 679.132 956.259 681.827L952.016 684.722C957.606 686.469 963.903 688.844 968.078 693.766C968.425 694.18 968.758 694.62 969.092 695.047C969.852 696.034 970.559 696.955 971.453 697.648C972.827 698.702 974.641 699.183 976.682 699.649C985.447 701.677 996.239 703.692 1007.3 703.692C1018.36 703.692 1029.42 701.731 1039.19 695.874C1039.38 695.754 1039.6 695.701 1039.81 695.701C1040.1 695.701 1040.4 695.807 1040.62 696.008C1041.01 696.368 1041.13 696.928 1040.9 697.408C1040.8 697.635 1040.76 698.435 1041.34 699.876C1042.1 701.731 1043.38 703.291 1044.06 703.545C1044.12 703.558 1044.17 703.571 1044.22 703.571C1044.52 703.571 1044.86 703.251 1045.58 702.491C1046.32 701.704 1047.16 700.823 1048.36 700.49C1050.56 699.89 1053.3 697.328 1055.94 694.847C1058.11 692.806 1060.15 690.885 1062.05 689.898C1062.22 689.804 1062.41 689.764 1062.61 689.764C1062.91 689.764 1063.22 689.884 1063.45 690.111C1064.69 691.338 1065.32 692.499 1065.73 693.259L1065.89 693.566C1066.09 693.42 1066.41 693.153 1066.89 692.699C1074.65 685.455 1080.22 679.799 1083.95 674.023C1083.96 673.996 1083.98 673.969 1084 673.943C1087.49 668.567 1089.55 662.884 1091.18 654.386C1091.82 650.984 1092.45 646.902 1093.13 641.526C1093.21 640.926 1093.73 640.472 1094.32 640.472C1094.37 640.472 1094.42 640.472 1094.46 640.472C1095.13 640.592 1095.58 641.152 1095.5 641.819C1094.81 647.236 1094.18 651.371 1093.53 654.813L1093.81 654.866C1093.94 654.96 1094.08 655.04 1094.2 655.133C1096.7 656.801 1098.55 657.521 1099.92 657.534C1099.93 657.534 1099.96 657.534 1099.97 657.534C1105.74 657.534 1103.08 644.954 1106.64 638.511C1106.66 638.471 1106.68 638.444 1106.7 638.404C1106.7 638.391 1106.72 638.364 1106.72 638.351C1106.72 638.351 1106.72 638.338 1106.74 638.324C1106.74 638.311 1106.75 638.298 1106.76 638.271C1106.76 638.258 1106.79 638.231 1106.79 638.218C1106.82 638.178 1106.83 638.151 1106.86 638.111C1106.86 638.111 1106.87 638.084 1106.88 638.071C1109.02 641.94 1111.15 645.822 1113.27 649.704C1116.09 654.813 1119.09 660.136 1123.96 663.337C1120.56 658.655 1118.82 652.852 1118.82 647.062C1118.82 642.767 1119.8 638.484 1121.76 634.669C1134.18 657.508 1153.65 676.437 1176.84 688.203C1176.12 684.308 1175.76 680.346 1175.76 676.397C1175.76 674.783 1175.83 673.182 1175.95 671.568C1179.97 677.865 1184.28 684.428 1190.85 688.003C1193.66 689.524 1196.74 690.445 1199.77 691.472C1199.8 691.472 1199.84 691.499 1199.88 691.512C1208.04 694.3 1216.53 698.075 1224.9 698.075H1224.93C1227.2 698.075 1229.47 697.795 1231.71 697.155C1225.18 692.459 1220.05 685.829 1217.15 678.305C1223.85 678.625 1228.93 684.148 1233.91 688.644C1234.03 688.764 1234.16 688.871 1234.3 688.991C1234.3 688.991 1234.31 688.991 1234.32 689.004C1234.38 689.044 1234.43 689.097 1234.48 689.137C1244.01 697.395 1262.84 704.905 1279 705.026C1276.29 695.167 1263.15 682.654 1249.88 681.133C1249.22 681.066 1248.74 680.466 1248.82 679.799C1248.89 679.185 1249.41 678.732 1250.01 678.732C1250.05 678.732 1250.1 678.732 1250.16 678.732C1264.73 680.439 1278.63 693.833 1281.4 704.705C1281.96 706.893 1282.65 709.348 1283.43 711.802C1287.11 723.475 1293.03 737.496 1298.62 741.845C1313.98 753.784 1329.92 761.722 1349.17 770.86C1349.82 771.166 1350.58 771.273 1351.17 771.273C1351.44 771.273 1351.66 771.247 1351.84 771.206C1351.8 771.113 1351.78 771.02 1351.77 770.926C1351.69 770.273 1352.16 769.672 1352.82 769.592L1354.42 769.392C1353.68 764.016 1350.7 758.96 1348.06 754.478C1346.22 751.356 1344.33 749.088 1342.33 746.674C1340.35 744.313 1338.32 741.871 1336.39 738.59L1335.91 737.776C1334.55 735.455 1333.37 733.44 1331.43 731.733C1330.35 730.786 1329.29 729.118 1328.17 727.344C1327.25 725.876 1326.29 724.369 1325.53 723.662C1322.5 720.86 1320.91 717.098 1319.38 713.443C1318.46 711.242 1317.5 708.988 1316.25 707.013C1316.04 706.68 1315.83 706.373 1315.62 706.053C1314.86 704.919 1314.08 703.745 1313.67 702.317C1313.26 700.81 1313.31 699.289 1313.42 697.728C1313.9 694.98 1314.95 687.657 1314.31 685.175C1313.52 682.094 1312.19 673.396 1312.52 666.285C1312.9 657.921 1320.09 655.48 1323.54 654.319C1324.24 654.079 1324.84 654.039 1325.32 654.039C1325.45 654.039 1325.57 654.039 1325.68 654.039C1325.78 654.039 1325.88 654.039 1325.96 654.039C1326.32 654.039 1326.34 653.999 1326.49 653.812C1332.36 646.328 1331.69 634.296 1325.04 627.519C1324.68 627.145 1324.58 626.585 1324.82 626.118C1325.04 625.718 1325.45 625.478 1325.89 625.478C1325.96 625.478 1326.02 625.478 1326.09 625.491C1326.54 625.571 1327.01 625.611 1327.48 625.611C1329.36 625.611 1331.27 624.984 1332.79 623.864C1324.84 618.861 1320.02 610.39 1315.36 602.172C1314.75 601.092 1314.14 600.011 1313.52 598.944C1303.8 582.189 1292.51 569.582 1279.95 561.444C1274.29 557.789 1268.03 554.761 1260.98 552.266C1264.82 554.227 1268.82 556.442 1270.99 559.123C1267.17 556.669 1261.8 554.254 1257.64 552.426C1268.47 557.189 1277.67 565.633 1283.29 576.052C1277.24 574.038 1271.98 570.222 1266.21 567.474C1255.44 562.352 1243.33 561.058 1231.45 559.83C1241.43 565.847 1251.52 571.957 1259.8 580.148C1252.39 578.146 1245.37 574.878 1238.16 572.223C1238.14 572.223 1238.1 572.197 1238.07 572.183C1237.94 572.13 1237.8 572.09 1237.67 572.037C1237.63 572.037 1237.6 572.01 1237.56 571.997C1237.56 571.997 1237.54 571.997 1237.52 571.983C1237.4 571.943 1237.3 571.903 1237.18 571.863C1237.14 571.85 1237.1 571.837 1237.06 571.823C1237.06 571.823 1237.04 571.823 1237.03 571.823C1230.96 569.635 1224.62 567.955 1218.22 567.955H1218.19C1217.65 567.955 1217.1 567.955 1216.55 567.995C1216.5 567.995 1216.45 567.995 1216.39 567.995C1216.39 567.995 1216.39 567.995 1216.38 567.995C1216.38 567.995 1216.33 567.995 1216.29 567.995C1216.23 567.995 1216.17 567.995 1216.11 567.995C1215.97 567.995 1215.81 568.021 1215.66 568.021C1217.19 569.916 1218.05 571.063 1219.94 572.597C1227.81 578.987 1247.3 592.701 1255.47 598.744C1238.93 589.072 1215.67 582.042 1203.69 573.304C1207.23 578.72 1211.2 583.856 1215.55 588.645C1209.59 587.084 1204.31 583.696 1199.12 580.361C1192.97 576.426 1186.84 572.477 1180.71 568.528C1176 565.5 1171.1 562.258 1168.48 557.336C1169.05 562.725 1170.69 568.008 1173.25 572.784C1175.01 576.052 1177.28 579.4 1177.28 583.056C1177.28 583.336 1177.28 583.616 1177.24 583.896C1164.45 578.373 1153.52 568.608 1146.64 556.495C1146.44 560.964 1146.25 565.447 1146.05 569.916C1140.22 565.38 1136.43 558.336 1135.84 550.986L1136.99 550.145C1135.44 547.958 1134.38 545.263 1133.46 542.701C1132.67 540.527 1130.27 535.284 1130.27 531.749C1130.27 530.735 1130.46 529.855 1130.95 529.228C1130.95 529.228 1130.96 529.214 1130.98 529.201C1130.98 529.201 1130.99 529.188 1131 529.174C1131.27 528.841 1131.56 528.694 1131.87 528.694C1131.87 528.694 1131.91 528.694 1131.92 528.694C1132.94 528.748 1134.06 530.468 1135.02 532.429C1135.06 532.496 1135.08 532.563 1135.12 532.63C1135.14 532.67 1135.16 532.71 1135.18 532.75L1137.62 532.896C1132.86 523.918 1130.3 513.753 1130.3 503.588C1130.3 502.627 1130.32 501.68 1130.36 500.72C1130.36 500.64 1130.36 500.56 1130.36 500.48C1130.36 499.986 1130.24 499.452 1129.78 499.332C1129.59 499.292 1129.52 498.879 1129.52 498.358C1129.52 498.038 1129.55 497.678 1129.6 497.331L1127.6 498.198C1127.44 498.265 1127.28 498.305 1127.12 498.305C1126.84 498.305 1126.57 498.212 1126.36 498.025C1126.01 497.731 1125.85 497.278 1125.96 496.838C1127.27 491.048 1130.42 485.699 1134.75 481.63C1124.12 484.778 1112.59 486.312 1103.64 487.5C1100.84 487.873 1097.99 488.167 1095.22 488.447C1090.93 488.887 1086.5 489.34 1082.22 490.101C1081.34 490.248 1080.46 490.421 1079.58 490.608C1077.25 492.169 1074.87 493.596 1072.24 494.516C1069.76 495.397 1067.14 495.797 1064.65 496.584C1063.91 496.811 1063.21 497.078 1062.5 497.385C1062.63 497.398 1062.77 497.411 1062.91 497.425C1062.97 497.425 1063.02 497.425 1063.07 497.438C1064.02 497.531 1064.97 497.571 1065.92 497.571C1065.92 497.571 1065.94 497.571 1065.96 497.571C1066.13 497.571 1066.29 497.571 1066.46 497.571C1066.65 497.571 1066.84 497.571 1067.02 497.558C1066.14 498.679 1066.66 499.012 1065.6 499.959C1061.53 503.548 1057.27 506.923 1052.83 510.045C1058.42 509.191 1063.81 507.11 1068.53 504.015C1063.34 509.631 1058.42 515.501 1053.78 521.584C1059.75 517.595 1065.74 513.58 1071.72 509.591C1074.56 507.683 1077.61 505.722 1081.04 505.616C1074.71 512.646 1069.57 520.757 1065.93 529.481C1072.79 523.732 1079.94 518.315 1087.34 513.3C1087.35 513.3 1087.37 513.273 1087.39 513.273C1087.39 513.273 1087.42 513.26 1087.43 513.246C1087.45 513.246 1087.46 513.233 1087.47 513.22C1087.49 513.22 1087.5 513.206 1087.51 513.193C1087.57 513.166 1087.61 513.126 1087.66 513.099C1087.69 513.086 1087.7 513.073 1087.73 513.059C1088.83 512.339 1090.09 511.672 1091.33 511.659C1091.33 511.659 1091.33 511.659 1091.34 511.659C1091.66 511.659 1091.97 511.699 1092.28 511.792C1092.3 511.792 1092.34 511.819 1092.37 511.819C1092.17 512.006 1092.09 512.206 1092.09 512.406C1092.09 513.233 1093.53 514.073 1094.64 514.087C1094.73 514.087 1094.84 514.087 1094.93 514.087C1095.02 514.087 1095.12 514.087 1095.21 514.087C1095.21 514.087 1095.26 514.087 1095.29 514.087C1098.39 514.087 1101.49 513.566 1104.43 512.566C1104.43 512.566 1104.43 512.566 1104.44 512.566C1104.51 512.539 1104.58 512.512 1104.66 512.499C1098.95 516.861 1092.65 520.437 1086.01 523.131C1087.11 523.225 1088.23 523.265 1089.34 523.265C1089.34 523.265 1089.35 523.265 1089.37 523.265C1097.02 523.265 1104.68 521.197 1111.27 517.315C1111.3 517.302 1111.34 517.275 1111.37 517.262C1103 527.774 1087.87 530.415 1078.24 539.807C1075.75 542.248 1073.59 545.183 1070.41 546.61C1067.74 547.824 1064.66 547.837 1061.94 548.931C1058.4 550.359 1055.84 553.427 1053.44 556.375C1053.44 556.375 1053.52 556.349 1053.56 556.335C1053.56 556.335 1053.58 556.335 1053.59 556.335C1053.63 556.335 1053.68 556.308 1053.72 556.295C1053.76 556.295 1053.8 556.268 1053.84 556.268C1055.24 555.922 1056.67 555.735 1058.11 555.735C1058.11 555.735 1058.14 555.735 1058.15 555.735C1058.35 555.735 1058.55 555.735 1058.76 555.735C1052.9 559.403 1047.65 564.059 1043.33 569.475C1044.09 567.861 1044.48 566.1 1044.48 564.313C1044.48 564.139 1044.48 563.979 1044.48 563.806H1044.38C1042.12 565.793 1040.29 568.301 1039.05 571.063C1038.51 569.555 1038.23 567.941 1038.23 566.34C1038.23 565.887 1038.26 565.447 1038.3 564.993C1036.75 567.421 1035.34 569.942 1034.1 572.544C1033.74 571.156 1033.39 569.755 1033.03 568.368C1031.8 569.755 1030.58 571.143 1029.34 572.53C1027.76 569.355 1028.18 565.567 1027.6 562.085C1027.07 563.952 1026.53 565.807 1025.99 567.688C1024.56 564.686 1023.48 561.511 1022.76 558.27C1022.63 558.43 1022.49 558.59 1022.36 558.736C1022.41 558.163 1022.47 557.616 1022.51 557.056V557.029C1022.4 556.442 1022.29 555.855 1022.2 555.255C1022.2 555.255 1022.2 555.388 1022.2 555.455C1022.2 558.163 1021.48 560.871 1020.12 563.219C1018.96 557.816 1017.8 552.426 1016.66 547.037C1016.6 551.306 1015.8 555.548 1014.32 559.55C1012.21 553.2 1011.14 546.517 1011.14 539.82C1011.14 536.432 1011.42 533.056 1011.97 529.721C1010.11 535.631 1008.43 541.581 1006.88 547.584C1006.87 546.81 1006.86 546.037 1006.86 545.263C1006.86 535.044 1008.29 524.826 1011.1 515.007C1007.24 521.13 1003.82 527.52 1000.88 534.137C1000.81 532.99 1000.77 531.856 1000.77 530.709C1000.77 520.997 1003.31 511.312 1008.1 502.854C1003.9 508.457 999.708 514.06 995.506 519.65C998.6 508.204 1002.86 494.41 1017.56 485.125C1017.82 484.618 1018.1 484.111 1018.37 483.604C1021.53 477.774 1025.36 472.305 1029.78 467.356C1025.99 469.037 1022.36 471.078 1018.97 473.466C1019.34 472.879 1019.72 472.305 1020.09 471.718C1023.03 467.156 1025.96 462.607 1028.91 458.044" fill="#474035"/>
<path d="M1280.68 713.377C1278.85 713.377 1275.65 713.377 1271.78 713.377C1273.38 722.195 1270.47 732.6 1264.73 738.15L1263.47 739.364C1256.52 746.074 1250.52 751.864 1240.9 754.678C1239.99 755.159 1237.47 759.294 1237.48 760.335C1238.71 764.523 1240.31 766.778 1241.35 767.111C1241.43 767.138 1241.53 767.151 1241.63 767.151C1241.82 767.151 1242.06 767.085 1242.38 766.845L1242.63 766.658C1244.58 765.177 1247.52 762.949 1250.12 762.949C1250.82 762.949 1251.52 763.123 1252.15 763.51C1252.73 763.31 1254.07 762.376 1254.89 761.802C1256.56 760.628 1257.99 759.628 1259.12 759.628C1259.56 759.628 1259.95 759.774 1260.3 760.121C1260.8 760.628 1261.19 761.028 1261.5 761.362C1261.72 761.602 1261.95 761.842 1262.11 761.989C1262.2 761.949 1262.3 761.882 1262.43 761.829C1262.95 761.562 1263.74 761.162 1264.98 760.708L1267.5 759.788C1280.45 755.052 1289.15 751.877 1296.31 742.992C1289.44 736.616 1283.53 719.78 1281.48 713.39C1281.25 713.39 1281 713.39 1280.69 713.39" fill="#423C34"/>
<path d="M1017.6 485.084C1002.9 494.382 998.642 508.163 995.547 519.609C999.749 514.006 1003.94 508.403 1008.14 502.813L1010.58 503.44C1012.22 497.077 1014.58 490.914 1017.61 485.084" fill="#575448"/>
<path d="M1044.42 468.742C1034.97 472.264 1025.03 476.119 1018.41 483.563C1018.13 484.07 1017.86 484.577 1017.6 485.084C1014.58 490.914 1012.21 497.077 1010.57 503.44C1009.97 505.721 1009.49 508.029 1009.09 510.364C1011.22 505.174 1014.32 500.385 1018.17 496.29C1016.4 506.468 1014.01 514.579 1014.01 522.663C1014.01 524.678 1014.16 526.692 1014.49 528.733C1014.56 529.08 1014.61 529.44 1014.69 529.814C1014.86 530.641 1015.05 531.468 1015.29 532.308C1017.26 528.44 1021.76 522.917 1025.17 520.222C1022.35 527.946 1021.6 533.896 1021.6 539.019C1021.6 544.955 1022.61 549.784 1022.61 554.987C1022.61 555.654 1022.6 556.334 1022.56 557.015V557.041C1022.64 557.441 1022.73 557.855 1022.83 558.255C1026.84 553.506 1030.63 545.689 1035.75 542.447C1033.1 548.797 1030.16 555.027 1026.96 561.11C1033.33 552.839 1042.29 546.583 1052.25 543.461C1046.44 548.317 1040.61 553.199 1034.78 558.055C1033.47 561.444 1032.64 565.032 1032.38 568.647C1032.59 568.527 1032.79 568.38 1033 568.234C1036.86 565.739 1040.42 562.818 1043.61 559.536C1044.18 560.897 1044.5 562.351 1044.56 563.818C1044.56 563.992 1044.56 564.152 1044.56 564.325C1044.56 566.113 1044.17 567.874 1043.41 569.488C1047.73 564.072 1052.98 559.416 1058.85 555.747C1058.64 555.747 1058.44 555.747 1058.23 555.747C1058.23 555.747 1058.2 555.747 1058.19 555.747C1056.75 555.747 1055.32 555.934 1053.92 556.281C1053.88 556.281 1053.84 556.308 1053.8 556.308C1053.76 556.308 1053.71 556.334 1053.67 556.348C1053.67 556.348 1053.66 556.348 1053.64 556.348C1053.6 556.348 1053.56 556.374 1053.52 556.388C1055.92 553.426 1058.48 550.358 1062.02 548.944C1064.74 547.85 1067.81 547.836 1070.49 546.623C1073.67 545.195 1075.83 542.26 1078.32 539.819C1087.95 530.427 1103.08 527.786 1111.45 517.274C1111.45 517.274 1111.38 517.314 1111.35 517.327C1104.76 521.209 1097.1 523.277 1089.45 523.277C1089.45 523.277 1089.43 523.277 1089.42 523.277C1088.3 523.277 1087.19 523.237 1086.09 523.144C1092.73 520.449 1099.03 516.887 1104.74 512.512C1104.67 512.538 1104.6 512.565 1104.52 512.578C1104.52 512.578 1104.52 512.578 1104.51 512.578C1101.57 513.579 1098.47 514.099 1095.37 514.099C1095.34 514.099 1095.32 514.099 1095.29 514.099C1095.2 514.099 1095.1 514.099 1095.01 514.099C1094.92 514.099 1094.81 514.099 1094.72 514.099C1093.61 514.086 1092.17 513.245 1092.17 512.418C1092.17 512.218 1092.25 512.018 1092.45 511.831C1092.45 511.831 1092.38 511.804 1092.36 511.804C1092.05 511.711 1091.73 511.671 1091.42 511.671C1091.42 511.671 1091.42 511.671 1091.41 511.671C1090.17 511.671 1088.91 512.351 1087.81 513.072C1087.78 513.085 1087.77 513.099 1087.74 513.112C1087.69 513.139 1087.65 513.179 1087.59 513.205C1087.58 513.205 1087.57 513.219 1087.55 513.232C1087.54 513.232 1087.53 513.245 1087.51 513.259C1087.51 513.259 1087.49 513.272 1087.47 513.285C1087.46 513.285 1087.45 513.312 1087.42 513.312C1080 518.315 1072.87 523.744 1066.01 529.494C1069.65 520.769 1074.79 512.658 1081.12 505.628C1077.69 505.735 1074.65 507.696 1071.8 509.603C1065.82 513.592 1059.85 517.608 1053.86 521.596C1058.5 515.513 1063.42 509.643 1068.61 504.027C1063.9 507.135 1058.5 509.203 1052.91 510.057C1057.34 506.935 1061.61 503.56 1065.68 499.972C1066.74 499.025 1066.22 498.691 1067.1 497.57C1066.92 497.57 1066.73 497.57 1066.54 497.584C1066.37 497.584 1066.21 497.584 1066.04 497.584C1066.04 497.584 1066.01 497.584 1066 497.584C1065.05 497.584 1064.1 497.544 1063.15 497.45C1063.1 497.45 1063.05 497.45 1062.99 497.437C1062.86 497.424 1062.73 497.41 1062.58 497.397C1060.01 498.451 1057.55 499.852 1055.12 501.252C1051.75 503.187 1048.36 505.121 1044.98 507.069C1046.6 502.64 1050.12 499.198 1053.55 495.943C1053.55 495.943 1053.52 495.943 1053.51 495.943C1053.36 495.943 1053.22 495.93 1053.07 495.93C1053.07 495.93 1053.06 495.93 1053.04 495.93C1050.99 495.93 1049.05 497.037 1047.29 498.157C1047.28 498.157 1047.27 498.171 1047.25 498.184C1047.25 498.184 1047.23 498.197 1047.21 498.211C1047.17 498.237 1047.12 498.264 1047.08 498.304C1047.07 498.304 1047.04 498.331 1047.03 498.344C1050.15 495.276 1053.43 492.354 1056.84 489.593L1056.56 489.7C1053.98 491.247 1051.61 493.222 1049.67 495.529C1052.66 491.861 1055.83 488.326 1059.18 484.977C1050.88 490.153 1043.28 496.463 1036.63 503.64C1042.54 494.369 1050.16 486.191 1058.98 479.628C1049.8 483.416 1041.85 489.58 1034.03 495.689C1037.95 487.032 1044.06 479.401 1051.63 473.678C1043.2 476.48 1035.14 480.375 1027.7 485.217C1032.47 478.934 1037.5 472.464 1044.5 468.822" fill="#605D52"/>
<path d="M1018.19 496.277C1014.33 500.359 1011.24 505.162 1009.1 510.351C1009.5 508.03 1009.99 505.709 1010.58 503.428L1008.14 502.801C1003.36 511.258 1000.82 520.943 1000.82 530.655C1000.82 531.802 1000.86 532.95 1000.92 534.084C1003.86 527.467 1007.29 521.077 1011.14 514.954C1008.33 524.772 1006.9 534.991 1006.9 545.209C1006.9 545.983 1006.9 546.757 1006.93 547.531C1008.47 541.527 1010.15 535.578 1012.01 529.668L1014.5 528.721C1014.17 526.68 1014.02 524.665 1014.02 522.651C1014.02 514.553 1016.41 506.443 1018.19 496.277Z" fill="#575448"/>
<path d="M1271.77 713.39C1271.29 713.39 1270.79 713.39 1270.29 713.39C1269.97 713.39 1269.65 713.39 1269.33 713.39C1271.13 722.301 1267.63 731.999 1263.04 736.428L1261.79 737.629C1255.07 744.112 1249.26 749.715 1240.22 752.356C1238.59 752.823 1236.64 756.252 1236.27 756.919C1234.78 759.654 1235.04 760.561 1235.15 760.894C1235.95 763.656 1237.72 768.431 1240.59 769.379C1240.74 769.432 1240.9 769.472 1241.07 769.499C1241.25 769.525 1241.42 769.552 1241.62 769.552C1242.26 769.552 1243.02 769.352 1243.81 768.752L1244.06 768.565C1245.53 767.458 1248.3 765.35 1250.06 765.35C1250.41 765.35 1250.72 765.43 1250.96 765.617C1251.26 765.843 1251.61 765.95 1251.97 765.95C1253.13 765.95 1254.56 764.95 1256.25 763.762C1257.03 763.215 1258.25 762.362 1258.87 762.108C1259.22 762.468 1259.51 762.762 1259.75 763.015C1260.63 763.936 1261.18 764.443 1261.94 764.443C1262.36 764.443 1262.86 764.283 1263.51 763.949C1264 763.696 1264.68 763.349 1265.79 762.949L1268.3 762.028C1281.16 757.332 1290.56 753.891 1298.16 744.486C1297.84 744.246 1297.53 744.005 1297.21 743.752C1296.9 743.512 1296.59 743.245 1296.29 742.965C1289.12 751.849 1280.43 755.024 1267.47 759.76L1264.95 760.681C1263.71 761.134 1262.92 761.534 1262.4 761.801C1262.28 761.868 1262.18 761.921 1262.08 761.961C1261.92 761.815 1261.7 761.574 1261.47 761.334C1261.16 761.014 1260.78 760.601 1260.27 760.094C1259.92 759.747 1259.54 759.6 1259.1 759.6C1257.96 759.6 1256.55 760.601 1254.87 761.775C1254.04 762.348 1252.71 763.282 1252.12 763.482C1251.49 763.082 1250.8 762.922 1250.09 762.922C1247.49 762.922 1244.54 765.163 1242.61 766.63L1242.35 766.817C1242.03 767.057 1241.81 767.124 1241.61 767.124C1241.5 767.124 1241.42 767.097 1241.33 767.084C1240.29 766.737 1238.68 764.483 1237.46 760.307C1237.43 759.267 1239.97 755.131 1240.87 754.651C1250.49 751.836 1256.49 746.046 1263.44 739.336L1264.7 738.122C1270.45 732.573 1273.36 722.167 1271.76 713.349M1270.29 710.988H1270.3Z" fill="#46402B"/>
<path d="M1143.73 478.455C1143.73 478.455 1143.72 478.455 1143.7 478.455C1140.86 479.669 1137.86 480.71 1134.79 481.617C1130.47 485.686 1127.31 491.035 1126 496.825C1125.91 497.265 1126.05 497.732 1126.4 498.012C1126.61 498.199 1126.89 498.292 1127.16 498.292C1127.32 498.292 1127.48 498.266 1127.64 498.186L1129.64 497.318L1129.75 497.278C1134.22 502.348 1137.98 508.564 1141.64 514.594C1142.5 516.021 1143.36 517.422 1144.2 518.796C1144.42 519.156 1144.81 519.37 1145.22 519.37C1145.22 519.37 1145.24 519.37 1145.25 519.37C1145.29 519.37 1145.32 519.37 1145.36 519.37C1147.57 519.37 1149.44 521.318 1151.24 523.212L1151.93 523.932C1158.68 530.842 1168.17 534.044 1175.68 536.058C1188.13 539.394 1201.28 541.141 1214.01 542.822C1218.22 543.382 1222.44 543.943 1226.64 544.556C1230.32 545.09 1233.6 545.61 1236.68 546.144C1239.49 546.651 1242.14 547.171 1244.66 547.718C1248.13 548.478 1251.36 549.292 1254.4 550.172C1256.68 550.826 1258.88 551.533 1261.02 552.294C1268.09 554.788 1274.33 557.816 1279.99 561.472C1292.54 569.596 1303.84 582.216 1313.56 598.971C1314.18 600.038 1314.79 601.119 1315.41 602.199C1320.07 610.417 1324.88 618.888 1332.83 623.891C1331.31 625.011 1329.41 625.638 1327.52 625.638C1327.05 625.638 1326.58 625.598 1326.13 625.518C1326.06 625.518 1326 625.505 1325.93 625.505C1325.49 625.505 1325.08 625.745 1324.86 626.145C1324.62 626.612 1324.7 627.172 1325.08 627.546C1331.73 634.323 1332.4 646.356 1326.53 653.839C1326.38 654.026 1326.36 654.066 1326 654.066C1325.92 654.066 1325.82 654.066 1325.72 654.066C1325.61 654.066 1325.48 654.066 1325.36 654.066C1324.88 654.066 1324.28 654.106 1323.58 654.346C1320.13 655.52 1312.94 657.948 1312.56 666.313C1312.23 673.423 1313.55 682.121 1314.35 685.202C1314.99 687.684 1313.94 695.007 1313.46 697.756C1313.35 699.316 1313.3 700.837 1313.71 702.345C1314.12 703.772 1314.9 704.946 1315.66 706.08C1315.87 706.4 1316.07 706.707 1316.29 707.04C1317.54 709.015 1318.49 711.283 1319.42 713.47C1320.95 717.112 1322.54 720.888 1325.57 723.689C1326.33 724.396 1327.29 725.903 1328.21 727.371C1329.33 729.145 1330.39 730.813 1331.47 731.76C1333.41 733.467 1334.6 735.482 1335.95 737.803L1336.43 738.617C1338.36 741.885 1340.39 744.326 1342.37 746.701C1344.37 749.102 1346.26 751.383 1348.1 754.505C1350.74 759.001 1353.72 764.043 1354.47 769.419L1352.86 769.619C1352.21 769.7 1351.73 770.3 1351.81 770.954C1351.81 771.047 1351.85 771.154 1351.88 771.234C1351.73 770.687 1351.94 770.073 1352.45 769.806C1352.65 769.699 1352.85 769.646 1353.05 769.646C1353.46 769.646 1353.84 769.846 1354.05 770.246C1354.35 770.793 1354.44 771.354 1354.33 771.847L1355.92 771.647C1356.56 771.567 1357.03 771.007 1356.97 770.367C1356.47 764.003 1353.12 758.307 1350.16 753.278C1348.22 749.983 1346.17 747.528 1344.19 745.153C1342.19 742.752 1340.31 740.498 1338.48 737.389L1338 736.576C1336.6 734.174 1335.27 731.907 1333.03 729.932C1332.2 729.225 1331.2 727.624 1330.21 726.077C1329.16 724.409 1328.16 722.835 1327.16 721.915C1324.52 719.473 1323.09 716.098 1321.6 712.537C1320.63 710.255 1319.63 707.894 1318.29 705.76C1318.07 705.426 1317.86 705.093 1317.63 704.746C1316.95 703.719 1316.3 702.745 1316.01 701.691C1315.69 700.557 1315.74 699.316 1315.82 698.049C1315.99 697.035 1317.54 688.031 1316.66 684.615C1315.93 681.761 1314.63 673.223 1314.95 666.433C1315.22 660.523 1319.62 658.228 1324.34 656.628C1324.72 656.508 1325.02 656.481 1325.36 656.481C1325.46 656.481 1325.56 656.481 1325.66 656.481C1325.76 656.481 1325.86 656.481 1325.97 656.481C1326.7 656.481 1327.62 656.374 1328.44 655.334C1334.55 647.556 1334.46 635.857 1328.61 627.999C1331.29 627.733 1333.91 626.492 1335.75 624.518C1336 624.251 1336.11 623.877 1336.06 623.517C1336 623.157 1335.78 622.837 1335.44 622.65C1327.21 618.128 1322.28 609.43 1317.5 601.025C1316.89 599.932 1316.26 598.851 1315.65 597.77C1305.73 580.682 1294.18 567.795 1281.29 559.471C1273.73 554.588 1265.15 550.799 1255.07 547.878C1249.73 546.33 1243.85 544.983 1237.1 543.782C1233.99 543.236 1230.68 542.715 1226.99 542.182C1222.78 541.568 1218.56 541.008 1214.33 540.447C1201.68 538.78 1188.61 537.046 1176.31 533.751C1169.09 531.816 1159.99 528.748 1153.65 522.265L1152.97 521.558C1151.03 519.53 1148.84 517.249 1145.9 517.009C1145.17 515.821 1144.44 514.607 1143.69 513.38C1139.82 507.003 1135.83 500.413 1130.95 495.064C1130.72 494.81 1130.39 494.677 1130.07 494.677C1129.91 494.677 1129.75 494.704 1129.59 494.77L1128.99 495.024C1131.35 487.807 1136.83 481.59 1143.73 478.482M1109.53 373.788C1104.44 373.788 1099.93 376.763 1096.09 379.564C1092.49 382.205 1088.07 387.542 1089.09 392.437C1077.63 392.811 1066.34 396.613 1057 403.243C1053.92 399.174 1048.96 397.32 1043.98 397.32C1040.48 397.32 1036.95 398.24 1034.11 399.961C1027.51 403.923 1022.83 411.727 1021.27 421.399C1020.85 424.014 1020.43 427.922 1021.56 431.644C1022.56 434.993 1026.8 439.048 1028.64 439.502C1028.46 440.329 1028.26 441.143 1028.06 441.93C1026.34 448.68 1023.83 455.097 1020.39 461.527C1020.37 461.553 1020.36 461.593 1020.35 461.62C1020.36 461.593 1020.37 461.567 1020.39 461.54C1020.6 461.126 1021.01 460.9 1021.45 460.9C1021.64 460.9 1021.84 460.94 1022.01 461.033C1022.57 461.326 1022.8 462.007 1022.56 462.567C1022.75 462.207 1022.95 461.847 1023.13 461.487C1026.27 455.43 1028.6 449.36 1030.27 442.997C1030.31 442.837 1030.35 442.677 1030.39 442.503C1030.55 441.836 1030.72 441.169 1030.88 440.489C1031.28 440.169 1031.46 439.622 1031.34 439.062C1031.18 438.288 1030.43 437.354 1029.19 437.154C1028.32 436.914 1024.68 433.685 1023.87 430.937C1023.12 428.469 1023.05 425.548 1023.65 421.773C1025.11 412.808 1029.38 405.604 1035.37 402.002C1037.83 400.522 1040.89 399.735 1043.93 399.735C1048.6 399.735 1053.24 401.575 1055.71 405.551C1055.88 405.831 1056.18 406.031 1056.51 406.098C1056.59 406.124 1056.68 406.138 1056.76 406.138C1057.02 406.138 1057.24 406.031 1057.44 405.884C1067 398.774 1078.84 394.839 1090.77 394.785C1091.18 394.785 1091.57 394.572 1091.78 394.212C1092 393.851 1092.02 393.411 1091.84 393.051C1089.97 389.316 1094.04 384.033 1097.52 381.485C1101.2 378.79 1105.16 376.162 1109.53 376.162C1109.59 376.162 1109.66 376.162 1109.73 376.162C1112.06 376.216 1114.59 377.55 1116.02 379.471C1116.74 380.445 1117.49 381.992 1116.97 383.806C1116.61 385.074 1115.68 386.354 1114.78 387.582C1113.25 389.703 1111.5 392.091 1112.45 394.932C1112.69 395.666 1113.07 396.306 1113.59 396.853C1114.41 397.707 1115.58 398.334 1117.12 398.761C1118.48 399.134 1119.93 399.294 1121.42 399.454C1134.83 400.695 1147.24 408.739 1153.87 420.452C1154.03 420.745 1154.31 420.946 1154.63 421.026C1164.5 423.373 1175.65 426.015 1185 431.498C1185.31 431.684 1185.62 431.858 1185.92 432.045C1188.05 433.352 1190.05 434.806 1191.87 436.38C1192.73 437.114 1193.65 437.994 1193.89 438.982C1194.12 439.875 1193.88 440.862 1193.45 442.09C1192.62 444.438 1191.53 446.759 1190.18 448.96L1190.09 449.093C1189.81 449.56 1189.5 450.014 1189.19 450.481C1187.83 452.509 1186.23 454.47 1184.42 456.324L1184.36 456.377C1183.62 457.138 1182.83 457.885 1182.02 458.605C1183.04 458.018 1183.98 457.378 1184.8 456.697L1184.96 456.564C1185.08 456.484 1185.2 456.457 1185.34 456.457C1185.55 456.457 1185.76 456.564 1185.9 456.751C1186.1 457.044 1186.03 457.444 1185.74 457.658L1185.62 457.751C1183.54 459.472 1180.74 460.953 1177.65 462.073C1171.34 466.569 1163.59 470.158 1155.1 472.439C1154.16 472.692 1153.23 472.932 1152.28 473.173C1149.63 473.853 1146.89 474.547 1144.25 475.574L1142.84 476.187C1143.32 475.987 1143.77 475.787 1144.21 475.587L1145.18 477.775C1147.64 476.814 1150.31 476.134 1152.87 475.48C1153.81 475.24 1154.78 475 1155.71 474.747C1167.93 471.465 1178.69 465.555 1186.03 458.085L1186.08 458.031C1188.41 455.657 1190.41 453.122 1192.03 450.481L1192.14 450.347C1193.61 447.959 1194.81 445.438 1195.72 442.877C1196.21 441.463 1196.61 439.955 1196.22 438.395C1195.81 436.74 1194.58 435.526 1193.44 434.553C1191.51 432.898 1189.41 431.364 1187.18 429.99C1177.48 424.027 1165.94 421.226 1155.68 418.784C1148.61 406.658 1135.61 398.334 1121.64 397.04C1120.26 396.906 1118.93 396.746 1117.74 396.426C1116.04 395.946 1115.07 395.226 1114.71 394.145C1114.15 392.477 1115.34 390.85 1116.72 388.969C1117.73 387.568 1118.78 386.127 1119.26 384.447C1119.88 382.299 1119.41 380.018 1117.94 378.017C1116.08 375.482 1112.87 373.788 1109.77 373.734C1109.69 373.734 1109.61 373.734 1109.51 373.734" fill="#46402B"/>
<path d="M1021.45 460.912C1021.03 460.912 1020.6 461.139 1020.39 461.552C1020.37 461.579 1020.36 461.606 1020.35 461.632C1018.73 464.687 1016.89 467.742 1014.73 470.997C1012.69 474.079 1010.42 477.094 1008.25 480.015C1006.47 482.39 1004.63 484.858 1002.91 487.339C1001.47 489.407 999.642 491.608 997.694 493.929C994.572 497.664 991.344 501.533 989.45 505.268C988.663 506.763 990.103 507.723 990.65 508.083L990.864 508.23C985.047 520.209 980.432 532.669 975.963 544.729C975.763 545.262 975.963 545.849 976.443 546.156C976.643 546.29 976.87 546.343 977.097 546.343C977.403 546.343 977.71 546.223 977.937 545.996L983.18 540.82C983.073 557.922 977.243 582.468 960.955 583.055C953.804 583.322 947.348 585.337 937.916 590.246C932.914 592.847 926.003 593.434 919.307 593.994C915.238 594.341 911.396 594.661 907.967 595.422C900.604 597.036 893.387 600.745 887.13 606.134C873.269 618.114 865.986 637.497 868.48 655.626C868 656.64 868.08 657.694 868.694 658.588C869.521 659.762 871.268 660.536 873.163 660.856C873.843 660.976 874.523 661.029 875.204 661.029C875.924 661.029 876.631 660.962 877.271 660.816C881.26 659.935 883.715 656.24 885.516 653.545L886.876 651.491C891.626 644.3 896.521 636.857 903.739 632.548C913.303 626.838 919.32 625.611 925.083 625.611C927.137 625.611 929.152 625.771 931.299 625.931C933.634 626.118 936.049 626.291 938.757 626.291C939.064 626.291 939.384 626.291 939.69 626.291C943.332 626.238 946.934 626.038 950.416 625.838C954.538 625.611 958.554 625.384 962.556 625.384C967.131 625.384 971.68 625.677 976.336 626.558H976.363C976.43 626.571 976.496 626.585 976.563 626.585C976.99 626.585 977.403 626.358 977.617 625.958C977.87 625.504 977.79 624.93 977.443 624.557C977.083 624.17 976.523 623.783 975.749 623.33C976.456 623.45 977.163 623.57 977.884 623.703C986.208 625.157 995.559 626.798 1003.4 626.798C1003.87 626.798 1004.34 626.798 1004.8 626.785C1005.16 626.785 1005.51 626.598 1005.74 626.304C1005.95 626.011 1006.03 625.637 1005.94 625.277L1005.7 624.33C1008.79 626.318 1011.46 628.105 1013.97 629.866C1021.64 635.269 1028.11 640.779 1034.83 647.622C1035.09 647.342 1035.34 647.075 1035.59 646.795C1035.89 646.475 1036.17 646.155 1036.45 645.835C1029.66 638.924 1023.11 633.361 1015.36 627.905C1014.88 627.572 1014.4 627.238 1013.9 626.891C1011.1 624.957 1008.06 622.956 1004.43 620.688C1004.23 620.568 1004.02 620.501 1003.79 620.501C1003.54 620.501 1003.3 620.581 1003.08 620.728C1002.68 621.022 1002.51 621.515 1002.63 621.996L1003.24 624.397C995.653 624.37 986.475 622.769 978.311 621.342C975.402 620.835 972.588 620.341 969.933 619.928C969.866 619.928 969.813 619.914 969.746 619.914C969.306 619.914 968.892 620.155 968.679 620.555C968.439 621.008 968.519 621.569 968.866 621.942C969.279 622.369 969.933 622.809 970.88 623.356C968.105 623.089 965.357 622.983 962.622 622.983C958.554 622.983 954.471 623.21 950.296 623.436C946.841 623.623 943.252 623.823 939.664 623.89C939.357 623.89 939.05 623.89 938.757 623.89C936.142 623.89 933.781 623.703 931.486 623.53C929.325 623.37 927.257 623.21 925.11 623.21C919.08 623.21 912.57 624.49 902.511 630.493C894.814 635.082 889.758 642.753 884.862 650.17L883.501 652.225C881.54 655.173 879.553 657.867 876.751 658.481C876.271 658.588 875.751 658.641 875.217 658.641C873.256 658.641 871.202 657.974 870.668 657.214C870.588 657.094 870.468 656.934 870.748 656.507C870.908 656.267 870.962 655.973 870.922 655.693C868.374 638.231 875.35 619.501 888.704 607.975C894.667 602.839 901.511 599.317 908.488 597.783C911.769 597.063 915.531 596.742 919.52 596.409C926.444 595.822 933.594 595.222 939.023 592.394C948.108 587.671 954.285 585.723 961.048 585.47C979.991 584.776 986.128 555.961 985.541 537.952C985.528 537.472 985.234 537.058 984.781 536.871C984.634 536.818 984.487 536.791 984.34 536.791C984.033 536.791 983.727 536.911 983.5 537.138L980.098 540.5C984.02 529.961 988.169 519.222 993.225 508.884C993.945 507.403 992.518 506.456 991.984 506.096L991.797 505.975C993.612 502.587 996.627 498.985 999.548 495.49C1001.52 493.115 1003.39 490.874 1004.88 488.727C1006.58 486.272 1008.41 483.831 1010.18 481.469C1012.38 478.521 1014.66 475.466 1016.74 472.331C1018.97 468.983 1020.85 465.821 1022.52 462.673C1022.53 462.646 1022.55 462.62 1022.56 462.593C1022.81 462.019 1022.57 461.352 1022.01 461.059C1021.84 460.965 1021.64 460.925 1021.45 460.925" fill="#46402B"/>
<path d="M1086.7 674.156C1086.47 674.53 1086.25 674.904 1086.01 675.264C1085.81 675.571 1085.61 675.877 1085.41 676.184L1089.81 678.519C1093.38 683.108 1100.96 686.95 1107.06 690.031C1108.62 690.818 1110.07 691.552 1111.33 692.233C1123.07 698.636 1134.15 702.705 1144.89 704.546C1149.17 705.279 1153.39 705.666 1157.58 705.693C1157.74 705.693 1157.88 705.693 1158.04 705.693C1160.48 705.693 1162.95 705.573 1165.33 705.466C1167.69 705.359 1170.13 705.239 1172.53 705.239C1172.85 705.239 1173.17 705.239 1173.5 705.239C1183.1 705.359 1192.74 707.547 1202.08 709.655C1211.78 711.843 1221.74 714.097 1231.8 714.097C1233.48 714.097 1235.18 714.03 1236.87 713.897C1241.53 713.524 1258.79 713.417 1269.34 713.377C1269.67 713.377 1269.99 713.377 1270.3 713.377C1270.81 713.377 1271.3 713.377 1271.78 713.377C1275.66 713.377 1278.85 713.377 1280.68 713.377C1280.99 713.377 1281.24 713.377 1281.47 713.377C1281.37 713.07 1281.28 712.79 1281.2 712.536C1281.04 712.016 1280.88 711.496 1280.72 710.976H1280.53C1278.45 710.976 1274.73 710.976 1270.3 710.989H1270.29C1259.83 711.016 1241.57 711.122 1236.68 711.509C1235.07 711.643 1233.44 711.696 1231.81 711.696C1222 711.696 1212.16 709.468 1202.6 707.307C1193.15 705.173 1183.38 702.958 1173.53 702.838C1173.18 702.838 1172.85 702.838 1172.5 702.838C1170.05 702.838 1167.59 702.958 1165.21 703.065C1162.83 703.171 1160.39 703.292 1157.99 703.292C1157.86 703.292 1157.72 703.292 1157.59 703.292C1143.3 703.171 1128.55 698.876 1112.47 690.125C1111.21 689.431 1109.72 688.684 1108.15 687.884C1102.17 684.855 1094.73 681.093 1091.57 676.851C1091.46 676.704 1091.33 676.598 1091.17 676.504L1086.71 674.143M1084.02 673.93C1084.02 673.93 1083.98 673.983 1083.96 674.01C1083.96 674.01 1083.98 673.983 1083.99 673.97C1083.99 673.956 1084 673.943 1084.02 673.93Z" fill="#46402B"/>
<path d="M1250.07 678.746C1249.46 678.746 1248.94 679.2 1248.88 679.813C1248.8 680.467 1249.28 681.067 1249.93 681.147C1263.21 682.655 1276.35 695.181 1279.05 705.04C1279.08 705.133 1279.11 705.24 1279.13 705.333C1279.59 707.094 1280.12 709.028 1280.72 711.003C1280.88 711.523 1281.04 712.043 1281.2 712.564C1281.28 712.817 1281.37 713.097 1281.47 713.404C1283.52 719.794 1289.43 736.629 1296.3 743.006C1296.61 743.286 1296.92 743.553 1297.22 743.793C1297.54 744.033 1297.85 744.287 1298.17 744.527C1313.42 756.213 1329.23 764.07 1348.22 773.075C1348.72 773.315 1349.34 773.502 1350 773.622C1350.4 773.689 1350.82 773.729 1351.24 773.729C1352.26 773.729 1353.25 773.489 1353.87 772.848C1354.13 772.568 1354.31 772.235 1354.37 771.874C1354.48 771.367 1354.37 770.82 1354.09 770.273C1353.88 769.887 1353.51 769.673 1353.09 769.673C1352.89 769.673 1352.68 769.727 1352.49 769.833C1351.98 770.1 1351.77 770.727 1351.92 771.261C1351.74 771.301 1351.52 771.327 1351.25 771.327C1350.66 771.327 1349.9 771.207 1349.25 770.914C1330 761.776 1314.04 753.838 1298.7 741.899C1293.11 737.55 1287.18 723.529 1283.51 711.857C1282.74 709.402 1282.04 706.947 1281.48 704.76C1278.71 693.901 1264.79 680.494 1250.24 678.786C1250.19 678.786 1250.15 678.786 1250.09 678.786" fill="#46402B"/>
<path d="M1051.6 605.934C1051.49 605.934 1051.39 605.934 1051.29 605.974C1050.65 606.147 1050.28 606.801 1050.44 607.441C1050.47 607.508 1052.4 614.845 1050.81 620.128C1049.85 623.289 1048.73 626.291 1047.45 629.066C1047.39 629.212 1047.32 629.346 1047.25 629.492C1044.54 635.309 1041.1 640.525 1036.46 645.821C1036.18 646.141 1035.9 646.461 1035.61 646.781C1035.35 647.062 1035.1 647.342 1034.85 647.609C1029.16 653.745 1022.61 659.201 1015.08 665.484L1012.03 668.019C1007.71 671.621 1002.8 675.703 997.293 678.118C993.998 679.572 990.65 680.292 987.515 680.292C985.007 680.292 982.632 679.825 980.538 678.891C979.431 678.398 978.39 677.784 977.283 677.13C975.455 676.05 973.561 674.943 971.373 674.422C970.466 674.209 969.572 674.116 968.665 674.116C963.783 674.116 959.06 676.997 954.951 679.812L948.642 684.107C948.255 684.374 948.055 684.828 948.135 685.281C948.201 685.735 948.535 686.122 948.975 686.255C954.765 688.003 961.968 690.177 966.291 695.287C966.611 695.673 966.931 696.074 967.238 696.487C968.052 697.554 968.905 698.648 970.039 699.529C971.8 700.876 973.868 701.423 976.189 701.97C979.578 702.757 983.246 703.531 987.141 704.198C993.478 705.292 1000.35 706.079 1007.35 706.079C1017.96 706.079 1028.86 704.278 1038.61 698.982C1038.74 699.622 1038.96 700.249 1039.17 700.783C1040.01 702.837 1041.61 705.185 1043.26 705.785C1043.62 705.919 1043.97 705.985 1044.29 705.985C1045.64 705.985 1046.61 704.945 1047.37 704.131C1047.92 703.558 1048.48 702.957 1049.03 702.81C1051.8 702.063 1054.76 699.289 1057.62 696.594C1059.34 694.98 1060.98 693.432 1062.41 692.498C1062.99 693.205 1063.35 693.859 1063.65 694.406C1064.06 695.18 1064.43 695.967 1065.44 696.127C1065.54 696.14 1065.64 696.154 1065.73 696.154C1066.57 696.154 1067.37 695.567 1068.56 694.459C1076.07 687.456 1081.56 681.893 1085.42 676.21C1085.63 675.903 1085.83 675.596 1086.02 675.29C1086.26 674.916 1086.49 674.556 1086.71 674.182C1089.97 668.833 1091.98 663.123 1093.56 654.839C1094.21 651.397 1094.84 647.262 1095.53 641.846C1095.61 641.192 1095.16 640.618 1094.49 640.498C1094.44 640.498 1094.38 640.498 1094.34 640.498C1093.74 640.498 1093.24 640.938 1093.16 641.552C1092.48 646.928 1091.85 651.01 1091.21 654.412C1089.59 662.923 1087.51 668.593 1084.03 673.969C1084.03 673.982 1084.02 673.996 1084.01 674.009C1084.01 674.009 1083.99 674.036 1083.98 674.049C1080.24 679.825 1074.68 685.481 1066.92 692.725C1066.44 693.179 1066.12 693.432 1065.92 693.592L1065.76 693.286C1065.34 692.525 1064.72 691.365 1063.47 690.137C1063.25 689.91 1062.94 689.79 1062.63 689.79C1062.45 689.79 1062.26 689.83 1062.07 689.924C1060.19 690.911 1058.14 692.832 1055.96 694.873C1053.32 697.354 1050.59 699.929 1048.39 700.516C1047.19 700.849 1046.35 701.73 1045.61 702.517C1044.89 703.277 1044.54 703.598 1044.25 703.598C1044.2 703.598 1044.14 703.598 1044.09 703.571C1043.42 703.317 1042.14 701.757 1041.37 699.902C1040.78 698.462 1040.82 697.648 1040.93 697.434C1041.16 696.954 1041.04 696.394 1040.65 696.034C1040.42 695.833 1040.13 695.727 1039.84 695.727C1039.62 695.727 1039.41 695.78 1039.22 695.9C1029.44 701.757 1018.25 703.718 1007.33 703.718C996.4 703.718 985.474 701.703 976.709 699.675C974.655 699.195 972.854 698.715 971.48 697.674C970.6 696.994 969.879 696.06 969.119 695.073C968.785 694.646 968.452 694.206 968.105 693.792C963.929 688.87 957.633 686.495 952.043 684.748L956.286 681.853C960.234 679.158 964.41 676.57 968.585 676.57C969.319 676.57 970.066 676.65 970.8 676.824C972.627 677.251 974.282 678.224 976.029 679.265C977.15 679.919 978.31 680.612 979.538 681.146C981.939 682.226 984.647 682.76 987.488 682.76C990.957 682.76 994.639 681.96 998.241 680.385C1004.06 677.838 1009.11 673.635 1013.56 669.927L1016.6 667.392C1024.21 661.055 1031.42 655.066 1037.38 648.449C1042.62 642.646 1046.45 636.963 1049.43 630.573C1050.84 627.571 1052.08 624.316 1053.12 620.875C1054.91 614.952 1052.86 607.201 1052.78 606.881C1052.63 606.347 1052.15 605.987 1051.61 605.987" fill="#46402B"/>
<path d="M1116.82 431.07C1116.82 431.07 1116.82 431.07 1116.81 431.07C1116.14 431.07 1115.57 431.19 1115.41 431.43C1115.41 431.43 1115.41 431.444 1115.39 431.457C1115.33 431.577 1115.3 431.711 1115.3 431.844C1115.3 432.324 1115.73 432.805 1116.59 432.951C1116.7 432.965 1116.81 432.978 1116.91 432.978C1116.98 432.978 1117.05 432.978 1117.13 432.978C1118.25 432.898 1119.72 432.178 1119.12 431.631C1119.12 431.631 1119.1 431.617 1119.09 431.604C1119.09 431.604 1119.09 431.604 1119.08 431.604C1119.08 431.604 1119.05 431.591 1119.04 431.577C1119.02 431.577 1119.01 431.551 1118.98 431.551C1118.98 431.551 1118.98 431.551 1118.97 431.551C1118.97 431.551 1118.97 431.551 1118.96 431.551C1118.48 431.257 1117.64 431.11 1116.89 431.097C1116.87 431.097 1116.85 431.097 1116.83 431.097" fill="#676561"/>
<path d="M1116.82 431.071C1116.82 431.071 1116.86 431.071 1116.88 431.071C1117.62 431.071 1118.46 431.231 1118.94 431.524C1118.94 431.524 1118.94 431.524 1118.96 431.524C1118.96 431.524 1118.96 431.524 1118.97 431.524C1118.98 431.524 1119 431.551 1119.02 431.551C1119.02 431.551 1119.05 431.564 1119.06 431.577C1119.06 431.577 1119.06 431.577 1119.08 431.577C1119.08 431.577 1119.09 431.591 1119.1 431.604C1119.72 432.151 1118.24 432.858 1117.12 432.951C1117.05 432.951 1116.97 432.951 1116.9 432.951C1116.78 432.951 1116.68 432.951 1116.58 432.925C1115.72 432.778 1115.29 432.311 1115.29 431.818C1115.29 431.684 1115.32 431.551 1115.38 431.431C1115.38 431.431 1115.38 431.417 1115.4 431.404C1115.56 431.164 1116.14 431.044 1116.8 431.044C1116.8 431.044 1116.8 431.044 1116.81 431.044M1119.84 426.521C1116.65 426.521 1114.09 428.389 1113.55 430.39C1113.05 432.258 1114.35 433.979 1117.13 435.099C1118.3 435.566 1119.57 435.726 1120.84 435.726C1122.4 435.726 1123.96 435.486 1125.33 435.273L1129.26 434.659C1129.84 434.579 1130.39 434.472 1130.71 434.152C1131.11 433.752 1131.1 433.045 1130.87 432.538C1130.59 431.911 1130.06 431.404 1129.42 430.857C1126.63 428.483 1123.99 427.108 1121.36 426.655C1121.24 426.628 1121.11 426.615 1120.98 426.602C1120.6 426.548 1120.2 426.521 1119.82 426.521" fill="#423C34"/>
<path d="M1151.44 462.873C1150.37 462.873 1149.32 462.953 1148.26 463.14C1144.54 463.807 1141.05 465.928 1138.71 468.889C1139.78 469.09 1140.86 469.196 1141.99 469.196C1146.05 469.196 1150.56 467.862 1155.67 465.234C1156.71 464.701 1157.8 464.127 1158.94 463.66C1158.78 463.633 1158.62 463.607 1158.46 463.593C1156.04 463.233 1153.73 462.873 1151.44 462.873Z" fill="#65625B"/>
<path d="M1120.84 435.726C1119.57 435.726 1118.29 435.566 1117.13 435.099C1114.35 433.978 1113.05 432.257 1113.55 430.39C1114.09 428.375 1116.66 426.521 1119.84 426.521C1120.21 426.521 1120.6 426.548 1121 426.601C1121.12 426.615 1121.25 426.641 1121.37 426.655C1124.01 427.108 1126.65 428.482 1129.43 430.857C1130.06 431.404 1130.6 431.911 1130.88 432.538C1131.11 433.045 1131.12 433.752 1130.72 434.152C1130.4 434.472 1129.85 434.579 1129.27 434.659L1125.35 435.272C1123.97 435.486 1122.41 435.726 1120.85 435.726M1119.8 425.174C1115.9 425.174 1112.93 427.535 1112.25 430.043C1111.57 432.604 1113.19 434.952 1116.62 436.34C1117.26 436.593 1117.92 436.766 1118.58 436.887C1119.33 437.02 1120.08 437.06 1120.82 437.06C1122.48 437.06 1124.11 436.807 1125.53 436.593L1129.44 435.979C1130.22 435.873 1131.03 435.713 1131.64 435.099C1132.4 434.352 1132.58 433.111 1132.1 432.004C1131.68 431.057 1130.88 430.363 1130.3 429.843C1127.17 427.188 1124.2 425.707 1121.17 425.267C1120.7 425.201 1120.24 425.174 1119.8 425.174Z" fill="#4F4B42"/>
<path d="M1141.98 469.196C1140.86 469.196 1139.77 469.09 1138.7 468.89C1141.04 465.928 1144.53 463.794 1148.25 463.14C1149.31 462.953 1150.37 462.873 1151.43 462.873C1153.72 462.873 1156.04 463.22 1158.44 463.593C1158.6 463.62 1158.76 463.647 1158.93 463.66C1157.79 464.127 1156.68 464.687 1155.66 465.234C1150.55 467.862 1146.04 469.196 1141.98 469.196ZM1151.43 461.539C1150.29 461.539 1149.16 461.619 1148.03 461.819C1143.56 462.62 1139.54 465.221 1137.01 468.943C1136.89 469.116 1136.86 469.356 1136.94 469.557C1137.02 469.757 1137.19 469.917 1137.41 469.97C1137.85 470.077 1138.29 470.17 1138.73 470.25C1139.77 470.424 1140.84 470.517 1141.94 470.517C1146.23 470.517 1150.96 469.156 1156.31 466.395C1158.16 465.434 1160.26 464.341 1162.25 464.1C1162.22 464.1 1162.19 464.1 1162.17 464.1H1162.14C1161.79 464.034 1161.55 463.714 1161.59 463.353C1161.63 463.02 1161.93 462.766 1162.25 462.766C1162.27 462.766 1162.3 462.766 1162.33 462.766C1162.34 462.766 1162.35 462.766 1162.38 462.766C1162.37 462.766 1162.34 462.766 1162.33 462.766C1162.3 462.766 1162.27 462.766 1162.25 462.766C1161.06 462.633 1159.86 462.446 1158.67 462.273C1156.3 461.913 1153.87 461.552 1151.44 461.552" fill="#46402B"/>
<path d="M1185.34 456.496C1185.2 456.496 1185.08 456.536 1184.96 456.603L1184.8 456.736C1183.98 457.417 1183.04 458.057 1182.02 458.644C1177.47 461.272 1171.22 462.993 1165.77 462.993C1165.5 462.993 1165.23 462.993 1164.97 462.993V463.66L1164.81 462.979C1163.93 462.939 1163.13 462.873 1162.38 462.779C1162.37 462.779 1162.35 462.779 1162.33 462.779C1162.3 462.779 1162.27 462.779 1162.25 462.779C1161.91 462.779 1161.63 463.033 1161.59 463.366C1161.55 463.727 1161.79 464.047 1162.14 464.1H1162.17C1162.17 464.1 1162.22 464.1 1162.25 464.113C1162.99 464.207 1163.78 464.273 1164.69 464.313C1164.73 464.313 1164.75 464.313 1164.79 464.313V463.646L1164.97 464.327C1165.13 464.327 1165.3 464.327 1165.46 464.327C1165.57 464.327 1165.69 464.327 1165.79 464.327C1169.62 464.327 1173.87 463.5 1177.67 462.126C1180.75 461.005 1183.54 459.524 1185.63 457.803L1185.75 457.71C1186.04 457.497 1186.11 457.096 1185.91 456.803C1185.78 456.616 1185.56 456.509 1185.35 456.509" fill="#46402B"/>
<path d="M1144.21 475.641C1143.76 475.841 1143.32 476.041 1142.84 476.241C1142.84 476.241 1142.81 476.241 1142.8 476.254C1130.4 481.524 1115.41 483.525 1103.38 485.126C1100.6 485.499 1097.77 485.779 1095.02 486.073C1090.69 486.513 1086.21 486.98 1081.84 487.754C1081.67 487.78 1081.48 487.82 1081.31 487.847C1080.34 488.02 1079.35 488.22 1078.38 488.434C1078.06 488.501 1077.79 488.701 1077.63 488.954C1077.47 489.208 1077.4 489.541 1077.47 489.861C1077.58 490.355 1077.98 490.702 1078.44 490.782C1078.51 490.782 1078.58 490.795 1078.64 490.795C1078.72 490.795 1078.82 490.795 1078.91 490.768C1079.15 490.715 1079.39 490.662 1079.64 490.608C1080.52 490.422 1081.39 490.248 1082.28 490.101C1086.57 489.341 1091.01 488.887 1095.29 488.447C1098.05 488.167 1100.91 487.874 1103.71 487.5C1112.66 486.313 1124.19 484.779 1134.82 481.63C1137.89 480.723 1140.89 479.683 1143.73 478.469C1143.73 478.469 1143.74 478.469 1143.76 478.469C1144.25 478.269 1144.73 478.055 1145.21 477.842L1144.24 475.654" fill="#46402B"/>
</g>
<defs>
<clipPath id="clip0_2197_2223">
<rect width="489" height="399.914" fill="white" transform="translate(868 373.787)"/>
</clipPath>
</defs>
</svg>
