<svg xmlns="http://www.w3.org/2000/svg" viewBox="0 0 35 35"><defs><style>.cls-1{fill:none;}.cls-2{isolation:isolate;}</style></defs><g id="レイヤー_2" data-name="レイヤー 2"><g id="レイヤー_1-2" data-name="レイヤー 1"><g id="グループ_727" data-name="グループ 727"><rect id="長方形_200-2" data-name="長方形 200-2" class="cls-1" width="35" height="35" rx="2"/><g id="_" data-name=" " class="cls-2"><g class="cls-2"><path d="M10.89,25.8a2.73,2.73,0,0,1-2-.87,3.15,3.15,0,0,1,0-4.43l9.55-10.13a3.41,3.41,0,0,1,1.68-1,3.58,3.58,0,0,1,1.94.12,4.84,4.84,0,0,1,1.81,1.14,5.27,5.27,0,0,1,.49.63,3.16,3.16,0,0,1,.36.71,4,4,0,0,1,.22.79,4.57,4.57,0,0,1,.07.83,4.16,4.16,0,0,1-1.19,2.94l-7.22,7.67a.53.53,0,0,1-.37.17.47.47,0,0,1-.37-.14.53.53,0,0,1-.17-.37.55.55,0,0,1,.14-.39l7.22-7.67a3.1,3.1,0,0,0,.9-2.23,2.84,2.84,0,0,0-.85-2.17A3.59,3.59,0,0,0,22,10.61a2.65,2.65,0,0,0-1.4-.19,2.34,2.34,0,0,0-1.33.68L9.68,21.23a2.08,2.08,0,0,0,0,3,1.91,1.91,0,0,0,.61.42,1.5,1.5,0,0,0,.7.11A2,2,0,0,0,12.35,24L19.94,16l.15-.17c.05-.07.11-.14.16-.22a.84.84,0,0,0,.13-.27.89.89,0,0,0,.07-.28.51.51,0,0,0-.05-.29.86.86,0,0,0-.2-.28.76.76,0,0,0-.61-.3,1.35,1.35,0,0,0-.72.41l-5.71,6.08a.53.53,0,0,1-.5.15.47.47,0,0,1-.24-.13.45.45,0,0,1-.17-.37.55.55,0,0,1,.15-.38l5.71-6.09a2.24,2.24,0,0,1,1.38-.73,1.78,1.78,0,0,1,1.46.59,1.73,1.73,0,0,1,.55,1.45,2.47,2.47,0,0,1-.8,1.56l-7.59,8.08a3.13,3.13,0,0,1-2.07,1h-.15Z"/></g></g></g></g></g></svg>