<svg xmlns="http://www.w3.org/2000/svg" viewBox="0 0 14 14"><defs><style>.cls-1{fill:none;}</style></defs><g id="レイヤー_2" data-name="レイヤー 2"><g id="レイヤー_1-2" data-name="レイヤー 1"><rect class="cls-1" width="14" height="14"/><g id="グループ_678" data-name="グループ 678"><path d="M12.63,2.72H1.37a.54.54,0,0,1,0-1.08H12.63a.54.54,0,0,1,0,1.08Z"/><path d="M11.82,5.94H1.37a.55.55,0,0,1,0-1.09H11.82a.55.55,0,1,1,0,1.09Z"/><path d="M9.41,9.15h-8a.54.54,0,0,1,0-1.08h8a.54.54,0,0,1,0,1.08Z"/><path d="M10.84,12.36H1.37a.54.54,0,1,1,0-1.08h9.47a.54.54,0,1,1,0,1.08Z"/></g></g></g></svg>
