<svg xmlns="http://www.w3.org/2000/svg" viewBox="0 0 35 35"><defs><style>.cls-1{fill:none;}</style></defs><g id="レイヤー_2" data-name="レイヤー 2"><g id="レイヤー_1-2" data-name="レイヤー 1"><g id="グループ_680" data-name="グループ 680"><rect id="長方形_202" data-name="長方形 202" class="cls-1" width="35" height="35" rx="2"/><g id="グループ_678" data-name="グループ 678"><path d="M25.22,11.25H9.63a.75.75,0,0,1,0-1.5H25.22a.75.75,0,0,1,0,1.5Z"/><path d="M24.11,15.71H9.63a.75.75,0,0,1,0-1.5H24.11a.75.75,0,0,1,0,1.5Z"/><path d="M20.77,20.16H9.63a.75.75,0,1,1,0-1.5H20.77a.75.75,0,0,1,0,1.5Z"/><path d="M22.75,24.61H9.63a.75.75,0,0,1,0-1.5H22.75a.75.75,0,0,1,0,1.5Z"/></g></g></g></g></svg>