<svg xmlns="http://www.w3.org/2000/svg" viewBox="0 0 35 35"><defs><style>.cls-1{fill:none;}</style></defs><g id="レイヤー_2" data-name="レイヤー 2"><g id="レイヤー_1-2" data-name="レイヤー 1"><g id="グループ_677" data-name="グループ 677"><rect id="長方形_200" data-name="長方形 200" class="cls-1" width="35" height="35" rx="2"/><path d="M17.58,8.15a9.3,9.3,0,0,0-9.19,9.19v.16L6.55,15.66a.59.59,0,0,0-.85,0,.61.61,0,0,0,0,.85l3.4,3.4,3.41-3.4a.61.61,0,0,0,0-.85.59.59,0,0,0-.85,0L9.59,17.73v-.38a8.09,8.09,0,0,1,8-8,8.09,8.09,0,0,1,8,8,8.09,8.09,0,0,1-8,8h-.12a7.63,7.63,0,0,1-5.93-2.87.6.6,0,0,0-.84-.1.61.61,0,0,0-.1.85,8.83,8.83,0,0,0,6.87,3.32h.14a9.3,9.3,0,0,0,9.19-9.2A9.3,9.3,0,0,0,17.58,8.15Z"/><path d="M17.58,11a.6.6,0,0,0-.6.6V17.9l3.72,2.36a.62.62,0,0,0,.32.09.61.61,0,0,0,.51-.28.6.6,0,0,0-.19-.83l-3.16-2V11.61A.6.6,0,0,0,17.58,11Z"/></g></g></g></svg>