<svg xmlns="http://www.w3.org/2000/svg" viewBox="0 0 35 35"><defs><style>.cls-1{fill:none;}</style></defs><g id="レイヤー_2" data-name="レイヤー 2"><g id="レイヤー_1-2" data-name="レイヤー 1"><g id="グループ_679" data-name="グループ 679"><rect id="長方形_201" data-name="長方形 201" class="cls-1" width="35" height="35" rx="2"/><path id="Icon_material-timeline" data-name="Icon material-timeline" d="M27.93,14.07A1.84,1.84,0,0,1,26.1,15.9a1.47,1.47,0,0,1-.46-.07L22.4,19.07a1.83,1.83,0,1,1-3.59.47,1.49,1.49,0,0,1,.07-.47l-2.33-2.33a1.7,1.7,0,0,1-1,0L11.46,20.9A1.82,1.82,0,1,1,9.7,19.54a1.43,1.43,0,0,1,.46.07l4.16-4.15a1.27,1.27,0,0,1-.06-.48,1.82,1.82,0,0,1,3.64,0,1.86,1.86,0,0,1-.06.48l2.32,2.32a1.91,1.91,0,0,1,.95,0l3.23-3.24a1.83,1.83,0,1,1,3.59-.47Z"/></g></g></g></svg>