<svg width="335" height="1100" viewBox="0 0 335 1100" fill="none" xmlns="http://www.w3.org/2000/svg">
<g clip-path="url(#clip0_2055_18415)">
<path d="M208.061 246.05C204.631 244.65 200.521 260.12 204.051 261.57C207.511 262.98 211.541 247.48 208.061 246.05Z" fill="white" fill-opacity="0.07"/>
<path d="M201.321 262.22C197.891 263.62 193.781 248.15 197.311 246.7C200.771 245.29 204.801 260.79 201.321 262.22Z" fill="white" fill-opacity="0.07"/>
<path d="M180.061 246.05C176.631 244.65 172.521 260.12 176.051 261.57C179.511 262.98 183.541 247.48 180.061 246.05Z" fill="white" fill-opacity="0.07"/>
<path d="M173.321 262.22C169.891 263.62 165.781 248.15 169.311 246.7C172.771 245.29 176.801 260.79 173.321 262.22Z" fill="white" fill-opacity="0.07"/>
<path d="M152.071 246.05C148.641 244.65 144.531 260.12 148.061 261.57C151.521 262.98 155.551 247.48 152.071 246.05Z" fill="white" fill-opacity="0.07"/>
<path d="M145.331 262.22C141.901 263.62 137.791 248.15 141.321 246.7C144.781 245.29 148.811 260.79 145.331 262.22Z" fill="white" fill-opacity="0.07"/>
<path d="M194.061 260.05C190.631 258.65 186.521 274.12 190.051 275.57C193.511 276.98 197.541 261.48 194.061 260.05Z" fill="white" fill-opacity="0.07"/>
<path d="M187.321 276.22C183.891 277.62 179.781 262.15 183.311 260.7C186.771 259.29 190.801 274.79 187.321 276.22Z" fill="white" fill-opacity="0.07"/>
<path d="M166.071 260.05C162.641 258.65 158.531 274.12 162.061 275.57C165.521 276.98 169.551 261.48 166.071 260.05Z" fill="white" fill-opacity="0.07"/>
<path d="M159.331 276.22C155.901 277.62 151.791 262.15 155.321 260.7C158.781 259.29 162.811 274.79 159.331 276.22Z" fill="white" fill-opacity="0.07"/>
<path d="M208.061 274.05C204.631 272.65 200.521 288.12 204.051 289.57C207.511 290.98 211.541 275.48 208.061 274.05Z" fill="white" fill-opacity="0.07"/>
<path d="M201.321 290.22C197.891 291.62 193.781 276.15 197.311 274.7C200.771 273.29 204.801 288.79 201.321 290.22Z" fill="white" fill-opacity="0.07"/>
<path d="M180.061 274.05C176.631 272.65 172.521 288.12 176.051 289.57C179.511 290.98 183.541 275.48 180.061 274.05Z" fill="white" fill-opacity="0.07"/>
<path d="M173.321 290.22C169.891 291.62 165.781 276.15 169.311 274.7C172.771 273.29 176.801 288.79 173.321 290.22Z" fill="white" fill-opacity="0.07"/>
<path d="M138.071 274.05C134.641 272.65 130.531 288.12 134.061 289.57C137.521 290.98 141.551 275.48 138.071 274.05Z" fill="white" fill-opacity="0.07"/>
<path d="M131.331 290.22C127.901 291.62 123.791 276.15 127.321 274.7C130.781 273.29 134.811 288.79 131.331 290.22Z" fill="white" fill-opacity="0.07"/>
<path d="M222.052 274.05C218.622 272.65 214.512 288.12 218.042 289.57C221.502 290.98 225.532 275.48 222.052 274.05Z" fill="white" fill-opacity="0.07"/>
<path d="M215.311 290.22C211.881 291.62 207.771 276.15 211.301 274.7C214.761 273.29 218.791 288.79 215.311 290.22Z" fill="white" fill-opacity="0.07"/>
<path d="M152.071 274.05C148.641 272.65 144.531 288.12 148.061 289.57C151.521 290.98 155.551 275.48 152.071 274.05Z" fill="white" fill-opacity="0.07"/>
<path d="M145.331 290.22C141.901 291.62 137.791 276.15 141.321 274.7C144.781 273.29 148.811 288.79 145.331 290.22Z" fill="white" fill-opacity="0.07"/>
<path d="M194.061 288.041C190.631 286.641 186.521 302.111 190.051 303.561C193.511 304.971 197.541 289.471 194.061 288.041Z" fill="white" fill-opacity="0.07"/>
<path d="M187.321 304.21C183.891 305.61 179.781 290.14 183.311 288.69C186.771 287.28 190.801 302.78 187.321 304.21Z" fill="white" fill-opacity="0.07"/>
<path d="M166.071 288.041C162.641 286.641 158.531 302.111 162.061 303.561C165.521 304.971 169.551 289.471 166.071 288.041Z" fill="white" fill-opacity="0.07"/>
<path d="M159.331 304.21C155.901 305.61 151.791 290.14 155.321 288.69C158.781 287.28 162.811 302.78 159.331 304.21Z" fill="white" fill-opacity="0.07"/>
<path d="M208.061 302.041C204.631 300.641 200.521 316.111 204.051 317.561C207.511 318.971 211.541 303.471 208.061 302.041Z" fill="white" fill-opacity="0.07"/>
<path d="M201.321 318.21C197.891 319.61 193.781 304.14 197.311 302.69C200.771 301.28 204.801 316.78 201.321 318.21Z" fill="white" fill-opacity="0.07"/>
<path d="M180.061 302.041C176.631 300.641 172.521 316.111 176.051 317.561C179.511 318.971 183.541 303.471 180.061 302.041Z" fill="white" fill-opacity="0.07"/>
<path d="M173.321 318.21C169.891 319.61 165.781 304.14 169.311 302.69C172.771 301.28 176.801 316.78 173.321 318.21Z" fill="white" fill-opacity="0.07"/>
<path d="M152.071 302.041C148.641 300.641 144.531 316.111 148.061 317.561C151.521 318.971 155.551 303.471 152.071 302.041Z" fill="white" fill-opacity="0.07"/>
<path d="M145.331 318.21C141.901 319.61 137.791 304.14 141.321 302.69C144.781 301.28 148.811 316.78 145.331 318.21Z" fill="white" fill-opacity="0.07"/>
<path d="M180.061 232.06C176.631 230.66 172.521 246.13 176.051 247.58C179.511 248.99 183.541 233.49 180.061 232.06Z" fill="white" fill-opacity="0.07"/>
<path d="M173.321 248.23C169.891 249.63 165.781 234.16 169.311 232.71C172.771 231.3 176.801 246.8 173.321 248.23Z" fill="white" fill-opacity="0.07"/>
<path d="M180.061 316.041C176.631 314.641 172.521 330.111 176.051 331.561C179.511 332.971 183.541 317.471 180.061 316.041Z" fill="white" fill-opacity="0.07"/>
<path d="M173.321 332.21C169.891 333.61 165.781 318.14 169.311 316.69C172.771 315.28 176.801 330.78 173.321 332.21Z" fill="white" fill-opacity="0.07"/>
<path d="M208.061 497.99C204.631 496.59 200.521 512.06 204.051 513.51C207.511 514.92 211.541 499.42 208.061 497.99Z" fill="white" fill-opacity="0.07"/>
<path d="M201.321 514.159C197.891 515.559 193.781 500.089 197.311 498.639C200.771 497.229 204.801 512.729 201.321 514.159Z" fill="white" fill-opacity="0.07"/>
<path d="M180.061 497.99C176.631 496.59 172.521 512.06 176.051 513.51C179.511 514.92 183.541 499.42 180.061 497.99Z" fill="white" fill-opacity="0.07"/>
<path d="M173.321 514.159C169.891 515.559 165.781 500.089 169.311 498.639C172.771 497.229 176.801 512.729 173.321 514.159Z" fill="white" fill-opacity="0.07"/>
<path d="M152.071 497.99C148.641 496.59 144.531 512.06 148.061 513.51C151.521 514.92 155.551 499.42 152.071 497.99Z" fill="white" fill-opacity="0.07"/>
<path d="M145.331 514.159C141.901 515.559 137.791 500.089 141.321 498.639C144.781 497.229 148.811 512.729 145.331 514.159Z" fill="white" fill-opacity="0.07"/>
<path d="M194.061 511.99C190.631 510.59 186.521 526.06 190.051 527.51C193.511 528.92 197.541 513.42 194.061 511.99Z" fill="white" fill-opacity="0.07"/>
<path d="M187.321 528.159C183.891 529.559 179.781 514.089 183.311 512.639C186.771 511.229 190.801 526.729 187.321 528.159Z" fill="white" fill-opacity="0.07"/>
<path d="M166.071 511.99C162.641 510.59 158.531 526.06 162.061 527.51C165.521 528.92 169.551 513.42 166.071 511.99Z" fill="white" fill-opacity="0.07"/>
<path d="M159.331 528.159C155.901 529.559 151.791 514.089 155.321 512.639C158.781 511.229 162.811 526.729 159.331 528.159Z" fill="white" fill-opacity="0.07"/>
<path d="M208.061 525.98C204.631 524.58 200.521 540.05 204.051 541.5C207.511 542.91 211.541 527.41 208.061 525.98Z" fill="white" fill-opacity="0.07"/>
<path d="M201.321 542.159C197.891 543.559 193.781 528.089 197.311 526.639C200.771 525.229 204.801 540.729 201.321 542.159Z" fill="white" fill-opacity="0.07"/>
<path d="M180.061 525.98C176.631 524.58 172.521 540.05 176.051 541.5C179.511 542.91 183.541 527.41 180.061 525.98Z" fill="white" fill-opacity="0.07"/>
<path d="M173.321 542.159C169.891 543.559 165.781 528.089 169.311 526.639C172.771 525.229 176.801 540.729 173.321 542.159Z" fill="white" fill-opacity="0.07"/>
<path d="M138.071 525.98C134.641 524.58 130.531 540.05 134.061 541.5C137.521 542.91 141.551 527.41 138.071 525.98Z" fill="white" fill-opacity="0.07"/>
<path d="M131.331 542.159C127.901 543.559 123.791 528.089 127.321 526.639C130.781 525.229 134.811 540.729 131.331 542.159Z" fill="white" fill-opacity="0.07"/>
<path d="M222.052 525.98C218.622 524.58 214.512 540.05 218.042 541.5C221.502 542.91 225.532 527.41 222.052 525.98Z" fill="white" fill-opacity="0.07"/>
<path d="M215.311 542.159C211.881 543.559 207.771 528.089 211.301 526.639C214.761 525.229 218.791 540.729 215.311 542.159Z" fill="white" fill-opacity="0.07"/>
<path d="M152.071 525.98C148.641 524.58 144.531 540.05 148.061 541.5C151.521 542.91 155.551 527.41 152.071 525.98Z" fill="white" fill-opacity="0.07"/>
<path d="M145.331 542.159C141.901 543.559 137.791 528.089 141.321 526.639C144.781 525.229 148.811 540.729 145.331 542.159Z" fill="white" fill-opacity="0.07"/>
<path d="M194.061 539.98C190.631 538.58 186.521 554.05 190.051 555.5C193.511 556.91 197.541 541.41 194.061 539.98Z" fill="white" fill-opacity="0.07"/>
<path d="M187.321 556.15C183.891 557.55 179.781 542.08 183.311 540.63C186.771 539.22 190.801 554.72 187.321 556.15Z" fill="white" fill-opacity="0.07"/>
<path d="M166.071 539.98C162.641 538.58 158.531 554.05 162.061 555.5C165.521 556.91 169.551 541.41 166.071 539.98Z" fill="white" fill-opacity="0.07"/>
<path d="M159.331 556.15C155.901 557.55 151.791 542.08 155.321 540.63C158.781 539.22 162.811 554.72 159.331 556.15Z" fill="white" fill-opacity="0.07"/>
<path d="M208.061 553.98C204.631 552.58 200.521 568.05 204.051 569.5C207.511 570.91 211.541 555.41 208.061 553.98Z" fill="white" fill-opacity="0.07"/>
<path d="M201.321 570.15C197.891 571.55 193.781 556.08 197.311 554.63C200.771 553.22 204.801 568.72 201.321 570.15Z" fill="white" fill-opacity="0.07"/>
<path d="M180.061 553.98C176.631 552.58 172.521 568.05 176.051 569.5C179.511 570.91 183.541 555.41 180.061 553.98Z" fill="white" fill-opacity="0.07"/>
<path d="M173.321 570.15C169.891 571.55 165.781 556.08 169.311 554.63C172.771 553.22 176.801 568.72 173.321 570.15Z" fill="white" fill-opacity="0.07"/>
<path d="M152.071 553.98C148.641 552.58 144.531 568.05 148.061 569.5C151.521 570.91 155.551 555.41 152.071 553.98Z" fill="white" fill-opacity="0.07"/>
<path d="M145.331 570.15C141.901 571.55 137.791 556.08 141.321 554.63C144.781 553.22 148.811 568.72 145.331 570.15Z" fill="white" fill-opacity="0.07"/>
<path d="M180.061 483.99C176.631 482.59 172.521 498.06 176.051 499.51C179.511 500.92 183.541 485.42 180.061 483.99Z" fill="white" fill-opacity="0.07"/>
<path d="M173.321 500.169C169.891 501.569 165.781 486.099 169.311 484.649C172.771 483.239 176.801 498.739 173.321 500.169Z" fill="white" fill-opacity="0.07"/>
<path d="M180.061 567.97C176.631 566.57 172.521 582.04 176.051 583.49C179.511 584.9 183.541 569.4 180.061 567.97Z" fill="white" fill-opacity="0.07"/>
<path d="M173.321 584.14C169.891 585.54 165.781 570.07 169.311 568.62C172.771 567.21 176.801 582.71 173.321 584.14Z" fill="white" fill-opacity="0.07"/>
<path d="M12.1005 344.029C8.67049 342.629 4.56049 358.099 8.09049 359.549C11.5505 360.959 15.5805 345.459 12.1005 344.029Z" fill="white" fill-opacity="0.07"/>
<path d="M5.37002 360.198C1.94002 361.598 -2.16998 346.128 1.36002 344.678C4.82002 343.268 8.85002 358.768 5.37002 360.198Z" fill="white" fill-opacity="0.07"/>
<path d="M54.0907 358.029C50.6607 356.629 46.5507 372.099 50.0807 373.549C53.5407 374.959 57.5707 359.459 54.0907 358.029Z" fill="white" fill-opacity="0.07"/>
<path d="M47.3603 374.198C43.9303 375.598 39.8203 360.128 43.3503 358.678C46.8103 357.268 50.8403 372.768 47.3603 374.198Z" fill="white" fill-opacity="0.07"/>
<path d="M40.1005 372.019C36.6705 370.619 32.5605 386.089 36.0905 387.539C39.5505 388.949 43.5805 373.449 40.1005 372.019Z" fill="white" fill-opacity="0.07"/>
<path d="M33.3603 388.189C29.9303 389.589 25.8203 374.119 29.3503 372.669C32.8103 371.259 36.8403 386.759 33.3603 388.189Z" fill="white" fill-opacity="0.07"/>
<path d="M12.1005 372.019C8.67049 370.619 4.56049 386.089 8.09049 387.539C11.5505 388.949 15.5805 373.449 12.1005 372.019Z" fill="white" fill-opacity="0.07"/>
<path d="M5.37002 388.189C1.94002 389.589 -2.16998 374.119 1.36002 372.669C4.82002 371.259 8.85002 386.759 5.37002 388.189Z" fill="white" fill-opacity="0.07"/>
<path d="M26.1005 386.019C22.6705 384.619 18.5605 400.089 22.0905 401.539C25.5505 402.949 29.5805 387.449 26.1005 386.019Z" fill="white" fill-opacity="0.07"/>
<path d="M19.3603 402.189C15.9303 403.589 11.8203 388.119 15.3503 386.669C18.8103 385.259 22.8403 400.759 19.3603 402.189Z" fill="white" fill-opacity="0.07"/>
<path d="M40.1005 400.009C36.6705 398.609 32.5605 414.079 36.0905 415.529C39.5505 416.939 43.5805 401.439 40.1005 400.009Z" fill="white" fill-opacity="0.07"/>
<path d="M33.3603 416.189C29.9303 417.589 25.8203 402.119 29.3503 400.669C32.8103 399.259 36.8403 414.759 33.3603 416.189Z" fill="white" fill-opacity="0.07"/>
<path d="M12.1005 400.009C8.67049 398.609 4.56049 414.079 8.09049 415.529C11.5505 416.939 15.5805 401.439 12.1005 400.009Z" fill="white" fill-opacity="0.07"/>
<path d="M5.37002 416.189C1.94002 417.589 -2.16998 402.119 1.36002 400.669C4.82002 399.259 8.85002 414.759 5.37002 416.189Z" fill="white" fill-opacity="0.07"/>
<path d="M54.0907 400.009C50.6607 398.609 46.5507 414.079 50.0807 415.529C53.5407 416.939 57.5707 401.439 54.0907 400.009Z" fill="white" fill-opacity="0.07"/>
<path d="M47.3603 416.189C43.9303 417.589 39.8203 402.119 43.3503 400.669C46.8103 399.259 50.8403 414.759 47.3603 416.189Z" fill="white" fill-opacity="0.07"/>
<path d="M68.0907 400.009C64.6607 398.609 60.5507 414.079 64.0807 415.529C67.5407 416.939 71.5707 401.439 68.0907 400.009Z" fill="white" fill-opacity="0.07"/>
<path d="M61.3505 416.189C57.9205 417.589 53.8105 402.119 57.3405 400.669C60.8005 399.259 64.8305 414.759 61.3505 416.189Z" fill="white" fill-opacity="0.07"/>
<path d="M26.1005 414.009C22.6705 412.609 18.5605 428.079 22.0905 429.529C25.5505 430.939 29.5805 415.439 26.1005 414.009Z" fill="white" fill-opacity="0.07"/>
<path d="M19.3603 430.179C15.9303 431.579 11.8203 416.109 15.3503 414.659C18.8103 413.249 22.8403 428.749 19.3603 430.179Z" fill="white" fill-opacity="0.07"/>
<path d="M40.1005 428.009C36.6705 426.609 32.5605 442.079 36.0905 443.529C39.5505 444.939 43.5805 429.439 40.1005 428.009Z" fill="white" fill-opacity="0.07"/>
<path d="M33.3603 444.179C29.9303 445.579 25.8203 430.109 29.3503 428.659C32.8103 427.249 36.8403 442.749 33.3603 444.179Z" fill="white" fill-opacity="0.07"/>
<path d="M12.1005 428.009C8.67049 426.609 4.56049 442.079 8.09049 443.529C11.5505 444.939 15.5805 429.439 12.1005 428.009Z" fill="white" fill-opacity="0.07"/>
<path d="M5.37002 444.179C1.94002 445.579 -2.16998 430.109 1.36002 428.659C4.82002 427.249 8.85002 442.749 5.37002 444.179Z" fill="white" fill-opacity="0.07"/>
<path d="M54.0907 442C50.6607 440.6 46.5507 456.07 50.0807 457.52C53.5407 458.93 57.5707 443.43 54.0907 442Z" fill="white" fill-opacity="0.07"/>
<path d="M47.3603 458.179C43.9303 459.579 39.8203 444.109 43.3503 442.659C46.8103 441.249 50.8403 456.749 47.3603 458.179Z" fill="white" fill-opacity="0.07"/>
<path d="M12.1005 456C8.67049 454.6 4.56049 470.07 8.09049 471.52C11.5505 472.93 15.5805 457.43 12.1005 456Z" fill="white" fill-opacity="0.07"/>
<path d="M5.37002 472.169C1.94002 473.569 -2.16998 458.099 1.36002 456.649C4.82002 455.239 8.85002 470.739 5.37002 472.169Z" fill="white" fill-opacity="0.07"/>
<path d="M12.1005 358.029C8.67049 356.629 4.56049 372.099 8.09049 373.549C11.5505 374.959 15.5805 359.459 12.1005 358.029Z" fill="white" fill-opacity="0.07"/>
<path d="M5.37002 374.198C1.94002 375.598 -2.16998 360.128 1.36002 358.678C4.82002 357.268 8.85002 372.768 5.37002 374.198Z" fill="white" fill-opacity="0.07"/>
<path d="M12.1005 442C8.67049 440.6 4.56049 456.07 8.09049 457.52C11.5505 458.93 15.5805 443.43 12.1005 442Z" fill="white" fill-opacity="0.07"/>
<path d="M5.37002 458.179C1.94002 459.579 -2.16998 444.109 1.36002 442.659C4.82002 441.249 8.85002 456.749 5.37002 458.179Z" fill="white" fill-opacity="0.07"/>
<path d="M306.03 358.029C302.6 356.629 298.49 372.099 302.02 373.549C305.48 374.959 309.51 359.459 306.03 358.029Z" fill="white" fill-opacity="0.07"/>
<path d="M299.29 374.198C295.86 375.598 291.75 360.128 295.28 358.678C298.74 357.268 302.77 372.768 299.29 374.198Z" fill="white" fill-opacity="0.07"/>
<path d="M320.03 372.019C316.6 370.619 312.49 386.089 316.02 387.539C319.48 388.949 323.51 373.449 320.03 372.019Z" fill="white" fill-opacity="0.07"/>
<path d="M313.29 388.189C309.86 389.589 305.75 374.119 309.28 372.669C312.74 371.259 316.77 386.759 313.29 388.189Z" fill="white" fill-opacity="0.07"/>
<path d="M334.03 386.019C330.6 384.619 326.49 400.089 330.02 401.539C333.48 402.949 337.51 387.449 334.03 386.019Z" fill="white" fill-opacity="0.07"/>
<path d="M327.29 402.189C323.86 403.589 319.75 388.119 323.28 386.669C326.74 385.259 330.77 400.759 327.29 402.189Z" fill="white" fill-opacity="0.07"/>
<path d="M292.04 400.009C288.61 398.609 284.5 414.079 288.03 415.529C291.49 416.939 295.52 401.439 292.04 400.009Z" fill="white" fill-opacity="0.07"/>
<path d="M285.3 416.189C281.87 417.589 277.76 402.119 281.29 400.669C284.75 399.259 288.78 414.759 285.3 416.189Z" fill="white" fill-opacity="0.07"/>
<path d="M306.03 400.009C302.6 398.609 298.49 414.079 302.02 415.529C305.48 416.939 309.51 401.439 306.03 400.009Z" fill="white" fill-opacity="0.07"/>
<path d="M299.29 416.189C295.86 417.589 291.75 402.119 295.28 400.669C298.74 399.259 302.77 414.759 299.29 416.189Z" fill="white" fill-opacity="0.07"/>
<path d="M320.03 400.009C316.6 398.609 312.49 414.079 316.02 415.529C319.48 416.939 323.51 401.439 320.03 400.009Z" fill="white" fill-opacity="0.07"/>
<path d="M313.29 416.189C309.86 417.589 305.75 402.119 309.28 400.669C312.74 399.259 316.77 414.759 313.29 416.189Z" fill="white" fill-opacity="0.07"/>
<path d="M334.03 414.009C330.6 412.609 326.49 428.079 330.02 429.529C333.48 430.939 337.51 415.439 334.03 414.009Z" fill="white" fill-opacity="0.07"/>
<path d="M327.29 430.179C323.86 431.579 319.75 416.109 323.28 414.659C326.74 413.249 330.77 428.749 327.29 430.179Z" fill="white" fill-opacity="0.07"/>
<path d="M320.03 428.009C316.6 426.609 312.49 442.079 316.02 443.529C319.48 444.939 323.51 429.439 320.03 428.009Z" fill="white" fill-opacity="0.07"/>
<path d="M313.29 444.179C309.86 445.579 305.75 430.109 309.28 428.659C312.74 427.249 316.77 442.749 313.29 444.179Z" fill="white" fill-opacity="0.07"/>
<path d="M306.03 442C302.6 440.6 298.49 456.07 302.02 457.52C305.48 458.93 309.51 443.43 306.03 442Z" fill="white" fill-opacity="0.07"/>
<path d="M299.29 458.179C295.86 459.579 291.75 444.109 295.28 442.659C298.74 441.249 302.77 456.749 299.29 458.179Z" fill="white" fill-opacity="0.07"/>
<path d="M12.1005 595.97C8.67049 594.57 4.56049 610.04 8.09049 611.49C11.5505 612.9 15.5805 597.4 12.1005 595.97Z" fill="white" fill-opacity="0.07"/>
<path d="M5.37002 612.14C1.94002 613.54 -2.16998 598.07 1.36002 596.62C4.82002 595.21 8.85002 610.71 5.37002 612.14Z" fill="white" fill-opacity="0.07"/>
<path d="M54.0907 609.961C50.6607 608.561 46.5507 624.031 50.0807 625.481C53.5407 626.891 57.5707 611.391 54.0907 609.961Z" fill="white" fill-opacity="0.07"/>
<path d="M47.3603 626.13C43.9303 627.53 39.8203 612.06 43.3503 610.61C46.8103 609.2 50.8403 624.7 47.3603 626.13Z" fill="white" fill-opacity="0.07"/>
<path d="M40.1005 623.961C36.6705 622.561 32.5605 638.031 36.0905 639.481C39.5505 640.891 43.5805 625.391 40.1005 623.961Z" fill="white" fill-opacity="0.07"/>
<path d="M33.3603 640.13C29.9303 641.53 25.8203 626.06 29.3503 624.61C32.8103 623.2 36.8403 638.7 33.3603 640.13Z" fill="white" fill-opacity="0.07"/>
<path d="M12.1005 623.961C8.67049 622.561 4.56049 638.031 8.09049 639.481C11.5505 640.891 15.5805 625.391 12.1005 623.961Z" fill="white" fill-opacity="0.07"/>
<path d="M5.37002 640.13C1.94002 641.53 -2.16998 626.06 1.36002 624.61C4.82002 623.2 8.85002 638.7 5.37002 640.13Z" fill="white" fill-opacity="0.07"/>
<path d="M26.1005 637.961C22.6705 636.561 18.5605 652.031 22.0905 653.481C25.5505 654.891 29.5805 639.391 26.1005 637.961Z" fill="white" fill-opacity="0.07"/>
<path d="M19.3603 654.13C15.9303 655.53 11.8203 640.06 15.3503 638.61C18.8103 637.2 22.8403 652.7 19.3603 654.13Z" fill="white" fill-opacity="0.07"/>
<path d="M40.1005 651.951C36.6705 650.551 32.5605 666.021 36.0905 667.471C39.5505 668.881 43.5805 653.381 40.1005 651.951Z" fill="white" fill-opacity="0.07"/>
<path d="M33.3603 668.12C29.9303 669.52 25.8203 654.05 29.3503 652.6C32.8103 651.19 36.8403 666.69 33.3603 668.12Z" fill="white" fill-opacity="0.07"/>
<path d="M12.1005 651.951C8.67049 650.551 4.56049 666.021 8.09049 667.471C11.5505 668.881 15.5805 653.381 12.1005 651.951Z" fill="white" fill-opacity="0.07"/>
<path d="M5.37002 668.12C1.94002 669.52 -2.16998 654.05 1.36002 652.6C4.82002 651.19 8.85002 666.69 5.37002 668.12Z" fill="white" fill-opacity="0.07"/>
<path d="M54.0907 651.951C50.6607 650.551 46.5507 666.021 50.0807 667.471C53.5407 668.881 57.5707 653.381 54.0907 651.951Z" fill="white" fill-opacity="0.07"/>
<path d="M47.3603 668.12C43.9303 669.52 39.8203 654.05 43.3503 652.6C46.8103 651.19 50.8403 666.69 47.3603 668.12Z" fill="white" fill-opacity="0.07"/>
<path d="M68.0907 651.951C64.6607 650.551 60.5507 666.021 64.0807 667.471C67.5407 668.881 71.5707 653.381 68.0907 651.951Z" fill="white" fill-opacity="0.07"/>
<path d="M61.3505 668.12C57.9205 669.52 53.8105 654.05 57.3405 652.6C60.8005 651.19 64.8305 666.69 61.3505 668.12Z" fill="white" fill-opacity="0.07"/>
<path d="M26.1005 665.951C22.6705 664.551 18.5605 680.021 22.0905 681.471C25.5505 682.881 29.5805 667.381 26.1005 665.951Z" fill="white" fill-opacity="0.07"/>
<path d="M19.3603 682.12C15.9303 683.52 11.8203 668.05 15.3503 666.6C18.8103 665.19 22.8403 680.69 19.3603 682.12Z" fill="white" fill-opacity="0.07"/>
<path d="M40.1005 679.951C36.6705 678.551 32.5605 694.021 36.0905 695.471C39.5505 696.881 43.5805 681.381 40.1005 679.951Z" fill="white" fill-opacity="0.07"/>
<path d="M33.3603 696.12C29.9303 697.52 25.8203 682.05 29.3503 680.6C32.8103 679.19 36.8403 694.69 33.3603 696.12Z" fill="white" fill-opacity="0.07"/>
<path d="M12.1005 679.951C8.67049 678.551 4.56049 694.021 8.09049 695.471C11.5505 696.881 15.5805 681.381 12.1005 679.951Z" fill="white" fill-opacity="0.07"/>
<path d="M5.37002 696.12C1.94002 697.52 -2.16998 682.05 1.36002 680.6C4.82002 679.19 8.85002 694.69 5.37002 696.12Z" fill="white" fill-opacity="0.07"/>
<path d="M54.0907 693.941C50.6607 692.541 46.5507 708.011 50.0807 709.461C53.5407 710.871 57.5707 695.371 54.0907 693.941Z" fill="white" fill-opacity="0.07"/>
<path d="M47.3603 710.111C43.9303 711.511 39.8203 696.041 43.3503 694.591C46.8103 693.181 50.8403 708.681 47.3603 710.111Z" fill="white" fill-opacity="0.07"/>
<path d="M12.1005 707.941C8.67049 706.541 4.56049 722.011 8.09049 723.461C11.5505 724.871 15.5805 709.371 12.1005 707.941Z" fill="white" fill-opacity="0.07"/>
<path d="M5.37002 724.111C1.94002 725.511 -2.16998 710.041 1.36002 708.591C4.82002 707.181 8.85002 722.681 5.37002 724.111Z" fill="white" fill-opacity="0.07"/>
<path d="M12.1005 609.961C8.67049 608.561 4.56049 624.031 8.09049 625.481C11.5505 626.891 15.5805 611.391 12.1005 609.961Z" fill="white" fill-opacity="0.07"/>
<path d="M5.37002 626.13C1.94002 627.53 -2.16998 612.06 1.36002 610.61C4.82002 609.2 8.85002 624.7 5.37002 626.13Z" fill="white" fill-opacity="0.07"/>
<path d="M12.1005 693.941C8.67049 692.541 4.56049 708.011 8.09049 709.461C11.5505 710.871 15.5805 695.371 12.1005 693.941Z" fill="white" fill-opacity="0.07"/>
<path d="M5.37002 710.111C1.94002 711.511 -2.16998 696.041 1.36002 694.591C4.82002 693.181 8.85002 708.681 5.37002 710.111Z" fill="white" fill-opacity="0.07"/>
<path d="M306.03 609.959C302.6 608.559 298.49 624.029 302.02 625.479C305.48 626.889 309.51 611.389 306.03 609.959Z" fill="white" fill-opacity="0.07"/>
<path d="M299.29 626.128C295.86 627.528 291.75 612.058 295.28 610.608C298.74 609.198 302.77 624.698 299.29 626.128Z" fill="white" fill-opacity="0.07"/>
<path d="M320.03 623.959C316.6 622.559 312.49 638.029 316.02 639.479C319.48 640.889 323.51 625.389 320.03 623.959Z" fill="white" fill-opacity="0.07"/>
<path d="M313.29 640.128C309.86 641.528 305.75 626.058 309.28 624.608C312.74 623.198 316.77 638.698 313.29 640.128Z" fill="white" fill-opacity="0.07"/>
<path d="M334.03 637.959C330.6 636.559 326.49 652.029 330.02 653.479C333.48 654.889 337.51 639.389 334.03 637.959Z" fill="white" fill-opacity="0.07"/>
<path d="M327.29 654.128C323.86 655.528 319.75 640.058 323.28 638.608C326.74 637.198 330.77 652.698 327.29 654.128Z" fill="white" fill-opacity="0.07"/>
<path d="M292.04 651.949C288.61 650.549 284.5 666.019 288.03 667.469C291.49 668.879 295.52 653.379 292.04 651.949Z" fill="white" fill-opacity="0.07"/>
<path d="M285.3 668.118C281.87 669.518 277.76 654.048 281.29 652.598C284.75 651.188 288.78 666.688 285.3 668.118Z" fill="white" fill-opacity="0.07"/>
<path d="M306.03 651.949C302.6 650.549 298.49 666.019 302.02 667.469C305.48 668.879 309.51 653.379 306.03 651.949Z" fill="white" fill-opacity="0.07"/>
<path d="M299.29 668.118C295.86 669.518 291.75 654.048 295.28 652.598C298.74 651.188 302.77 666.688 299.29 668.118Z" fill="white" fill-opacity="0.07"/>
<path d="M320.03 651.949C316.6 650.549 312.49 666.019 316.02 667.469C319.48 668.879 323.51 653.379 320.03 651.949Z" fill="white" fill-opacity="0.07"/>
<path d="M313.29 668.118C309.86 669.518 305.75 654.048 309.28 652.598C312.74 651.188 316.77 666.688 313.29 668.118Z" fill="white" fill-opacity="0.07"/>
<path d="M334.03 665.949C330.6 664.549 326.49 680.019 330.02 681.469C333.48 682.879 337.51 667.379 334.03 665.949Z" fill="white" fill-opacity="0.07"/>
<path d="M327.29 682.118C323.86 683.518 319.75 668.048 323.28 666.598C326.74 665.188 330.77 680.688 327.29 682.118Z" fill="white" fill-opacity="0.07"/>
<path d="M320.03 679.949C316.6 678.549 312.49 694.019 316.02 695.469C319.48 696.879 323.51 681.379 320.03 679.949Z" fill="white" fill-opacity="0.07"/>
<path d="M313.29 696.118C309.86 697.518 305.75 682.048 309.28 680.598C312.74 679.188 316.77 694.688 313.29 696.118Z" fill="white" fill-opacity="0.07"/>
<path d="M306.03 693.939C302.6 692.539 298.49 708.009 302.02 709.459C305.48 710.869 309.51 695.369 306.03 693.939Z" fill="white" fill-opacity="0.07"/>
<path d="M299.29 710.109C295.86 711.509 291.75 696.039 295.28 694.589C298.74 693.179 302.77 708.679 299.29 710.109Z" fill="white" fill-opacity="0.07"/>
<path d="M208.061 749.929C204.631 748.529 200.521 763.999 204.051 765.449C207.511 766.859 211.541 751.359 208.061 749.929Z" fill="white" fill-opacity="0.07"/>
<path d="M201.321 766.099C197.891 767.499 193.781 752.029 197.311 750.579C200.771 749.169 204.801 764.669 201.321 766.099Z" fill="white" fill-opacity="0.07"/>
<path d="M180.061 749.929C176.631 748.529 172.521 763.999 176.051 765.449C179.511 766.859 183.541 751.359 180.061 749.929Z" fill="white" fill-opacity="0.07"/>
<path d="M173.321 766.099C169.891 767.499 165.781 752.029 169.311 750.579C172.771 749.169 176.801 764.669 173.321 766.099Z" fill="white" fill-opacity="0.07"/>
<path d="M152.071 749.929C148.641 748.529 144.531 763.999 148.061 765.449C151.521 766.859 155.551 751.359 152.071 749.929Z" fill="white" fill-opacity="0.07"/>
<path d="M145.331 766.099C141.901 767.499 137.791 752.029 141.321 750.579C144.781 749.169 148.811 764.669 145.331 766.099Z" fill="white" fill-opacity="0.07"/>
<path d="M194.061 763.929C190.631 762.529 186.521 777.999 190.051 779.449C193.511 780.859 197.541 765.359 194.061 763.929Z" fill="white" fill-opacity="0.07"/>
<path d="M187.321 780.099C183.891 781.499 179.781 766.029 183.311 764.579C186.771 763.169 190.801 778.669 187.321 780.099Z" fill="white" fill-opacity="0.07"/>
<path d="M166.071 763.929C162.641 762.529 158.531 777.999 162.061 779.449C165.521 780.859 169.551 765.359 166.071 763.929Z" fill="white" fill-opacity="0.07"/>
<path d="M159.331 780.099C155.901 781.499 151.791 766.029 155.321 764.579C158.781 763.169 162.811 778.669 159.331 780.099Z" fill="white" fill-opacity="0.07"/>
<path d="M208.061 777.92C204.631 776.52 200.521 791.99 204.051 793.44C207.511 794.85 211.541 779.35 208.061 777.92Z" fill="white" fill-opacity="0.07"/>
<path d="M201.321 794.089C197.891 795.489 193.781 780.019 197.311 778.569C200.771 777.159 204.801 792.659 201.321 794.089Z" fill="white" fill-opacity="0.07"/>
<path d="M180.061 777.92C176.631 776.52 172.521 791.99 176.051 793.44C179.511 794.85 183.541 779.35 180.061 777.92Z" fill="white" fill-opacity="0.07"/>
<path d="M173.321 794.089C169.891 795.489 165.781 780.019 169.311 778.569C172.771 777.159 176.801 792.659 173.321 794.089Z" fill="white" fill-opacity="0.07"/>
<path d="M138.071 777.92C134.641 776.52 130.531 791.99 134.061 793.44C137.521 794.85 141.551 779.35 138.071 777.92Z" fill="white" fill-opacity="0.07"/>
<path d="M131.331 794.089C127.901 795.489 123.791 780.019 127.321 778.569C130.781 777.159 134.811 792.659 131.331 794.089Z" fill="white" fill-opacity="0.07"/>
<path d="M222.052 777.92C218.622 776.52 214.512 791.99 218.042 793.44C221.502 794.85 225.532 779.35 222.052 777.92Z" fill="white" fill-opacity="0.07"/>
<path d="M215.311 794.089C211.881 795.489 207.771 780.019 211.301 778.569C214.761 777.159 218.791 792.659 215.311 794.089Z" fill="white" fill-opacity="0.07"/>
<path d="M152.071 777.92C148.641 776.52 144.531 791.99 148.061 793.44C151.521 794.85 155.551 779.35 152.071 777.92Z" fill="white" fill-opacity="0.07"/>
<path d="M145.331 794.089C141.901 795.489 137.791 780.019 141.321 778.569C144.781 777.159 148.811 792.659 145.331 794.089Z" fill="white" fill-opacity="0.07"/>
<path d="M194.061 791.92C190.631 790.52 186.521 805.99 190.051 807.44C193.511 808.85 197.541 793.35 194.061 791.92Z" fill="white" fill-opacity="0.07"/>
<path d="M187.321 808.089C183.891 809.489 179.781 794.019 183.311 792.569C186.771 791.159 190.801 806.659 187.321 808.089Z" fill="white" fill-opacity="0.07"/>
<path d="M166.071 791.92C162.641 790.52 158.531 805.99 162.061 807.44C165.521 808.85 169.551 793.35 166.071 791.92Z" fill="white" fill-opacity="0.07"/>
<path d="M159.331 808.089C155.901 809.489 151.791 794.019 155.321 792.569C158.781 791.159 162.811 806.659 159.331 808.089Z" fill="white" fill-opacity="0.07"/>
<path d="M208.061 805.92C204.631 804.52 200.521 819.99 204.051 821.44C207.511 822.85 211.541 807.35 208.061 805.92Z" fill="white" fill-opacity="0.07"/>
<path d="M201.321 822.089C197.891 823.489 193.781 808.019 197.311 806.569C200.771 805.159 204.801 820.659 201.321 822.089Z" fill="white" fill-opacity="0.07"/>
<path d="M180.061 805.92C176.631 804.52 172.521 819.99 176.051 821.44C179.511 822.85 183.541 807.35 180.061 805.92Z" fill="white" fill-opacity="0.07"/>
<path d="M173.321 822.089C169.891 823.489 165.781 808.019 169.311 806.569C172.771 805.159 176.801 820.659 173.321 822.089Z" fill="white" fill-opacity="0.07"/>
<path d="M152.071 805.92C148.641 804.52 144.531 819.99 148.061 821.44C151.521 822.85 155.551 807.35 152.071 805.92Z" fill="white" fill-opacity="0.07"/>
<path d="M145.331 822.089C141.901 823.489 137.791 808.019 141.321 806.569C144.781 805.159 148.811 820.659 145.331 822.089Z" fill="white" fill-opacity="0.07"/>
<path d="M180.061 735.929C176.631 734.529 172.521 749.999 176.051 751.449C179.511 752.859 183.541 737.359 180.061 735.929Z" fill="white" fill-opacity="0.07"/>
<path d="M173.321 752.099C169.891 753.499 165.781 738.029 169.311 736.579C172.771 735.169 176.801 750.669 173.321 752.099Z" fill="white" fill-opacity="0.07"/>
<path d="M180.061 819.91C176.631 818.51 172.521 833.98 176.051 835.43C179.511 836.84 183.541 821.34 180.061 819.91Z" fill="white" fill-opacity="0.07"/>
<path d="M173.321 836.079C169.891 837.479 165.781 822.009 169.311 820.559C172.771 819.149 176.801 834.649 173.321 836.079Z" fill="white" fill-opacity="0.07"/>
<path d="M12.1005 847.91C8.67049 846.51 4.56049 861.98 8.09049 863.43C11.5505 864.84 15.5805 849.34 12.1005 847.91Z" fill="white" fill-opacity="0.07"/>
<path d="M5.37002 864.079C1.94002 865.479 -2.16998 850.009 1.36002 848.559C4.82002 847.149 8.85002 862.649 5.37002 864.079Z" fill="white" fill-opacity="0.07"/>
<path d="M54.0907 861.9C50.6607 860.5 46.5507 875.97 50.0807 877.42C53.5407 878.83 57.5707 863.33 54.0907 861.9Z" fill="white" fill-opacity="0.07"/>
<path d="M47.3603 878.07C43.9303 879.47 39.8203 864 43.3503 862.55C46.8103 861.14 50.8403 876.64 47.3603 878.07Z" fill="white" fill-opacity="0.07"/>
<path d="M40.1005 875.9C36.6705 874.5 32.5605 889.97 36.0905 891.42C39.5505 892.83 43.5805 877.33 40.1005 875.9Z" fill="white" fill-opacity="0.07"/>
<path d="M33.3603 892.07C29.9303 893.47 25.8203 878 29.3503 876.55C32.8103 875.14 36.8403 890.64 33.3603 892.07Z" fill="white" fill-opacity="0.07"/>
<path d="M12.1005 875.9C8.67049 874.5 4.56049 889.97 8.09049 891.42C11.5505 892.83 15.5805 877.33 12.1005 875.9Z" fill="white" fill-opacity="0.07"/>
<path d="M5.37002 892.07C1.94002 893.47 -2.16998 878 1.36002 876.55C4.82002 875.14 8.85002 890.64 5.37002 892.07Z" fill="white" fill-opacity="0.07"/>
<path d="M26.1005 889.9C22.6705 888.5 18.5605 903.97 22.0905 905.42C25.5505 906.83 29.5805 891.33 26.1005 889.9Z" fill="white" fill-opacity="0.07"/>
<path d="M19.3603 906.07C15.9303 907.47 11.8203 892 15.3503 890.55C18.8103 889.14 22.8403 904.64 19.3603 906.07Z" fill="white" fill-opacity="0.07"/>
<path d="M40.1005 903.89C36.6705 902.49 32.5605 917.96 36.0905 919.41C39.5505 920.82 43.5805 905.32 40.1005 903.89Z" fill="white" fill-opacity="0.07"/>
<path d="M33.3603 920.06C29.9303 921.46 25.8203 905.99 29.3503 904.54C32.8103 903.13 36.8403 918.63 33.3603 920.06Z" fill="white" fill-opacity="0.07"/>
<path d="M12.1005 903.89C8.67049 902.49 4.56049 917.96 8.09049 919.41C11.5505 920.82 15.5805 905.32 12.1005 903.89Z" fill="white" fill-opacity="0.07"/>
<path d="M5.37002 920.06C1.94002 921.46 -2.16998 905.99 1.36002 904.54C4.82002 903.13 8.85002 918.63 5.37002 920.06Z" fill="white" fill-opacity="0.07"/>
<path d="M54.0907 903.89C50.6607 902.49 46.5507 917.96 50.0807 919.41C53.5407 920.82 57.5707 905.32 54.0907 903.89Z" fill="white" fill-opacity="0.07"/>
<path d="M47.3603 920.06C43.9303 921.46 39.8203 905.99 43.3503 904.54C46.8103 903.13 50.8403 918.63 47.3603 920.06Z" fill="white" fill-opacity="0.07"/>
<path d="M68.0907 903.89C64.6607 902.49 60.5507 917.96 64.0807 919.41C67.5407 920.82 71.5707 905.32 68.0907 903.89Z" fill="white" fill-opacity="0.07"/>
<path d="M61.3505 920.06C57.9205 921.46 53.8105 905.99 57.3405 904.54C60.8005 903.13 64.8305 918.63 61.3505 920.06Z" fill="white" fill-opacity="0.07"/>
<path d="M26.1005 917.89C22.6705 916.49 18.5605 931.96 22.0905 933.41C25.5505 934.82 29.5805 919.32 26.1005 917.89Z" fill="white" fill-opacity="0.07"/>
<path d="M19.3603 934.06C15.9303 935.46 11.8203 919.99 15.3503 918.54C18.8103 917.13 22.8403 932.63 19.3603 934.06Z" fill="white" fill-opacity="0.07"/>
<path d="M40.1005 931.88C36.6705 930.48 32.5605 945.951 36.0905 947.401C39.5505 948.811 43.5805 933.31 40.1005 931.88Z" fill="white" fill-opacity="0.07"/>
<path d="M33.3603 948.06C29.9303 949.46 25.8203 933.99 29.3503 932.54C32.8103 931.13 36.8403 946.63 33.3603 948.06Z" fill="white" fill-opacity="0.07"/>
<path d="M12.1005 931.88C8.67049 930.48 4.56049 945.951 8.09049 947.401C11.5505 948.811 15.5805 933.31 12.1005 931.88Z" fill="white" fill-opacity="0.07"/>
<path d="M5.37002 948.06C1.94002 949.46 -2.16998 933.99 1.36002 932.54C4.82002 931.13 8.85002 946.63 5.37002 948.06Z" fill="white" fill-opacity="0.07"/>
<path d="M54.0907 945.88C50.6607 944.48 46.5507 959.951 50.0807 961.401C53.5407 962.811 57.5707 947.31 54.0907 945.88Z" fill="white" fill-opacity="0.07"/>
<path d="M47.3603 962.05C43.9303 963.45 39.8203 947.98 43.3503 946.53C46.8103 945.12 50.8403 960.62 47.3603 962.05Z" fill="white" fill-opacity="0.07"/>
<path d="M12.1005 959.88C8.67049 958.48 4.56049 973.951 8.09049 975.401C11.5505 976.811 15.5805 961.31 12.1005 959.88Z" fill="white" fill-opacity="0.07"/>
<path d="M5.37002 976.05C1.94002 977.45 -2.16998 961.98 1.36002 960.53C4.82002 959.12 8.85002 974.62 5.37002 976.05Z" fill="white" fill-opacity="0.07"/>
<path d="M12.1005 861.9C8.67049 860.5 4.56049 875.97 8.09049 877.42C11.5505 878.83 15.5805 863.33 12.1005 861.9Z" fill="white" fill-opacity="0.07"/>
<path d="M5.37002 878.07C1.94002 879.47 -2.16998 864 1.36002 862.55C4.82002 861.14 8.85002 876.64 5.37002 878.07Z" fill="white" fill-opacity="0.07"/>
<path d="M12.1005 945.88C8.67049 944.48 4.56049 959.951 8.09049 961.401C11.5505 962.811 15.5805 947.31 12.1005 945.88Z" fill="white" fill-opacity="0.07"/>
<path d="M5.37002 962.05C1.94002 963.45 -2.16998 947.98 1.36002 946.53C4.82002 945.12 8.85002 960.62 5.37002 962.05Z" fill="white" fill-opacity="0.07"/>
<path d="M306.03 861.9C302.6 860.5 298.49 875.97 302.02 877.42C305.48 878.83 309.51 863.33 306.03 861.9Z" fill="white" fill-opacity="0.07"/>
<path d="M299.29 878.07C295.86 879.47 291.75 864 295.28 862.55C298.74 861.14 302.77 876.64 299.29 878.07Z" fill="white" fill-opacity="0.07"/>
<path d="M320.03 875.9C316.6 874.5 312.49 889.97 316.02 891.42C319.48 892.83 323.51 877.33 320.03 875.9Z" fill="white" fill-opacity="0.07"/>
<path d="M313.29 892.07C309.86 893.47 305.75 878 309.28 876.55C312.74 875.14 316.77 890.64 313.29 892.07Z" fill="white" fill-opacity="0.07"/>
<path d="M334.03 889.9C330.6 888.5 326.49 903.97 330.02 905.42C333.48 906.83 337.51 891.33 334.03 889.9Z" fill="white" fill-opacity="0.07"/>
<path d="M327.29 906.07C323.86 907.47 319.75 892 323.28 890.55C326.74 889.14 330.77 904.64 327.29 906.07Z" fill="white" fill-opacity="0.07"/>
<path d="M292.04 903.89C288.61 902.49 284.5 917.96 288.03 919.41C291.49 920.82 295.52 905.32 292.04 903.89Z" fill="white" fill-opacity="0.07"/>
<path d="M285.3 920.06C281.87 921.46 277.76 905.99 281.29 904.54C284.75 903.13 288.78 918.63 285.3 920.06Z" fill="white" fill-opacity="0.07"/>
<path d="M306.03 903.89C302.6 902.49 298.49 917.96 302.02 919.41C305.48 920.82 309.51 905.32 306.03 903.89Z" fill="white" fill-opacity="0.07"/>
<path d="M299.29 920.06C295.86 921.46 291.75 905.99 295.28 904.54C298.74 903.13 302.77 918.63 299.29 920.06Z" fill="white" fill-opacity="0.07"/>
<path d="M320.03 903.89C316.6 902.49 312.49 917.96 316.02 919.41C319.48 920.82 323.51 905.32 320.03 903.89Z" fill="white" fill-opacity="0.07"/>
<path d="M313.29 920.06C309.86 921.46 305.75 905.99 309.28 904.54C312.74 903.13 316.77 918.63 313.29 920.06Z" fill="white" fill-opacity="0.07"/>
<path d="M334.03 917.89C330.6 916.49 326.49 931.96 330.02 933.41C333.48 934.82 337.51 919.32 334.03 917.89Z" fill="white" fill-opacity="0.07"/>
<path d="M327.29 934.06C323.86 935.46 319.75 919.99 323.28 918.54C326.74 917.13 330.77 932.63 327.29 934.06Z" fill="white" fill-opacity="0.07"/>
<path d="M320.03 931.88C316.6 930.48 312.49 945.951 316.02 947.401C319.48 948.811 323.51 933.31 320.03 931.88Z" fill="white" fill-opacity="0.07"/>
<path d="M313.29 948.06C309.86 949.46 305.75 933.99 309.28 932.54C312.74 931.13 316.77 946.63 313.29 948.06Z" fill="white" fill-opacity="0.07"/>
<path d="M306.03 945.88C302.6 944.48 298.49 959.951 302.02 961.401C305.48 962.811 309.51 947.31 306.03 945.88Z" fill="white" fill-opacity="0.07"/>
<path d="M299.29 962.05C295.86 963.45 291.75 947.98 295.28 946.53C298.74 945.12 302.77 960.62 299.29 962.05Z" fill="white" fill-opacity="0.07"/>
<path d="M12.1005 92.0895C8.67049 90.6895 4.56049 106.159 8.09049 107.609C11.5505 109.019 15.5805 93.5095 12.1005 92.0895Z" fill="white" fill-opacity="0.07"/>
<path d="M5.37041 108.259C1.94041 109.659 -2.17959 94.189 1.35041 92.739C4.81041 91.329 8.84041 106.829 5.36041 108.259H5.37041Z" fill="white" fill-opacity="0.07"/>
<path d="M54.0907 106.089C50.6607 104.689 46.5507 120.159 50.0807 121.609C53.5407 123.019 57.5707 107.519 54.0907 106.089Z" fill="white" fill-opacity="0.07"/>
<path d="M47.3603 122.259C43.9303 123.659 39.8203 108.189 43.3503 106.739C46.8103 105.329 50.8403 120.829 47.3603 122.259Z" fill="white" fill-opacity="0.07"/>
<path d="M40.1005 120.08C36.6705 118.68 32.5605 134.15 36.0905 135.6C39.5505 137.01 43.5805 121.51 40.1005 120.08Z" fill="white" fill-opacity="0.07"/>
<path d="M33.3603 136.249C29.9303 137.649 25.8203 122.179 29.3503 120.729C32.8103 119.319 36.8403 134.819 33.3603 136.249Z" fill="white" fill-opacity="0.07"/>
<path d="M12.1005 120.08C8.67049 118.68 4.56049 134.15 8.09049 135.6C11.5505 137.01 15.5805 121.51 12.1005 120.08Z" fill="white" fill-opacity="0.07"/>
<path d="M5.37002 136.249C1.94002 137.649 -2.16998 122.179 1.36002 120.729C4.82002 119.319 8.85002 134.819 5.37002 136.249Z" fill="white" fill-opacity="0.07"/>
<path d="M26.1005 134.08C22.6705 132.68 18.5605 148.15 22.0905 149.6C25.5505 151.01 29.5805 135.51 26.1005 134.08Z" fill="white" fill-opacity="0.07"/>
<path d="M19.3603 150.249C15.9303 151.649 11.8203 136.179 15.3503 134.729C18.8103 133.319 22.8403 148.819 19.3603 150.249Z" fill="white" fill-opacity="0.07"/>
<path d="M40.1005 148.08C36.6705 146.68 32.5605 162.15 36.0905 163.6C39.5505 165.01 43.5805 149.51 40.1005 148.08Z" fill="white" fill-opacity="0.07"/>
<path d="M33.3603 164.249C29.9303 165.649 25.8203 150.179 29.3503 148.729C32.8103 147.319 36.8403 162.819 33.3603 164.249Z" fill="white" fill-opacity="0.07"/>
<path d="M12.1005 148.08C8.67049 146.68 4.56049 162.15 8.09049 163.6C11.5505 165.01 15.5805 149.51 12.1005 148.08Z" fill="white" fill-opacity="0.07"/>
<path d="M5.37002 164.249C1.94002 165.649 -2.16998 150.179 1.36002 148.729C4.82002 147.319 8.85002 162.819 5.37002 164.249Z" fill="white" fill-opacity="0.07"/>
<path d="M54.0907 148.08C50.6607 146.68 46.5507 162.15 50.0807 163.6C53.5407 165.01 57.5707 149.51 54.0907 148.08Z" fill="white" fill-opacity="0.07"/>
<path d="M47.3603 164.249C43.9303 165.649 39.8203 150.179 43.3503 148.729C46.8103 147.319 50.8403 162.819 47.3603 164.249Z" fill="white" fill-opacity="0.07"/>
<path d="M68.0907 148.08C64.6607 146.68 60.5507 162.15 64.0807 163.6C67.5407 165.01 71.5707 149.51 68.0907 148.08Z" fill="white" fill-opacity="0.07"/>
<path d="M61.3505 164.249C57.9205 165.649 53.8105 150.179 57.3405 148.729C60.8005 147.319 64.8305 162.819 61.3505 164.249Z" fill="white" fill-opacity="0.07"/>
<path d="M26.1005 162.07C22.6705 160.67 18.5605 176.14 22.0905 177.59C25.5505 179 29.5805 163.5 26.1005 162.07Z" fill="white" fill-opacity="0.07"/>
<path d="M19.3603 178.239C15.9303 179.639 11.8203 164.169 15.3503 162.719C18.8103 161.309 22.8403 176.809 19.3603 178.239Z" fill="white" fill-opacity="0.07"/>
<path d="M40.1005 176.07C36.6705 174.67 32.5605 190.14 36.0905 191.59C39.5505 193 43.5805 177.5 40.1005 176.07Z" fill="white" fill-opacity="0.07"/>
<path d="M33.3603 192.239C29.9303 193.639 25.8203 178.169 29.3503 176.719C32.8103 175.309 36.8403 190.809 33.3603 192.239Z" fill="white" fill-opacity="0.07"/>
<path d="M12.1005 176.07C8.67049 174.67 4.56049 190.14 8.09049 191.59C11.5505 193 15.5805 177.5 12.1005 176.07Z" fill="white" fill-opacity="0.07"/>
<path d="M5.37002 192.239C1.94002 193.639 -2.16998 178.169 1.36002 176.719C4.82002 175.309 8.85002 190.809 5.37002 192.239Z" fill="white" fill-opacity="0.07"/>
<path d="M54.0907 190.07C50.6607 188.67 46.5507 204.14 50.0807 205.59C53.5407 207 57.5707 191.5 54.0907 190.07Z" fill="white" fill-opacity="0.07"/>
<path d="M47.3603 206.239C43.9303 207.639 39.8203 192.169 43.3503 190.719C46.8103 189.309 50.8403 204.809 47.3603 206.239Z" fill="white" fill-opacity="0.07"/>
<path d="M12.1005 204.06C8.67049 202.66 4.56049 218.13 8.09049 219.58C11.5505 220.99 15.5805 205.49 12.1005 204.06Z" fill="white" fill-opacity="0.07"/>
<path d="M5.37002 220.23C1.94002 221.63 -2.16998 206.16 1.36002 204.71C4.82002 203.3 8.85002 218.8 5.37002 220.23Z" fill="white" fill-opacity="0.07"/>
<path d="M12.1005 106.089C8.67049 104.689 4.56049 120.159 8.09049 121.609C11.5505 123.019 15.5805 107.519 12.1005 106.089Z" fill="white" fill-opacity="0.07"/>
<path d="M5.37002 122.259C1.94002 123.659 -2.16998 108.189 1.36002 106.739C4.82002 105.329 8.85002 120.829 5.37002 122.259Z" fill="white" fill-opacity="0.07"/>
<path d="M12.1005 190.07C8.67049 188.67 4.56049 204.14 8.09049 205.59C11.5505 207 15.5805 191.5 12.1005 190.07Z" fill="white" fill-opacity="0.07"/>
<path d="M5.37002 206.239C1.94002 207.639 -2.16998 192.169 1.36002 190.719C4.82002 189.309 8.85002 204.809 5.37002 206.239Z" fill="white" fill-opacity="0.07"/>
<path d="M306.03 106.089C302.6 104.689 298.49 120.159 302.02 121.609C305.48 123.019 309.51 107.519 306.03 106.089Z" fill="white" fill-opacity="0.07"/>
<path d="M299.29 122.259C295.86 123.659 291.75 108.189 295.28 106.739C298.74 105.329 302.77 120.829 299.29 122.259Z" fill="white" fill-opacity="0.07"/>
<path d="M320.03 120.08C316.6 118.68 312.49 134.15 316.02 135.6C319.48 137.01 323.51 121.51 320.03 120.08Z" fill="white" fill-opacity="0.07"/>
<path d="M313.29 136.249C309.86 137.649 305.75 122.179 309.28 120.729C312.74 119.319 316.77 134.819 313.29 136.249Z" fill="white" fill-opacity="0.07"/>
<path d="M334.03 134.08C330.6 132.68 326.49 148.15 330.02 149.6C333.48 151.01 337.51 135.51 334.03 134.08Z" fill="white" fill-opacity="0.07"/>
<path d="M327.29 150.249C323.86 151.649 319.75 136.179 323.28 134.729C326.74 133.319 330.77 148.819 327.29 150.249Z" fill="white" fill-opacity="0.07"/>
<path d="M292.04 148.08C288.61 146.68 284.5 162.15 288.03 163.6C291.49 165.01 295.52 149.51 292.04 148.08Z" fill="white" fill-opacity="0.07"/>
<path d="M285.3 164.249C281.87 165.649 277.76 150.179 281.29 148.729C284.75 147.319 288.78 162.819 285.3 164.249Z" fill="white" fill-opacity="0.07"/>
<path d="M306.03 148.08C302.6 146.68 298.49 162.15 302.02 163.6C305.48 165.01 309.51 149.51 306.03 148.08Z" fill="white" fill-opacity="0.07"/>
<path d="M299.29 164.249C295.86 165.649 291.75 150.179 295.28 148.729C298.74 147.319 302.77 162.819 299.29 164.249Z" fill="white" fill-opacity="0.07"/>
<path d="M320.03 148.08C316.6 146.68 312.49 162.15 316.02 163.6C319.48 165.01 323.51 149.51 320.03 148.08Z" fill="white" fill-opacity="0.07"/>
<path d="M313.29 164.249C309.86 165.649 305.75 150.179 309.28 148.729C312.74 147.319 316.77 162.819 313.29 164.249Z" fill="white" fill-opacity="0.07"/>
<path d="M334.03 162.07C330.6 160.67 326.49 176.14 330.02 177.59C333.48 179 337.51 163.5 334.03 162.07Z" fill="white" fill-opacity="0.07"/>
<path d="M327.29 178.239C323.86 179.639 319.75 164.169 323.28 162.719C326.74 161.309 330.77 176.809 327.29 178.239Z" fill="white" fill-opacity="0.07"/>
<path d="M320.03 176.07C316.6 174.67 312.49 190.14 316.02 191.59C319.48 193 323.51 177.5 320.03 176.07Z" fill="white" fill-opacity="0.07"/>
<path d="M313.29 192.239C309.86 193.639 305.75 178.169 309.28 176.719C312.74 175.309 316.77 190.809 313.29 192.239Z" fill="white" fill-opacity="0.07"/>
<path d="M306.03 190.07C302.6 188.67 298.49 204.14 302.02 205.59C305.48 207 309.51 191.5 306.03 190.07Z" fill="white" fill-opacity="0.07"/>
<path d="M299.29 206.239C295.86 207.639 291.75 192.169 295.28 190.719C298.74 189.309 302.77 204.809 299.29 206.239Z" fill="white" fill-opacity="0.07"/>
</g>
<defs>
<clipPath id="clip0_2055_18415">
<rect width="335" height="1100" fill="white"/>
</clipPath>
</defs>
</svg>
