<svg width="1437" height="848" viewBox="0 0 1437 848" fill="none" xmlns="http://www.w3.org/2000/svg">
<rect x="-3" y="655" width="1440" height="193" fill="white"/>
<g clip-path="url(#clip0_281_6647)">
<path d="M984.521 496.968C986.766 457.468 1024.37 430.305 1046.41 445.581C1068.45 460.857 1094.76 479.992 1104.48 531.719C1114.2 583.446 1088.79 746.773 1076.88 750.874C1064.96 754.976 1060.63 724.83 1052.18 730.587C1043.74 736.344 1052.97 747.804 1036.25 752.322C1019.52 756.84 993.01 636.543 991.312 617.879C989.615 599.215 983.677 511.871 984.532 496.979L984.521 496.968Z" fill="white"/>
<path d="M1220.42 453.323C1248.65 496.968 1192.51 584.268 1206.63 646.95C1220.75 709.631 1229.59 704.466 1232.52 722.725C1235.46 740.983 1287.45 755.765 1294.36 732.232C1301.27 708.699 1335.02 553.87 1325.81 519.459C1316.6 485.048 1293.27 426.676 1281.62 421.456C1269.96 416.236 1259.22 409.47 1248.17 412.551C1237.11 415.633 1211.26 439.166 1220.42 453.334V453.323Z" fill="white"/>
<path d="M740.407 555.142C769.48 566.898 772.963 581.252 777.312 599.785C781.661 618.317 768.636 665.066 773.927 703.238C779.218 741.411 798.136 733.493 803.35 751.828C803.93 753.879 808.378 748.78 810.678 748.714C815.235 748.594 819.266 748.944 819.924 748.429C820.022 745.874 818.237 743.834 822.432 736.575C824.349 733.241 846.882 693.347 856.083 638.473C865.285 583.599 861.582 526.839 807.162 532.037C752.742 537.235 727.416 526.499 733.911 540.81L740.407 555.131V555.142Z" fill="white"/>
<path d="M1123.22 746.225C1125.49 751.872 1134.34 753.758 1138.57 759.066C1142.8 764.374 1138.67 765.404 1128.93 766.611C1119.2 767.817 1112.41 772.664 1112.41 772.664C1112.41 772.664 1113.07 756.05 1123.21 746.214L1123.22 746.225Z" fill="#7991A1"/>
<path opacity="0.05" d="M1126.07 683.335C1129.84 690.539 1132.91 743.363 1112.66 755.721C1092.42 768.08 1082.77 752.826 1069.48 751.62C1058.24 750.611 1036.54 759.844 1029.31 741.4C1031.54 752.015 1036.7 760.974 1044.91 765.185C1045.83 764.735 1047.65 763.77 1048.9 763.068C1052.79 761.994 1058.29 766.238 1056.93 770.481C1059.57 774.067 1073.42 776.875 1083.44 774.385L1087.36 772.313C1092.03 771.896 1095.13 774.495 1097.17 777.774C1104.26 778.004 1114.27 773.563 1122.38 763.474C1130.49 753.375 1137.57 742.716 1136.41 720.575C1135.51 703.37 1131.78 692.897 1126.08 683.346L1126.07 683.335Z" fill="black"/>
<path d="M1136.4 720.564C1135.34 700.376 1130.4 689.465 1122.94 678.422C1114.5 663.3 1119.2 649.274 1100.15 635.271C1095.69 631.992 1094.36 631.027 1096.64 627.693C1097.92 625.873 1100.05 622.309 1101.05 617.659C1103.19 607.658 1099.57 597.559 1094.11 593.479L1076.75 622.956C1058.31 619.041 1050.17 606.715 1050.17 606.715C1037.24 614.183 1030.58 634.602 1036.34 654.362C1039.46 665.021 1042 671.985 1037.81 690.287C1036.55 694.213 1034.99 698.435 1033.05 703.051C1023.74 725.17 1027.26 756.16 1044.91 765.207C1045.83 764.757 1052.62 771.578 1056.93 770.503C1059.57 774.089 1073.42 776.896 1083.44 774.407C1083.44 774.407 1090.07 777.083 1097.17 777.796C1104.27 778.508 1114.27 773.585 1122.38 763.496C1130.48 753.396 1137.57 742.737 1136.41 720.597L1136.4 720.564Z" fill="#D8D8D8"/>
<path d="M1060.74 586.889C1058.17 591.506 1058.91 593.282 1056.63 597.087C1054.35 600.892 1051.03 603.14 1050.17 606.715C1050.17 606.715 1055.09 618.493 1065.18 618.986C1075.26 619.48 1089.82 615.181 1088.32 596.692C1088.19 589.839 1083.25 583.588 1075.68 581.406C1068.12 579.224 1066.55 586.911 1066.55 586.911C1066.55 586.911 1063.64 585.047 1060.73 586.889H1060.74Z" fill="#FAFAFA"/>
<path d="M1056.5 615.697C1055.87 615.028 1055.26 614.326 1054.7 613.602C1054.7 612.845 1057.07 615.028 1058.26 615.565C1061.21 616.892 1064.46 617.769 1067.38 616.387C1068.8 615.707 1069.44 614.907 1070.34 614.019C1071.07 613.295 1071.68 612.385 1072.63 611.946C1073.48 611.551 1074.47 611.639 1075.4 611.727C1078.15 612.001 1080.65 612.626 1083.13 611.069C1084.28 610.345 1085.06 609.15 1085.66 607.933C1087.16 604.928 1087.9 601.452 1087.12 598.129C1086.21 594.236 1083.35 590.935 1079.54 589.674C1074.27 587.931 1071.65 591.571 1069.3 594.137C1068.02 595.53 1065.91 591.988 1063.7 590.815C1061.82 589.828 1059.72 591.473 1059.48 589.477C1059.48 589.477 1061.22 582.875 1063.47 580.276C1070.34 581.428 1069.77 577.327 1073.99 577.414C1079.59 582.086 1089.59 582.327 1097.76 597.57C1099.87 601.803 1098.44 605.717 1097.35 608.963C1095.62 614.063 1091.51 616.563 1091.27 622.024C1091.19 623.811 1091.3 625.785 1090.2 627.189C1088.84 628.922 1086.27 628.998 1084.08 628.779C1073.49 627.726 1063.81 623.384 1056.47 615.697H1056.5Z" fill="#77858E"/>
<path d="M1063.98 570.385C1063.75 571.843 1062.61 581.482 1062.61 581.482C1065.05 580.616 1067.24 582.02 1069.3 583.204C1071.22 584.312 1070.95 581.34 1070.92 579.531C1070.87 577.491 1074.01 577.403 1074.01 577.403C1067.56 570.253 1064.22 568.948 1063.98 570.385Z" fill="#7991A1"/>
<path d="M1075.44 597.559C1074.06 597.482 1072.89 598.546 1072.81 599.927C1072.75 601.309 1073.8 602.482 1075.18 602.559C1076.56 602.625 1077.73 601.572 1077.81 600.19C1077.87 598.809 1076.82 597.635 1075.44 597.559Z" fill="#7991A1"/>
<path opacity="0.1" d="M1084.29 666.283C1088.19 671.886 1089.13 677.731 1089.89 688.599C1090.51 697.503 1094.91 718.722 1103.75 727.648C1112.6 736.575 1116.38 732.112 1114.6 723.185C1112.82 714.259 1112.08 710.695 1112.45 701.538C1112.82 692.393 1111.71 685.473 1110.59 682.578C1110.59 682.578 1113.65 687.557 1113.93 702.657C1114.14 713.612 1117.72 723.405 1117.61 728.756C1117.5 734.107 1116.17 737.233 1109.26 735.007C1102.34 732.781 1094.96 723.92 1091.87 712.471C1089.56 703.896 1088.45 699.543 1087.98 685.989C1087.46 670.943 1084.29 666.294 1084.29 666.294V666.283Z" fill="black"/>
<g clip-path="url(#clip1_281_6647)">
<path d="M984.521 496.968C986.766 457.468 1024.37 430.305 1046.41 445.581C1068.45 460.857 1094.76 479.992 1104.48 531.719C1114.2 583.446 1088.79 746.773 1076.88 750.874C1064.96 754.976 1060.63 724.83 1052.18 730.587C1043.74 736.344 1052.97 747.804 1036.25 752.322C1019.52 756.84 993.01 636.543 991.312 617.879C989.615 599.215 983.677 511.871 984.532 496.979L984.521 496.968Z" fill="white"/>
<path d="M1220.42 453.323C1248.65 496.968 1192.51 584.268 1206.63 646.95C1220.75 709.631 1229.59 704.466 1232.52 722.725C1235.46 740.983 1287.45 755.765 1294.36 732.232C1301.27 708.699 1335.02 553.87 1325.81 519.459C1316.6 485.048 1293.27 426.676 1281.62 421.456C1269.96 416.236 1259.22 409.47 1248.17 412.551C1237.11 415.633 1211.26 439.166 1220.42 453.334V453.323Z" fill="white"/>
<path d="M740.407 555.142C769.48 566.898 772.963 581.252 777.312 599.785C781.661 618.317 768.636 665.066 773.927 703.238C779.218 741.411 798.136 733.493 803.35 751.828C803.93 753.879 808.378 748.78 810.678 748.714C815.235 748.594 819.266 748.944 819.924 748.429C820.022 745.874 818.237 743.834 822.432 736.575C824.349 733.241 846.882 693.347 856.083 638.473C865.285 583.599 861.582 526.839 807.162 532.037C752.742 537.235 727.416 526.499 733.911 540.81L740.407 555.131V555.142Z" fill="white"/>
<path fill-rule="evenodd" clip-rule="evenodd" d="M819.935 748.44C821.556 742.255 825.445 738.68 829.991 737.375C823.823 675.231 852.392 654.395 854.002 606.562C855.623 563.937 829.662 549.955 800.447 544.406C784.87 541.16 768.319 538.88 752.742 537.246C752.413 537.575 753.07 539.856 754.034 540.503C819.266 546.698 867.947 560.351 836.475 643.013C818.62 679.135 813.11 708.743 819.924 748.44" fill="white"/>
<path fill-rule="evenodd" clip-rule="evenodd" d="M837.45 763.726C874.454 763.726 904.304 767.312 904.304 771.863C904.304 776.414 874.443 780 837.45 780C800.458 780 770.597 776.414 770.597 771.863C770.597 767.312 800.458 763.726 837.45 763.726Z" fill="#E9F7F9"/>
<path fill-rule="evenodd" clip-rule="evenodd" d="M774.814 645.93C781.31 614.698 782.11 593.688 771.725 581.329C771.725 595.969 764.101 610.466 754.363 626.728C744.307 645.283 740.736 667.083 743.979 692.129C745.282 701.889 753.717 710.366 755.667 701.242C758.591 686.921 757.934 656.665 774.814 645.919M733.923 540.821C739.444 534.954 747.878 533.002 759.884 535.294C771.857 537.629 784.049 538.605 796.23 538.222C829.98 538.869 851.395 548.968 860.169 568.148C869.25 589.63 877.367 604.281 884.509 612.089C899.44 633.231 908.85 654.055 912.738 674.233C915.017 686.274 922.476 684.322 922.148 673.257C917.284 627.375 910.788 616.31 887.423 580.188C865.679 546.029 844.91 514.798 794.926 516.41C779.262 516.706 763.849 512.528 750.474 504.37C730.023 493.634 712.507 494.599 697.237 506.979C689.131 515.763 678.089 521.63 663.805 524.876C655.042 527.157 648.875 530.403 644.986 534.307C643.365 536.248 643.682 536.917 646.278 535.93C646.87 535.568 647.538 535.349 648.228 535.283L651.153 534.307C656.586 532.475 662.293 531.587 668.033 531.697C674.201 532.026 678.747 532.673 681.343 533.66C684.487 533.506 687.554 534.691 689.777 536.917C704.708 539.516 718.017 539.845 727.098 547.334C731.644 550.58 730.341 545.042 733.912 540.821M875.417 743.22C869.579 738.34 863.083 738.34 856.598 742.891C856.281 746.926 856.598 750.995 857.573 754.932C858.296 757.487 857.814 760.239 856.281 762.41C852.972 762.268 850.179 764.834 850.037 768.146C850.004 768.968 850.135 769.791 850.431 770.558C852.381 771.194 854.648 770.876 857.244 769.9C857.891 770.229 858.537 770.558 859.183 770.876H871.189C872.339 770.734 873.38 770.152 874.114 769.253C879.635 772.181 880.61 771.534 886.777 771.534C892.615 762.75 877.685 762.75 875.417 757.213C876.075 754.603 876.392 749.734 875.417 743.231M816.999 770.569C822.52 772.85 825.762 772.181 826.409 768.935C825.434 759.186 818.62 768.935 819.913 748.44C800.119 743.56 806.603 754.614 801.083 760.48C799.691 761.785 797.785 762.378 795.89 762.103C788.43 761.785 783.885 763.397 782.581 767.63C780.96 771.205 781.924 772.181 785.506 770.569C788.748 769.911 791.016 770.24 792.002 770.887C799.461 773.815 805.3 774.144 809.846 771.863C812.442 770.569 814.71 769.9 816.988 770.569" fill="#C9D5DF"/>
<path fill-rule="evenodd" clip-rule="evenodd" d="M648.25 535.294C654.023 533.473 660.048 532.596 666.094 532.684C672.59 533.002 676.807 534.307 682.975 535.612C685.209 536.204 687.488 536.643 689.788 536.917C690.434 534.954 689.46 533.331 686.863 532.037C682.317 530.074 676.797 529.109 669.665 529.109C662.195 529.789 654.932 531.894 648.25 535.283" fill="#F9F2C9"/>
<path fill-rule="evenodd" clip-rule="evenodd" d="M854.331 745.83C854.977 746.806 855.306 747.135 855.952 746.806C862.448 741.926 868.604 741.608 873.796 745.183C875.418 746.806 878.66 746.159 878.66 744.536C881.256 730.532 884.827 718.503 887.752 707.438C905.925 643.013 887.423 629.349 867.629 573.708C853.356 537.586 825.434 538.233 792.341 534.658C788.453 534.329 783.907 533.682 779.678 533.353C778.703 533.353 772.865 533.682 768.647 534C768.976 534.329 774.486 535.963 779.678 536.61C791.355 538.573 802.08 540.514 812.464 542.476C826.737 544.417 838.425 549.966 847.835 558.421C861.144 570.133 868.276 594.214 869.908 630.983C871.2 649.537 865.69 678.499 853.685 717.878C850.76 728.284 850.76 737.397 854.331 745.852" fill="#EEF6F7"/>
<path fill-rule="evenodd" clip-rule="evenodd" d="M841.022 737.035C846.543 738.34 851.088 741.268 853.027 744.207C853.553 744.656 854.002 745.205 854.32 745.819C847.824 723.7 873.479 677.161 872.822 635.841C872.493 592.558 862.766 549.615 816.999 542.125C799.801 539.198 782.603 536.259 765.723 533.671C760.202 534.318 755.01 536.27 754.363 538.222C757.869 536.796 761.626 536.138 765.405 536.259C769.622 537.235 778.057 538.869 790.72 540.82C820.253 545.7 840.058 555.471 849.785 569.782C861.791 587.349 863.094 612.735 854.331 645.601C849.139 661.545 843.618 681.065 838.425 703.852C836.344 714.95 837.242 726.398 841.022 737.035Z" fill="#EEF5F7"/>
<path fill-rule="evenodd" clip-rule="evenodd" d="M829.991 737.364C833.562 736.059 837.45 736.388 841.021 737.035C833.879 696.691 858.219 661.874 861.473 619.567C863.751 587.36 855.963 558.728 820.581 547.005C799.812 539.845 773.85 537.246 757.945 535.612C756.762 535.864 755.71 536.566 755.031 537.575C756.663 537.531 758.285 537.641 759.895 537.904C767.738 540.174 775.778 541.698 783.906 542.455C813.767 546.687 833.562 555.789 843.3 570.111C850.113 579.871 852.392 595.486 850.442 617.298C847.517 634.547 841.679 652.773 833.244 672.621C825.784 696.055 824.481 717.527 830.002 737.375" fill="#F3F9FB"/>
<path fill-rule="evenodd" clip-rule="evenodd" d="M746.257 531.061C754.363 530.732 765.733 531.39 779.689 533.342C768.001 533.989 747.232 539.856 750.156 550.58C751.449 558.07 744.964 557.094 740.418 555.142C735.872 553.596 731.688 551.162 728.084 547.981C727.569 543.847 728.61 539.669 730.998 536.259C733.594 533.331 738.786 531.39 746.257 531.061Z" fill="#F9F2C9"/>
<path fill-rule="evenodd" clip-rule="evenodd" d="M995.3 588.369C991.948 563.334 1015.78 542.049 1022.5 523.374C1018.77 529.197 1014.12 534.373 1008.72 538.693C1003.71 543.979 999.791 550.197 997.173 556.996C993.777 567.106 993.131 577.93 995.311 588.369" fill="#F9F2C9"/>
<path fill-rule="evenodd" clip-rule="evenodd" d="M1058.25 761.314C1100.35 761.314 1135 765.426 1135 770.657C1135 775.888 1100.35 780 1058.25 780C1016.16 780 981.136 775.899 981.136 770.657C981.136 765.415 1015.78 761.314 1058.25 761.314Z" fill="#E9F7F9"/>
<path fill-rule="evenodd" clip-rule="evenodd" d="M1080.24 750.863C1086.2 752.355 1090.29 755.348 1091.78 759.45C1092.26 761.533 1092.51 763.672 1092.53 765.81C1092.53 769.549 1091.04 771.041 1089.18 769.911C1087.18 769.429 1085.53 768.047 1084.71 766.172C1083.82 768.135 1082.55 769.911 1080.98 771.403C1079.49 772.532 1078 772.532 1076.89 771.403C1075.19 769.659 1073.81 767.641 1072.79 765.437C1071.95 767.345 1070.51 768.913 1068.69 769.922C1067.2 771.414 1065.71 771.414 1064.97 769.922C1061.99 763.573 1061.99 758.715 1064.97 754.976C1065.71 752.739 1066.09 738.176 1066.09 732.934C1068.69 730.697 1069.81 727.33 1071.3 724.72C1072.42 732.572 1076.51 749.01 1080.24 750.874M1038.51 726.223C1026.6 726.979 1019.88 747.892 1019.51 756.862C1019.14 763.957 1021.01 767.696 1025.1 768.453C1028.45 768.453 1030.68 769.199 1031.8 770.69C1034.03 772.192 1035.14 772.192 1035.52 771.436C1036.02 770.394 1036.15 769.21 1035.91 768.08C1037.23 768.935 1038.84 769.199 1040.38 768.826C1041.35 769.1 1042.25 769.615 1042.98 770.317C1045.96 772.203 1048.57 772.565 1050.8 771.074C1051.19 770.317 1051.19 769.582 1051.56 768.826C1053.8 769.199 1054.54 768.464 1053.42 766.216C1052.11 762.904 1049.58 760.228 1046.35 758.748C1044.11 758.002 1043.37 756.138 1043.74 753.517C1043.74 750.523 1042.25 731.103 1038.53 726.234" fill="#CAD5DF"/>
<path fill-rule="evenodd" clip-rule="evenodd" d="M1094.39 737.408C1094.76 736.289 1095.14 734.798 1095.51 733.669C1099.23 720.97 1101.47 710.881 1101.84 704.17C1103.33 685.484 1099.98 667.182 1091.41 648.879C1089.43 645.721 1087.05 642.837 1084.34 640.282C1088.06 658.584 1087.69 680.253 1082.85 705.289C1081.73 721.727 1085.45 732.55 1094.39 737.397M1022.12 756.818C1023.77 753.758 1025.91 750.984 1028.45 748.604C1030.77 746.4 1032.77 743.889 1034.41 741.136C1037.98 734.601 1040.49 727.539 1041.86 720.224C1045.58 700.793 1043.34 678.389 1035.15 653.365C1029.71 637.65 1026.08 621.355 1024.35 604.807C1048.56 644.405 1064.96 703.797 1038.88 738.91C1035.13 743.812 1030.88 748.319 1026.21 752.355C1024.57 753.572 1023.18 755.096 1022.12 756.84" fill="#DDE4E6"/>
<path fill-rule="evenodd" clip-rule="evenodd" d="M1092.53 756.094C1092.19 749.811 1092.81 743.505 1094.39 737.408C1088.8 728.076 1086.94 715.75 1087.69 703.052C1088.43 689.596 1092.16 671.305 1084.34 640.293C1085.51 635.018 1086.13 629.634 1086.2 624.239C1087.24 627.046 1088.1 629.908 1088.8 632.825C1087.51 635.435 1086.02 637.924 1084.34 640.293C1084.71 655.602 1081.73 673.915 1075.77 695.211C1070.93 716.869 1071.67 732.561 1078.38 741.52C1082.62 746.817 1087.36 751.697 1092.53 756.083M1020.63 762.071C1020.63 759.472 1021.55 756.949 1023.23 754.965C1025.1 752.727 1026.59 750.863 1028.45 749.734C1032.83 745.797 1036.49 741.125 1039.25 735.917C1044.83 723.218 1047.81 710.881 1047.44 698.928C1045.95 676.887 1042.59 658.968 1036.64 644.767C1032.17 629.832 1028.07 616.76 1024.35 604.807C1023.24 602.614 1022.01 600.487 1020.63 598.458C1016.9 592.854 1013.18 588.369 1010.2 583.895C1009.45 601.813 1012.43 620.5 1019.14 640.293C1033.67 683.631 1038.5 715.004 1034.41 734.436C1032.27 739.952 1029.12 745.029 1025.1 749.372C1022.12 752.366 1020.63 756.478 1020.63 762.081" fill="#E3EAEC"/>
<path fill-rule="evenodd" clip-rule="evenodd" d="M1076.89 750.863C1078.38 751.993 1080.24 752.728 1082.1 753.846C1085.83 755.349 1089.92 757.586 1091.41 759.088C1092.9 760.59 1093.27 760.579 1092.9 759.45C1092.96 758.32 1092.84 757.18 1092.53 756.094C1070.17 724.71 1077.63 716.123 1082.85 679.892C1084.71 666.82 1086.2 653.749 1084.34 640.293L1083.96 641.412C1083.59 642.53 1083.59 643.66 1083.22 644.406C1079.12 661.951 1074.28 678.762 1068.69 695.211C1062.73 710.147 1064.22 726.574 1072.42 744.876C1073.3 747.256 1074.86 749.328 1076.89 750.863ZM1018.76 763.562C1018.94 764.483 1019.48 765.295 1020.25 765.81C1021 766.918 1021.37 766.556 1021 765.81C1019.87 761.698 1020.63 758.704 1022.12 756.467C1022.9 753.726 1024.45 751.258 1026.58 749.361C1029.08 746.521 1031.21 743.385 1032.92 740.018C1037.39 732.561 1039.25 720.97 1039.25 706.023C1037.1 683.488 1031.83 661.37 1023.59 640.282C1017.15 622.013 1012.65 603.108 1010.19 583.884C1003.48 574.541 1000.49 566.328 1008.32 548.025C1007.58 545.032 1006.83 541.676 1006.09 538.682C1003.64 539.132 1001.14 539.384 998.641 539.428C997.524 543.913 996.779 548.387 996.034 553.245C992.682 574.541 993.427 598.447 997.896 624.963C1003.84 657.839 1029.56 711.638 1026.2 735.544C1025.46 739.272 1023.59 742.639 1021.36 746.356C1018.63 751.653 1017.72 757.684 1018.75 763.551" fill="#EEF5F7"/>
<path fill-rule="evenodd" clip-rule="evenodd" d="M1066.07 736.29C1067.56 742.277 1069.8 746.751 1076.88 750.863C1056.39 716.496 1080.97 678.762 1083.58 642.903C1082.46 647.015 1081.34 651.501 1079.85 655.602C1066.82 690.353 1056.02 702.668 1066.06 736.29M986.712 639.175C993.043 667.193 999.375 694.838 1009.44 718.744C1019.12 740.786 1013.17 756.478 1020.24 765.81C1020.99 766.918 1021.36 766.556 1020.99 765.81C1020.68 764.33 1020.55 762.827 1020.61 761.314C1019.49 757.213 1020.99 751.609 1024.71 744.876C1031.42 737.781 1032.16 725.466 1027.69 707.526C1020.61 680.626 1012.41 648.123 1003.1 610.027C996.768 583.884 998.63 562.972 1008.31 548.025C1007.57 545.032 1006.82 541.676 1006.08 538.682C999.375 539.428 992.66 539.801 985.967 540.174C984.838 545.415 984.105 550.635 982.987 556.623C978.145 586.121 980.008 609.281 986.712 639.164" fill="#F3F9FB"/>
<path fill-rule="evenodd" clip-rule="evenodd" d="M1116.75 661.589C1118.61 639.931 1117.49 617.89 1116 597.34C1112.65 570.078 1100.36 469.969 1061.62 463.982C1055.28 462.853 1045.23 466.23 1042.61 471.45L1044.1 471.088C1051.72 469.432 1059.68 471.351 1065.7 476.308C1074.28 484.521 1079.49 498.349 1082.1 518.143C1083.96 533.09 1086.94 554.386 1090.67 582.031C1094.39 613.778 1102.96 639.931 1116.75 661.589Z" fill="#EEF6F7"/>
<path fill-rule="evenodd" clip-rule="evenodd" d="M1116.75 661.589C1106.32 638.056 1097.37 601.079 1089.92 550.646C1088.8 532.344 1086.57 517.024 1083.22 504.326C1078.38 484.916 1066.46 463.62 1042.61 471.461H1043.73C1051.55 471.099 1057.14 472.952 1060.49 475.946C1069.8 483.414 1074.65 499.852 1074.28 525.633C1075.02 546.929 1079.12 575.32 1086.2 611.178C1094.39 639.186 1102.96 665.712 1112.27 690.375C1114.51 680.922 1116.01 671.305 1116.75 661.611" fill="#EEF5F7"/>
<path fill-rule="evenodd" clip-rule="evenodd" d="M1112.27 690.353C1106.31 651.501 1090.67 636.554 1082.47 572.688C1080.98 562.599 1078.38 542.049 1076.88 512.178C1075.01 491.265 1068.68 467.721 1042.6 471.461C1064.59 470.331 1068.31 494.248 1067.19 518.154C1060.86 632.825 1111.9 664.594 1095.51 733.68C1097.74 725.839 1101.47 718.744 1104.82 711.276C1107.85 704.51 1110.34 697.525 1112.27 690.364" fill="#F3F9FB"/>
<path fill-rule="evenodd" clip-rule="evenodd" d="M997.535 476.681C994.292 484.73 993.021 493.448 993.81 502.089C992.857 511.629 991.367 521.104 989.341 530.48C991.959 530.546 994.566 530.414 997.162 530.096C1013.18 528.232 1022.12 521.882 1023.61 511.048C1023.45 507.177 1022.56 503.372 1021 499.841C1019.51 494.994 1018.76 491.627 1019.51 489.752C1020.25 485.267 1019.51 481.911 1016.9 479.663C1011.06 476.22 1004.13 475.156 997.535 476.67" fill="#F9F2C9"/>
<path fill-rule="evenodd" clip-rule="evenodd" d="M1124.94 651.5C1126.8 657.488 1132.02 655.986 1131.65 650.009C1130.53 629.459 1124.2 603.316 1121.59 581.647C1114.51 521.882 1102.21 441.578 1042.24 436.337C992.693 431.852 954.32 498.349 975.177 537.191C982.253 547.28 985.978 555.877 986.35 562.215C987.095 579.026 989.33 588.731 993.054 592.109C995.661 594.346 996.406 593.6 995.661 590.606C995.661 589.861 995.289 589.115 995.289 588.369C994.544 582.02 994.172 577.524 994.916 574.168C997.239 561.963 1002.34 550.46 1009.83 540.557C1016.53 533.462 1020.63 527.475 1022.49 523.374C1024.35 517.77 1024.72 512.166 1022.49 506.925C1021.74 505.433 1020.63 504.315 1019.51 504.315C1016.53 503.953 1015.41 507.309 1013.55 509.173C1010.2 512.539 1007.59 512.539 1004.98 509.173C989.33 482.657 1020.25 447.917 1056.02 458.751C1044.1 459.124 1037.77 464.739 1031.81 473.698C1028.46 479.301 1031.43 481.538 1036.28 476.681C1044.85 468.094 1053.41 466.23 1062.35 469.224C1088.8 478.929 1092.53 516.663 1097 540.93C1104.07 578.653 1108.92 609.292 1124.94 651.5ZM972.942 599.204C974.432 579.41 978.529 565.955 983.009 556.634C978.168 585.386 981.147 612.648 987.106 638.056C987.851 643.66 987.106 647.015 984.872 648.891C982.637 650.009 980.775 648.507 978.912 644.405C974.071 631.323 972.208 616.387 972.953 599.204" fill="#CAD5DF"/>
<path fill-rule="evenodd" clip-rule="evenodd" d="M1279.49 760.13C1234.53 760.13 1197.94 764.33 1197.94 770.054C1197.94 775.416 1234.53 780 1279.49 780C1324.46 780 1361.42 775.416 1361.42 770.054C1361.42 764.319 1324.83 760.13 1279.49 760.13Z" fill="#E9F7F9"/>
<path fill-rule="evenodd" clip-rule="evenodd" d="M1250.15 755.919C1251.88 755.184 1253.53 754.285 1255.1 753.243C1276.07 741.4 1291.3 715.805 1295.12 692.108C1298.16 673.389 1291.3 659.637 1280.25 635.94C1267.67 609.205 1260.43 569.837 1271.49 538.507C1277.19 518.253 1291.3 468.961 1257.38 463.993C1258.51 465.166 1259.52 466.449 1260.42 467.82C1263.57 473.314 1265.39 479.466 1265.76 485.782C1266.9 498.009 1264.24 511.761 1258.13 526.291C1252.8 538.891 1247.85 554.572 1243.27 574.048C1240.22 587.426 1240.61 602.329 1244.04 619.129C1245.18 628.68 1250.51 645.491 1259.66 669.945C1265.75 689.432 1265.75 709.675 1259.66 730.697C1250.52 762.224 1256.23 739.108 1250.13 755.908M1285.56 734.513C1299.66 729.546 1312.62 731.454 1323.67 740.632C1325.2 743.681 1324.44 748.275 1321.77 754.383C1319.54 754.011 1317.25 754.416 1315.29 755.535C1310.41 756.632 1305.43 757.279 1300.43 757.443C1298.92 754.734 1296.99 752.278 1294.71 750.173C1288.62 743.681 1286.71 740.632 1285.56 734.513Z" fill="#EEF6F7"/>
<path fill-rule="evenodd" clip-rule="evenodd" d="M1237.95 755.919C1240.99 757.827 1244.05 758.221 1247.09 756.675C1248.14 756.609 1249.18 756.346 1250.14 755.919C1263.1 733 1268.43 709.697 1265.39 686.767C1261.19 651.237 1242.51 634.426 1243.66 591.626C1244.8 548.453 1279.87 504.512 1262.33 470.89L1261.95 470.507V470.89C1262.33 472.415 1262.71 473.566 1263.1 475.101C1264.62 481.966 1264.24 490.761 1261.56 500.696C1259.66 508.723 1255.84 517.891 1250.13 527.826C1245.18 536.237 1240.22 547.696 1235.27 561.831C1231.08 572.907 1228.79 586.658 1228.03 603.096C1227.65 621.432 1231.08 640.162 1237.55 658.497C1243.77 674.99 1246.99 692.447 1247.07 710.081C1247.07 710.081 1245.16 721.156 1240.98 743.33C1239.51 747.409 1238.49 751.631 1237.93 755.93M1285.19 734.919C1290.6 732.605 1296.46 731.563 1302.33 731.859C1303.1 741.783 1309.19 749.043 1319.49 754.01C1318.05 754.416 1316.65 754.932 1315.29 755.546C1309.19 756.686 1304.24 757.454 1300.04 757.827C1298.65 754.932 1296.7 752.344 1294.33 750.183C1288.24 743.691 1286.33 740.643 1285.18 734.908" fill="#F3F9FB"/>
<path fill-rule="evenodd" clip-rule="evenodd" d="M1232.24 749.811C1233.57 751.752 1235.1 753.539 1236.81 755.151C1269.58 682.94 1230.32 666.886 1229.95 606.529C1229.57 582.075 1236.05 557.237 1249.01 532.015C1263.87 506.037 1268.07 485.41 1261.97 470.88C1264.26 476.988 1264.26 483.48 1261.97 491.123C1260.45 498.01 1257.4 506.409 1253.2 516.356C1252.07 520.556 1248.25 527.804 1241.38 538.507C1236.82 545.372 1232.24 556.074 1227.29 569.826C1223.86 579.377 1221.2 592.756 1220.06 610.323C1218.91 625.994 1220.43 642.816 1224.63 660.767C1229.34 674.091 1233.03 687.754 1235.68 701.648C1237.96 710.443 1237.58 723.427 1235.29 740.632C1234.14 744.065 1233.39 747.124 1232.25 749.8M1285.21 734.897C1288.2 733.833 1291.26 732.934 1294.36 732.21C1296.27 740.632 1301.6 748.648 1309.98 756.665C1306.55 757.048 1303.12 757.443 1300.45 757.816C1298.8 755.085 1296.88 752.53 1294.73 750.173C1288.64 743.681 1286.74 740.632 1285.2 734.897" fill="#F3F9FB"/>
<path fill-rule="evenodd" clip-rule="evenodd" d="M1229.95 745.995C1230.63 747.321 1231.39 748.593 1232.24 749.822C1244.43 716.573 1239.86 699.005 1230.33 667.292C1222.91 644.91 1220.44 621.18 1223.09 597.745C1225.12 578.741 1230.81 560.318 1239.86 543.496C1253.58 520.939 1260.82 503.361 1261.96 491.145C1253.96 519.042 1220.05 558.015 1213.94 611.113C1207.46 668.048 1242.14 698.61 1229.95 745.995ZM1283.68 735.292C1284.06 735.292 1284.45 734.919 1285.2 734.919C1289.4 742.178 1296.25 749.822 1305.77 757.07C1293.96 758.605 1287.11 756.686 1285.96 750.962C1286.72 749.032 1286.72 746.751 1286.34 743.692C1285.96 739.875 1285.2 737.2 1283.68 735.281" fill="#F6FCFD"/>
<path fill-rule="evenodd" clip-rule="evenodd" d="M1241 743.319C1244.43 750.183 1249.01 755.546 1236.43 760.886C1232.24 763.167 1227.29 762.411 1222.32 759.351C1222.32 759.351 1216.99 755.151 1205.94 746.356C1203.26 744.075 1199.85 743.308 1195.64 745.216C1193.36 746.356 1193.36 745.589 1193.73 744.064C1194.06 742.156 1195.37 740.555 1197.16 739.854C1195.26 736.805 1191.83 736.421 1187.25 738.702C1183.82 740.237 1184.2 739.086 1187.63 735.27C1203.25 721.891 1218.89 734.897 1230.31 739.481C1231.88 739.788 1233.51 739.514 1234.88 738.702C1236.78 737.956 1239.84 740.632 1240.98 743.297M1225.36 452.522C1230.69 449.474 1236.03 446.798 1240.98 444.133C1245.18 442.214 1245.55 437.247 1242.5 429.604C1239.84 421.96 1242.12 417.376 1248.99 415.852C1260.42 413.549 1270.33 416.993 1279.47 426.171C1282.89 429.604 1284.04 433.431 1282.52 436.863C1279.86 442.598 1261.93 439.923 1253.94 444.133C1248.22 447.182 1245.56 452.917 1254.32 460.561C1260.47 466.844 1265.16 474.411 1268.05 482.712C1277.19 508.701 1263.48 532.377 1259.67 558.377C1246.71 650.832 1309.59 656.951 1277.95 719.226C1270.71 734.14 1262.7 746.356 1255.09 753.232C1265 752.475 1268.05 745.973 1282.91 742.156C1303.88 736.421 1322.16 740.248 1338.18 754C1351.89 765.086 1367.14 771.962 1385.04 768.53C1402.19 765.097 1370.56 748.659 1354.55 722.681C1338.55 697.448 1349.98 668.805 1352.26 639.372C1354.17 613.569 1354.55 587.667 1353.4 561.81C1351.12 514.042 1345.78 473.16 1309.57 440.679C1294.71 427.695 1276.43 413.922 1268.8 410.117C1245.94 398.657 1224.98 400.938 1205.93 417.376C1191.44 429.987 1169.72 429.22 1161.34 440.679C1159.44 442.982 1160.2 443.355 1162.87 442.587C1164 442.203 1165.15 441.831 1166.29 441.436C1168.5 440.449 1170.8 439.681 1173.15 439.155C1176.96 438.003 1179.24 438.003 1180.01 438.771C1187.28 438.376 1194.59 438.892 1201.73 440.306C1208.59 442.203 1214.69 446.414 1220.41 453.301C1221.55 454.058 1223.45 453.674 1225.36 452.522ZM1320.63 755.897C1319.85 757.432 1319.58 759.176 1319.86 760.864C1320.24 761.621 1319.86 762.389 1319.48 763.54C1319.09 764.308 1317.19 765.075 1314.53 765.075H1285.18C1283.66 765.075 1283.27 763.924 1284.04 762.772C1282.18 763.924 1280.11 764.713 1277.94 765.075H1266.89C1265.75 765.075 1265.75 763.145 1266.89 761.632C1275.66 750.94 1283.27 754.767 1286.71 748.648C1296.23 751.324 1303.47 755.535 1313.39 753.232C1318.34 752.081 1325.58 749.416 1320.63 755.908M1309.18 494.182C1314.9 544.626 1281.74 569.069 1287.84 626.377C1287.84 575.572 1324.8 535.053 1309.18 494.182Z" fill="#C9D5DF"/>
<path fill-rule="evenodd" clip-rule="evenodd" d="M1166.31 441.469C1170.73 439.966 1175.35 439.067 1180.02 438.804C1184.98 437.28 1191.46 436.523 1198.7 436.128C1203.26 436.128 1206.32 436.128 1206.32 433.847C1206.32 430.788 1198.31 432.312 1196.42 432.312C1186.01 433.99 1175.89 437.082 1166.32 441.48M1233.39 448.366C1243.69 446.063 1263.87 439.955 1268.45 429.253C1269.88 425.239 1269.15 420.776 1266.55 417.409C1260.46 413.966 1244.07 413.582 1241.4 420.842C1239.87 425.053 1241.78 428.869 1243.3 432.696C1246.73 441.096 1241.02 444.166 1233.4 448.355" fill="#F9F2C9"/>
<path d="M1123.22 746.225C1125.49 751.872 1134.34 753.758 1138.57 759.066C1142.8 764.374 1138.67 765.404 1128.93 766.611C1119.2 767.817 1112.41 772.664 1112.41 772.664C1112.41 772.664 1113.07 756.05 1123.21 746.214L1123.22 746.225Z" fill="#CAD5DF"/>
<path opacity="0.05" d="M1126.07 683.335C1129.84 690.539 1132.91 743.363 1112.66 755.721C1092.42 768.08 1082.77 752.826 1069.48 751.62C1058.24 750.611 1036.54 759.844 1029.31 741.4C1031.54 752.015 1036.7 760.974 1044.91 765.185C1045.83 764.735 1047.65 763.77 1048.9 763.068C1052.79 761.994 1058.29 766.238 1056.93 770.481C1059.57 774.067 1073.42 776.875 1083.44 774.385L1087.36 772.313C1092.03 771.896 1095.13 774.495 1097.17 777.774C1104.26 778.004 1114.27 773.563 1122.38 763.474C1130.49 753.375 1137.57 742.716 1136.41 720.575C1135.51 703.37 1131.78 692.897 1126.08 683.346L1126.07 683.335Z" fill="black"/>
<path d="M1136.4 720.564C1135.34 700.376 1130.4 689.465 1122.94 678.422C1114.5 663.3 1119.2 649.274 1100.15 635.271C1095.69 631.992 1094.36 631.027 1096.64 627.693C1097.92 625.873 1100.05 622.309 1101.05 617.659C1103.19 607.658 1099.57 597.559 1094.11 593.479L1076.75 622.956C1058.31 619.041 1050.17 606.715 1050.17 606.715C1037.24 614.183 1030.58 634.602 1036.34 654.362C1039.46 665.021 1042 671.985 1037.81 690.287C1036.55 694.213 1034.99 698.435 1033.05 703.051C1023.74 725.17 1027.26 756.16 1044.91 765.207C1045.83 764.757 1052.62 771.578 1056.93 770.503C1059.57 774.089 1073.42 776.896 1083.44 774.407C1083.44 774.407 1090.07 777.083 1097.17 777.796C1104.27 778.508 1114.27 773.585 1122.38 763.496C1130.48 753.396 1137.57 742.737 1136.41 720.597L1136.4 720.564Z" fill="#E9EBEB"/>
<path d="M1060.74 586.889C1058.17 591.506 1058.91 593.282 1056.63 597.087C1054.35 600.892 1051.03 603.14 1050.17 606.715C1050.17 606.715 1055.09 618.493 1065.18 618.986C1075.26 619.48 1089.82 615.181 1088.32 596.692C1088.19 589.839 1083.25 583.588 1075.68 581.406C1068.12 579.224 1066.55 586.911 1066.55 586.911C1066.55 586.911 1063.64 585.047 1060.73 586.889H1060.74Z" fill="#FAFAFA"/>
<path d="M1056.5 615.697C1055.87 615.028 1055.26 614.326 1054.7 613.602C1054.7 612.845 1057.07 615.028 1058.26 615.565C1061.21 616.892 1064.46 617.769 1067.38 616.387C1068.8 615.707 1069.44 614.907 1070.34 614.019C1071.07 613.295 1071.68 612.385 1072.63 611.946C1073.48 611.551 1074.47 611.639 1075.4 611.727C1078.15 612.001 1080.65 612.626 1083.13 611.069C1084.28 610.345 1085.06 609.15 1085.66 607.933C1087.16 604.928 1087.9 601.452 1087.12 598.129C1086.21 594.236 1083.35 590.935 1079.54 589.674C1074.27 587.931 1071.65 591.571 1069.3 594.137C1068.02 595.53 1065.91 591.988 1063.7 590.815C1061.82 589.828 1059.72 591.473 1059.48 589.477C1059.48 589.477 1061.22 582.875 1063.47 580.276C1070.34 581.428 1069.77 577.327 1073.99 577.414C1079.59 582.086 1089.59 582.327 1097.76 597.57C1099.87 601.803 1098.44 605.717 1097.35 608.963C1095.62 614.063 1091.51 616.563 1091.27 622.024C1091.19 623.811 1091.3 625.785 1090.2 627.189C1088.84 628.922 1086.27 628.998 1084.08 628.779C1073.49 627.726 1063.81 623.384 1056.47 615.697H1056.5Z" fill="#BCCAD4"/>
<path d="M1063.98 570.385C1063.75 571.843 1062.61 581.482 1062.61 581.482C1065.05 580.616 1067.24 582.02 1069.3 583.204C1071.22 584.312 1070.95 581.34 1070.92 579.531C1070.87 577.491 1074.01 577.403 1074.01 577.403C1067.56 570.253 1064.22 568.948 1063.98 570.385Z" fill="#C9D5DF"/>
<path d="M1075.44 597.559C1074.06 597.482 1072.89 598.546 1072.81 599.927C1072.75 601.309 1073.8 602.482 1075.18 602.559C1076.56 602.625 1077.73 601.572 1077.81 600.19C1077.87 598.809 1076.82 597.635 1075.44 597.559Z" fill="#C9D5DF"/>
<path d="M1084.29 666.283C1088.19 671.886 1089.13 677.731 1089.89 688.599C1090.51 697.503 1094.91 718.722 1103.75 727.648C1112.6 736.575 1116.38 732.112 1114.6 723.185C1112.82 714.259 1112.08 710.695 1112.45 701.538C1112.82 692.393 1111.71 685.473 1110.59 682.578C1110.59 682.578 1113.65 687.557 1113.93 702.657C1114.14 713.612 1117.72 723.405 1117.61 728.756C1117.5 734.107 1116.17 737.233 1109.26 735.007C1102.34 732.781 1094.96 723.92 1091.87 712.471C1089.56 703.896 1088.45 699.543 1087.98 685.989C1087.46 670.943 1084.29 666.294 1084.29 666.294V666.283Z" fill="#DEE0E1"/>
</g>
</g>
<defs>
<clipPath id="clip0_281_6647">
<rect width="746" height="377" fill="white" transform="translate(644 403)"/>
</clipPath>
<clipPath id="clip1_281_6647">
<rect width="746" height="377" fill="white" transform="translate(644 403)"/>
</clipPath>
</defs>
</svg>
