<svg viewBox="0 0 353 78" fill="none" xmlns="http://www.w3.org/2000/svg">
<path d="M352.62 2.32007H338V75.4701H352.62V2.32007Z" fill="white"/>
<path d="M293.71 75.4701L279.67 28.4501L265.56 75.4701H251.85L230.46 2.32007H245.76L258.94 50.6901L272.85 5.33007H286.81L300.39 50.4801L313.26 2.32007H328.81L308.26 75.4701H293.71Z" fill="white"/>
<path d="M186.671 77.28C181.341 77.28 176.351 76.33 171.831 74.45C167.301 72.57 163.331 69.89 160.041 66.5C156.741 63.11 154.131 59.01 152.271 54.31C150.411 49.62 149.471 44.37 149.471 38.7C149.471 33.03 150.411 27.58 152.271 22.89C154.131 18.19 156.751 14.14 160.051 10.84C163.351 7.55001 167.321 4.97001 171.851 3.19001C176.371 1.41001 181.361 0.51001 186.681 0.51001C192.001 0.51001 197.101 1.41001 201.651 3.19001C206.221 4.97001 210.221 7.55001 213.541 10.84C216.881 14.14 219.511 18.19 221.371 22.89C223.231 27.58 224.171 32.9 224.171 38.7C224.171 44.5 223.231 49.62 221.371 54.31C219.511 59 216.881 63.1 213.551 66.5C210.221 69.89 206.221 72.57 201.661 74.45C197.101 76.33 192.061 77.28 186.681 77.28H186.671ZM186.761 13.62C183.401 13.62 180.321 14.27 177.621 15.54C174.911 16.82 172.541 18.61 170.601 20.84C168.651 23.09 167.121 25.75 166.051 28.77C164.981 31.8 164.431 35.13 164.431 38.69C164.431 42.25 164.971 45.8 166.051 48.86C167.121 51.91 168.661 54.59 170.651 56.83C172.631 59.07 175.001 60.83 177.711 62.08C180.421 63.33 183.461 63.96 186.761 63.96C190.061 63.96 193.131 63.33 195.871 62.08C198.611 60.83 201.001 59.07 202.981 56.83C204.961 54.59 206.511 51.91 207.571 48.86C208.641 45.79 209.191 42.37 209.191 38.69C209.191 35.01 208.641 31.81 207.571 28.77C206.501 25.75 204.971 23.09 203.021 20.84C201.081 18.61 198.701 16.82 195.961 15.54C193.221 14.26 190.131 13.61 186.771 13.61L186.761 13.62Z" fill="white"/>
<path d="M123 75.4701L107.33 48.3101H98.8104V75.4701H84.1904V2.32007H109.9C113.31 2.32007 116.66 2.68007 119.87 3.40007C123.12 4.13007 126.05 5.34007 128.59 7.01007C131.16 8.70007 133.24 10.9401 134.79 13.6801C136.34 16.4301 137.13 21.5601 137.13 25.4701C137.13 32.6801 132.83 41.7601 122.21 46.3201L139.04 75.4801H123.01L123 75.4701ZM108.2 36.0101C109.96 36.0101 111.74 35.8801 113.49 35.6201C115.18 35.3701 116.75 34.9401 118.07 34.2101C120.83 32.6801 122.52 28.4301 122.52 25.4801C122.52 22.5301 121.06 19.0801 118.76 17.2001C117.09 15.8301 114.48 14.9401 109.31 14.9401H98.8204V36.0101H108.2Z" fill="white"/>
<path d="M40.0404 77.28C34.1804 77.28 28.7504 76.33 23.9004 74.45C19.0404 72.57 14.8004 69.89 11.3104 66.5C7.81039 63.11 5.05039 59 3.09039 54.31C1.14039 49.62 0.150391 44.37 0.150391 38.7C0.150391 33.03 1.17039 27.57 3.20039 22.88C5.22039 18.18 8.04039 14.13 11.5704 10.84C15.1004 7.55002 19.3204 4.98002 24.1104 3.20002C28.8904 1.42002 34.1504 0.52002 39.7304 0.52002C45.3104 0.52002 50.8804 1.37002 55.6904 3.04002C60.5204 4.72002 64.4804 6.97002 67.4504 9.73002L68.1204 10.35L60.4204 23.7C58.7404 21 53.1704 17.01 50.0604 15.66C46.9504 14.31 43.5104 13.63 39.8404 13.63C36.1704 13.63 32.9404 14.28 30.0304 15.56C27.1204 16.84 24.6004 18.62 22.5604 20.86C20.5104 23.1 18.9004 25.77 17.7804 28.79C16.6504 31.82 16.0804 35.15 16.0804 38.71C16.0804 42.27 16.6504 45.82 17.7804 48.88C18.9004 51.93 20.5304 54.61 22.6104 56.85C24.6804 59.08 27.2404 60.85 30.2204 62.09C33.2004 63.34 36.6404 63.98 40.4504 63.98C45.4604 63.98 49.7604 63.29 53.5104 61.83V48.33H46.1004L38.9304 36.02H68.1204V71.4C64.4504 73.17 59.5604 74.83 55.1804 75.81C50.8004 76.79 45.7004 77.29 40.0304 77.29L40.0404 77.28Z" fill="white"/>
</svg>
