<svg viewBox="0 0 48 48" fill="none" xmlns="http://www.w3.org/2000/svg">
<g clip-path="url(#clip0_1207_6558)">
<path d="M47.134 22.5C47.6699 23.4282 47.6699 24.5718 47.134 25.5L36.866 43.2846C36.3301 44.2128 35.3397 44.7846 34.2679 44.7846L13.7321 44.7846C12.6603 44.7846 11.6699 44.2128 11.134 43.2846L0.866028 25.5C0.33013 24.5718 0.33013 23.4282 0.866028 22.5L11.134 4.71539C11.6699 3.78719 12.6603 3.21539 13.7321 3.21539L34.268 3.21539C35.3397 3.21539 36.3301 3.78719 36.866 4.71539L47.134 22.5Z" fill="white"/>
<path d="M16.0962 27.332L12.5626 33.4861C12.4547 33.6759 12.4547 33.9097 12.5626 34.0961L15.2836 38.8337C15.3847 39.0065 15.5904 39.1251 15.7995 39.1251H16.0962L19.4848 33.2286L16.0962 27.332Z" fill="#777570"/>
<path d="M33.9938 24.8076L29.3307 32.9272C29.243 33.0763 29.0845 33.2322 28.8148 33.2322H19.4819L16.0933 39.1254H32.2135C32.4226 39.1254 32.5979 39.0203 32.7058 38.8339L40.7642 24.8042H33.9938V24.8076Z" fill="#777570"/>
<path d="M40.9127 24.5569C41.024 24.3671 41.0307 24.1536 40.9228 23.9639L38.1985 19.2229C38.0906 19.0331 37.9051 18.9111 37.686 18.9111H21.2892C21.0701 18.9111 20.8712 19.0297 20.7599 19.2127L18.1873 23.686L21.5758 29.5893L24.0676 25.2516C24.226 24.9805 24.516 24.8111 24.8262 24.8111H40.7677L40.9127 24.5603V24.5569Z" fill="#777570"/>
<path d="M19.1953 15.2715H35.9292L32.7193 9.68338C32.6114 9.49361 32.426 9.375 32.2068 9.375H15.8101C15.5909 9.375 15.392 9.48344 15.2807 9.67322L7.08068 23.9435C6.97278 24.1333 6.97278 24.3638 7.08068 24.5535L10.2973 30.1519L18.6659 15.5698C18.7738 15.38 18.9761 15.2682 19.1953 15.2682V15.2715Z" fill="#777570"/>
</g>
<defs>
<clipPath id="clip0_1207_6558">
<rect width="48" height="48" fill="white"/>
</clipPath>
</defs>
</svg>
