<svg xmlns="http://www.w3.org/2000/svg" width="160" height="160" viewBox="0 0 16 16"><path d="M4.6 11.4l.4.2h.2v-.2l6.1-6.1a.4.4 0 0 0 .1-.3.5.5 0 0 0-.5-.5h-.3l-6 6.2a.6.6 0 0 0-.1.4c0 .1 0 .3.1.3zm2.8-1a2 2 0 0 1 0 1.1 4.1 4.1 0 0 1-.5.9l-2.1 1.9a1.9 1.9 0 0 1-1.5.7 2 2 0 0 1-1.6-.7 1.9 1.9 0 0 1-.7-1.5 2 2 0 0 1 .7-1.6l1.9-2.1a2 2 0 0 1 2.2-.5l.8-.8a3.2 3.2 0 0 0-1.4-.3 3.3 3.3 0 0 0-2.3.9L1 10.5A3.2 3.2 0 0 0 .9 15H1a2.9 2.9 0 0 0 2.3 1 3.2 3.2 0 0 0 2.3-1l2-1.9a4.6 4.6 0 0 0 .9-1.7 2.9 2.9 0 0 0-.3-1.8zM15 1a2.5 2.5 0 0 0-1-.8 3.1 3.1 0 0 0-3.5.8L8.4 2.9a3.1 3.1 0 0 0-.9 1.8 3.2 3.2 0 0 0 .3 1.9l.8-.8a2 2 0 0 1 0-1.1 2.2 2.2 0 0 1 .5-1.1l2.1-1.9.3-.3.4-.2.4-.2h.5a1.9 1.9 0 0 1 1.5.7 2 2 0 0 1 .7 1.6 1.9 1.9 0 0 1-.7 1.5l-2 2.1-.7.4a1.5 1.5 0 0 1-.9.2h-.4l-.8.8H12l1-.7 2-2.1A3 3 0 0 0 15 1z"/></svg>